<svg id="_003-question" data-name="003-question" xmlns="http://www.w3.org/2000/svg" width="30.431" height="30.423" viewBox="0 0 30.431 30.423">
  <g id="Grupo_251" data-name="Grupo 251" transform="translate(0 0)">
    <path id="Trazado_42323" data-name="Trazado 42323" d="M276.2,98.8a1.738,1.738,0,0,1,.588-1.31,1.819,1.819,0,0,1,1.433-.452,1.776,1.776,0,0,1,1.566,1.555c.063.567-.22,1.12-.946,1.849-.184.185-.355.348-.521.506a3.937,3.937,0,0,0-1.636,3.162v.2h2.629v-.2c0-.445.054-.527.822-1.26.169-.161.36-.344.57-.554a4.879,4.879,0,0,0,1.7-3.991,4.424,4.424,0,0,0-3.89-3.88,4.478,4.478,0,0,0-3.476,1.106A4.394,4.394,0,0,0,273.57,98.8v.14H276.2Zm0,0" transform="translate(-256.715 -94.26)" fill="#7c7c7c"/>
    <path id="Trazado_42324" data-name="Trazado 42324" d="M114.978,109.457l-3.3,3.2a22.429,22.429,0,0,1-4.6-3.578,22.8,22.8,0,0,1-3.6-4.621l3.2-3.237-8.208-8.257-4.046,4.02a5.1,5.1,0,0,0-.993,5.834,44.644,44.644,0,0,0,20.06,20.06,5.023,5.023,0,0,0,2.213.509,5.089,5.089,0,0,0,3.622-1.5l4.027-4.041Zm-18.7-10.615,2.179-2.164,4.519,4.546-2.673,2.707.365.82a22.911,22.911,0,0,0,4.553,6.183,22.5,22.5,0,0,0,6.161,4.528l.809.356,2.759-2.671,4.688,4.7-2.174,2.182a2.474,2.474,0,0,1-2.826.487A42.019,42.019,0,0,1,95.79,101.667,2.472,2.472,0,0,1,96.275,98.842Zm0,0" transform="translate(-92.916 -92.961)" fill="#7c7c7c"/>
    <path id="Trazado_42325" data-name="Trazado 42325" d="M306.934,216.5h2.629v2.629h-2.629Zm0,0" transform="translate(-286.966 -204.977)" fill="#7c7c7c"/>
  </g>
</svg>
