<svg id="_004-mail" data-name="004-mail" xmlns="http://www.w3.org/2000/svg" width="30.431" height="27.663" viewBox="0 0 30.431 27.663">
  <g id="Grupo_252" data-name="Grupo 252" transform="translate(0 0)">
    <path id="Trazado_42327" data-name="Trazado 42327" d="M120.113,116.148H97.029a3.678,3.678,0,0,0-3.674,3.673V134.9a3.678,3.678,0,0,0,3.674,3.674h10.653l.024-.11a7.308,7.308,0,0,1,.953-2.311l.136-.215H97.029a1.039,1.039,0,0,1-1.037-1.037V120.823l12.579,9.357,12.579-9.357v7.013l.055.042a7.63,7.63,0,0,1,.809.716,7.478,7.478,0,0,1,1.5,2.215l.269.608V119.822A3.678,3.678,0,0,0,120.113,116.148Zm-.639,2.636-10.9,8.11-10.9-8.11Zm0,0" transform="translate(-93.355 -116.148)" fill="#7c7c7c"/>
    <path id="Trazado_42328" data-name="Trazado 42328" d="M279.56,240.019v-1.766a5.4,5.4,0,0,0-4.063-5.241V231.34h-2.636v1.671a5.4,5.4,0,0,0-4.063,5.241v1.958a.761.761,0,0,1-.169.532,5.3,5.3,0,0,0-1.539,3.708v1.425h6.274a1.318,1.318,0,1,0,1.63,0h6.274v-1.517a5.12,5.12,0,0,0-1.5-3.6A1.113,1.113,0,0,1,279.56,240.019Zm-5.337-4.536a2.769,2.769,0,0,1,2.7,2.769v1.766a3.558,3.558,0,0,0,.961,2.589,2.676,2.676,0,0,1,.464.631h-8.316a2.868,2.868,0,0,1,.482-.656,3.361,3.361,0,0,0,.919-2.374v-1.958a2.769,2.769,0,0,1,2.7-2.769Zm0,0" transform="translate(-250.837 -220.564)" fill="#7c7c7c"/>
  </g>
</svg>
