<svg id="Grupo_280" data-name="Grupo 280" xmlns="http://www.w3.org/2000/svg" xmlns:xlink="http://www.w3.org/1999/xlink" width="376.434" height="345.499" viewBox="0 0 376.434 345.499">
  <defs>
    <clipPath id="clip-path">
      <rect id="Rectángulo_111" data-name="Rectángulo 111" width="376.432" height="345.498" fill="none"/>
    </clipPath>
  </defs>
  <path id="Trazado_42405" data-name="Trazado 42405" d="M29.614,87.56V246.548l137.691,79.5,137.688-79.5V87.56L167.305,8.064Z" transform="translate(71.441 19.454)" fill="#ffce00"/>
  <g id="Grupo_262" data-name="Grupo 262" transform="translate(0 0)">
    <g id="Grupo_261" data-name="Grupo 261" clip-path="url(#clip-path)">
      <path id="Trazado_42406" data-name="Trazado 42406" d="M178.093,333.781s1.829-26.586,0-31.111a8.794,8.794,0,0,0-5.944-5.34l-.085-.014c2.808-.167,4.44-2.235,4.433-9.831-.007-8.746,1.269-13.53-6.46-14.322l22.229-1.218c-5.265.259-5.327,7.654-5.327,13.527,0,4.59.9,8,2.43,10.538-.119-.167-.188-.28-.188-.28l-1.024,12.609a96.34,96.34,0,0,0,4.2,33.681l6.074,2.628L224.6,330.188l.662-2.133s-.246-4.583-.58-9.988l-.055-.809c8.32,1.061,30.2,2.733,39.458-7.347a13.35,13.35,0,0,0,2.822-7.248l.007.007a10.637,10.637,0,0,0,4.764-11.892h.007l1.28.659s1.993,2.515,5.194-4.573c0,0,27.211-41.615,28.811-63.792l-2.484-5.016a10.723,10.723,0,0,0,3.627-8.93c-.686-6.63-6.176-11.206-6.176-11.206s2.515-.915-1.143-7.545-14.4-40.239-38.41-59.677c0,0-3.887-13.032-13.032-17.147-5.965-2.682-12.012-.7-15.506,1a15.166,15.166,0,0,0-7.507-10.852c-4.7-2.727-10.418-7.248-19.918-9.524l.034.038c.659-1.529.45-2.617.45-4.347a12.805,12.805,0,0,0-3.385-8.575h3.061a4.973,4.973,0,0,0,4.941-4.412l5.62-49.235A24.517,24.517,0,0,0,192.783.353H190a24.515,24.515,0,0,0-24.31,27.675l6.357,48.931a4.977,4.977,0,0,0,4.934,4.334h1.283c-2.116,2.358-2.682,5.334-2.682,8.575a8.34,8.34,0,0,0,.4,3.081C162.051,94.3,151.643,98.385,147,103.927a15.891,15.891,0,0,0-2.286,8.691s-.133.816-.287,2.242a14.1,14.1,0,0,0-2.46-5.729s-9.374-6.859-18.519-2.744-13.032,17.147-13.032,17.147c-18.5,14.97-29.111,38.342-34.691,51.323C72.011,161.522,57.818,136.3,57.818,136.3l-9.3-21.038a3.143,3.143,0,0,0-1.614-1.652l.02-.007a9.708,9.708,0,0,0-8.241-9.828s.334-25.057-16.127-36.226c0,0-11.988,15.619-1.648,37.24,0,0,1.416,5.74,7.265,5.033a9.705,9.705,0,0,0,1.727,9.954l.246-.089c-.5.474-.771.785-.771.785l12.295,39.069s4.791,20.724,8.466,28.443,8,6.552,8,6.552l-.01-.051a16.355,16.355,0,0,0,7.78,10.084c8.132,4.429,15.858-2.942,15.858-2.942l-.29-2.1,2.945,2.43h3.808s21.495-28.579,32.927-44.812,8-20.806,8-20.806a7.512,7.512,0,0,0-.618-1.034,2.924,2.924,0,0,1,.618,1.034s7.8,3,14.981-6.9a61.714,61.714,0,0,0,4.914,21.133l6.173,19.209,1.6,11.432s-.979,5.194,3.825,5.651l1.433-4.051s.413-.171,1.153-.423l.027,0-1.181.42-1.433,5.259s-.549,7.647,1.358,11.974a4.066,4.066,0,0,0,2.529,2.242,15.26,15.26,0,0,0-1.539.188c-8.094,1.6-14.4,21.645-14.4,21.645-2.286,8.589-1.774,24.955-1.031,36.349a12.664,12.664,0,0,0,10.722,11.694c-1.027.061-2.116.123-3.334.184-5.265.259-9.33,7.948-9.33,13.82,0,6.04,1.116,8.589,3.191,9.568-1.515-.44-5.685,17.861-5.685,17.861M38.688,103.777a9.7,9.7,0,0,0-7.872,2.29c-.034.027-.061.061-.092.089,1.921-2.15,4.767-4.132,7.965-2.378m231.7,133.7c-1.549,12.012-11.07,36.039-13.94,43.1a2.345,2.345,0,0,0,1.1,2.972,10.691,10.691,0,0,0-6.688,8.043c-5.388,3.013-20.13,11.694-26.61,19.847-.307-4.446-.631-8.442-.884-9.954a11.617,11.617,0,0,0-4.279-6.712l0,.007a18.4,18.4,0,0,0,1.887-9.3c-.28-9.391-1.31-15.622-10.708-15.622a10.028,10.028,0,0,0,9.975-11.08c-1.228-11.677-3.365-29.688-5.712-39.355-3.658-15.073-14.981-16.939-14.981-16.939a3.781,3.781,0,0,0,3.733-3.126,51.872,51.872,0,0,0,.655-10.135s5.487-.229,6.63-5.716,6.74-21.949,6.74-21.949,9.217-7.316,14.066-21.6l.02-.184c6.292,6.023,12.247,3.74,12.247,3.74a2.909,2.909,0,0,1,.614-1.034,7.481,7.481,0,0,0-.614,1.034s-3.429,4.573,8,20.806,32.923,44.815,32.923,44.815h1.6v2.286s-13.947,11.889-15.776,26.064" transform="translate(40.309 0.852)" fill="#fff"/>
      <path id="Trazado_42407" data-name="Trazado 42407" d="M85.826,150.056h0a96.022,96.022,0,0,1-4.013-32.77l.949-11.664a1.206,1.206,0,0,0,.1-1.385c-1.5-2.481-2.256-5.815-2.256-9.913,0-6.357.317-12.083,4.129-12.322h.058a1.207,1.207,0,0,0-.065-2.413l-.136,0-22.16,1.218a1.207,1.207,0,0,0-.058,2.406c5.361.546,5.559,2.645,5.422,9.831-.02,1.027-.041,2.123-.041,3.29,0,8.429-2.065,8.552-3.3,8.627a1.17,1.17,0,0,0-1.085,1.123,1.246,1.246,0,0,0,1,1.276,7.552,7.552,0,0,1,5.067,4.61c1.266,3.129.642,20-.085,30.575a1.206,1.206,0,0,0,2.406.167c.191-2.75,1.8-27-.082-31.647a10.076,10.076,0,0,0-4.02-4.859c2.15-1.884,2.515-5.777,2.512-9.876,0-1.15.017-2.228.038-3.238.089-4.416.157-8.019-2.071-10.179l11.991-.659c-1.931,3.088-1.931,8.231-1.931,12.066a22.227,22.227,0,0,0,2.218,10.483l-1,12.3a96.58,96.58,0,0,0,4.269,34.155,1.208,1.208,0,0,0,.543.655l2.283-.652c-2.283.652-.751-1.1-.676-1.208" transform="translate(147.85 192.003)" fill="#333"/>
      <path id="Trazado_42408" data-name="Trazado 42408" d="M71.14,103.588a1.206,1.206,0,0,0-.2,2.4c.43.075,10.6,1.976,14.008,16.032,2.392,9.855,4.586,28.791,5.682,39.2a8.82,8.82,0,0,1-8.773,9.742,1.206,1.206,0,1,0,0,2.413c7.811,0,9.2,4.262,9.5,14.455a17.277,17.277,0,0,1-1.744,8.7,1.22,1.22,0,0,0-.14.566,1.2,1.2,0,0,0,.59,1.037A10.4,10.4,0,0,1,93.771,204c.215,1.276.508,4.586.87,9.838a1.213,1.213,0,0,0,.846,1.072,1.3,1.3,0,0,0,.358.055,1.206,1.206,0,0,0,.945-.457c6.272-7.886,20.451-16.3,26.252-19.546a1.2,1.2,0,0,0,.6-.833,9.531,9.531,0,0,1,5.938-7.135,1.2,1.2,0,0,0,.123-2.2,1.143,1.143,0,0,1-.543-1.447c2.894-7.112,12.455-31.258,14.022-43.4,1.747-13.534,15.226-25.184,15.363-25.3a1.217,1.217,0,0,0,.423-.918v-2.286a1.206,1.206,0,0,0-1.208-1.208h-1c-2.87-3.822-22.061-29.419-32.541-44.3-9.917-14.083-8.241-18.881-7.937-19.522l.041-.075a6.06,6.06,0,0,1,.515-.863,1.207,1.207,0,0,0-1.921-1.457,5.1,5.1,0,0,0-.566.809c-1.4.338-5.8.911-10.534-3.614a1.2,1.2,0,0,0-1.232-.3,1.135,1.135,0,0,0-.764.973A48.966,48.966,0,0,1,88.148,62.922a1.215,1.215,0,0,0-.392.556c-.229.672-5.634,16.595-6.777,22.092a6.01,6.01,0,0,1-5.5,4.757,1.2,1.2,0,0,0-1.153,1.239,50.439,50.439,0,0,1-.642,9.893,2.567,2.567,0,0,1-2.542,2.129m4.921-1.716a51.642,51.642,0,0,0,.693-9.285,8.286,8.286,0,0,0,6.586-6.525c1.027-4.931,5.8-19.154,6.589-21.485a50.742,50.742,0,0,0,13.633-20.389A13.656,13.656,0,0,0,113.58,47.4c-.229,2.907.894,8.889,8.668,19.929,11.312,16.062,32.732,44.559,32.944,44.843a1.209,1.209,0,0,0,.966.481h.4v.536c-2.426,2.174-14.059,13.223-15.765,26.457-1.532,11.848-11,35.749-13.865,42.792a3.549,3.549,0,0,0,.181,3.064,11.981,11.981,0,0,0-5.716,7.623c-5.627,3.174-17.618,10.37-24.546,17.663-.276-3.716-.505-6.077-.689-7.183a12.4,12.4,0,0,0-3.969-6.835,20.342,20.342,0,0,0,1.587-9.009c-.215-7.241-.935-13.5-6.4-15.827a11.227,11.227,0,0,0,5.661-10.964c-1.348-12.79-3.436-30.029-5.74-39.516-2.6-10.708-8.865-15.076-12.732-16.8a4.965,4.965,0,0,0,1.5-2.781" transform="translate(168.713 98.533)" fill="#333"/>
      <path id="Trazado_42409" data-name="Trazado 42409" d="M306.8,219.15a11.76,11.76,0,0,0,3.361-9.3c-.56-5.409-4.02-9.48-5.7-11.165a3.041,3.041,0,0,0,.133-.3c.638-1.7,0-4.306-1.894-7.739-.655-1.184-1.59-3.378-2.774-6.153-5.224-12.24-16.069-37.639-35.653-53.65-.723-2.225-4.8-13.592-13.578-17.54-5.716-2.57-11.5-1.123-15.117.379a16.385,16.385,0,0,0-7.784-10.172c-.925-.536-1.887-1.14-2.911-1.785a55.737,55.737,0,0,0-16.042-7.538,10.656,10.656,0,0,0,.133-2.512l-.014-.955a13.621,13.621,0,0,0-2.167-7.367h.635a6.181,6.181,0,0,0,6.142-5.48l5.617-49.238A25.721,25.721,0,0,0,193.631,0h-2.788a25.722,25.722,0,0,0-25.508,29.033L171.7,77.967a6.2,6.2,0,0,0,5.143,5.306,15.239,15.239,0,0,0-1.617,7.446,12.837,12.837,0,0,0,.106,2.027C162,94.234,151.7,98.309,146.864,104.079a15.5,15.5,0,0,0-2.293,6.371,9.914,9.914,0,0,0-1.044-1.44c-.406-.3-10.053-7.224-19.727-2.87-8.777,3.948-12.855,15.315-13.581,17.54-16.206,13.247-26.368,32.5-33.462,48.583-4.689-13.687-16.5-34.735-16.987-35.6l-9.3-21.034a4.366,4.366,0,0,0-1.495-1.853,10.922,10.922,0,0,0-8.244-10.135c-.126-4.91-1.553-25.992-16.646-36.24a1.2,1.2,0,0,0-1.635.266c-.126.16-12.319,16.458-1.863,38.264a7.852,7.852,0,0,0,6.8,5.985,10.875,10.875,0,0,0,1.836,8.736,1.215,1.215,0,0,0-.15,1.034l12.271,38.98c.195.85,4.863,20.939,8.552,28.688,2.942,6.18,6.439,7.214,8.231,7.292a17.266,17.266,0,0,0,8.05,9.831c8.794,4.794,17.188-3.047,17.27-3.126a1.18,1.18,0,0,0,.225-.293l.826.682a1.2,1.2,0,0,0,.768.276h3.812a1.209,1.209,0,0,0,.966-.481c.215-.287,21.635-28.78,32.947-44.843,7.821-11.107,8.91-17.093,8.7-19.922,2.686.28,7.521-.16,12.35-5.409a59.693,59.693,0,0,0,4.713,18.431l6.129,19,1.577,11.258a6.962,6.962,0,0,0,1.058,4.866,4.926,4.926,0,0,0,2.808,1.815l-.027.1c-.024.324-.546,8,1.457,12.544a5.222,5.222,0,0,0,.665,1.112c-7.92,3.068-13.489,20.1-14.141,22.171-2.3,8.633-1.85,24.74-1.068,36.735a13.969,13.969,0,0,0,6.661,10.954c-4.968,1.662-8.6,8.688-8.6,14.667,0,5.122.792,8.19,2.611,9.821-1.31,2.46-3.01,8.268-5.078,17.339a1.207,1.207,0,1,0,2.355.536c1.638-7.183,3.931-15.5,4.931-17a1.205,1.205,0,0,0,.089-2.218c-1.16-.549-2.5-2.01-2.5-8.48,0-5.5,3.778-12.4,8.186-12.616,1.222-.058,2.314-.123,3.344-.184a1.206,1.206,0,0,0,.109-2.4,11.527,11.527,0,0,1-9.7-10.582c-.771-11.814-1.222-27.641.976-35.906,1.7-5.385,7.429-19.625,13.486-20.826.341-.065.826-.119,1.406-.171a1.207,1.207,0,0,0,.259-2.355,2.876,2.876,0,0,1-1.785-1.577c-1.74-3.955-1.276-11.169-1.3-11.169l1.266-4.651.59-.208a1.193,1.193,0,0,0,.778-1.286,1.226,1.226,0,0,0-1.1-1.054,1.212,1.212,0,0,0-.505.061c-.785.266-1.222.447-1.222.447l-.007,0a1.218,1.218,0,0,0-.648.648v0l-.02.058-1.092,3.075a2.447,2.447,0,0,1-1.256-.857,4.708,4.708,0,0,1-.587-3.2,1.218,1.218,0,0,0,.007-.386l-1.645-11.633L151,150.928a59.879,59.879,0,0,1-4.808-20.717,1.207,1.207,0,0,0-2.181-.631c-5.634,7.767-11.473,7.023-13.124,6.617a5.469,5.469,0,0,0-.57-.809,1.206,1.206,0,0,0-1.918,1.461,7.121,7.121,0,0,1,.485.788,1.174,1.174,0,0,0,.126.232c.092.177,2.331,4.777-7.992,19.437-10.483,14.882-29.671,40.478-32.541,44.3H85.706l-2.61-2.153a1.206,1.206,0,0,0-1.962,1.1l.2,1.454c-1.679,1.406-7.712,5.784-13.994,2.358A15.165,15.165,0,0,1,60.14,195a1.184,1.184,0,0,0-1.423-.816.985.985,0,0,0-.171.051c-.7.065-3.668-.041-6.47-5.921-3.576-7.514-8.33-27.989-8.4-28.286L31.592,121.646c.072-.072.15-.15.239-.232a1.129,1.129,0,0,0,.068-1.464,1.063,1.063,0,0,0-.488-.41,8.5,8.5,0,0,1-1.263-8.425,1.209,1.209,0,0,0-1.269-1.638c-4.586.546-5.825-3.648-6.03-4.354-8.456-17.687-1.4-31.357.87-35.018C36.1,79.346,37.99,97.254,38.28,102.881c-2.539-.529-5.183.607-7.61,3.324a1.149,1.149,0,0,0,.089,1.607,1.269,1.269,0,0,0,1.7.014,8.475,8.475,0,0,1,6.893-2h0a8.5,8.5,0,0,1,7.217,8.4,1.512,1.512,0,0,0-.02.174,1.21,1.21,0,0,0,.7,1.164,1.947,1.947,0,0,1,1.013,1.044l9.343,21.137c.143.253,14.165,25.252,17.8,38.291a1.21,1.21,0,0,0,1.082.884,1.225,1.225,0,0,0,1.188-.73c7.074-16.462,17.366-37.12,34.339-50.859a1.214,1.214,0,0,0,.4-.594c.038-.126,3.849-12.558,12.373-16.393,8.3-3.73,17.045,2.426,17.107,2.426v0a12.865,12.865,0,0,1,2.2,5.228,1.19,1.19,0,0,0,1.249.928,1.211,1.211,0,0,0,1.126-1.075c.15-1.368.276-2.163.293-2.375a15.154,15.154,0,0,1,2.006-7.917c4.535-5.409,14.8-9.254,28.17-10.551a1.205,1.205,0,0,0,1.034-1.563,7.284,7.284,0,0,1-.341-2.72c0-3.542.734-5.938,2.372-7.767a1.206,1.206,0,0,0-.9-2.013h-1.283a3.778,3.778,0,0,1-3.737-3.283l-6.361-48.934a23.306,23.306,0,0,1,23.116-26.31h2.788a23.309,23.309,0,0,1,23.157,25.948L211.171,77.6a3.766,3.766,0,0,1-3.743,3.341h-3.064a1.208,1.208,0,0,0-.9,2.013,11.525,11.525,0,0,1,3.078,7.767l.017,1.02a6.353,6.353,0,0,1-.283,2.645l-.048.075a1.239,1.239,0,0,0,.218,1.461,1.212,1.212,0,0,0,.819.351c7.265,1.792,12.285,4.951,16.328,7.494,1.051.662,2.037,1.283,2.986,1.832a13.864,13.864,0,0,1,6.914,9.968,1.21,1.21,0,0,0,.628.9,1.194,1.194,0,0,0,1.1.02c3.655-1.781,9.128-3.4,14.486-.986,8.524,3.836,12.333,16.267,12.37,16.393a1.238,1.238,0,0,0,.4.594c19.294,15.619,30.06,40.83,35.233,52.947,1.259,2.952,2.17,5.081,2.883,6.371,2.611,4.733,1.764,5.818,1.781,5.832a1.2,1.2,0,0,0-.771.921,1.219,1.219,0,0,0,.416,1.136c.051.041,5.119,4.358,5.746,10.4a9.473,9.473,0,0,1-3.255,7.931,1.211,1.211,0,0,0-.253,1.416l2.334,4.716c-1.8,21.7-28.32,62.482-28.681,63.055-1.768,3.921-2.935,4.266-3.143,4.32a1.3,1.3,0,0,0-.4-.324l-1.3-.662a1.207,1.207,0,0,0-1.706,1.389,9.41,9.41,0,0,1-4.126,10.49,1.2,1.2,0,0,0-.686,1.034,12.255,12.255,0,0,1-2.5,6.484c-8.8,9.589-29.8,8.064-38.417,6.965a1.208,1.208,0,0,0-1.358,1.276l.055.805c.259,4.235.6,10.241.679,11.653l-.16.116a4.605,4.605,0,0,1,.6.276l1.437-1.208a1.2,1.2,0,0,0,.43-.986s-.229-4.231-.543-9.364c9.719,1.1,29.968,1.989,39.083-7.937a14.693,14.693,0,0,0,3.058-7.33,11.816,11.816,0,0,0,5.194-9.831c0-.181-.007-.365-.014-.553a2.535,2.535,0,0,0,1.017.078c1.727-.215,3.361-2.078,4.907-5.535,1.116-1.71,27.4-42.126,29-64.365a1.189,1.189,0,0,0-.123-.621Z" transform="translate(39.462 0)" fill="#333"/>
      <path id="Trazado_42410" data-name="Trazado 42410" d="M81.133,21.1c-10.3,0-18.652,2.563-18.652,5.726,0,1.628,2.225,3.092,5.777,4.136a3.4,3.4,0,0,1,1.1-.979,24.171,24.171,0,0,1,10.923-2.839c4.03-.061,8.429,1.014,11.281,4.04.1.106.174.218.263.328,4.808-1.034,9.156-3.16,7.958-4.685C97.694,24.16,91.435,21.1,81.133,21.1" transform="translate(150.731 50.907)" fill="#b3b3b3"/>
      <path id="Trazado_42411" data-name="Trazado 42411" d="M81.926,48.52c0-3.3,1.392-9.381,3.76-11.821.13-.133,1.768,1.054,1.908.942-.921-4.521-1.044-4.965-2.921-4.965-2.884,0-7.576,11.261-7.576,20.048s2.365,17,5.248,17c1.573,0,2-5.75,2.962-9.108-2.181-2.457-3.382-8.848-3.382-12.094" transform="translate(185.991 78.828)" fill="#ccc"/>
      <path id="Trazado_42412" data-name="Trazado 42412" d="M85.793,51.612C72.556,50.9,59.511,54.662,57.8,60.341a4.131,4.131,0,0,1,3.283,3.7c.747-3.249,3.494-5.409,6.545-6.446,5.924-2.01,12.981-.952,19-.078,4.989.723,9.889,1.85,14.83,2.849,2.846.573,3.655,3.129,3.017,5.3.355.017.706.034,1.061.055.048,0,.1.017.147.02a3.678,3.678,0,0,1,3.228-1.914c-.287-6.136-9.33-11.469-23.123-12.21" transform="translate(139.441 124.302)" fill="#e6e6e6"/>
      <path id="Trazado_42413" data-name="Trazado 42413" d="M82.749,73.551c5.228.017,10.432.222,15.66.362q1.418.036,2.836.024L112.2,72.159a19.157,19.157,0,0,0,2.464-1.184c-1.942-2.539-7.722-8.65-7.722-8.65C99.678,58.219,81.9,59.8,81.9,59.8c-13.585.191-18.325,2.529-18.325,2.529a21.669,21.669,0,0,0-6.654,8.05c7.606,3.665,17.775,3.153,25.829,3.177" transform="translate(137.315 143.534)" fill="#e6e6e6"/>
      <path id="Trazado_42414" data-name="Trazado 42414" d="M75.72,35.1S66.346,28.241,57.2,32.357,44.169,49.5,44.169,49.5,62,58.878,62.917,62.307c0,0,6.5,4.637,14.049-7.937C76.966,54.37,79.607,39.673,75.72,35.1Z" transform="translate(106.554 74.886)" fill="none" stroke="#333" stroke-width="0.34"/>
      <path id="Trazado_42415" data-name="Trazado 42415" d="M34,87.775c3.658-6.63,10.681-31.889,34.687-51.323,0,0,15.779,6.63,18.751,12.8,0,0,3.43,4.573-8,20.806s-32.927,44.815-32.927,44.815H42.7L38.978,111.8" transform="translate(82.03 87.938)" fill="none" stroke="#333" stroke-width="0.34"/>
      <path id="Trazado_42416" data-name="Trazado 42416" d="M98.346,81.293h3.061a4.977,4.977,0,0,0,4.945-4.412l5.617-49.234A24.512,24.512,0,0,0,87.613.354H84.822a24.514,24.514,0,0,0-24.31,27.671L66.873,76.96a4.975,4.975,0,0,0,4.934,4.334h1.986" transform="translate(145.479 0.854)" fill="none" stroke="#333" stroke-width="0.354"/>
      <path id="Trazado_42417" data-name="Trazado 42417" d="M95.642,42.81l-2.754-.488c.642-1.488.314-3.061.314-4.668a13.84,13.84,0,0,0-27.678,0A11.538,11.538,0,0,0,65.6,41.2l-1.908.372a12.959,12.959,0,0,1-.607-3.921C63.084,29.686,70.39,22,79.365,22S94.257,27.83,96.038,35.6c.314,1.372.311,5.569-.4,7.214" transform="translate(152.186 53.069)" fill="#333"/>
      <path id="Trazado_42418" data-name="Trazado 42418" d="M64.177,27.017,63.5,25.986C63.825,25.775,71.507,22,78.359,22c6.821,0,13.281,4.081,13.6,4.255l.624,1.085c-.075-.041-7.719-4.109-14.226-4.109-6.487,0-14.107,3.737-14.182,3.788" transform="translate(153.192 53.066)" fill="#333"/>
      <path id="Trazado_42419" data-name="Trazado 42419" d="M143.923,49.443a15.067,15.067,0,0,0-7.545-11.2c-7.088-4.115-17.833-10.974-37.728-10.746s-35.667,3.88-41.611,10.971a15.891,15.891,0,0,0-2.286,8.691S51.323,67.962,59.1,85.113l6.173,19.205,1.6,11.432s-.979,5.194,3.822,5.651l1.437-4.051s21.526-8.917,41.843,3.658v2.744s5.487-.229,6.63-5.716,6.74-21.949,6.74-21.949,9.214-7.316,14.066-21.6" transform="translate(130.269 66.314)" fill="none" stroke="#333" stroke-width="0.361"/>
      <path id="Trazado_42420" data-name="Trazado 42420" d="M82.273,33.855a25.055,25.055,0,0,0-1.6,23.321" transform="translate(189.404 81.673)" fill="none" stroke="#333" stroke-linecap="round" stroke-width="0.355"/>
      <path id="Trazado_42421" data-name="Trazado 42421" d="M81.884,37.2s9.374-6.859,18.519-2.744S113.435,51.6,113.435,51.6,95.6,60.977,94.687,64.407c0,0-4.105,1.58-9.1-1.334a14.921,14.921,0,0,1-7.064-14.4C78.915,44.57,79.819,39.629,81.884,37.2Z" transform="translate(189.254 79.949)" fill="none" stroke="#333" stroke-width="0.34"/>
      <path id="Trazado_42422" data-name="Trazado 42422" d="M141.854,105.772s2.515-.915-1.143-7.545-14.4-40.243-38.414-59.677c0,0-15.776,6.63-18.748,12.8,0,0-3.429,4.573,8,20.809s32.927,44.812,32.927,44.812h3.808Z" transform="translate(200.392 93.001)" fill="none" stroke="#333" stroke-width="0.34"/>
      <path id="Trazado_42423" data-name="Trazado 42423" d="M112.29,79.741s6.016-3.658,5.33-10.288-6.173-11.2-6.173-11.2l-13.568,11.2H95.671v2.286l13.718,3.43Z" transform="translate(230.799 140.524)" fill="none" stroke="#333" stroke-width="0.34"/>
      <path id="Trazado_42424" data-name="Trazado 42424" d="M102.325,141.573l1.283.655s1.989,2.515,5.19-4.573c0,0,27.211-41.611,28.811-63.792l-2.484-5.013-1.7,1.355-2.9-4.573L116.8,62.2s-13.95,11.889-15.779,26.068c-1.549,12.012-11.07,36.039-13.94,43.092a2.349,2.349,0,0,0,1.112,2.979" transform="translate(209.667 150.06)" fill="none" stroke="#333" stroke-width="0.34"/>
      <path id="Trazado_42425" data-name="Trazado 42425" d="M102.793,90.736l-6.026-4.556A17.191,17.191,0,0,0,88.218,82.8l-.631-.068" transform="translate(211.297 199.59)" fill="none" stroke="#333" stroke-linecap="round" stroke-width="0.34"/>
      <path id="Trazado_42426" data-name="Trazado 42426" d="M101.424,102.962a10.691,10.691,0,1,0-16.117-10.78" transform="translate(205.797 200.56)" fill="none" stroke="#333" stroke-linecap="round" stroke-width="0.361"/>
      <path id="Trazado_42427" data-name="Trazado 42427" d="M119.43,104.877s7.088-8.347-1.143-15.892c0,0-6.06-4.344-10.06-3.542,0,0-28.811,15.2-31.555,26.293C76.672,111.736,107.882,117.451,119.43,104.877Z" transform="translate(184.966 205.886)" fill="none" stroke="#333" stroke-linecap="round" stroke-linejoin="round" stroke-width="0.707"/>
      <path id="Trazado_42428" data-name="Trazado 42428" d="M97.832,75.78a3.78,3.78,0,0,0,3.733-3.129,51.812,51.812,0,0,0,.655-10.131V59.776s-6.467-5.166-18.973-6.49a72.19,72.19,0,0,0-8.63-.413c-3.259-.044-9.176,1.263-13.892,2.481l-.348.764-1.433,5.259s-.549,7.647,1.358,11.971a4.091,4.091,0,0,0,3.754,2.433Z" transform="translate(142.021 127.549)" fill="none" stroke="#333" stroke-width="0.361"/>
      <path id="Trazado_42429" data-name="Trazado 42429" d="M107.477,59.9s11.322,1.867,14.981,16.939c2.348,9.664,4.484,27.678,5.712,39.356.624,5.924-4.709,10.927-13.616,11.254l-37.407,1.969H67.115c-4.225.355-11.162-4.62-11.612-11.524-.744-11.394-1.256-27.76,1.031-36.349,0,0,6.31-20.045,14.4-21.645C76.024,58.895,107.477,59.9,107.477,59.9Z" transform="translate(132.376 143.428)" fill="none" stroke="#333" stroke-width="0.361"/>
      <path id="Trazado_42430" data-name="Trazado 42430" d="M66.594,94.1c0,13.489,7.617,17.014,17.014,17.014s16.171-4.9,15.81-17.014c-.28-9.394-.106-14.417-9.5-14.417-3.525,0-12.455.587-16.912.805C67.741,80.747,66.594,88.227,66.594,94.1Z" transform="translate(160.653 192.227)" fill="none" stroke="#333" stroke-width="0.361"/>
      <path id="Trazado_42431" data-name="Trazado 42431" d="M54.488,93.9c0,13.489,5.555,9.592,14.953,9.592S85.37,110.4,85.357,95.217c-.007-9.4,1.075-14.08-8.323-14.08-3.525,0-8.76-1.28-13.216-1.058C58.552,80.339,54.488,88.027,54.488,93.9Z" transform="translate(131.448 193.123)" fill="none" stroke="#333" stroke-width="0.361"/>
      <path id="Trazado_42432" data-name="Trazado 42432" d="M71.283,133.882A96.388,96.388,0,0,1,67.075,100.2L68.1,87.592s5.149,8.494,17.475,6.6A22.139,22.139,0,0,0,99.214,86.63a14.161,14.161,0,0,1,3.075,6.712c.253,1.522.577,5.552.887,10.029" transform="translate(161.387 208.989)" fill="none" stroke="#333" stroke-width="0.361"/>
      <path id="Trazado_42433" data-name="Trazado 42433" d="M77.654,93.458c.334,5.405.58,9.992.58,9.992" transform="translate(187.335 225.461)" fill="none" stroke="#333" stroke-width="0.361"/>
      <path id="Trazado_42434" data-name="Trazado 42434" d="M53.757,104.78s4.167-18.3,5.682-17.861a50.36,50.36,0,0,0,7.62.154,55.186,55.186,0,0,1,8.654.485l7.06.955a8.8,8.8,0,0,1,5.944,5.34c1.829,4.525,0,28.224,0,28.224" transform="translate(129.685 209.668)" fill="none" stroke="#333" stroke-width="0.361"/>
      <path id="Trazado_42435" data-name="Trazado 42435" d="M45.72,53.718s-8.132.43-12.6,4.347l-4.474,3.914s.345,9.422,8.476,13.851,15.018-2.607,15.018-2.607l-.966-13.329a7.456,7.456,0,0,0-5.439-6.173Z" transform="translate(69.102 129.591)" fill="none" stroke="#333" stroke-width="0.34"/>
      <path id="Trazado_42436" data-name="Trazado 42436" d="M39.566,35.462l9.3,21.034S63.9,80.219,66.77,97.445c.321,1.931.259,3.917-1.211,5.207,0,0-8.07,1.246-10.34,2.795s-6.74,5.467-6.74,5.467l.706,3.819s-4.324,1.17-8-6.548S32.72,79.738,32.72,79.738l-12.3-39.069s4.559-5.2,11.1-6.067C31.523,34.6,37.8,31.47,39.566,35.462Z" transform="translate(49.267 80.656)" fill="none" stroke="#333" stroke-width="0.34"/>
      <path id="Trazado_42437" data-name="Trazado 42437" d="M39.3,40.571a9.717,9.717,0,1,0-17.028,6.173" transform="translate(47.935 73.886)" fill="none" stroke="#333" stroke-width="0.34"/>
      <path id="Trazado_42438" data-name="Trazado 42438" d="M38.688,56.272s.334-25.057-16.127-36.226c0,0-11.988,15.615-1.648,37.24,0,0,1.416,5.74,7.265,5.033C28.178,62.319,32.85,53.071,38.688,56.272Z" transform="translate(40.309 48.359)" fill="none" stroke="#333" stroke-width="0.34"/>
      <path id="Trazado_42439" data-name="Trazado 42439" d="M28.891,63.181l-.925-.7c7.443-11.776,18.359-9.565,18.782-9.5l-.171,1.147c-.1-.014-9.835-1.327-17.687,9.05" transform="translate(67.466 127.321)" fill="#333"/>
      <path id="Trazado_42440" data-name="Trazado 42440" d="M55.444,37.6a5.494,5.494,0,0,0,5.7,2.494c15.451-3.051,37.779-4.829,55.623,0,15.919,4.31,17.188,0,17.188,0a58.681,58.681,0,0,0-27.852-11.5c-16.5-2.027-37.124-1-50.654,9.005" transform="translate(133.755 66.912)" fill="#e6e6e6"/>
      <path id="Trazado_42441" data-name="Trazado 42441" d="M225.263,328.055s-.246-4.583-.58-9.988l-.055-.809c8.32,1.061,30.2,2.733,39.458-7.347a13.35,13.35,0,0,0,2.822-7.248l.007.007a10.637,10.637,0,0,0,4.764-11.892h.007l1.28.659s1.993,2.515,5.194-4.573c0,0,27.211-41.615,28.811-63.792l-2.484-5.016a10.723,10.723,0,0,0,3.627-8.93c-.686-6.63-6.176-11.206-6.176-11.206s2.515-.915-1.143-7.545-14.4-40.239-38.41-59.677c0,0-3.887-13.032-13.032-17.147-5.965-2.682-12.012-.7-15.506,1a15.166,15.166,0,0,0-7.507-10.852c-4.7-2.727-10.637-7.466-20.137-9.742.181-3.276.4-3.29.181-5.006-.444-3.549-.471-4.334-2.17-7.661h2.368a4.973,4.973,0,0,0,4.941-4.412l5.62-49.235A24.517,24.517,0,0,0,192.783.353H190a24.515,24.515,0,0,0-24.31,27.675l6.357,48.931a4.977,4.977,0,0,0,4.934,4.334h1.989a12.792,12.792,0,0,0-3.389,8.575,8.34,8.34,0,0,0,.4,3.081C162.051,94.3,151.643,98.385,147,103.927a15.891,15.891,0,0,0-2.286,8.691s-.133.816-.287,2.242a14.1,14.1,0,0,0-2.46-5.729s-9.374-6.859-18.519-2.744-13.032,17.147-13.032,17.147c-18.5,14.97-29.111,38.342-34.691,51.323C72.011,161.522,57.818,136.3,57.818,136.3l-9.3-21.038a3.143,3.143,0,0,0-1.614-1.652l.02-.007a9.708,9.708,0,0,0-8.241-9.828s.334-25.057-16.127-36.226c0,0-11.988,15.619-1.648,37.24,0,0,1.416,5.74,7.265,5.033a9.705,9.705,0,0,0,1.727,9.954l.246-.089c-.5.474-.771.785-.771.785l12.295,39.069s4.791,20.724,8.466,28.443,8,6.552,8,6.552l-.01-.051a16.355,16.355,0,0,0,7.78,10.084c8.132,4.429,15.858-2.942,15.858-2.942l-.29-2.1,2.945,2.43h3.808s21.495-28.579,32.927-44.812,8-20.806,8-20.806a7.512,7.512,0,0,0-.618-1.034,2.924,2.924,0,0,1,.618,1.034s7.8,3,14.981-6.9a61.714,61.714,0,0,0,4.914,21.133l6.173,19.209,1.6,11.432s-.979,5.194,3.825,5.651l1.433-4.051s.413-.171,1.153-.423l.027,0-1.181.42-1.433,5.259s-.549,7.647,1.358,11.974a4.066,4.066,0,0,0,2.529,2.242,15.26,15.26,0,0,0-1.539.188c-8.094,1.6-14.4,21.645-14.4,21.645-2.286,8.589-1.774,24.955-1.031,36.349a12.664,12.664,0,0,0,10.722,11.694c-1.027.061-2.116.123-3.334.184-5.265.259-9.33,7.948-9.33,13.82,0,6.04,1.116,8.589,3.191,9.568-1.515-.44-5.685,17.861-5.685,17.861m34.96,17.3s1.829-23.7,0-28.224a8.794,8.794,0,0,0-5.944-5.34l-.085-.014c2.808-.167,4.44-2.235,4.433-9.831-.007-8.746,1.269-13.53-6.46-14.322l22.229-1.218c-5.265.259-5.327,7.654-5.327,13.527,0,4.59.9,8,2.43,10.538-.119-.167-.188-.28-.188-.28l-1.024,12.609a96.34,96.34,0,0,0,4.2,33.681M38.688,103.777a9.7,9.7,0,0,0-7.872,2.29c-.034.027-.061.061-.092.089C32.645,104.005,35.491,102.023,38.688,103.777Zm231.7,133.7c-1.549,12.012-11.07,36.039-13.94,43.1a2.345,2.345,0,0,0,1.1,2.972,10.691,10.691,0,0,0-6.688,8.043c-5.388,3.013-20.13,11.694-26.61,19.847-.307-4.446-.631-8.442-.884-9.954a14.153,14.153,0,0,0-3.071-6.712l-.007.007c1.3-2.447.8-5.521.683-9.3-.28-9.391-1.31-15.622-10.708-15.622a10.028,10.028,0,0,0,9.975-11.08c-1.228-11.677-3.365-29.688-5.712-39.355-3.658-15.073-14.981-16.939-14.981-16.939a3.781,3.781,0,0,0,3.733-3.126,51.872,51.872,0,0,0,.655-10.135s5.487-.229,6.63-5.716,6.74-21.949,6.74-21.949,9.217-7.316,14.066-21.6l.02-.184c6.292,6.023,12.247,3.74,12.247,3.74a2.909,2.909,0,0,1,.614-1.034,7.481,7.481,0,0,0-.614,1.034s-3.429,4.573,8,20.806,32.923,44.815,32.923,44.815h1.6v2.286S272.214,223.3,270.385,237.476Z" transform="translate(40.309 0.852)" fill="none" stroke="#333" stroke-linecap="round" stroke-linejoin="round" stroke-width="0.707"/>
      <path id="Trazado_42442" data-name="Trazado 42442" d="M11.9,13.822s30.316,16.1,44.242,31.343c4.7,5.136,9.7,10.268,14.271,14.813a3.112,3.112,0,0,1-3.658,4.955L46.024,53.751a21.115,21.115,0,0,1-3.279-2.191C36.227,46.243,11.2,25.632,7.4,19.316c0,0,.15-4.842,4.5-5.494" transform="translate(17.85 33.345)" fill="#fff"/>
      <path id="Trazado_42443" data-name="Trazado 42443" d="M11.9,13.822s30.316,16.1,44.242,31.343c4.7,5.136,9.7,10.268,14.271,14.813a3.112,3.112,0,0,1-3.658,4.955L46.024,53.751a21.115,21.115,0,0,1-3.279-2.191C36.227,46.243,11.2,25.632,7.4,19.316,7.4,19.316,7.549,14.474,11.9,13.822Z" transform="translate(17.85 33.345)" fill="none" stroke="#333" stroke-linecap="round" stroke-linejoin="round" stroke-width="0.846"/>
      <path id="Trazado_42444" data-name="Trazado 42444" d="M9.546,12.887a15.519,15.519,0,0,1,4.723,3.389,6.291,6.291,0,0,0-3.467,4.3L7.2,17.808a2.851,2.851,0,0,1,.133-4.617l.092-.061a2.331,2.331,0,0,1,2.126-.242" transform="translate(14.672 30.72)" fill="#fff"/>
      <path id="Trazado_42445" data-name="Trazado 42445" d="M9.546,12.887a15.519,15.519,0,0,1,4.723,3.389,6.291,6.291,0,0,0-3.467,4.3L7.2,17.808a2.851,2.851,0,0,1,.133-4.617l.092-.061A2.331,2.331,0,0,1,9.546,12.887Z" transform="translate(14.672 30.72)" fill="none" stroke="#333" stroke-linecap="round" stroke-linejoin="round" stroke-width="0.846"/>
      <path id="Trazado_42446" data-name="Trazado 42446" d="M.867,6.67c.351-1.307,1.31,0,2.46,2.075s6.255,7.48,10.166,8.453,11.834,4.842,8.975,11.435c0,0-2.181-.321-2.43,1.529A5.951,5.951,0,0,0,20.2,33.01a9.158,9.158,0,0,1-8.835-1.123C7.217,28.68-1.655,16.033.867,6.67" transform="translate(1.021 14.828)" fill="#fff"/>
      <path id="Trazado_42447" data-name="Trazado 42447" d="M.867,6.67c.351-1.307,1.31,0,2.46,2.075s6.255,7.48,10.166,8.453,11.834,4.842,8.975,11.435c0,0-2.181-.321-2.43,1.529A5.951,5.951,0,0,0,20.2,33.01a9.158,9.158,0,0,1-8.835-1.123C7.217,28.68-1.655,16.033.867,6.67Z" transform="translate(1.021 14.828)" fill="none" stroke="#333" stroke-linecap="round" stroke-linejoin="round" stroke-width="0.846"/>
      <path id="Trazado_42448" data-name="Trazado 42448" d="M9.9,25.008a15.836,15.836,0,0,1,5.709-7.115,17.6,17.6,0,0,0-2.119-.693c-3.914-.973-9.012-6.385-10.169-8.456S1.215,5.362.867,6.669c-2.143,7.951,3.928,18.253,8.35,23.146A10.6,10.6,0,0,1,9.9,25.008" transform="translate(1.02 14.829)" fill="#ec619f"/>
      <path id="Trazado_42449" data-name="Trazado 42449" d="M.867,6.67c.351-1.307,1.31,0,2.46,2.075s6.255,7.48,10.166,8.453,11.834,4.842,8.975,11.435c0,0-2.181-.321-2.43,1.529A5.951,5.951,0,0,0,20.2,33.01a9.158,9.158,0,0,1-8.835-1.123C7.217,28.68-1.655,16.033.867,6.67Z" transform="translate(1.021 14.828)" fill="none" stroke="#333" stroke-linecap="round" stroke-linejoin="round" stroke-width="0.846"/>
      <line id="Línea_3" data-name="Línea 3" x1="0.529" y1="13.902" transform="translate(243.664 287.624)" fill="none" stroke="#333" stroke-linecap="round" stroke-linejoin="round" stroke-width="1.691"/>
      <line id="Línea_4" data-name="Línea 4" x1="0.529" y1="13.902" transform="translate(198.948 282.324)" fill="none" stroke="#333" stroke-linecap="round" stroke-linejoin="round" stroke-width="1.691"/>
      <path id="Trazado_42450" data-name="Trazado 42450" d="M57.576,38.6a4.237,4.237,0,1,1-4.238-4.238A4.238,4.238,0,0,1,57.576,38.6" transform="translate(118.457 82.896)" fill="#333"/>
      <path id="Trazado_42451" data-name="Trazado 42451" d="M85.59,36.751a4.236,4.236,0,1,1-4.583,3.863,4.24,4.24,0,0,1,4.583-3.863" transform="translate(195.386 88.622)" fill="#333"/>
    </g>
  </g>
</svg>
