<svg id="Componente_20_1" data-name="Componente 20 – 1" xmlns="http://www.w3.org/2000/svg" xmlns:xlink="http://www.w3.org/1999/xlink" width="124.778" height="151.025" viewBox="0 0 124.778 151.025">
  <defs>
    <clipPath id="clip-path">
      <rect id="Rectángulo_114" data-name="Rectángulo 114" width="124.778" height="114.548" fill="none"/>
    </clipPath>
  </defs>
  <g id="Grupo_271" data-name="Grupo 271" transform="translate(0 36.478)">
    <g id="Grupo_270" data-name="Grupo 270" transform="translate(0 0)" clip-path="url(#clip-path)">
      <path id="Trazado_42558" data-name="Trazado 42558" d="M75.151,8.065,29.614,34.356V86.938l45.537,26.291,45.537-26.291V34.356Z" transform="translate(3.808 1.037)" fill="none" stroke="#333" stroke-linecap="round" stroke-linejoin="round" stroke-width="0.5"/>
      <path id="Trazado_42559" data-name="Trazado 42559" d="M70.083,109.5s.6-7.664,0-9.161a2.909,2.909,0,0,0-1.966-1.766l-.028,0c.929-.055,1.468-.739,1.466-3.251,0-2.893.42-4.475-2.136-4.737l7.352-.4c-1.741.086-1.762,2.531-1.762,4.474a6.633,6.633,0,0,0,.8,3.485c-.039-.055-.062-.093-.062-.093l-.339,4.17a23.27,23.27,0,0,0,1.39,10.011l2.009.869,8.654-4.782.219.423s-.081-1.516-.192-3.3l-.018-.267c2.751.351,9.988.9,13.05-2.43a4.415,4.415,0,0,0,.933-2.4l0,0a3.518,3.518,0,0,0,1.576-3.933h0l.423.218s.659.832,1.718-1.512c0,0,9-13.763,9.529-21.1l-.822-1.659a3.546,3.546,0,0,0,1.2-2.953,6.252,6.252,0,0,0-2.043-3.706s.832-.3-.378-2.5S105.9,49.89,97.96,43.461c0,0-1.285-4.31-4.31-5.671a6.091,6.091,0,0,0-5.128.332,5.016,5.016,0,0,0-2.483-3.589,21.408,21.408,0,0,0-6.588-3.15l.011.012a3.156,3.156,0,0,0,.149-1.438,4.235,4.235,0,0,0-1.12-2.836H79.5a1.645,1.645,0,0,0,1.634-1.459L83,9.379A8.108,8.108,0,0,0,74.942.353H74.02a8.108,8.108,0,0,0-8.04,9.153l2.1,16.183a1.646,1.646,0,0,0,1.632,1.433h.424a4.039,4.039,0,0,0-.887,2.836,2.758,2.758,0,0,0,.132,1.019c-4.606.446-8.048,1.8-9.584,3.631a5.256,5.256,0,0,0-.756,2.874s-.044.27-.095.741a4.662,4.662,0,0,0-.814-1.895s-3.1-2.268-6.125-.907-4.31,5.671-4.31,5.671c-6.117,4.951-9.628,12.681-11.473,16.974C35,53.656,30.305,45.315,30.305,45.315l-3.074-6.958a1.039,1.039,0,0,0-.534-.546l.007,0a3.211,3.211,0,0,0-2.726-3.25s.111-8.287-5.334-11.981c0,0-3.965,5.166-.545,12.316a2.205,2.205,0,0,0,2.4,1.665,3.21,3.21,0,0,0,.571,3.292l.081-.029c-.165.157-.255.26-.255.26L24.966,53s1.585,6.854,2.8,9.407,2.647,2.167,2.647,2.167l0-.017a5.409,5.409,0,0,0,2.573,3.335c2.689,1.465,5.245-.973,5.245-.973l-.1-.694.974.8h1.259s7.109-9.452,10.89-14.821S53.9,45.328,53.9,45.328a2.484,2.484,0,0,0-.2-.342.967.967,0,0,1,.2.342s2.58.991,4.954-2.283a20.41,20.41,0,0,0,1.625,6.989l2.042,6.353.529,3.781s-.324,1.718,1.265,1.869l.474-1.34s.137-.056.381-.14h.009l-.39.139-.474,1.739a10.577,10.577,0,0,0,.449,3.96,1.345,1.345,0,0,0,.836.741,5.051,5.051,0,0,0-.509.062c-2.677.529-4.764,7.159-4.764,7.159-.756,2.841-.587,8.253-.341,12.022a4.188,4.188,0,0,0,3.546,3.868c-.34.02-.7.041-1.1.061-1.741.086-3.086,2.628-3.086,4.571,0,2,.369,2.841,1.055,3.165-.5-.146-1.88,4.778-1.88,4.778M23.978,34.558a3.207,3.207,0,0,0-2.6.757c-.011.009-.02.02-.03.029a2.11,2.11,0,0,1,2.634-.787m76.629,44.218c-.512,3.973-3.661,11.919-4.61,14.253a.776.776,0,0,0,.365.983,3.536,3.536,0,0,0-2.212,2.66c-1.782,1-6.658,3.868-8.8,6.564-.1-1.471-.209-2.792-.292-3.292a3.842,3.842,0,0,0-1.415-2.22v0a6.084,6.084,0,0,0,.624-3.077c-.093-3.106-.433-5.167-3.542-5.167a3.317,3.317,0,0,0,3.3-3.665A124.794,124.794,0,0,0,82.132,72.8c-1.21-4.985-4.954-5.6-4.954-5.6a1.25,1.25,0,0,0,1.235-1.034,17.157,17.157,0,0,0,.217-3.352,2.394,2.394,0,0,0,2.193-1.89c.378-1.815,2.229-7.259,2.229-7.259A16.412,16.412,0,0,0,87.7,46.521l.007-.061A4.013,4.013,0,0,0,91.76,47.7a.962.962,0,0,1,.2-.342,2.473,2.473,0,0,0-.2.342s-1.134,1.512,2.647,6.881S105.295,69.4,105.295,69.4h.529v.756s-4.613,3.932-5.217,8.62" transform="translate(2.149 0.045)" fill="#fff"/>
      <path id="Trazado_42560" data-name="Trazado 42560" d="M69.4,102.894h0a31.756,31.756,0,0,1-1.327-10.838l.314-3.857a.4.4,0,0,0,.032-.458,6.324,6.324,0,0,1-.746-3.279c0-2.1.1-4,1.366-4.075h.019a.4.4,0,0,0-.021-.8h-.045l-7.329.4a.4.4,0,0,0-.019.8c1.773.181,1.838.875,1.793,3.251-.007.34-.014.7-.014,1.088,0,2.788-.683,2.828-1.091,2.853a.387.387,0,0,0-.359.371.412.412,0,0,0,.331.422A2.5,2.5,0,0,1,63.981,90.3c.419,1.035.212,6.615-.028,10.112a.4.4,0,0,0,.8.055c.063-.91.595-8.929-.027-10.466a3.333,3.333,0,0,0-1.329-1.607c.711-.623.832-1.911.831-3.266,0-.38.006-.737.012-1.071.029-1.46.052-2.652-.685-3.367l3.966-.218a8.248,8.248,0,0,0-.639,3.991,7.351,7.351,0,0,0,.734,3.467L67.28,92a31.942,31.942,0,0,0,1.412,11.3.4.4,0,0,0,.179.217l.755-.216c-.755.216-.248-.363-.223-.4" transform="translate(7.88 10.234)" fill="#333"/>
      <path id="Trazado_42561" data-name="Trazado 42561" d="M70.333,61.6a.4.4,0,0,0-.065.792c.142.025,3.5.653,4.633,5.3A126.972,126.972,0,0,1,76.78,80.655a2.917,2.917,0,0,1-2.9,3.222.4.4,0,1,0,0,.8c2.583,0,3.042,1.41,3.142,4.781a5.714,5.714,0,0,1-.577,2.877.4.4,0,0,0-.046.187.4.4,0,0,0,.2.343,3.44,3.44,0,0,1,1.226,1.94c.071.422.168,1.517.288,3.254a.4.4,0,0,0,.28.354.431.431,0,0,0,.118.018.4.4,0,0,0,.313-.151c2.074-2.608,6.764-5.39,8.682-6.465a.4.4,0,0,0,.2-.275,3.152,3.152,0,0,1,1.964-2.36.4.4,0,0,0,.041-.727.378.378,0,0,1-.179-.479c.957-2.352,4.119-10.338,4.637-14.352.578-4.476,5.036-8.329,5.081-8.367a.4.4,0,0,0,.14-.3v-.756a.4.4,0,0,0-.4-.4h-.33c-.949-1.264-7.3-9.73-10.762-14.651-3.28-4.658-2.726-6.244-2.625-6.457l.014-.025a2,2,0,0,1,.17-.286.4.4,0,0,0-.635-.482,1.685,1.685,0,0,0-.187.267,3.755,3.755,0,0,1-3.484-1.2.4.4,0,0,0-.407-.1.375.375,0,0,0-.253.322,16.194,16.194,0,0,1-4.522,6.959.4.4,0,0,0-.13.184c-.076.222-1.863,5.488-2.241,7.306a1.988,1.988,0,0,1-1.819,1.573.4.4,0,0,0-.381.41,16.682,16.682,0,0,1-.212,3.272.849.849,0,0,1-.841.7m1.627-.568a17.078,17.078,0,0,0,.229-3.071A2.74,2.74,0,0,0,74.368,55.8c.34-1.631,1.92-6.335,2.179-7.106a16.782,16.782,0,0,0,4.509-6.743,4.516,4.516,0,0,0,3.314,1.061c-.076.962.3,2.94,2.867,6.591,3.741,5.312,10.825,14.737,10.9,14.831a.4.4,0,0,0,.319.159h.131v.177c-.8.719-4.65,4.373-5.214,8.75-.507,3.918-3.637,11.823-4.585,14.152a1.174,1.174,0,0,0,.06,1.013,3.962,3.962,0,0,0-1.89,2.521,38.892,38.892,0,0,0-8.118,5.842c-.091-1.229-.167-2.01-.228-2.376a4.1,4.1,0,0,0-1.313-2.261,6.728,6.728,0,0,0,.525-2.979c-.071-2.395-.309-4.466-2.116-5.234a3.713,3.713,0,0,0,1.872-3.626,123.414,123.414,0,0,0-1.9-13.069,7.649,7.649,0,0,0-4.211-5.555,1.642,1.642,0,0,0,.5-.92" transform="translate(8.992 5.252)" fill="#333"/>
      <path id="Trazado_42562" data-name="Trazado 42562" d="M112.414,72.479a3.889,3.889,0,0,0,1.112-3.075,6.436,6.436,0,0,0-1.885-3.693,1.014,1.014,0,0,0,.044-.1,3.4,3.4,0,0,0-.626-2.56c-.217-.392-.526-1.117-.918-2.035-1.728-4.048-5.314-12.448-11.791-17.744-.239-.736-1.588-4.5-4.491-5.8a6.316,6.316,0,0,0-5,.125,5.419,5.419,0,0,0-2.574-3.364c-.306-.177-.624-.377-.963-.59a18.434,18.434,0,0,0-5.305-2.493,3.524,3.524,0,0,0,.044-.831l0-.316a4.5,4.5,0,0,0-.717-2.437h.21a2.044,2.044,0,0,0,2.031-1.813L83.439,9.47A8.507,8.507,0,0,0,74.987,0h-.922a8.507,8.507,0,0,0-8.436,9.6l2.1,16.184a2.051,2.051,0,0,0,1.7,1.755A5.04,5.04,0,0,0,68.9,30a4.245,4.245,0,0,0,.035.67c-4.406.492-7.815,1.84-9.414,3.748a5.128,5.128,0,0,0-.758,2.107,3.278,3.278,0,0,0-.345-.476c-.134-.1-3.325-2.389-6.524-.949-2.9,1.306-4.251,5.065-4.492,5.8-5.36,4.381-8.721,10.75-11.067,16.068A92.594,92.594,0,0,0,30.715,45.2L27.64,38.242a1.444,1.444,0,0,0-.494-.613,3.612,3.612,0,0,0-2.727-3.352c-.042-1.624-.514-8.6-5.505-11.986a.4.4,0,0,0-.541.088,12.541,12.541,0,0,0-.616,12.655,2.6,2.6,0,0,0,2.249,1.98,3.6,3.6,0,0,0,.607,2.889.4.4,0,0,0-.05.342l4.058,12.892c.064.281,1.608,6.925,2.828,9.488.973,2.044,2.13,2.386,2.722,2.412a5.71,5.71,0,0,0,2.662,3.251c2.908,1.586,5.685-1.008,5.712-1.034a.39.39,0,0,0,.074-.1l.273.226a.4.4,0,0,0,.254.091h1.261a.4.4,0,0,0,.319-.159c.071-.095,7.155-9.518,10.9-14.831,2.587-3.674,2.947-5.653,2.877-6.589a4.8,4.8,0,0,0,4.084-1.789,19.742,19.742,0,0,0,1.559,6.1l2.027,6.285.521,3.723a2.3,2.3,0,0,0,.35,1.609,1.629,1.629,0,0,0,.929.6l-.009.033a10.831,10.831,0,0,0,.482,4.149,1.727,1.727,0,0,0,.22.368c-2.619,1.015-4.461,6.647-4.677,7.332-.761,2.855-.612,8.182-.353,12.149a4.62,4.62,0,0,0,2.2,3.623c-1.643.55-2.845,2.873-2.845,4.851,0,1.694.262,2.709.863,3.248a29.549,29.549,0,0,0-1.679,5.734.4.4,0,1,0,.779.177,33.6,33.6,0,0,1,1.631-5.621.4.4,0,0,0,.029-.734c-.384-.182-.826-.665-.826-2.8,0-1.818,1.249-4.1,2.707-4.172.4-.019.765-.041,1.106-.061a.4.4,0,0,0,.036-.792,3.812,3.812,0,0,1-3.207-3.5c-.255-3.907-.4-9.142.323-11.875.562-1.781,2.457-6.49,4.46-6.888.113-.021.273-.039.465-.056a.4.4,0,0,0,.086-.779.951.951,0,0,1-.59-.521,10.377,10.377,0,0,1-.429-3.694l.419-1.538.2-.069a.4.4,0,0,0,.257-.425.405.405,0,0,0-.363-.349.4.4,0,0,0-.167.02c-.26.088-.4.148-.4.148h0a.4.4,0,0,0-.214.214h0l-.007.019L64.1,61.626a.809.809,0,0,1-.415-.283,1.557,1.557,0,0,1-.194-1.057.4.4,0,0,0,0-.128l-.544-3.847-2.059-6.395a19.8,19.8,0,0,1-1.59-6.852.4.4,0,0,0-.721-.209c-1.863,2.569-3.794,2.323-4.341,2.188a1.809,1.809,0,0,0-.188-.267.4.4,0,0,0-.634.483,2.357,2.357,0,0,1,.16.261.388.388,0,0,0,.042.077c.03.059.771,1.58-2.643,6.428-3.467,4.922-9.813,13.387-10.762,14.651h-.918l-.863-.712a.4.4,0,0,0-.649.362l.065.481c-.555.465-2.551,1.913-4.628.78a5.015,5.015,0,0,1-2.38-3.095.392.392,0,0,0-.471-.27.325.325,0,0,0-.056.017c-.232.021-1.213-.014-2.14-1.958-1.183-2.485-2.755-9.257-2.779-9.355l-4-12.7c.024-.024.05-.05.079-.077a.373.373,0,0,0,.023-.484.352.352,0,0,0-.161-.135,2.811,2.811,0,0,1-.418-2.786.4.4,0,0,0-.42-.542,1.821,1.821,0,0,1-1.994-1.44,11.965,11.965,0,0,1,.288-11.582c4.094,3.056,4.72,8.979,4.816,10.84a2.68,2.68,0,0,0-2.517,1.1.38.38,0,0,0,.029.532.42.42,0,0,0,.562,0A2.8,2.8,0,0,1,23.962,35h0a2.81,2.81,0,0,1,2.387,2.779.5.5,0,0,0-.007.058.4.4,0,0,0,.232.385.644.644,0,0,1,.335.345L30,45.555c.047.084,4.685,8.352,5.887,12.664a.4.4,0,0,0,.358.292.405.405,0,0,0,.393-.242c2.34-5.444,5.743-12.277,11.357-16.82a.4.4,0,0,0,.131-.2c.012-.042,1.273-4.153,4.092-5.422,2.744-1.234,5.637.8,5.658.8h0a4.255,4.255,0,0,1,.728,1.729.393.393,0,0,0,.413.307.4.4,0,0,0,.372-.355c.05-.453.091-.716.1-.785a5.012,5.012,0,0,1,.664-2.618c1.5-1.789,4.9-3.061,9.316-3.49a.4.4,0,0,0,.342-.517A2.409,2.409,0,0,1,69.7,30a3.608,3.608,0,0,1,.784-2.569.4.4,0,0,0-.3-.666h-.424a1.25,1.25,0,0,1-1.236-1.086L66.42,9.5A7.708,7.708,0,0,1,74.065.8h.922A7.709,7.709,0,0,1,82.645,9.38L80.788,25.664a1.246,1.246,0,0,1-1.238,1.1H78.536a.4.4,0,0,0-.3.666A3.811,3.811,0,0,1,79.257,30l.006.337a2.1,2.1,0,0,1-.094.875l-.016.025a.41.41,0,0,0,.072.483.4.4,0,0,0,.271.116,17.483,17.483,0,0,1,5.4,2.478c.348.219.674.424.988.606a4.585,4.585,0,0,1,2.287,3.3.4.4,0,0,0,.208.3.4.4,0,0,0,.362.007,5.649,5.649,0,0,1,4.791-.326c2.819,1.269,4.079,5.38,4.091,5.422a.409.409,0,0,0,.131.2c6.381,5.166,9.942,13.5,11.653,17.511.416.976.718,1.68.954,2.107.863,1.565.583,1.924.589,1.929a.4.4,0,0,0-.255.3.4.4,0,0,0,.138.376,5.889,5.889,0,0,1,1.9,3.44,3.133,3.133,0,0,1-1.077,2.623.4.4,0,0,0-.084.468l.772,1.56c-.6,7.176-9.366,20.664-9.486,20.854-.585,1.3-.971,1.411-1.039,1.429a.431.431,0,0,0-.131-.107l-.43-.219a.4.4,0,0,0-.564.459,3.112,3.112,0,0,1-1.364,3.469.4.4,0,0,0-.227.342,4.053,4.053,0,0,1-.827,2.144c-2.911,3.171-9.855,2.667-12.706,2.3a.4.4,0,0,0-.449.422l.018.266c.086,1.4.2,3.387.225,3.854l-.053.038a1.523,1.523,0,0,1,.2.091l.475-.4a.4.4,0,0,0,.142-.326s-.076-1.4-.179-3.1c3.214.362,9.911.658,12.926-2.625a4.859,4.859,0,0,0,1.011-2.424A3.908,3.908,0,0,0,101.6,97.36c0-.06,0-.121,0-.183a.839.839,0,0,0,.336.026c.571-.071,1.112-.687,1.623-1.831.369-.565,9.061-13.932,9.592-21.287a.393.393,0,0,0-.041-.205Z" transform="translate(2.103 0)" fill="#333"/>
      <path id="Trazado_42563" data-name="Trazado 42563" d="M68.65,21.1c-3.407,0-6.169.848-6.169,1.894,0,.538.736,1.022,1.911,1.368a1.126,1.126,0,0,1,.365-.324,7.994,7.994,0,0,1,3.613-.939A5,5,0,0,1,72.1,24.437c.033.035.058.072.087.108,1.59-.342,3.028-1.045,2.632-1.55-.692-.883-2.762-1.894-6.169-1.894" transform="translate(8.034 2.713)" fill="#b3b3b3"/>
      <path id="Trazado_42564" data-name="Trazado 42564" d="M78.694,37.916a6.9,6.9,0,0,1,1.244-3.909c.043-.044.585.349.631.311-.3-1.5-.345-1.642-.966-1.642-.954,0-2.505,3.724-2.505,6.63s.782,5.621,1.736,5.621c.52,0,.662-1.9.98-3.012a7.661,7.661,0,0,1-1.118-4" transform="translate(9.913 4.202)" fill="#ccc"/>
      <path id="Trazado_42565" data-name="Trazado 42565" d="M67.059,51.554c-4.378-.235-8.692,1.009-9.258,2.887a1.366,1.366,0,0,1,1.086,1.223,3.113,3.113,0,0,1,2.165-2.132c1.959-.665,4.293-.315,6.285-.026,1.65.239,3.271.612,4.9.942a1.309,1.309,0,0,1,1,1.752l.351.018c.016,0,.032.006.049.007a1.216,1.216,0,0,1,1.068-.633c-.095-2.029-3.086-3.793-7.647-4.038" transform="translate(7.432 6.625)" fill="#e6e6e6"/>
      <path id="Trazado_42566" data-name="Trazado 42566" d="M65.462,64.146c1.729.006,3.45.073,5.179.12q.469.012.938.008l3.625-.588a6.335,6.335,0,0,0,.815-.392c-.642-.84-2.554-2.861-2.554-2.861-2.4-1.358-8.284-.836-8.284-.836-4.493.063-6.06.836-6.06.836a7.166,7.166,0,0,0-2.2,2.662c2.516,1.212,5.879,1.043,8.542,1.051" transform="translate(7.319 7.65)" fill="#e6e6e6"/>
      <path id="Trazado_42567" data-name="Trazado 42567" d="M54.6,32.384s-3.1-2.268-6.125-.907-4.31,5.671-4.31,5.671,5.9,3.1,6.2,4.234c0,0,2.151,1.534,4.646-2.625C55.016,38.757,55.889,33.9,54.6,32.384Z" transform="translate(5.679 3.991)" fill="none" stroke="#333" stroke-width="0.34"/>
      <path id="Trazado_42568" data-name="Trazado 42568" d="M34,53.426c1.21-2.193,3.532-10.547,11.472-16.974,0,0,5.219,2.193,6.2,4.234,0,0,1.134,1.512-2.647,6.881S38.14,62.389,38.14,62.389H36.88l-1.231-1.017" transform="translate(4.372 4.687)" fill="none" stroke="#333" stroke-width="0.34"/>
      <path id="Trazado_42569" data-name="Trazado 42569" d="M72.885,27.123H73.9a1.646,1.646,0,0,0,1.635-1.459L77.391,9.38A8.107,8.107,0,0,0,69.336.354h-.923a8.107,8.107,0,0,0-8.04,9.152l2.1,16.184a1.645,1.645,0,0,0,1.632,1.433h.657" transform="translate(7.754 0.046)" fill="none" stroke="#333" stroke-width="0.354"/>
      <path id="Trazado_42570" data-name="Trazado 42570" d="M73.852,28.881l-.911-.161a3.763,3.763,0,0,0,.1-1.544,4.577,4.577,0,0,0-9.154,0,3.816,3.816,0,0,0,.025,1.174l-.631.123a4.286,4.286,0,0,1-.2-1.3,5.5,5.5,0,0,1,10.9-.681,5.788,5.788,0,0,1-.131,2.386" transform="translate(8.112 2.829)" fill="#333"/>
      <path id="Trazado_42571" data-name="Trazado 42571" d="M63.724,23.657l-.223-.341A12.618,12.618,0,0,1,68.415,22a9.674,9.674,0,0,1,4.5,1.407l.207.359A12.1,12.1,0,0,0,68.415,22.4a12.679,12.679,0,0,0-4.69,1.253" transform="translate(8.165 2.828)" fill="#333"/>
      <path id="Trazado_42572" data-name="Trazado 42572" d="M83.739,34.749a4.983,4.983,0,0,0-2.5-3.705A21.594,21.594,0,0,0,68.766,27.49c-6.579.076-11.8,1.283-13.762,3.628a5.256,5.256,0,0,0-.756,2.874s-1.134,6.881,1.437,12.553L57.727,52.9l.529,3.781s-.324,1.718,1.264,1.869L60,57.208s7.119-2.949,13.839,1.21v.907a2.394,2.394,0,0,0,2.193-1.89c.378-1.815,2.229-7.259,2.229-7.259a16.423,16.423,0,0,0,4.652-7.144" transform="translate(6.943 3.534)" fill="none" stroke="#333" stroke-width="0.361"/>
      <path id="Trazado_42573" data-name="Trazado 42573" d="M79.756,33.855a8.286,8.286,0,0,0-.529,7.713" transform="translate(10.095 4.353)" fill="none" stroke="#333" stroke-linecap="round" stroke-width="0.355"/>
      <path id="Trazado_42574" data-name="Trazado 42574" d="M79.585,34.483s3.1-2.268,6.125-.907,4.31,5.671,4.31,5.671-5.9,3.1-6.2,4.234a3.688,3.688,0,0,1-3.01-.441,4.935,4.935,0,0,1-2.336-4.761A7.686,7.686,0,0,1,79.585,34.483Z" transform="translate(10.087 4.261)" fill="none" stroke="#333" stroke-width="0.34"/>
      <path id="Trazado_42575" data-name="Trazado 42575" d="M102.509,60.783s.832-.3-.378-2.5-4.764-13.309-12.7-19.737c0,0-5.217,2.193-6.2,4.234,0,0-1.134,1.512,2.647,6.882s10.89,14.821,10.89,14.821h1.259Z" transform="translate(10.681 4.957)" fill="none" stroke="#333" stroke-width="0.34"/>
      <path id="Trazado_42576" data-name="Trazado 42576" d="M101.167,65.358a3.809,3.809,0,0,0,1.763-3.4,6.249,6.249,0,0,0-2.042-3.705L96.4,61.955h-.73v.756l4.537,1.134Z" transform="translate(12.302 7.49)" fill="none" stroke="#333" stroke-width="0.34"/>
      <path id="Trazado_42577" data-name="Trazado 42577" d="M92.009,88.453l.424.217s.658.832,1.717-1.512c0,0,9-13.762,9.529-21.1l-.822-1.658-.563.448-.959-1.512L96.8,62.2s-4.614,3.932-5.219,8.621c-.512,3.973-3.661,11.919-4.61,14.252a.777.777,0,0,0,.368.985" transform="translate(11.175 7.998)" fill="none" stroke="#333" stroke-width="0.34"/>
      <path id="Trazado_42578" data-name="Trazado 42578" d="M92.616,85.381l-1.993-1.507A5.686,5.686,0,0,0,87.8,82.757l-.209-.023" transform="translate(11.262 10.638)" fill="none" stroke="#333" stroke-linecap="round" stroke-width="0.34"/>
      <path id="Trazado_42579" data-name="Trazado 42579" d="M90.637,89.693a3.536,3.536,0,1,0-5.33-3.565" transform="translate(10.969 10.69)" fill="none" stroke="#333" stroke-linecap="round" stroke-width="0.361"/>
      <path id="Trazado_42580" data-name="Trazado 42580" d="M90.813,91.8a3.731,3.731,0,0,0-.378-5.256s-2-1.437-3.327-1.171c0,0-9.529,5.028-10.436,8.7C76.672,94.072,86.994,95.963,90.813,91.8Z" transform="translate(9.859 10.974)" fill="none" stroke="#333" stroke-linecap="round" stroke-linejoin="round" stroke-width="0.707"/>
      <path id="Trazado_42581" data-name="Trazado 42581" d="M71.756,60.448a1.25,1.25,0,0,0,1.235-1.035,17.135,17.135,0,0,0,.217-3.351v-.907a12.787,12.787,0,0,0-6.275-2.147,23.876,23.876,0,0,0-2.854-.137,22.138,22.138,0,0,0-4.594.82l-.115.253-.474,1.739a10.57,10.57,0,0,0,.449,3.959,1.353,1.353,0,0,0,1.241.8Z" transform="translate(7.57 6.798)" fill="none" stroke="#333" stroke-width="0.361"/>
      <path id="Trazado_42582" data-name="Trazado 42582" d="M72.27,59.6s3.745.617,4.954,5.6A124.747,124.747,0,0,1,79.114,78.22c.207,1.959-1.557,3.614-4.5,3.722l-12.372.651H58.921c-1.4.117-3.692-1.528-3.841-3.811-.246-3.768-.415-9.181.341-12.022,0,0,2.087-6.629,4.764-7.159C61.868,59.269,72.27,59.6,72.27,59.6Z" transform="translate(7.056 7.645)" fill="none" stroke="#333" stroke-width="0.361"/>
      <path id="Trazado_42583" data-name="Trazado 42583" d="M66.594,84.45c0,4.461,2.519,5.627,5.627,5.627s5.348-1.62,5.229-5.627c-.093-3.107-.035-4.768-3.142-4.768-1.166,0-4.119.194-5.593.266C66.973,80.034,66.594,82.508,66.594,84.45Z" transform="translate(8.563 10.246)" fill="none" stroke="#333" stroke-width="0.361"/>
      <path id="Trazado_42584" data-name="Trazado 42584" d="M54.488,84.633c0,4.461,1.837,3.172,4.945,3.172S64.7,90.089,64.7,85.068c0-3.108.355-4.657-2.753-4.657-1.166,0-2.9-.423-4.371-.35C55.832,80.148,54.488,82.69,54.488,84.633Z" transform="translate(7.006 10.293)" fill="none" stroke="#333" stroke-width="0.361"/>
      <path id="Trazado_42585" data-name="Trazado 42585" d="M68.348,102.257a31.878,31.878,0,0,1-1.392-11.139l.339-4.17a5.63,5.63,0,0,0,5.779,2.184,7.322,7.322,0,0,0,4.511-2.5A4.683,4.683,0,0,1,78.6,88.85c.084.5.191,1.836.293,3.317" transform="translate(8.602 11.139)" fill="none" stroke="#333" stroke-width="0.361"/>
      <path id="Trazado_42586" data-name="Trazado 42586" d="M77.654,93.458c.111,1.788.192,3.3.192,3.3" transform="translate(9.985 12.017)" fill="none" stroke="#333" stroke-width="0.361"/>
      <path id="Trazado_42587" data-name="Trazado 42587" d="M53.757,92.821s1.378-6.053,1.879-5.907a16.655,16.655,0,0,0,2.52.051,18.251,18.251,0,0,1,2.862.16l2.335.316a2.912,2.912,0,0,1,1.966,1.766c.6,1.5,0,9.335,0,9.335" transform="translate(6.912 11.175)" fill="none" stroke="#333" stroke-width="0.361"/>
      <path id="Trazado_42588" data-name="Trazado 42588" d="M34.291,53.718a8.057,8.057,0,0,0-4.168,1.438l-1.48,1.294a5.8,5.8,0,0,0,2.8,4.581c2.688,1.465,4.967-.862,4.967-.862l-.319-4.408a2.466,2.466,0,0,0-1.8-2.042Z" transform="translate(3.683 6.907)" fill="none" stroke="#333" stroke-width="0.34"/>
      <path id="Trazado_42589" data-name="Trazado 42589" d="M26.753,34.1l3.074,6.957S34.8,48.907,35.75,54.6a1.783,1.783,0,0,1-.4,1.722,13.6,13.6,0,0,0-3.42.924c-.749.514-2.229,1.808-2.229,1.808l.234,1.263s-1.43.387-2.645-2.166-2.8-9.408-2.8-9.408L20.422,35.827a6.618,6.618,0,0,1,3.671-2.007S26.17,32.784,26.753,34.1Z" transform="translate(2.626 4.299)" fill="none" stroke="#333" stroke-width="0.34"/>
      <path id="Trazado_42590" data-name="Trazado 42590" d="M26.3,33.916a3.214,3.214,0,1,0-5.632,2.042" transform="translate(2.555 3.938)" fill="none" stroke="#333" stroke-width="0.34"/>
      <path id="Trazado_42591" data-name="Trazado 42591" d="M23.978,32.027s.111-8.287-5.334-11.981c0,0-3.965,5.164-.545,12.316a2.205,2.205,0,0,0,2.4,1.665S22.047,30.968,23.978,32.027Z" transform="translate(2.149 2.578)" fill="none" stroke="#333" stroke-width="0.34"/>
      <path id="Trazado_42592" data-name="Trazado 42592" d="M28.272,56.218l-.306-.231a6.1,6.1,0,0,1,6.212-3.141l-.056.379c-.033,0-3.253-.439-5.849,2.993" transform="translate(3.596 6.786)" fill="#333"/>
      <path id="Trazado_42593" data-name="Trazado 42593" d="M55.444,31a1.817,1.817,0,0,0,1.884.825c5.11-1.009,12.495-1.6,18.4,0,5.265,1.425,5.685,0,5.685,0a19.407,19.407,0,0,0-9.211-3.8C66.74,27.35,59.919,27.689,55.444,31" transform="translate(7.129 3.566)" fill="#e6e6e6"/>
      <path id="Trazado_42594" data-name="Trazado 42594" d="M85.683,108.733s-.081-1.516-.192-3.3l-.018-.267c2.751.351,9.988.9,13.05-2.43a4.415,4.415,0,0,0,.933-2.4l0,0a3.518,3.518,0,0,0,1.576-3.933h0l.423.218s.659.832,1.718-1.512c0,0,9-13.763,9.529-21.1l-.822-1.659a3.546,3.546,0,0,0,1.2-2.953,6.252,6.252,0,0,0-2.043-3.706s.832-.3-.378-2.5S105.9,49.89,97.96,43.461c0,0-1.285-4.31-4.31-5.671a6.091,6.091,0,0,0-5.128.332,5.016,5.016,0,0,0-2.483-3.589,21.822,21.822,0,0,0-6.66-3.222,7.648,7.648,0,0,0,.06-1.656,5.587,5.587,0,0,0-.718-2.534H79.5a1.645,1.645,0,0,0,1.634-1.459L83,9.379A8.108,8.108,0,0,0,74.942.353H74.02a8.108,8.108,0,0,0-8.04,9.153l2.1,16.183a1.646,1.646,0,0,0,1.632,1.433h.658a4.231,4.231,0,0,0-1.121,2.836,2.758,2.758,0,0,0,.132,1.019c-4.606.446-8.048,1.8-9.584,3.631a5.256,5.256,0,0,0-.756,2.874s-.044.27-.095.741a4.662,4.662,0,0,0-.814-1.895s-3.1-2.268-6.125-.907-4.31,5.671-4.31,5.671c-6.117,4.951-9.628,12.681-11.473,16.974C35,53.656,30.305,45.315,30.305,45.315l-3.074-6.958a1.039,1.039,0,0,0-.534-.546l.007,0a3.211,3.211,0,0,0-2.726-3.25s.111-8.287-5.334-11.981c0,0-3.965,5.166-.545,12.316a2.205,2.205,0,0,0,2.4,1.665,3.21,3.21,0,0,0,.571,3.292l.081-.029c-.165.157-.255.26-.255.26L24.966,53s1.585,6.854,2.8,9.407,2.647,2.167,2.647,2.167l0-.017a5.409,5.409,0,0,0,2.573,3.335c2.689,1.465,5.245-.973,5.245-.973l-.1-.694.974.8h1.259s7.109-9.452,10.89-14.821S53.9,45.328,53.9,45.328a2.484,2.484,0,0,0-.2-.342.967.967,0,0,1,.2.342s2.58.991,4.954-2.283a20.41,20.41,0,0,0,1.625,6.989l2.042,6.353.529,3.781s-.324,1.718,1.265,1.869l.474-1.34s.137-.056.381-.14h.009l-.39.139-.474,1.739a10.577,10.577,0,0,0,.449,3.96,1.345,1.345,0,0,0,.836.741,5.051,5.051,0,0,0-.509.062c-2.677.529-4.764,7.159-4.764,7.159-.756,2.841-.587,8.253-.341,12.022a4.188,4.188,0,0,0,3.546,3.868c-.34.02-.7.041-1.1.061-1.741.086-3.086,2.628-3.086,4.571,0,2,.369,2.841,1.055,3.165-.5-.146-1.88,5.907-1.88,5.907m11.562,5.721s.6-7.838,0-9.335a2.909,2.909,0,0,0-1.966-1.766l-.028,0c.929-.055,1.468-.739,1.466-3.251,0-2.893.42-4.475-2.136-4.737l7.352-.4c-1.741.086-1.762,2.531-1.762,4.474a6.633,6.633,0,0,0,.8,3.485c-.039-.055-.062-.093-.062-.093l-.339,4.17a31.862,31.862,0,0,0,1.39,11.139M23.978,34.558a3.207,3.207,0,0,0-2.6.757c-.011.009-.02.02-.03.029A2.11,2.11,0,0,1,23.978,34.558Zm76.629,44.218c-.512,3.973-3.661,11.919-4.61,14.253a.776.776,0,0,0,.365.983,3.536,3.536,0,0,0-2.212,2.66c-1.782,1-6.658,3.868-8.8,6.564-.1-1.471-.209-2.792-.292-3.292a4.681,4.681,0,0,0-1.016-2.22l0,0c.43-.809.263-1.826.226-3.077-.093-3.106-.433-5.167-3.542-5.167a3.317,3.317,0,0,0,3.3-3.665A124.794,124.794,0,0,0,82.132,72.8c-1.21-4.985-4.954-5.6-4.954-5.6a1.25,1.25,0,0,0,1.235-1.034,17.157,17.157,0,0,0,.217-3.352,2.394,2.394,0,0,0,2.193-1.89c.378-1.815,2.229-7.259,2.229-7.259A16.412,16.412,0,0,0,87.7,46.521l.007-.061A4.013,4.013,0,0,0,91.76,47.7a.962.962,0,0,1,.2-.342,2.473,2.473,0,0,0-.2.342s-1.134,1.512,2.647,6.881S105.295,69.4,105.295,69.4h.529v.756S101.212,74.088,100.607,78.776Z" transform="translate(2.149 0.045)" fill="none" stroke="#333" stroke-linecap="round" stroke-linejoin="round" stroke-width="0.707"/>
      <path id="Trazado_42595" data-name="Trazado 42595" d="M8.889,13.822s10.026,5.325,14.632,10.366c1.553,1.7,3.207,3.4,4.72,4.9a1.029,1.029,0,0,1-1.21,1.639l-6.857-3.7a6.984,6.984,0,0,1-1.085-.725C16.933,24.545,8.655,17.728,7.4,15.639a1.887,1.887,0,0,1,1.49-1.817" transform="translate(0.951 1.777)" fill="#fff"/>
      <path id="Trazado_42596" data-name="Trazado 42596" d="M8.889,13.822s10.026,5.325,14.632,10.366c1.553,1.7,3.207,3.4,4.72,4.9a1.029,1.029,0,0,1-1.21,1.639l-6.857-3.7a6.984,6.984,0,0,1-1.085-.725C16.933,24.545,8.655,17.728,7.4,15.639A1.887,1.887,0,0,1,8.889,13.822Z" transform="translate(0.951 1.777)" fill="none" stroke="#333" stroke-linecap="round" stroke-linejoin="round" stroke-width="0.846"/>
      <path id="Trazado_42597" data-name="Trazado 42597" d="M7.228,12.785a5.132,5.132,0,0,1,1.562,1.121,2.081,2.081,0,0,0-1.147,1.423L6.45,14.412a.943.943,0,0,1,.044-1.527l.03-.02a.771.771,0,0,1,.7-.08" transform="translate(0.782 1.637)" fill="#fff"/>
      <path id="Trazado_42598" data-name="Trazado 42598" d="M7.228,12.785a5.132,5.132,0,0,1,1.562,1.121,2.081,2.081,0,0,0-1.147,1.423L6.45,14.412a.943.943,0,0,1,.044-1.527l.03-.02A.771.771,0,0,1,7.228,12.785Z" transform="translate(0.782 1.637)" fill="none" stroke="#333" stroke-linecap="round" stroke-linejoin="round" stroke-width="0.846"/>
      <path id="Trazado_42599" data-name="Trazado 42599" d="M.57,6.32c.116-.432.433,0,.814.686A7.505,7.505,0,0,0,4.745,9.8c1.293.322,3.914,1.6,2.968,3.782,0,0-.721-.106-.8.506a1.968,1.968,0,0,0,.055.942,3.029,3.029,0,0,1-2.922-.371C2.67,13.6-.264,9.417.57,6.32" transform="translate(0.054 0.79)" fill="#fff"/>
      <path id="Trazado_42600" data-name="Trazado 42600" d="M.57,6.32c.116-.432.433,0,.814.686A7.505,7.505,0,0,0,4.745,9.8c1.293.322,3.914,1.6,2.968,3.782,0,0-.721-.106-.8.506a1.968,1.968,0,0,0,.055.942,3.029,3.029,0,0,1-2.922-.371C2.67,13.6-.264,9.417.57,6.32Z" transform="translate(0.054 0.79)" fill="none" stroke="#333" stroke-linecap="round" stroke-linejoin="round" stroke-width="0.846"/>
      <path id="Trazado_42601" data-name="Trazado 42601" d="M3.558,12.385a5.237,5.237,0,0,1,1.888-2.353,5.82,5.82,0,0,0-.7-.229,7.51,7.51,0,0,1-3.363-2.8C1,6.322.685,5.887.57,6.32c-.709,2.63,1.3,6.037,2.762,7.655a3.505,3.505,0,0,1,.227-1.59" transform="translate(0.054 0.79)" fill="#ec619f"/>
      <path id="Trazado_42602" data-name="Trazado 42602" d="M.57,6.32c.116-.432.433,0,.814.686A7.505,7.505,0,0,0,4.745,9.8c1.293.322,3.914,1.6,2.968,3.782,0,0-.721-.106-.8.506a1.968,1.968,0,0,0,.055.942,3.029,3.029,0,0,1-2.922-.371C2.67,13.6-.264,9.417.57,6.32" transform="translate(0.054 0.79)" fill="#fff"/>
      <path id="Trazado_42603" data-name="Trazado 42603" d="M.57,6.32c.116-.432.433,0,.814.686A7.505,7.505,0,0,0,4.745,9.8c1.293.322,3.914,1.6,2.968,3.782,0,0-.721-.106-.8.506a1.968,1.968,0,0,0,.055.942,3.029,3.029,0,0,1-2.922-.371C2.67,13.6-.264,9.417.57,6.32Z" transform="translate(0.054 0.79)" fill="none" stroke="#333" stroke-linecap="round" stroke-linejoin="round" stroke-width="0.836"/>
      <line id="Línea_9" data-name="Línea 9" x1="0.175" y1="4.598" transform="translate(80.586 95.125)" fill="none" stroke="#333" stroke-linecap="round" stroke-linejoin="round" stroke-width="1.691"/>
      <line id="Línea_10" data-name="Línea 10" x1="0.175" y1="4.598" transform="translate(65.798 93.372)" fill="none" stroke="#333" stroke-linecap="round" stroke-linejoin="round" stroke-width="1.691"/>
      <path id="Trazado_42604" data-name="Trazado 42604" d="M51.905,35.764a1.4,1.4,0,1,1-1.4-1.4,1.4,1.4,0,0,1,1.4,1.4" transform="translate(6.314 4.418)" fill="#333"/>
      <path id="Trazado_42605" data-name="Trazado 42605" d="M82.512,36.741A1.4,1.4,0,1,1,81,38.018a1.4,1.4,0,0,1,1.516-1.278" transform="translate(10.414 4.724)" fill="#333"/>
    </g>
  </g>
  <text id="Arte" transform="translate(29.875)" fill="#fff" font-size="16" font-family="Interstate-Light, Interstate" font-weight="300"><tspan x="28" y="15">Arte</tspan></text>
  <path id="Trazado_42713" data-name="Trazado 42713" d="M1873.689,73.29H1892.9" transform="translate(-1809.176 -50.22)" fill="none" stroke="#ffce00" stroke-linecap="round" stroke-width="3"/>
</svg>
