<svg id="Grupo_263" data-name="Grupo 263" xmlns="http://www.w3.org/2000/svg" xmlns:xlink="http://www.w3.org/1999/xlink" width="247.411" height="227.079" viewBox="0 0 247.411 227.079">
  <defs>
    <clipPath id="clip-path">
      <rect id="Rectángulo_111" data-name="Rectángulo 111" width="247.409" height="227.078" fill="none"/>
    </clipPath>
  </defs>
  <path id="Trazado_42405" data-name="Trazado 42405" d="M29.614,60.313V164.808l90.5,52.249,90.5-52.249V60.313l-90.5-52.249Z" transform="translate(36.804 10.022)" fill="#ffce00"/>
  <g id="Grupo_262" data-name="Grupo 262" transform="translate(0 0)">
    <g id="Grupo_261" data-name="Grupo 261" clip-path="url(#clip-path)">
      <path id="Trazado_42406" data-name="Trazado 42406" d="M122.778,219.5s1.2-17.474,0-20.448a5.78,5.78,0,0,0-3.907-3.51l-.056-.009c1.846-.11,2.918-1.469,2.913-6.462,0-5.748.834-8.893-4.246-9.413l14.61-.8c-3.461.17-3.5,5.031-3.5,8.891a13.182,13.182,0,0,0,1.6,6.926c-.078-.11-.123-.184-.123-.184l-.673,8.287a63.319,63.319,0,0,0,2.763,22.137l3.992,1.727,17.2-9.5.435-1.4s-.161-3.012-.381-6.565l-.036-.532c5.468.7,19.849,1.8,25.934-4.829a8.775,8.775,0,0,0,1.855-4.764l0,0a6.991,6.991,0,0,0,3.131-7.816h0l.841.433s1.31,1.653,3.414-3.005c0,0,17.884-27.351,18.936-41.927l-1.633-3.3a7.048,7.048,0,0,0,2.384-5.869c-.451-4.358-4.059-7.365-4.059-7.365s1.653-.6-.751-4.959S193.956,98.8,178.178,86.022c0,0-2.555-8.565-8.565-11.27-3.92-1.763-7.895-.46-10.191.659a9.968,9.968,0,0,0-4.934-7.132c-3.086-1.792-6.847-4.764-13.091-6.26l.022.025a6.273,6.273,0,0,0,.3-2.857,8.416,8.416,0,0,0-2.225-5.636H141.5a3.269,3.269,0,0,0,3.248-2.9l3.694-32.359A16.114,16.114,0,0,0,132.434.353H130.6a16.113,16.113,0,0,0-15.978,18.189L118.8,50.7a3.271,3.271,0,0,0,3.243,2.848h.843a8.026,8.026,0,0,0-1.763,5.636,5.481,5.481,0,0,0,.262,2.025c-9.153.886-15.994,3.573-19.046,7.215a10.444,10.444,0,0,0-1.5,5.712s-.087.536-.188,1.474a9.265,9.265,0,0,0-1.617-3.766s-6.161-4.508-12.172-1.8S78.3,81.314,78.3,81.314c-12.156,9.839-19.133,25.2-22.8,33.732C53.056,106.281,43.728,89.7,43.728,89.7L37.619,75.878a2.065,2.065,0,0,0-1.061-1.086l.013,0a6.381,6.381,0,0,0-5.416-6.459s.22-16.469-10.6-23.81c0,0-7.879,10.265-1.083,24.476A4.382,4.382,0,0,0,24.247,72.3a6.379,6.379,0,0,0,1.135,6.542l.161-.058c-.327.312-.507.516-.507.516l8.081,25.678s3.149,13.621,5.564,18.694,5.259,4.306,5.259,4.306l-.007-.034a10.749,10.749,0,0,0,5.114,6.628c5.345,2.911,10.422-1.933,10.422-1.933l-.191-1.379,1.936,1.6h2.5s14.127-18.784,21.641-29.453,5.259-13.674,5.259-13.674a4.937,4.937,0,0,0-.406-.68,1.922,1.922,0,0,1,.406.68s5.127,1.969,9.846-4.537a40.561,40.561,0,0,0,3.23,13.89l4.057,12.625,1.052,7.513s-.644,3.414,2.514,3.714l.942-2.662s.271-.112.758-.278l.018,0-.776.276-.942,3.456s-.361,5.026.893,7.87a2.672,2.672,0,0,0,1.662,1.474,10.034,10.034,0,0,0-1.011.123c-5.32,1.052-9.467,14.226-9.467,14.226-1.5,5.645-1.166,16.4-.677,23.89A8.324,8.324,0,0,0,109.763,179c-.675.04-1.391.081-2.191.121-3.461.17-6.132,5.224-6.132,9.083,0,3.97.733,5.645,2.1,6.289-1-.289-3.737,11.739-3.737,11.739M31.155,68.328a6.374,6.374,0,0,0-5.174,1.5c-.022.018-.04.04-.061.058,1.263-1.413,3.133-2.716,5.235-1.563M183.437,156.2c-1.018,7.895-7.276,23.686-9.162,28.324A1.542,1.542,0,0,0,175,186.48a7.027,7.027,0,0,0-4.4,5.286c-3.541,1.98-13.23,7.686-17.489,13.044-.2-2.922-.415-5.549-.581-6.542a7.635,7.635,0,0,0-2.812-4.412l0,0a12.091,12.091,0,0,0,1.24-6.114c-.184-6.172-.861-10.268-7.038-10.268a6.591,6.591,0,0,0,6.556-7.282c-.807-7.675-2.211-19.512-3.754-25.866-2.4-9.906-9.846-11.133-9.846-11.133a2.485,2.485,0,0,0,2.454-2.054,34.094,34.094,0,0,0,.431-6.661,4.757,4.757,0,0,0,4.358-3.757c.751-3.606,4.43-14.426,4.43-14.426a32.616,32.616,0,0,0,9.245-14.2l.013-.121c4.136,3.959,8.049,2.458,8.049,2.458a1.912,1.912,0,0,1,.4-.68,4.919,4.919,0,0,0-.4.68s-2.254,3.005,5.259,13.674,21.639,29.455,21.639,29.455h1.052v1.5s-9.166,7.814-10.369,17.131" transform="translate(20.766 0.439)" fill="#fff"/>
      <path id="Trazado_42407" data-name="Trazado 42407" d="M77.415,125.9h0a63.11,63.11,0,0,1-2.638-21.538L75.4,96.7a.793.793,0,0,0,.063-.911,12.567,12.567,0,0,1-1.483-6.515c0-4.178.209-7.942,2.714-8.1h.038a.793.793,0,0,0-.043-1.586l-.09,0-14.565.8A.793.793,0,0,0,62,81.973c3.523.359,3.654,1.738,3.564,6.462-.013.675-.027,1.4-.027,2.162,0,5.54-1.357,5.62-2.169,5.67a.769.769,0,0,0-.713.738.819.819,0,0,0,.657.839,4.964,4.964,0,0,1,3.331,3.03c.832,2.057.422,13.145-.056,20.1a.792.792,0,0,0,1.581.11c.126-1.808,1.182-17.745-.054-20.8a6.623,6.623,0,0,0-2.642-3.194c1.413-1.238,1.653-3.8,1.651-6.491,0-.756.011-1.465.025-2.128.058-2.9.1-5.271-1.361-6.69l7.881-.433c-1.269,2.03-1.269,5.41-1.269,7.931a14.609,14.609,0,0,0,1.458,6.89l-.657,8.083A63.477,63.477,0,0,0,76,126.695a.794.794,0,0,0,.357.431l1.5-.428c-1.5.428-.493-.722-.444-.794" transform="translate(76.168 98.914)" fill="#333"/>
      <path id="Trazado_42408" data-name="Trazado 42408" d="M70.727,82.083a.793.793,0,0,0-.13,1.574c.283.049,6.964,1.3,9.207,10.537,1.572,6.477,3.014,18.923,3.734,25.765a5.8,5.8,0,0,1-5.766,6.4.793.793,0,1,0,0,1.586c5.134,0,6.044,2.8,6.244,9.5a11.355,11.355,0,0,1-1.146,5.717.8.8,0,0,0-.092.372.788.788,0,0,0,.388.682,6.837,6.837,0,0,1,2.436,3.855c.141.839.334,3.014.572,6.466a.8.8,0,0,0,.556.7.857.857,0,0,0,.236.036.793.793,0,0,0,.621-.3c4.122-5.183,13.441-10.712,17.254-12.847a.79.79,0,0,0,.392-.547,6.264,6.264,0,0,1,3.9-4.69.792.792,0,0,0,.081-1.444.751.751,0,0,1-.357-.951c1.9-4.674,8.186-20.544,9.216-28.522,1.148-8.895,10.007-16.552,10.1-16.628a.8.8,0,0,0,.278-.6v-1.5a.793.793,0,0,0-.794-.794H127c-1.886-2.512-14.5-19.335-21.387-29.116C99.1,48.079,100.2,44.926,100.4,44.5l.027-.049a3.983,3.983,0,0,1,.339-.567A.793.793,0,0,0,99.5,42.93a3.35,3.35,0,0,0-.372.532c-.922.222-3.815.6-6.924-2.375a.786.786,0,0,0-.81-.2.746.746,0,0,0-.5.639,32.183,32.183,0,0,1-8.987,13.829.8.8,0,0,0-.258.366c-.15.442-3.7,10.907-4.454,14.52a3.95,3.95,0,0,1-3.615,3.126.791.791,0,0,0-.758.814,33.151,33.151,0,0,1-.422,6.5,1.687,1.687,0,0,1-1.671,1.4m3.234-1.128a33.943,33.943,0,0,0,.455-6.1,5.446,5.446,0,0,0,4.329-4.288c.675-3.241,3.815-12.589,4.331-14.121a33.35,33.35,0,0,0,8.96-13.4,8.975,8.975,0,0,0,6.585,2.108c-.15,1.911.588,5.843,5.7,13.1,7.435,10.557,21.513,29.287,21.652,29.473a.8.8,0,0,0,.635.316h.26v.352c-1.595,1.429-9.24,8.691-10.362,17.389-1.007,7.787-7.229,23.5-9.113,28.125a2.332,2.332,0,0,0,.119,2.014,7.875,7.875,0,0,0-3.757,5.01c-3.7,2.086-11.58,6.816-16.133,11.609-.182-2.442-.332-3.994-.453-4.721a8.151,8.151,0,0,0-2.608-4.492A13.37,13.37,0,0,0,85.6,137.4c-.141-4.759-.615-8.875-4.205-10.4a7.379,7.379,0,0,0,3.721-7.206c-.886-8.406-2.259-19.737-3.772-25.972-1.707-7.038-5.827-9.909-8.368-11.039a3.263,3.263,0,0,0,.985-1.828" transform="translate(86.916 50.762)" fill="#333"/>
      <path id="Trazado_42409" data-name="Trazado 42409" d="M207.249,144.036a7.729,7.729,0,0,0,2.209-6.112,12.79,12.79,0,0,0-3.745-7.338,2,2,0,0,0,.087-.2c.419-1.119,0-2.83-1.245-5.087-.431-.778-1.045-2.22-1.823-4.044C199.3,113.213,192.17,96.52,179.3,86c-.475-1.462-3.156-8.933-8.924-11.528a12.551,12.551,0,0,0-9.936.249,10.769,10.769,0,0,0-5.116-6.686c-.608-.352-1.24-.749-1.913-1.173A36.633,36.633,0,0,0,142.867,61.9a7,7,0,0,0,.087-1.651l-.009-.628a8.953,8.953,0,0,0-1.424-4.842h.417a4.062,4.062,0,0,0,4.037-3.6l3.692-32.362A16.9,16.9,0,0,0,132.87,0h-1.832a16.906,16.906,0,0,0-16.765,19.082l4.181,32.162a4.077,4.077,0,0,0,3.38,3.488,10.015,10.015,0,0,0-1.063,4.894,8.439,8.439,0,0,0,.07,1.332c-8.756.978-15.531,3.656-18.707,7.448a10.19,10.19,0,0,0-1.507,4.187,6.515,6.515,0,0,0-.686-.946c-.267-.2-6.607-4.748-12.966-1.886-5.769,2.595-8.449,10.066-8.926,11.528C67.4,90,60.717,102.651,56.054,113.22c-3.082-9-10.842-22.83-11.165-23.4L38.78,76A2.87,2.87,0,0,0,37.8,74.78a7.178,7.178,0,0,0-5.419-6.661c-.083-3.227-1.02-17.084-10.94-23.819a.792.792,0,0,0-1.074.175c-.083.105-8.1,10.817-1.225,25.149a5.161,5.161,0,0,0,4.47,3.934A7.147,7.147,0,0,0,24.816,79.3a.8.8,0,0,0-.1.68l8.065,25.62c.128.558,3.2,13.762,5.62,18.855,1.933,4.062,4.232,4.741,5.41,4.793a11.348,11.348,0,0,0,5.291,6.462c5.78,3.151,11.3-2,11.351-2.054a.775.775,0,0,0,.148-.193l.543.449a.787.787,0,0,0,.5.182h2.505a.8.8,0,0,0,.635-.316c.141-.188,14.219-18.916,21.654-29.473C91.585,97,92.3,93.068,92.161,91.209c1.765.184,4.943-.105,8.117-3.555a39.232,39.232,0,0,0,3.1,12.113l4.028,12.49,1.036,7.4a4.576,4.576,0,0,0,.7,3.2,3.237,3.237,0,0,0,1.846,1.193l-.018.065c-.016.213-.359,5.257.958,8.245a3.433,3.433,0,0,0,.437.731c-5.206,2.016-8.866,13.21-9.294,14.572-1.512,5.674-1.216,16.26-.7,24.144a9.181,9.181,0,0,0,4.378,7.2c-3.266,1.092-5.654,5.71-5.654,9.64,0,3.366.52,5.383,1.716,6.455-.861,1.617-1.978,5.434-3.337,11.4a.794.794,0,1,0,1.548.352c1.077-4.721,2.584-10.187,3.241-11.171a.792.792,0,0,0,.058-1.458c-.763-.361-1.642-1.321-1.642-5.573,0-3.613,2.483-8.148,5.381-8.292.8-.038,1.521-.081,2.2-.121a.792.792,0,0,0,.072-1.574,7.576,7.576,0,0,1-6.374-6.955c-.507-7.765-.8-18.167.641-23.6,1.117-3.539,4.883-12.9,8.864-13.688.224-.043.543-.079.924-.112a.793.793,0,0,0,.17-1.548,1.891,1.891,0,0,1-1.173-1.036c-1.144-2.6-.839-7.341-.852-7.341l.832-3.057.388-.137a.784.784,0,0,0,.511-.846.806.806,0,0,0-.722-.693.8.8,0,0,0-.332.04c-.516.175-.8.294-.8.294l0,0a.8.8,0,0,0-.426.426v0l-.013.038-.718,2.021a1.608,1.608,0,0,1-.825-.563,3.1,3.1,0,0,1-.386-2.1.8.8,0,0,0,0-.253l-1.081-7.646L104.853,99.2a39.355,39.355,0,0,1-3.16-13.616.793.793,0,0,0-1.433-.415c-3.7,5.1-7.54,4.616-8.626,4.349a3.6,3.6,0,0,0-.375-.532.793.793,0,0,0-1.26.96,4.68,4.68,0,0,1,.318.518.772.772,0,0,0,.083.153c.061.117,1.532,3.14-5.253,12.775-6.89,9.781-19.5,26.6-21.387,29.116H61.937l-1.716-1.415a.793.793,0,0,0-1.29.72l.13.955c-1.1.924-5.069,3.8-9.2,1.55a9.967,9.967,0,0,1-4.73-6.15.778.778,0,0,0-.935-.536.648.648,0,0,0-.112.034c-.462.043-2.411-.027-4.252-3.891-2.35-4.939-5.475-18.4-5.522-18.591L26.37,79.952c.047-.047.1-.1.157-.153a.742.742,0,0,0,.045-.962.7.7,0,0,0-.321-.269,5.587,5.587,0,0,1-.83-5.538.794.794,0,0,0-.834-1.077,3.62,3.62,0,0,1-3.963-2.862c-5.558-11.625-.922-20.609.572-23.016,8.137,6.074,9.379,17.844,9.57,21.542-1.669-.348-3.407.4-5,2.184a.755.755,0,0,0,.058,1.056.834.834,0,0,0,1.117.009,5.57,5.57,0,0,1,4.53-1.317h0a5.585,5.585,0,0,1,4.744,5.522,1,1,0,0,0-.013.114.8.8,0,0,0,.462.765,1.28,1.28,0,0,1,.666.686l6.141,13.892c.094.166,9.31,16.6,11.7,25.167a.8.8,0,0,0,.711.581.8.8,0,0,0,.78-.48c4.649-10.819,11.414-24.4,22.569-33.427a.8.8,0,0,0,.26-.39c.025-.083,2.53-8.254,8.132-10.774,5.452-2.451,11.2,1.595,11.243,1.595v0a8.456,8.456,0,0,1,1.447,3.436.782.782,0,0,0,.821.61.8.8,0,0,0,.74-.706c.1-.9.182-1.422.193-1.561a9.96,9.96,0,0,1,1.319-5.2c2.981-3.555,9.729-6.083,18.514-6.935a.792.792,0,0,0,.68-1.027,4.787,4.787,0,0,1-.224-1.788c0-2.328.482-3.9,1.559-5.1a.793.793,0,0,0-.59-1.323h-.843a2.483,2.483,0,0,1-2.456-2.158l-4.181-32.162A15.318,15.318,0,0,1,131.038,1.586h1.832A15.32,15.32,0,0,1,148.09,18.64L144.4,51a2.475,2.475,0,0,1-2.46,2.2h-2.014a.794.794,0,0,0-.59,1.323,7.575,7.575,0,0,1,2.023,5.1l.011.671a4.176,4.176,0,0,1-.186,1.738l-.031.049a.814.814,0,0,0,.144.96.8.8,0,0,0,.538.231A34.744,34.744,0,0,1,152.564,68.2c.691.435,1.339.843,1.962,1.2a9.112,9.112,0,0,1,4.544,6.551.8.8,0,0,0,.413.594.785.785,0,0,0,.72.013c2.4-1.171,6-2.232,9.521-.648,5.6,2.521,8.106,10.691,8.13,10.774a.814.814,0,0,0,.26.39c12.681,10.265,19.757,26.835,23.157,34.8.828,1.94,1.426,3.34,1.9,4.187,1.716,3.111,1.16,3.824,1.171,3.833a.791.791,0,0,0-.507.606.8.8,0,0,0,.274.747c.034.027,3.364,2.864,3.777,6.836a6.226,6.226,0,0,1-2.14,5.212.8.8,0,0,0-.166.931l1.534,3.1c-1.184,14.26-18.613,41.066-18.851,41.443-1.162,2.577-1.929,2.8-2.066,2.839a.855.855,0,0,0-.26-.213l-.855-.435a.794.794,0,0,0-1.121.913,6.185,6.185,0,0,1-2.712,6.894.79.79,0,0,0-.451.68,8.055,8.055,0,0,1-1.644,4.261c-5.784,6.3-19.584,5.3-25.25,4.578a.794.794,0,0,0-.893.839l.036.529c.17,2.783.395,6.731.446,7.659l-.105.076a3.027,3.027,0,0,1,.4.182l.944-.794a.789.789,0,0,0,.283-.648s-.15-2.781-.357-6.154c6.388.72,19.7,1.308,25.687-5.217a9.657,9.657,0,0,0,2.01-4.818,7.766,7.766,0,0,0,3.414-6.462c0-.119,0-.24-.009-.363a1.666,1.666,0,0,0,.668.052c1.135-.141,2.209-1.366,3.225-3.638.733-1.124,18.008-27.688,19.062-42.3a.781.781,0,0,0-.081-.408Z" transform="translate(20.33 0)" fill="#333"/>
      <path id="Trazado_42410" data-name="Trazado 42410" d="M74.74,21.1c-6.771,0-12.259,1.684-12.259,3.763,0,1.07,1.462,2.032,3.8,2.718A2.238,2.238,0,0,1,67,26.94a15.887,15.887,0,0,1,7.179-1.866A9.928,9.928,0,0,1,81.6,27.73c.065.07.114.144.173.215,3.16-.68,6.017-2.077,5.23-3.079C85.625,23.112,81.511,21.1,74.74,21.1" transform="translate(77.652 26.226)" fill="#b3b3b3"/>
      <path id="Trazado_42411" data-name="Trazado 42411" d="M80.271,43.089c0-2.167.915-6.165,2.472-7.769.085-.087,1.162.693,1.254.619-.606-2.972-.686-3.263-1.92-3.263-1.9,0-4.979,7.4-4.979,13.177s1.554,11.171,3.449,11.171c1.034,0,1.317-3.779,1.947-5.986-1.433-1.615-2.223-5.816-2.223-7.949" transform="translate(95.817 40.61)" fill="#ccc"/>
      <path id="Trazado_42412" data-name="Trazado 42412" d="M76.2,51.582c-8.7-.466-17.274,2.005-18.4,5.737a2.715,2.715,0,0,1,2.158,2.431,6.186,6.186,0,0,1,4.3-4.237c3.894-1.321,8.532-.626,12.49-.052,3.279.475,6.5,1.216,9.747,1.873a2.6,2.6,0,0,1,1.983,3.481c.233.011.464.022.7.036.031,0,.063.011.1.013A2.417,2.417,0,0,1,91.4,59.607c-.188-4.033-6.132-7.538-15.2-8.025" transform="translate(71.836 64.037)" fill="#e6e6e6"/>
      <path id="Trazado_42413" data-name="Trazado 42413" d="M73.9,68.734c3.436.011,6.856.146,10.292.238q.932.024,1.864.016l7.2-1.169a12.592,12.592,0,0,0,1.619-.778C93.6,65.372,89.8,61.355,89.8,61.355c-4.777-2.7-16.462-1.662-16.462-1.662-8.929.126-12.044,1.662-12.044,1.662a14.242,14.242,0,0,0-4.373,5.291c5,2.409,11.683,2.072,16.976,2.088" transform="translate(70.741 73.945)" fill="#e6e6e6"/>
      <path id="Trazado_42414" data-name="Trazado 42414" d="M64.906,33.709s-6.161-4.508-12.172-1.8-8.565,11.27-8.565,11.27,11.721,6.161,12.322,8.415c0,0,4.275,3.048,9.234-5.217C65.725,46.374,67.461,36.715,64.906,33.709Z" transform="translate(54.894 38.579)" fill="none" stroke="#333" stroke-width="0.34"/>
      <path id="Trazado_42415" data-name="Trazado 42415" d="M34,70.184c2.4-4.358,7.02-20.959,22.8-33.732,0,0,10.371,4.358,12.324,8.415,0,0,2.254,3.005-5.259,13.674S42.225,88,42.225,88H39.72l-2.447-2.021" transform="translate(42.259 45.303)" fill="none" stroke="#333" stroke-width="0.34"/>
      <path id="Trazado_42416" data-name="Trazado 42416" d="M85.307,53.551h2.012a3.271,3.271,0,0,0,3.25-2.9L94.26,18.292A16.111,16.111,0,0,0,78.253.354H76.419A16.112,16.112,0,0,0,60.441,18.541L64.621,50.7a3.27,3.27,0,0,0,3.243,2.848H69.17" transform="translate(74.947 0.44)" fill="none" stroke="#333" stroke-width="0.354"/>
      <path id="Trazado_42417" data-name="Trazado 42417" d="M84.483,35.677l-1.81-.321a7.479,7.479,0,0,0,.206-3.068,9.1,9.1,0,0,0-18.191,0,7.583,7.583,0,0,0,.049,2.333l-1.254.244a8.517,8.517,0,0,1-.4-2.577c0-5.237,4.8-10.29,10.7-10.29s9.788,3.833,10.958,8.938a11.5,11.5,0,0,1-.26,4.741" transform="translate(78.402 27.339)" fill="#333"/>
      <path id="Trazado_42418" data-name="Trazado 42418" d="M63.945,25.3l-.444-.677C63.714,24.48,68.763,22,73.266,22c4.483,0,8.729,2.682,8.94,2.8l.41.713c-.049-.027-5.073-2.7-9.35-2.7s-9.272,2.456-9.321,2.49" transform="translate(78.92 27.338)" fill="#333"/>
      <path id="Trazado_42419" data-name="Trazado 42419" d="M113.1,41.918a9.9,9.9,0,0,0-4.959-7.363c-4.658-2.7-11.721-7.213-24.8-7.063S59.9,30.042,56,34.7a10.444,10.444,0,0,0-1.5,5.712S52.24,54.09,57.35,65.362l4.057,12.623L62.459,85.5s-.644,3.414,2.512,3.714l.944-2.662s14.148-5.86,27.5,2.4v1.8A4.757,4.757,0,0,0,97.774,87c.751-3.606,4.43-14.426,4.43-14.426a32.638,32.638,0,0,0,9.245-14.2" transform="translate(67.111 34.163)" fill="none" stroke="#333" stroke-width="0.361"/>
      <path id="Trazado_42420" data-name="Trazado 42420" d="M80.984,33.855a16.467,16.467,0,0,0-1.052,15.327" transform="translate(97.576 42.075)" fill="none" stroke="#333" stroke-linecap="round" stroke-width="0.355"/>
      <path id="Trazado_42421" data-name="Trazado 42421" d="M80.707,35.808S86.868,31.3,92.878,34s8.565,11.27,8.565,11.27S89.723,51.436,89.122,53.69a7.329,7.329,0,0,1-5.982-.877A9.807,9.807,0,0,1,78.5,43.351C78.755,40.653,79.35,37.405,80.707,35.808Z" transform="translate(97.498 41.188)" fill="none" stroke="#333" stroke-width="0.34"/>
      <path id="Trazado_42422" data-name="Trazado 42422" d="M121.7,82.732s1.653-.6-.751-4.959-9.467-26.45-25.247-39.222c0,0-10.369,4.358-12.322,8.415,0,0-2.254,3.005,5.259,13.677S110.284,90.1,110.284,90.1h2.5Z" transform="translate(103.236 47.912)" fill="none" stroke="#333" stroke-width="0.34"/>
      <path id="Trazado_42423" data-name="Trazado 42423" d="M106.594,72.375s3.954-2.4,3.5-6.762-4.057-7.363-4.057-7.363l-8.917,7.363H95.671v1.5l9.016,2.254Z" transform="translate(118.901 72.394)" fill="none" stroke="#333" stroke-width="0.34"/>
      <path id="Trazado_42424" data-name="Trazado 42424" d="M97.042,114.369l.843.431s1.308,1.653,3.411-3.005c0,0,17.884-27.349,18.936-41.927L118.6,66.572l-1.119.89-1.906-3.005L106.558,62.2s-9.169,7.814-10.371,17.133c-1.018,7.895-7.276,23.686-9.162,28.322a1.544,1.544,0,0,0,.731,1.958" transform="translate(108.014 77.307)" fill="none" stroke="#333" stroke-width="0.34"/>
      <path id="Trazado_42425" data-name="Trazado 42425" d="M97.581,87.993,93.62,85A11.3,11.3,0,0,0,88,82.779l-.415-.045" transform="translate(108.854 102.823)" fill="none" stroke="#333" stroke-linecap="round" stroke-width="0.34"/>
      <path id="Trazado_42426" data-name="Trazado 42426" d="M95.9,96.167a7.027,7.027,0,1,0-10.593-7.085" transform="translate(106.021 103.323)" fill="none" stroke="#333" stroke-linecap="round" stroke-width="0.361"/>
      <path id="Trazado_42427" data-name="Trazado 42427" d="M104.774,98.182s4.658-5.486-.751-10.445c0,0-3.983-2.855-6.612-2.328,0,0-18.936,9.992-20.739,17.281C76.672,102.69,97.185,106.447,104.774,98.182Z" transform="translate(95.289 106.067)" fill="none" stroke="#333" stroke-linecap="round" stroke-linejoin="round" stroke-width="0.707"/>
      <path id="Trazado_42428" data-name="Trazado 42428" d="M84.478,67.928a2.485,2.485,0,0,0,2.454-2.057,34.054,34.054,0,0,0,.431-6.659v-1.8s-4.25-3.4-12.47-4.266a47.447,47.447,0,0,0-5.672-.271,43.994,43.994,0,0,0-9.13,1.631l-.229.5-.942,3.456s-.361,5.026.893,7.868a2.689,2.689,0,0,0,2.467,1.6Z" transform="translate(73.165 65.71)" fill="none" stroke="#333" stroke-width="0.361"/>
      <path id="Trazado_42429" data-name="Trazado 42429" d="M89.447,59.748s7.442,1.227,9.846,11.133c1.543,6.352,2.947,18.191,3.754,25.866.41,3.894-3.1,7.181-8.949,7.4l-24.586,1.294H62.919c-2.777.233-7.336-3.037-7.632-7.574-.489-7.489-.825-18.245.677-23.89,0,0,4.147-13.174,9.467-14.226C68.775,59.086,89.447,59.748,89.447,59.748Z" transform="translate(68.196 73.89)" fill="none" stroke="#333" stroke-width="0.361"/>
      <path id="Trazado_42430" data-name="Trazado 42430" d="M66.594,89.158c0,8.866,5.006,11.183,11.183,11.183s10.629-3.218,10.391-11.183c-.184-6.174-.07-9.476-6.244-9.476-2.317,0-8.186.386-11.115.529C67.348,80.382,66.594,85.3,66.594,89.158Z" transform="translate(82.764 99.03)" fill="none" stroke="#333" stroke-width="0.361"/>
      <path id="Trazado_42431" data-name="Trazado 42431" d="M54.488,89.154c0,8.866,3.651,6.3,9.828,6.3S74.785,100,74.777,90.02c0-6.177.706-9.254-5.47-9.254-2.317,0-5.757-.841-8.686-.7C57.159,80.241,54.488,85.294,54.488,89.154Z" transform="translate(67.718 99.492)" fill="none" stroke="#333" stroke-width="0.361"/>
      <path id="Trazado_42432" data-name="Trazado 42432" d="M69.78,117.686A63.351,63.351,0,0,1,67.015,95.55l.673-8.287s3.384,5.582,11.485,4.34a14.551,14.551,0,0,0,8.965-4.972,9.307,9.307,0,0,1,2.021,4.412c.166,1,.379,3.649.583,6.592" transform="translate(83.142 107.665)" fill="none" stroke="#333" stroke-width="0.361"/>
      <path id="Trazado_42433" data-name="Trazado 42433" d="M77.654,93.458c.22,3.553.381,6.567.381,6.567" transform="translate(96.509 116.151)" fill="none" stroke="#333" stroke-width="0.361"/>
      <path id="Trazado_42434" data-name="Trazado 42434" d="M53.757,98.656S56.5,86.628,57.491,86.917a33.1,33.1,0,0,0,5.008.1,36.272,36.272,0,0,1,5.688.318l4.64.628a5.787,5.787,0,0,1,3.907,3.51c1.2,2.974,0,18.55,0,18.55" transform="translate(66.81 108.015)" fill="none" stroke="#333" stroke-width="0.361"/>
      <path id="Trazado_42435" data-name="Trazado 42435" d="M39.867,53.718s-5.345.283-8.283,2.857l-2.94,2.573s.227,6.192,5.571,9.1,9.871-1.714,9.871-1.714l-.635-8.76a4.9,4.9,0,0,0-3.575-4.057Z" transform="translate(35.599 66.761)" fill="none" stroke="#333" stroke-width="0.34"/>
      <path id="Trazado_42436" data-name="Trazado 42436" d="M33,34.767l6.109,13.825S49,64.184,50.884,75.505a3.543,3.543,0,0,1-.8,3.423s-5.3.819-6.8,1.837-4.43,3.593-4.43,3.593l.464,2.51s-2.842.769-5.257-4.3-5.564-18.7-5.564-18.7L20.422,38.189a13.152,13.152,0,0,1,7.3-3.988S31.845,32.143,33,34.767Z" transform="translate(25.381 41.552)" fill="none" stroke="#333" stroke-width="0.34"/>
      <path id="Trazado_42437" data-name="Trazado 42437" d="M32.643,37.162A6.387,6.387,0,1,0,21.451,41.22" transform="translate(24.695 38.064)" fill="none" stroke="#333" stroke-width="0.34"/>
      <path id="Trazado_42438" data-name="Trazado 42438" d="M31.155,43.856s.22-16.469-10.6-23.81c0,0-7.879,10.263-1.083,24.476a4.382,4.382,0,0,0,4.775,3.308S27.317,41.752,31.155,43.856Z" transform="translate(20.766 24.913)" fill="none" stroke="#333" stroke-width="0.34"/>
      <path id="Trazado_42439" data-name="Trazado 42439" d="M28.574,59.615l-.608-.46c4.892-7.74,12.066-6.287,12.344-6.242l-.112.754c-.065-.009-6.464-.872-11.625,5.948" transform="translate(34.757 65.592)" fill="#333"/>
      <path id="Trazado_42440" data-name="Trazado 42440" d="M55.444,34.219a3.611,3.611,0,0,0,3.743,1.639c10.155-2.005,24.83-3.174,36.558,0,10.463,2.833,11.3,0,11.3,0A38.568,38.568,0,0,0,88.736,28.3c-10.844-1.332-24.4-.659-33.292,5.919" transform="translate(68.907 34.471)" fill="#e6e6e6"/>
      <path id="Trazado_42441" data-name="Trazado 42441" d="M153.781,215.735s-.161-3.012-.381-6.565l-.036-.532c5.468.7,19.849,1.8,25.934-4.829a8.775,8.775,0,0,0,1.855-4.764l0,0a6.991,6.991,0,0,0,3.131-7.816h0l.841.433s1.31,1.653,3.414-3.005c0,0,17.884-27.351,18.936-41.927l-1.633-3.3a7.048,7.048,0,0,0,2.384-5.869c-.451-4.358-4.059-7.365-4.059-7.365s1.653-.6-.751-4.959S193.956,98.8,178.178,86.022c0,0-2.555-8.565-8.565-11.27-3.92-1.763-7.895-.46-10.191.659a9.968,9.968,0,0,0-4.934-7.132c-3.086-1.792-6.991-4.907-13.235-6.4a15.2,15.2,0,0,0,.119-3.29,11.1,11.1,0,0,0-1.426-5.035H141.5a3.269,3.269,0,0,0,3.248-2.9l3.694-32.359A16.114,16.114,0,0,0,132.434.353H130.6a16.113,16.113,0,0,0-15.978,18.189L118.8,50.7a3.271,3.271,0,0,0,3.243,2.848h1.308a8.407,8.407,0,0,0-2.227,5.636,5.481,5.481,0,0,0,.262,2.025c-9.153.886-15.994,3.573-19.046,7.215a10.444,10.444,0,0,0-1.5,5.712s-.087.536-.188,1.474a9.265,9.265,0,0,0-1.617-3.766s-6.161-4.508-12.172-1.8S78.3,81.314,78.3,81.314c-12.156,9.839-19.133,25.2-22.8,33.732C53.056,106.281,43.728,89.7,43.728,89.7L37.619,75.878a2.065,2.065,0,0,0-1.061-1.086l.013,0a6.381,6.381,0,0,0-5.416-6.459s.22-16.469-10.6-23.81c0,0-7.879,10.265-1.083,24.476A4.382,4.382,0,0,0,24.247,72.3a6.379,6.379,0,0,0,1.135,6.542l.161-.058c-.327.312-.507.516-.507.516l8.081,25.678s3.149,13.621,5.564,18.694,5.259,4.306,5.259,4.306l-.007-.034a10.749,10.749,0,0,0,5.114,6.628c5.345,2.911,10.422-1.933,10.422-1.933l-.191-1.379,1.936,1.6h2.5s14.127-18.784,21.641-29.453,5.259-13.674,5.259-13.674a4.937,4.937,0,0,0-.406-.68,1.922,1.922,0,0,1,.406.68s5.127,1.969,9.846-4.537a40.561,40.561,0,0,0,3.23,13.89l4.057,12.625,1.052,7.513s-.644,3.414,2.514,3.714l.942-2.662s.271-.112.758-.278l.018,0-.776.276-.942,3.456s-.361,5.026.893,7.87a2.672,2.672,0,0,0,1.662,1.474,10.034,10.034,0,0,0-1.011.123c-5.32,1.052-9.467,14.226-9.467,14.226-1.5,5.645-1.166,16.4-.677,23.89A8.324,8.324,0,0,0,109.763,179c-.675.04-1.391.081-2.191.121-3.461.17-6.132,5.224-6.132,9.083,0,3.97.733,5.645,2.1,6.289-1-.289-3.737,11.739-3.737,11.739M122.778,217.6s1.2-15.576,0-18.55a5.78,5.78,0,0,0-3.907-3.51l-.056-.009c1.846-.11,2.918-1.469,2.913-6.462,0-5.748.834-8.893-4.246-9.413l14.61-.8c-3.461.17-3.5,5.031-3.5,8.891a13.182,13.182,0,0,0,1.6,6.926c-.078-.11-.123-.184-.123-.184l-.673,8.287a63.319,63.319,0,0,0,2.763,22.137m-101-156.584a6.374,6.374,0,0,0-5.174,1.5c-.022.018-.04.04-.061.058C27.183,68.478,29.053,67.175,31.155,68.328ZM183.437,156.2c-1.018,7.895-7.276,23.686-9.162,28.324A1.542,1.542,0,0,0,175,186.48a7.027,7.027,0,0,0-4.4,5.286c-3.541,1.98-13.23,7.686-17.489,13.044-.2-2.922-.415-5.549-.581-6.542a9.3,9.3,0,0,0-2.019-4.412l0,0c.855-1.608.523-3.629.449-6.114-.184-6.172-.861-10.268-7.038-10.268a6.591,6.591,0,0,0,6.556-7.282c-.807-7.675-2.211-19.512-3.754-25.866-2.4-9.906-9.846-11.133-9.846-11.133a2.485,2.485,0,0,0,2.454-2.054,34.094,34.094,0,0,0,.431-6.661,4.757,4.757,0,0,0,4.358-3.757c.751-3.606,4.43-14.426,4.43-14.426a32.616,32.616,0,0,0,9.245-14.2l.013-.121c4.136,3.959,8.049,2.458,8.049,2.458a1.912,1.912,0,0,1,.4-.68,4.919,4.919,0,0,0-.4.68s-2.254,3.005,5.259,13.674,21.639,29.455,21.639,29.455h1.052v1.5S184.64,146.885,183.437,156.2Z" transform="translate(20.766 0.439)" fill="none" stroke="#333" stroke-linecap="round" stroke-linejoin="round" stroke-width="0.707"/>
      <path id="Trazado_42442" data-name="Trazado 42442" d="M10.36,13.822S30.285,24.4,39.438,34.422c3.086,3.375,6.374,6.749,9.379,9.736a2.046,2.046,0,0,1-2.4,3.257l-13.627-7.35a13.878,13.878,0,0,1-2.155-1.44C26.346,35.131,9.9,21.584,7.4,17.433c0,0,.1-3.183,2.961-3.611" transform="translate(9.196 17.178)" fill="#fff"/>
      <path id="Trazado_42443" data-name="Trazado 42443" d="M10.36,13.822S30.285,24.4,39.438,34.422c3.086,3.375,6.374,6.749,9.379,9.736a2.046,2.046,0,0,1-2.4,3.257l-13.627-7.35a13.878,13.878,0,0,1-2.155-1.44C26.346,35.131,9.9,21.584,7.4,17.433,7.4,17.433,7.5,14.25,10.36,13.822Z" transform="translate(9.196 17.178)" fill="none" stroke="#333" stroke-linecap="round" stroke-linejoin="round" stroke-width="0.846"/>
      <path id="Trazado_42444" data-name="Trazado 42444" d="M8.359,12.835a10.2,10.2,0,0,1,3.1,2.227A4.135,4.135,0,0,0,9.184,17.89L6.813,16.069A1.874,1.874,0,0,1,6.9,13.034l.061-.04a1.532,1.532,0,0,1,1.4-.159" transform="translate(7.559 15.826)" fill="#fff"/>
      <path id="Trazado_42445" data-name="Trazado 42445" d="M8.359,12.835a10.2,10.2,0,0,1,3.1,2.227A4.135,4.135,0,0,0,9.184,17.89L6.813,16.069A1.874,1.874,0,0,1,6.9,13.034l.061-.04A1.532,1.532,0,0,1,8.359,12.835Z" transform="translate(7.559 15.826)" fill="none" stroke="#333" stroke-linecap="round" stroke-linejoin="round" stroke-width="0.846"/>
      <path id="Trazado_42446" data-name="Trazado 42446" d="M.715,6.491c.231-.859.861,0,1.617,1.364S6.443,12.77,9.013,13.41s7.778,3.183,5.9,7.516c0,0-1.433-.211-1.6,1a3.911,3.911,0,0,0,.11,1.873,6.019,6.019,0,0,1-5.807-.738C4.888,20.957-.943,12.645.715,6.491" transform="translate(0.526 7.639)" fill="#fff"/>
      <path id="Trazado_42447" data-name="Trazado 42447" d="M.715,6.491c.231-.859.861,0,1.617,1.364S6.443,12.77,9.013,13.41s7.778,3.183,5.9,7.516c0,0-1.433-.211-1.6,1a3.911,3.911,0,0,0,.11,1.873,6.019,6.019,0,0,1-5.807-.738C4.888,20.957-.943,12.645.715,6.491Z" transform="translate(0.526 7.639)" fill="none" stroke="#333" stroke-linecap="round" stroke-linejoin="round" stroke-width="0.846"/>
      <path id="Trazado_42448" data-name="Trazado 42448" d="M6.654,18.543a10.408,10.408,0,0,1,3.752-4.676,11.567,11.567,0,0,0-1.393-.455c-2.573-.639-5.923-4.2-6.684-5.558S.944,5.631.715,6.49C-.694,11.716,3.3,18.487,6.2,21.7a6.965,6.965,0,0,1,.451-3.16" transform="translate(0.525 7.639)" fill="#ec619f"/>
      <path id="Trazado_42449" data-name="Trazado 42449" d="M.715,6.491c.231-.859.861,0,1.617,1.364S6.443,12.77,9.013,13.41s7.778,3.183,5.9,7.516c0,0-1.433-.211-1.6,1a3.911,3.911,0,0,0,.11,1.873,6.019,6.019,0,0,1-5.807-.738C4.888,20.957-.943,12.645.715,6.491Z" transform="translate(0.526 7.639)" fill="none" stroke="#333" stroke-linecap="round" stroke-linejoin="round" stroke-width="0.846"/>
      <line id="Línea_3" data-name="Línea 3" x1="0.348" y1="9.137" transform="translate(160.148 189.041)" fill="none" stroke="#333" stroke-linecap="round" stroke-linejoin="round" stroke-width="1.691"/>
      <line id="Línea_4" data-name="Línea 4" x1="0.348" y1="9.137" transform="translate(130.759 185.557)" fill="none" stroke="#333" stroke-linecap="round" stroke-linejoin="round" stroke-width="1.691"/>
      <path id="Trazado_42450" data-name="Trazado 42450" d="M54.672,37.148a2.784,2.784,0,1,1-2.786-2.786,2.785,2.785,0,0,1,2.786,2.786" transform="translate(61.026 42.706)" fill="#333"/>
      <path id="Trazado_42451" data-name="Trazado 42451" d="M84.014,36.746A2.784,2.784,0,1,1,81,39.285a2.787,2.787,0,0,1,3.012-2.539" transform="translate(100.657 45.655)" fill="#333"/>
    </g>
  </g>
</svg>
