<svg id="Grupo_266" data-name="Grupo 266" xmlns="http://www.w3.org/2000/svg" xmlns:xlink="http://www.w3.org/1999/xlink" width="236.207" height="225.803" viewBox="0 0 236.207 225.803">
  <defs>
    <clipPath id="clip-path">
      <rect id="Rectángulo_112" data-name="Rectángulo 112" width="236.207" height="225.803" fill="none"/>
    </clipPath>
  </defs>
  <path id="Trazado_42452" data-name="Trazado 42452" d="M0,60.33V162.962l88.88,51.316,88.883-51.316V60.33L88.88,9.014Z" transform="translate(0 10.842)" fill="#354093"/>
  <g id="Grupo_265" data-name="Grupo 265" transform="translate(0 0)">
    <g id="Grupo_264" data-name="Grupo 264" clip-path="url(#clip-path)">
      <path id="Trazado_42453" data-name="Trazado 42453" d="M223.519,90.7c-2.784-3.073-10.7-9.551-26.7-7.393a3.741,3.741,0,0,0-2.143,2.286,6.245,6.245,0,0,0-9.549,3l.011.011a2.026,2.026,0,0,0-1.353.63L173.375,99.812s-12.329,9.99-18.684,19.083c-2.062-4.465-5.478-21.717-20.048-35.282,0,0-1.921-8.567-7.626-11.626s-12.049.941-12.049.941c-1.249,1.28-1.694,4-1.817,6.573.053-2.705-.106-4.45-.106-4.45a10.252,10.252,0,0,0-1.086-5.7c-2.7-3.714-8.937-7.152-17.625-8.657a3.769,3.769,0,0,0,.245-1.645,10.159,10.159,0,0,0-3.333-7.941l.894-.156a3.215,3.215,0,0,0,2.663-3.3L93.466,15.829A15.825,15.825,0,0,0,74.959.9l-1.773.306A15.825,15.825,0,0,0,60.693,21.245l8.99,30.7a3.211,3.211,0,0,0,3.63,2.262l1.075-.185a12.833,12.833,0,0,0-.938,2.229,11.741,11.741,0,0,0-.108,4.5c-6.481,1-9.236,3.326-12.466,4.912a9.79,9.79,0,0,0-5.318,6.655c-2.174-1.253-5.978-2.8-9.941-1.339C39.544,73.22,36.46,83.3,36.46,83.3l-1.17-.145C20.746,96.794,15.4,118.939,13.358,123.378s-.381,4.912-.381,4.912a12.189,12.189,0,0,0-3.45,7.5c-.132,4.3,2.174,6.066,2.174,6.066l-.582,2.983-.4,3.6.11.269a10.4,10.4,0,0,0,4.582,5.194c13.276,7.3,39.879,11.115,39.879,11.115,4.8,1.471,4.432-.566,4.432-.566l.227-.9.009-.031a6.853,6.853,0,0,0,1.17,1.381c.132.117.275.214.412.317q-.01,1.636-.007,3.306a9.571,9.571,0,0,0,4.8,8.038c-4.388.586-4.328,3.749-4.489,9.2-.143,4.758,1.425,7.782,4.036,9.43a13.969,13.969,0,0,1-4.379-3.43,9.135,9.135,0,0,0-1.983,4.331c-.165.982-.374,3.586-.575,6.474l-.275,4.236c-.216,3.489-.374,6.448-.374,6.448l.2.117a6.216,6.216,0,0,1-.438.645L77.428,225l2.1-2.734a62.22,62.22,0,0,0,2.716-21.742l-.661-8.139s-.046.07-.121.178a12.945,12.945,0,0,0,1.566-6.8c0-2.659-.368-5.82-1.756-7.534l10.1.531c-1.936,1.256-1.6,4.013-1.606,8.3,0,4.906,1.051,6.238,2.864,6.346l-.057.009a5.677,5.677,0,0,0-3.837,3.445c-1.181,2.923.2,23.2.2,23.2l-.2-1.251c-.075-1.02,22.568-13.367,22.568-13.367s-2.69-13.338-3.668-13.054l-.026,0c1.353-.623,2.086-2.26,2.086-6.181,0-3.165-1.833-7.137-4.417-8.463a13.984,13.984,0,0,0,3.163-8.126c.478-7.355.811-17.92-.665-23.464,0,0-4.073-12.939-9.3-13.972-.236-.046-.582-.086-1-.121a2.624,2.624,0,0,0,1.641-1.449c1.229-2.791.877-7.727.877-7.727l-.218-.8c2.736-.315,2.4-3.417,2.4-3.417l1.542-7.291L108.551,99.3c3.441-6.377,4.37-13.745,4.564-18.675a42.7,42.7,0,0,0,.192,4.657c4.3,8.437,8.692,5.74,8.692,5.74a1.9,1.9,0,0,1,.421-.6,4.792,4.792,0,0,0-.421.6s-2.414,2.791,4.223,13.756,19.2,30.33,19.2,30.33l2.454.17,2.529-1.809-.28,1.965s4.121,4.84,9.556,2.348a9.87,9.87,0,0,0,3.769-3.024c.8-.374,2.663.965,3.7-.029,3.98-3.824,10.666-17.2,10.666-17.2l16.342-20.783s-.1-.253-.289-.65l.13.11a6.192,6.192,0,0,0,2.152-1.934c1.582.524,17.257,5.474,27.015-.9a1.776,1.776,0,0,0,.352-2.679M73.027,132.191s-7.309,1.2-9.67,10.935a60.591,60.591,0,0,0-1.319,9.034,1.51,1.51,0,0,0-.54-.344c-4.643-1.617-20.347-7.247-26.83-11.617-3.912-2.637-8.884-3.485-12.809-3.683l1.908-.28-.108-1.471,1.031-.075s12.5-19.409,19.1-30.4,4.176-13.77,4.176-13.77a7.211,7.211,0,0,0,5.921-.454,8.824,8.824,0,0,0,2.13-1.485l.007.2a75.428,75.428,0,0,0,8.1,18.263s2.868,8.987,3.359,12.574,4.016,5.84,4.016,5.84l.553-.209c.013-1.414.015-2.947.015-3.309v1.692a33.272,33.272,0,0,0,.423,6.54,2.418,2.418,0,0,0,2.161,1.976c-1.011.026-1.615.044-1.615.044" transform="translate(11.452 0.8)" fill="#fff"/>
      <path id="Trazado_42454" data-name="Trazado 42454" d="M15.259,87.9a.758.758,0,0,0-.3.211.8.8,0,0,0-.159.284.734.734,0,0,0-.033.26.792.792,0,0,0,.258.544.763.763,0,0,0,.3.17.717.717,0,0,0,.2.031c3.522.181,8.529.943,12.4,3.551,6.564,4.425,22.332,10.08,27.008,11.708a.74.74,0,0,1,.258.17.779.779,0,0,0,.537.216.782.782,0,0,0,.778-.714,59.229,59.229,0,0,1,1.3-8.915c2.2-9.073,8.765-10.3,8.939-10.34l1.612-.044a.779.779,0,0,0,.059-1.553,1.632,1.632,0,0,1-1.474-1.333,31.313,31.313,0,0,1-.425-5.016c0-.4,0-.8.007-1.183,0-.07,0-.141,0-.211V73.966a.778.778,0,1,0-1.555,0s0,.883-.007,1.971c0,.165,0,.328-.007.489a8.094,8.094,0,0,1-3.022-4.809c-.493-3.608-3.269-12.333-3.388-12.7a.791.791,0,0,0-.084-.181,75.287,75.287,0,0,1-7.974-17.867l-.007-.2a.774.774,0,0,0-.478-.7.765.765,0,0,0-.83.148,8.12,8.12,0,0,1-1.945,1.355A6.457,6.457,0,0,1,42,41.934a.794.794,0,0,0-.879.093.763.763,0,0,0-.095,1.077l.011.011c.082.134,1.7,3.007-4.236,12.884-6.049,10.073-17.2,27.451-18.871,30.05l-.643.046a.768.768,0,0,0-.533.267.782.782,0,0,0-.187.566l.053.749-1.174.174a.682.682,0,0,0-.192.051m3.176-.328a.785.785,0,0,0,.6-.355c.126-.194,12.578-19.545,19.107-30.416,4.351-7.243,4.9-11.133,4.67-13.06a8.568,8.568,0,0,0,5.108-.866,9.545,9.545,0,0,0,1.311-.791,78.208,78.208,0,0,0,7.86,17.4c.3.958,2.85,9.062,3.3,12.349.533,3.9,4.21,6.291,4.366,6.39a.8.8,0,0,0,.227.1,31.511,31.511,0,0,0,.419,4.093,3.139,3.139,0,0,0,.524,1.275c-1.947.557-7.578,2.875-9.639,11.362a56.961,56.961,0,0,0-1.236,8c-5.064-1.771-20.021-7.185-26.259-11.393a24.475,24.475,0,0,0-10.578-3.588l-.035-.48Z" transform="translate(17.763 48.006)" fill="#333"/>
      <path id="Trazado_42455" data-name="Trazado 42455" d="M52.309,118.081c-.408-6.78-.67-15.928.07-17.763a4.869,4.869,0,0,1,3.287-2.976.779.779,0,0,0-.066-1.549c-.8-.046-2.137-.128-2.132-5.569,0-.586,0-1.145-.011-1.674-.035-3.461,0-5.159,1.262-5.974a.778.778,0,0,0-.383-1.432l-10.1-.531a.746.746,0,0,0-.736.425.781.781,0,0,0,.09.844c1.02,1.26,1.582,3.76,1.582,7.042a12.332,12.332,0,0,1-1.456,6.4.775.775,0,0,0,.062.892l.612,7.523C44.062,124,40.234,127.9,40.35,128.161c.1.225,1.839-1.062,1.839-1.062.163-.095,1.185-.54,1.245-.718a71.532,71.532,0,0,0,2.507-22.759l-.645-7.93a14.336,14.336,0,0,0,1.432-6.767,17.124,17.124,0,0,0-1.115-6.679l7.009.368c-.769,1.419-.749,3.432-.723,5.952q.01.786.011,1.659c0,2.641.234,5.152,1.619,6.368a6.544,6.544,0,0,0-2.593,3.141c-1.214,3-.176,18.653-.055,20.429a.776.776,0,0,0,.41.634.765.765,0,0,0,.595.031,2.926,2.926,0,0,1,.423-2.747" transform="translate(48.53 96.957)" fill="#333"/>
      <path id="Trazado_42456" data-name="Trazado 42456" d="M224.521,90.288c-2.751-3.038-10.917-9.864-27.48-7.624a4.123,4.123,0,0,0-2.247,1.93,7.021,7.021,0,0,0-9.811,3.43,2.808,2.808,0,0,0-1.326.778L173.308,99.322c-.119.095-11.463,9.329-17.995,18.085-.256-.7-.54-1.544-.861-2.5-2.41-7.181-6.886-20.515-18.68-31.586-.368-1.467-2.487-8.968-7.963-11.9-6.033-3.236-12.556.793-12.972,1.082a4.337,4.337,0,0,0-.6.78A10.065,10.065,0,0,0,113.014,69c-2.93-4.031-9.351-7.3-17.276-8.811a3.885,3.885,0,0,0,.024-.467c0-.134.007-.293.02-.511a10.731,10.731,0,0,0-2.579-7.5,4.007,4.007,0,0,0,2.806-3.978L94.669,15.909A16.6,16.6,0,0,0,75.251.245L73.478.551A16.6,16.6,0,0,0,60.371,21.577l8.99,30.7a3.949,3.949,0,0,0,4.124,2.859c-.137.339-.256.672-.355,1a13.366,13.366,0,0,0-.267,4.084,28.056,28.056,0,0,0-9.772,3.705c-.718.405-1.414.8-2.132,1.15a10.58,10.58,0,0,0-5.467,6.2,12.1,12.1,0,0,0-9.719-.919c-5.529,2.042-8.624,9.9-9.426,12.2l-.535-.066a.765.765,0,0,0-.63.2c-11.97,11.225-17.805,28.209-20.609,36.37-.632,1.844-1.132,3.3-1.5,4.093-1.06,2.3-1.346,4.009-.855,5.073.031.066.064.13.1.187a12.559,12.559,0,0,0-3.143,7.456,8.555,8.555,0,0,0,2.108,6.366l-.511,2.619-.405,3.6a.814.814,0,0,0,.055.383l.11.269a11.224,11.224,0,0,0,4.928,5.582c13.248,7.285,39.053,11.047,40.027,11.177,2.449.751,4.051.751,4.892.007a1.683,1.683,0,0,0,.4-.526c.086.084.174.167.264.247.044.04.09.075.143.117-.007.965-.009,1.936,0,2.921a10.386,10.386,0,0,0,3.707,7.7c-3.163,1.256-3.258,4.588-3.383,8.972l-.015.535a15.109,15.109,0,0,0,.674,5.282.745.745,0,0,0-.207-.037.713.713,0,0,0-.606.251,9.863,9.863,0,0,0-2.179,4.732c-.148.9-.346,3.1-.582,6.551l-.275,4.238c-.22,3.491-.377,6.454-.377,6.454a.778.778,0,0,0,.388.716l.152.088a3.031,3.031,0,0,1,.976-1.137c.026-.02.059-.029.088-.048l-.022-.013c.053-.971.183-3.315.348-5.961l.275-4.234c.231-3.35.427-5.564.564-6.4a8.609,8.609,0,0,1,1.271-3.232A15.742,15.742,0,0,0,65.942,196a.779.779,0,0,0,.773-1.35c-2.562-1.617-3.8-4.56-3.674-8.749l.018-.537c.159-5.522.388-7.456,3.8-7.91A.781.781,0,0,0,67.132,176a8.807,8.807,0,0,1-4.4-7.357c0-1.112,0-2.212.007-3.3a1.1,1.1,0,0,0-.443-.725c-.079-.059-.161-.119-.233-.181a6.037,6.037,0,0,1-1.035-1.229.777.777,0,0,0-.784-.322.8.8,0,0,0-.628.59l-.229.9a.888.888,0,0,0-.046.346c-.064.053-.674.5-3.518-.359-.267-.04-26.616-3.881-39.617-11.027a9.66,9.66,0,0,1-4.236-4.809l-.033-.084.372-3.344.579-2.98a.788.788,0,0,0-.284-.764c-.082-.064-1.991-1.623-1.877-5.428.121-3.921,3.183-6.939,3.214-6.967a.784.784,0,0,0,.258-.734.7.7,0,0,0-.5-.54c-.009-.007-.678-.689.786-3.873.4-.863.886-2.28,1.557-4.238,2.742-7.983,8.426-24.528,19.937-35.489l.8.1a.769.769,0,0,0,.841-.546c.031-.1,3.046-9.741,8.683-11.82,3.557-1.315,7.011-.026,9.283,1.282a.776.776,0,0,0,1.15-.518,8.961,8.961,0,0,1,4.9-6.111c.747-.368,1.465-.771,2.209-1.192a26.644,26.644,0,0,1,9.655-3.593.935.935,0,0,0,.43.018.872.872,0,0,0,.645-.855.774.774,0,0,0-.128-.43,11.844,11.844,0,0,1,.163-3.833A11.892,11.892,0,0,1,75.5,54.5a.776.776,0,0,0-.059-.819.793.793,0,0,0-.762-.311l-1.075.185a2.427,2.427,0,0,1-2.749-1.714l-8.99-30.7A15.048,15.048,0,0,1,73.742,2.086l1.773-.306a15.046,15.046,0,0,1,17.6,14.193L94.451,47.8a2.444,2.444,0,0,1-2.018,2.5l-.894.154a.778.778,0,0,0-.4,1.335,9.385,9.385,0,0,1,3.091,7.32c-.018.253-.022.438-.024.593a1.791,1.791,0,0,1-.17.828.778.778,0,0,0,.595,1.046c7.921,1.372,14.325,4.494,17.091,8.294a9.908,9.908,0,0,1,.974,5.364c0,.018.154,1.742.1,4.366a.789.789,0,0,0,.222.56.782.782,0,0,0-.256.546c-.2,4.95-1.13,12.146-4.509,18.418l-4.873,12.221-1.54,7.291a.8.8,0,0,0-.013.24c.024.24.176,2.346-1.716,2.562a.778.778,0,0,0-.661.978l.189.648c0,.046.326,4.78-.813,7.36a1.847,1.847,0,0,1-1.156,1.018.779.779,0,0,0,.167,1.522,8.5,8.5,0,0,1,.912.108c3.912.773,7.611,9.965,8.7,13.408,1.43,5.364,1.137,15.583.641,23.213a13.158,13.158,0,0,1-2.945,7.635.78.78,0,0,0,.2,1.234c2.165,1.11,3.991,4.67,3.991,7.771,0,4.183-.872,5.124-1.634,5.474a.762.762,0,0,0-.381.96.772.772,0,0,0,.452.454c.612.885,2.013,5.9,3.066,10.43l-.249.143a2.646,2.646,0,0,1,.844,1.311l.681-.392a.781.781,0,0,0,.372-.848c-1.335-5.864-2.436-9.615-3.282-11.2,1.176-1.055,1.69-3.035,1.69-6.335,0-2.905-1.516-6.8-4.018-8.646a15.641,15.641,0,0,0,2.765-7.893c.5-7.745.793-18.149-.7-23.748-.41-1.306-4.007-12.3-9.117-14.276a3.427,3.427,0,0,0,.43-.718c1.3-2.936.954-7.89.914-8.247l0-.015a3.757,3.757,0,0,0,2.225-3.945l1.478-7.049,4.8-12.012a39.856,39.856,0,0,0,4.062-12.772c1.656,2.824,3.516,4.542,5.54,5.113a5.007,5.007,0,0,0,2,.165c-.209,1.941.37,5.824,4.718,13.007,6.567,10.849,19.089,30.156,19.215,30.35a.772.772,0,0,0,.6.352l2.454.17a.723.723,0,0,0,.509-.141l1.046-.751-.022.161a.781.781,0,0,0,.178.617c.044.053,4.571,5.256,10.472,2.553a10.661,10.661,0,0,0,3.877-3.02,5.765,5.765,0,0,1,.74.159c.9.233,2.132.553,3.066-.339,4.033-3.873,10.547-16.86,10.739-17.279L195.2,97.342a.784.784,0,0,0,.145-.661,6.953,6.953,0,0,0,1.524-1.383c3.32,1.026,17.781,4.963,27.152-1.156a2.567,2.567,0,0,0,1.143-1.82,2.537,2.537,0,0,0-.639-2.033m-1.355,2.549c-9.421,6.15-24.636,1.375-26.343.811a.777.777,0,0,0-.881.291,5.5,5.5,0,0,1-1.549,1.5.815.815,0,0,0-.573.154.78.78,0,0,0-.227.956c.033.07.064.134.09.194L177.542,117.3c-.064.132-6.666,13.3-10.505,16.981-.284.273-.844.152-1.6-.044a2.829,2.829,0,0,0-1.894-.068.769.769,0,0,0-.286.231,9.141,9.141,0,0,1-3.476,2.791c-4.207,1.925-7.516-1-8.408-1.9l.227-1.595a.779.779,0,0,0-1.225-.745l-2.3,1.645-1.786-.123c-1.676-2.59-12.891-19.931-18.977-29.982s-4.3-12.849-4.214-12.966a4.261,4.261,0,0,1,.357-.507A.779.779,0,0,0,122.274,90a3.346,3.346,0,0,0-.427.546,3.351,3.351,0,0,1-2.2.057c-1.806-.531-3.586-2.41-5.15-5.439a43.876,43.876,0,0,1-.172-4.423.784.784,0,0,0-.222-.555.771.771,0,0,0,.256-.54c.185-3.853.971-5.425,1.456-5.952.062-.035,6.038-3.714,11.267-.912,5.318,2.85,7.214,11.027,7.234,11.109a.776.776,0,0,0,.229.4c11.631,10.831,16.058,24.017,18.437,31.1.57,1.7,1.02,3.042,1.432,3.936a.779.779,0,0,0,1.346.119c6.221-8.895,18.413-18.823,18.6-18.979l10.413-10.58a1.251,1.251,0,0,1,.85-.4.779.779,0,0,0,.676-.526.61.61,0,0,0,.026-.09,5.467,5.467,0,0,1,8.331-2.54.781.781,0,0,0,1.17-.33,3.315,3.315,0,0,1,1.531-1.819c15.717-2.121,23.429,4.289,26.017,7.146a.97.97,0,0,1,.245.789,1,1,0,0,1-.447.714" transform="translate(11.028 0.002)" fill="#333"/>
      <path id="Trazado_42457" data-name="Trazado 42457" d="M54.047,87.755a.723.723,0,0,0,.251-.022.969.969,0,0,1-.251.022" transform="translate(65.007 105.524)" fill="#333"/>
      <path id="Trazado_42458" data-name="Trazado 42458" d="M52.454,68.162c3.621.009,7.225.126,10.844.2q.981.02,1.963.013l7.591-1a15.371,15.371,0,0,0,1.707-.665c-1.344-1.427-5.348-4.864-5.348-4.864-5.033-2.309-17.345-1.421-17.345-1.421-9.406.108-12.69,1.421-12.69,1.421a13.2,13.2,0,0,0-4.608,4.525c5.267,2.06,12.309,1.773,17.887,1.786" transform="translate(41.577 72.483)" fill="#e6e6e6"/>
      <path id="Trazado_42459" data-name="Trazado 42459" d="M52.875,52.131c-8.842,0-16.01,2.108-16.01,6.185a4.636,4.636,0,0,0,1.806,3.4A2.852,2.852,0,0,1,39.9,59.125c3.965-2.875,9.562-3.3,14.3-3.4,1.943-.042,3.89.011,5.831.141,1.72.115,3.575-.044,5.139.822,1.758.976,2.139.949,1.723,2.822,1.055-.985,2-.02,2-1.194,0-4.077-5.254-6.185-16.01-6.185" transform="translate(44.341 62.703)" fill="#b3b3b3"/>
      <path id="Trazado_42460" data-name="Trazado 42460" d="M32.888,33.484s8.258,4.146,11.435,5.148,4.857-1.024,17.316-.37,16.252-.6,19.1,2.044,2.85-2.414,2.85-2.414L82.23,35.72S78.8,27.5,57.546,27.484c-21.717-.018-24.658,6-24.658,6" transform="translate(39.557 33.057)" fill="#e6e6e6"/>
      <path id="Trazado_42461" data-name="Trazado 42461" d="M36.128,32.545c-.009.011-1.39-1.835-2.1-1.835-2.914,1.273-3.077,4.729-3.39,4.972.024.037,1.284-.273,1.586.306,1.8,3.456,1.61,5.914,1.388,9.681-.075,1.249-.819,3.674-1.9,4.091a2.731,2.731,0,0,1-1.018,1.7,42.309,42.309,0,0,1,1.41,4.408c.337,1.242.656,2.494.993,3.736a.443.443,0,0,0,.053.009c2.212,0,5.381-5.148,5.381-12.593,0-7.078-.471-9.822-2.4-14.47" transform="translate(36.855 36.938)" fill="#ccc"/>
      <path id="Trazado_42462" data-name="Trazado 42462" d="M48.539,20.8c-6.712.978-11.558,4.866-11.252,6.97.2,1.383,1.839,1.773,5.456,1.927a2.87,2.87,0,0,1,.7-1.617,13.783,13.783,0,0,1,5.278-3.718,7.739,7.739,0,0,1,3.745-.39,6.608,6.608,0,0,1,3.064,1.353,3.216,3.216,0,0,1,1.15,1.035,2.308,2.308,0,0,1,.344.83c2.394-1.062,3.837-2.3,3.672-3.432-.306-2.1-5.441-3.936-12.153-2.958" transform="translate(44.832 24.689)" fill="#b3b3b3"/>
      <path id="Trazado_42463" data-name="Trazado 42463" d="M58.407,34.3s6.344-4,12.049-.941,7.626,11.626,7.626,11.626-11.9,5.24-12.644,7.408c0,0-4.4,2.694-8.694-5.74C56.744,46.655,55.7,37.072,58.407,34.3Z" transform="translate(68.013 38.741)" fill="none" stroke="#333" stroke-width="0.34"/>
      <path id="Trazado_42464" data-name="Trazado 42464" d="M93.508,72.609c-2.06-4.434-5.454-21.012-20.048-34.6,0,0-10.454,3.564-12.644,7.408,0,0-2.414,2.791,4.223,13.756s19.2,30.33,19.2,30.33l2.454.17,2.538-1.815" transform="translate(72.635 45.718)" fill="none" stroke="#333" stroke-width="0.34"/>
      <path id="Trazado_42465" data-name="Trazado 42465" d="M47.669,53.561l-1.947.337a3.214,3.214,0,0,1-3.63-2.262L33.1,20.935A15.823,15.823,0,0,1,45.594.9L47.37.588A15.825,15.825,0,0,1,65.876,15.517l1.337,31.826a3.211,3.211,0,0,1-2.661,3.3l-1.264.218" transform="translate(39.043 0.425)" fill="none" stroke="#333" stroke-width="0.354"/>
      <path id="Trazado_42466" data-name="Trazado 42466" d="M38.632,34.644l1.8-.189a7.354,7.354,0,0,1,.007-3.022,8.933,8.933,0,0,1,17.823,1.236c-.053.778.152.764-.132,1.487l1.209.326a4.025,4.025,0,0,0,.493-1.7c.357-5.132-4-10.41-9.783-10.809S40.192,25.06,38.7,29.981a11.289,11.289,0,0,0-.066,4.663" transform="translate(46.204 26.386)" fill="#333"/>
      <path id="Trazado_42467" data-name="Trazado 42467" d="M56.749,23.6l.317-.729c-.229-.1-5.533-1.656-9.891-.9-4.337.749-8,4.055-8.183,4.2l-.278.76c.044-.035,4.458-3.461,8.6-4.176s9.382.824,9.437.848" transform="translate(46.566 26.17)" fill="#333"/>
      <path id="Trazado_42468" data-name="Trazado 42468" d="M30.4,39.732a9.721,9.721,0,0,1,5.359-6.877,47.923,47.923,0,0,1,25.466-5.406c14.411.729,22.1,4.262,25.616,9.093a10.264,10.264,0,0,1,1.084,5.7s1.28,13.552-4.491,24.248L78.6,78.582l-1.542,7.289s.4,3.39-2.714,3.469L73.6,86.669S60.138,81.827,46.5,89.019l-.123,3.628s-3.524-2.253-4.016-5.84S39,74.234,39,74.234a75.324,75.324,0,0,1-8.093-18.263" transform="translate(36.568 32.925)" fill="none" stroke="#333" stroke-width="0.361"/>
      <path id="Trazado_42469" data-name="Trazado 42469" d="M31.148,32.968a16.172,16.172,0,0,1-.011,15.089" transform="translate(37.451 39.654)" fill="none" stroke="#333" stroke-linecap="round" stroke-width="0.355"/>
      <path id="Trazado_42470" data-name="Trazado 42470" d="M42.713,35.192s-5.732-4.835-11.8-2.595-9.157,12.325-9.157,12.325,11.065,4.972,11.5,7.221a7.205,7.205,0,0,0,5.923-.454,9.634,9.634,0,0,0,5.19-8.957C44.294,40.072,43.933,36.849,42.713,35.192Z" transform="translate(26.162 38.495)" fill="none" stroke="#333" stroke-width="0.34"/>
      <path id="Trazado_42471" data-name="Trazado 42471" d="M11.438,82.936s-1.663-.471.383-4.912S19.207,51.44,33.752,37.8c0,0,10.47,3.529,12.673,7.366,0,0,2.421,2.782-4.176,13.77s-19.1,30.4-19.1,30.4l-.33.024a5.929,5.929,0,0,1-3.857-1.077Z" transform="translate(12.991 45.469)" fill="none" stroke="#333" stroke-width="0.34"/>
      <path id="Trazado_42472" data-name="Trazado 42472" d="M12.66,71.862a6.713,6.713,0,0,1-3.135-6.069,12.2,12.2,0,0,1,3.45-7.5l7.084,5.031a4.535,4.535,0,0,0,4.584.394l-.879,2.52-1.353.048a12.069,12.069,0,0,0-9.379,5.053Z" transform="translate(11.452 70.114)" fill="none" stroke="#333" stroke-width="0.34"/>
      <path id="Trazado_42473" data-name="Trazado 42473" d="M59.3,89.073l-.229.9s.37,2.038-4.43.566c0,0-26.6-3.815-39.881-11.115a10.391,10.391,0,0,1-4.58-5.194l-.11-.269.4-3.6,1.54-2.98a9.826,9.826,0,0,1,9.2-5.344c3.925.2,8.9,1.044,12.809,3.681,6.483,4.373,22.186,10,26.83,11.62a1.517,1.517,0,0,1,.969,1.808" transform="translate(12.106 74.599)" fill="none" stroke="#333" stroke-width="0.34"/>
      <path id="Trazado_42474" data-name="Trazado 42474" d="M36.191,81.29l-.139-.194a8.133,8.133,0,0,1-1.507-4.738v-.211a7.206,7.206,0,0,1,3.291-5.992" transform="translate(41.55 84.382)" fill="none" stroke="#333" stroke-linecap="round" stroke-width="0.34"/>
      <path id="Trazado_42475" data-name="Trazado 42475" d="M40.7,83.155c-2.223.694-4.337-.359-6.212-2.009a6.434,6.434,0,0,1-1.029-9.135c2.011-2.736,5.456-4.139,9.818-.932" transform="translate(38.501 83.273)" fill="#fff"/>
      <path id="Trazado_42476" data-name="Trazado 42476" d="M40.7,83.155c-2.223.694-4.337-.359-6.212-2.009a6.434,6.434,0,0,1-1.029-9.135c2.011-2.736,5.456-4.139,9.818-.932" transform="translate(38.501 83.273)" fill="none" stroke="#333" stroke-linecap="round" stroke-linejoin="round" stroke-width="0.707"/>
      <path id="Trazado_42477" data-name="Trazado 42477" d="M36.058,80.732s-3.372-6.212,2.828-9.888c0,0,4.4-1.941,6.826-.905,0,0,13.184,10.937,15.946,18.486A1.64,1.64,0,0,1,59.967,90.6c-5.436-.441-19.413-2.3-23.909-9.868" transform="translate(42.269 83.755)" fill="#fff"/>
      <path id="Trazado_42478" data-name="Trazado 42478" d="M36.058,80.732s-3.372-6.212,2.828-9.888c0,0,4.4-1.941,6.826-.905,0,0,13.184,10.937,15.946,18.486A1.64,1.64,0,0,1,59.967,90.6C54.53,90.16,40.554,88.3,36.058,80.732Z" transform="translate(42.269 83.755)" fill="none" stroke="#333" stroke-linecap="round" stroke-linejoin="round" stroke-width="0.707"/>
      <path id="Trazado_42479" data-name="Trazado 42479" d="M40.752,68.138a2.44,2.44,0,0,1-2.41-2.02,33.445,33.445,0,0,1-.423-6.54V57.807s4.174-3.335,12.247-4.19a46.6,46.6,0,0,1,5.571-.267,43.21,43.21,0,0,1,8.968,1.6l.225.493.925,3.394s.355,4.936-.877,7.727a2.641,2.641,0,0,1-2.423,1.571Z" transform="translate(45.591 64.168)" fill="none" stroke="#333" stroke-width="0.361"/>
      <path id="Trazado_42480" data-name="Trazado 42480" d="M33.132,96.56c.013,3.846.689,7.719,6.441,7.93l10.915.52,2.383,1.253,7.653.4a48.413,48.413,0,0,0,11.012-.681l3.736-.663c2.727.231,4.478-3.209,4.769-7.668.482-7.355.811-17.917-.665-23.462,0,0-4.073-12.939-9.3-13.972-3.284-.65-25.449,0-25.449,0s-7.311,1.2-9.672,10.932" transform="translate(39.851 72.085)" fill="none" stroke="#333" stroke-width="0.361"/>
      <path id="Trazado_42481" data-name="Trazado 42481" d="M54.465,89.467c0,8.708-4.917,10.983-10.983,10.983S33.043,97.289,33.277,89.467c.181-6.064.068-9.307,6.133-9.307,2.275,0,8.04.379,10.917.52C53.725,80.847,54.465,85.676,54.465,89.467Z" transform="translate(40.014 96.416)" fill="none" stroke="#333" stroke-width="0.361"/>
      <path id="Trazado_42482" data-name="Trazado 42482" d="M65.89,89.469c0,8.708-3.586,6.192-9.653,6.192S45.954,100.12,45.963,90.32c0-6.066-.694-9.089,5.373-9.089,2.275,0,5.655-.826,8.531-.683C63.266,80.715,65.89,85.678,65.89,89.469Z" transform="translate(55.257 96.862)" fill="none" stroke="#333" stroke-width="0.361"/>
      <path id="Trazado_42483" data-name="Trazado 42483" d="M31.66,108.6s.159-2.958.374-6.45l.275-4.234c.2-2.89.412-5.492.575-6.474a9.15,9.15,0,0,1,1.983-4.333,14.3,14.3,0,0,0,8.8,4.886c7.956,1.218,11.28-4.265,11.28-4.265l.661,8.139A62.148,62.148,0,0,1,52.9,117.61" transform="translate(38.08 104.773)" fill="none" stroke="#333" stroke-width="0.361"/>
      <path id="Trazado_42484" data-name="Trazado 42484" d="M68.336,98.925S65.646,87.112,64.668,87.4a32.509,32.509,0,0,1-4.919.1,35.62,35.62,0,0,0-5.586.313l-4.558.617a5.684,5.684,0,0,0-3.837,3.447c-1.181,2.921,0,20.083,0,20.083" transform="translate(54.419 105.113)" fill="none" stroke="#333" stroke-width="0.361"/>
      <path id="Trazado_42485" data-name="Trazado 42485" d="M78.357,55.963s5.216.641,7.923,3.361l2.705,2.72s-.643,6.053-6.077,8.542-9.556-2.35-9.556-2.35L74.57,59.7a4.807,4.807,0,0,1,3.778-3.732Z" transform="translate(88.227 67.312)" fill="none" stroke="#333" stroke-width="0.34"/>
      <path id="Trazado_42486" data-name="Trazado 42486" d="M105.7,40.914,95.284,51.494S82.266,61.77,76.6,71.515c-.637,1.093-2.646,3.54-2.049,4.654l1.145-.855s.9-1.438,6.787,1.163a9.379,9.379,0,0,1,3.758,3.379c.828,1.247,1.132,1.771.725,2.745l-1.606,3.837S88.22,88.2,89.9,85.457c2.881-4.71,9.827-16.246,9.827-16.246l15.124-19.233a2.555,2.555,0,0,0,0-3.17,49.608,49.608,0,0,0-4.095-4.577S107.675,38.905,105.7,40.914Z" transform="translate(89.541 48.435)" fill="none" stroke="#333" stroke-width="0.34"/>
      <path id="Trazado_42487" data-name="Trazado 42487" d="M89.242,42.157A6.25,6.25,0,0,1,92.2,38.7" transform="translate(107.339 46.554)" fill="none" stroke="#333" stroke-width="0.34"/>
      <path id="Trazado_42488" data-name="Trazado 42488" d="M96.024,38.106s-1.987.493-2.6,3.78S95.2,49.023,95.2,49.023s16.887,5.87,27.171-.846a1.776,1.776,0,0,0,.352-2.679C119.937,42.426,112.018,35.947,96.024,38.106Z" transform="translate(112.25 45.314)" fill="none" stroke="#333" stroke-width="0.34"/>
      <line id="Línea_5" data-name="Línea 5" x1="0.385" y2="13.175" transform="translate(83.495 183.692)" fill="none" stroke="#333" stroke-linecap="round" stroke-linejoin="round" stroke-width="1.691"/>
      <line id="Línea_6" data-name="Línea 6" x2="1.478" y2="11.311" transform="translate(113.227 181.829)" fill="none" stroke="#333" stroke-linecap="round" stroke-linejoin="round" stroke-width="1.691"/>
      <path id="Trazado_42489" data-name="Trazado 42489" d="M93.577,40.19a31.346,31.346,0,0,0,16.541,5.84c10.111.632,11.646,0,11.646,0s-4.5-6.445-11.007-7.465A91.914,91.914,0,0,0,95.72,37.9Z" transform="translate(112.553 45.516)" fill="#e6e6e6"/>
      <path id="Trazado_42490" data-name="Trazado 42490" d="M111.3,205.135s-2.69-13.338-3.668-13.052l-.026,0c1.353-.626,2.086-2.26,2.086-6.181,0-3.168-1.833-7.139-4.417-8.465a13.978,13.978,0,0,0,3.163-8.126c.478-7.355.811-17.92-.665-23.462,0,0-4.073-12.939-9.3-13.972a8.914,8.914,0,0,0-1-.121,2.624,2.624,0,0,0,1.641-1.449c1.229-2.793.877-7.73.877-7.73l-.218-.8c2.736-.313,2.4-3.417,2.4-3.417l1.542-7.289,4.833-12.093c3.441-6.375,4.37-13.745,4.564-18.675a42.768,42.768,0,0,0,.192,4.659c4.3,8.434,8.692,5.74,8.692,5.74a1.94,1.94,0,0,1,.421-.6,4.81,4.81,0,0,0-.421.6s-2.414,2.791,4.223,13.754,19.2,30.33,19.2,30.33l2.454.17,2.529-1.809-.28,1.965s4.124,4.84,9.556,2.35a9.87,9.87,0,0,0,3.769-3.024c.8-.374,2.663.965,3.7-.031,3.98-3.822,10.666-17.195,10.666-17.195l16.342-20.786s-.1-.251-.289-.65l.13.112a6.191,6.191,0,0,0,2.152-1.934c1.582.524,17.257,5.474,27.015-.9a1.776,1.776,0,0,0,.352-2.679c-2.784-3.073-10.7-9.551-26.7-7.395a3.741,3.741,0,0,0-2.143,2.286,6.247,6.247,0,0,0-9.549,3l.011.009a2.036,2.036,0,0,0-1.353.63L173.375,99.5s-12.329,9.987-18.684,19.081c-2.06-4.465-5.478-21.715-20.048-35.282,0,0-1.921-8.564-7.626-11.624s-12.049.941-12.049.941c-1.249,1.278-1.694,4-1.817,6.571.053-2.705-.106-4.45-.106-4.45a10.252,10.252,0,0,0-1.086-5.7c-2.7-3.714-8.937-7.15-17.625-8.655a3.779,3.779,0,0,0,.245-1.648A10.165,10.165,0,0,0,91.246,50.8l.894-.154a3.215,3.215,0,0,0,2.663-3.3L93.466,15.517A15.826,15.826,0,0,0,74.959.588L73.185.9A15.825,15.825,0,0,0,60.693,20.935l8.99,30.7a3.213,3.213,0,0,0,3.63,2.262l1.075-.187a12.856,12.856,0,0,0-.938,2.231,11.251,11.251,0,0,0-.066,4.663v-.174c-6.514,1-9.272,3.331-12.507,4.921a9.785,9.785,0,0,0-5.318,6.655c-2.174-1.256-5.978-2.8-9.941-1.339C39.544,72.91,36.46,82.99,36.46,82.99l-1.17-.143C20.746,96.484,15.4,118.627,13.358,123.068s-.381,4.912-.381,4.912a12.189,12.189,0,0,0-3.45,7.5c-.132,4.3,2.174,6.066,2.174,6.066m67.824,80.408a62.22,62.22,0,0,0,2.716-21.742l-.661-8.139s-.046.073-.121.181a12.945,12.945,0,0,0,1.566-6.8c0-2.659-.368-5.82-1.756-7.534l10.1.531c-1.936,1.253-1.6,4.013-1.606,8.3,0,4.906,1.051,6.238,2.864,6.348l-.057.007a5.684,5.684,0,0,0-3.837,3.447c-1.181,2.921,0,21.946,0,21.946M11.7,141.549l-.579,2.983-.405,3.6.11.271a10.4,10.4,0,0,0,4.582,5.192c13.276,7.3,39.879,11.117,39.879,11.117,4.8,1.469,4.432-.568,4.432-.568l.227-.9.009-.031a6.805,6.805,0,0,0,1.17,1.383c.132.115.275.211.412.315q-.01,1.639-.007,3.309a9.571,9.571,0,0,0,4.8,8.038c-4.388.586-4.328,3.749-4.489,9.2-.143,4.758,1.425,7.782,4.036,9.428a13.97,13.97,0,0,1-4.379-3.43,9.15,9.15,0,0,0-1.983,4.333c-.165.982-.374,3.584-.575,6.474l-.275,4.234c-.216,3.489-.374,6.45-.374,6.45M47.961,90.211a7.205,7.205,0,0,0,5.923-.454,8.91,8.91,0,0,0,2.128-1.482l.007.194a75.38,75.38,0,0,0,8.1,18.263s2.868,8.99,3.359,12.573,4.016,5.84,4.016,5.84l.568-1.826a33.283,33.283,0,0,0,.423,6.542,2.418,2.418,0,0,0,2.161,1.976c-1.011.026-1.615.044-1.615.044s-7.309,1.2-9.67,10.932a60.591,60.591,0,0,0-1.319,9.034,1.475,1.475,0,0,0-.54-.341c-4.643-1.617-20.347-7.247-26.83-11.617-3.912-2.639-8.884-3.485-12.809-3.683m0,0,1.908-.28-.108-1.474,1.031-.075s12.5-19.407,19.1-30.394,4.176-13.772,4.176-13.772" transform="translate(11.452 0.425)" fill="none" stroke="#333" stroke-linecap="round" stroke-linejoin="round" stroke-width="0.707"/>
      <path id="Trazado_42491" data-name="Trazado 42491" d="M32.681,38.317a2.735,2.735,0,1,1-2.736-2.736,2.736,2.736,0,0,1,2.736,2.736" transform="translate(32.729 42.796)" fill="#333"/>
      <path id="Trazado_42492" data-name="Trazado 42492" d="M62.232,36.038a2.735,2.735,0,1,1-2.958,2.494,2.737,2.737,0,0,1,2.958-2.494" transform="translate(71.281 43.335)" fill="#333"/>
      <path id="Trazado_42493" data-name="Trazado 42493" d="M112.493,36.623c0,15.153-4.875,27.438-10.888,27.438S90.714,51.776,90.714,36.623,95.591,9.185,101.6,9.185,112.493,21.47,112.493,36.623Z" transform="translate(109.11 11.048)" fill="none" stroke="#333" stroke-linecap="round" stroke-linejoin="round" stroke-width="0.707"/>
      <path id="Trazado_42494" data-name="Trazado 42494" d="M114.494,40.2c-12.928,7.906-25.951,10.157-29.088,5.027s4.8-15.7,17.724-23.605,25.951-10.157,29.09-5.027S127.422,32.3,114.494,40.2Z" transform="translate(101.901 16.652)" fill="none" stroke="#333" stroke-linecap="round" stroke-linejoin="round" stroke-width="0.707"/>
      <path id="Trazado_42495" data-name="Trazado 42495" d="M103.307,40.5C90.182,32.919,81.981,22.555,84.988,17.348s16.085-3.289,29.207,4.289,21.325,17.942,18.318,23.149S116.431,48.075,103.307,40.5Z" transform="translate(101.476 17.342)" fill="none" stroke="#333" stroke-linecap="round" stroke-linejoin="round" stroke-width="0.707"/>
      <path id="Trazado_42496" data-name="Trazado 42496" d="M102.8,13.4a2.989,2.989,0,1,1-2.989-2.989A2.99,2.99,0,0,1,102.8,13.4" transform="translate(116.455 12.517)" fill="#ec619f"/>
      <ellipse id="Elipse_14" data-name="Elipse 14" cx="2.989" cy="2.989" rx="2.989" ry="2.989" transform="translate(213.276 22.924)" fill="none" stroke="#333" stroke-width="0.634"/>
      <path id="Trazado_42497" data-name="Trazado 42497" d="M107.548,31.037a2.989,2.989,0,1,1-2.989-2.989,2.99,2.99,0,0,1,2.989,2.989" transform="translate(122.167 33.736)" fill="#fff"/>
      <ellipse id="Elipse_15" data-name="Elipse 15" cx="2.989" cy="2.989" rx="2.989" ry="2.989" transform="translate(223.738 61.783)" fill="none" stroke="#333" stroke-linecap="round" stroke-linejoin="round" stroke-width="0.707"/>
      <path id="Trazado_42498" data-name="Trazado 42498" d="M89.455,27.822a2.989,2.989,0,1,1-2.989-2.989,2.99,2.99,0,0,1,2.989,2.989" transform="translate(100.405 29.869)" fill="#354093"/>
      <ellipse id="Elipse_16" data-name="Elipse 16" cx="2.989" cy="2.989" rx="2.989" ry="2.989" transform="translate(183.882 54.702)" fill="none" stroke="#333" stroke-width="0.634"/>
      <path id="Trazado_42499" data-name="Trazado 42499" d="M102.49,23.95a4.567,4.567,0,1,1-4.569-4.569,4.568,4.568,0,0,1,4.569,4.569" transform="translate(112.286 23.311)" fill="#ffce00"/>
      <path id="Trazado_42500" data-name="Trazado 42500" d="M102.49,23.95a4.567,4.567,0,1,1-4.569-4.569A4.568,4.568,0,0,1,102.49,23.95Z" transform="translate(112.286 23.311)" fill="none" stroke="#333" stroke-width="0.634"/>
    </g>
  </g>
</svg>
