<svg id="Componente_22_2" data-name="Componente 22 – 2" xmlns="http://www.w3.org/2000/svg" xmlns:xlink="http://www.w3.org/1999/xlink" width="119.658" height="150.531" viewBox="0 0 119.658 150.531">
  <defs>
    <clipPath id="clip-path">
      <rect id="Rectángulo_115" data-name="Rectángulo 115" width="119.658" height="114.053" fill="none"/>
    </clipPath>
  </defs>
  <text id="Ciencia" transform="translate(1.307)" fill="#fff" font-size="16" font-family="Interstate-Light, Interstate" font-weight="300"><tspan x="17" y="15">Ciencia</tspan></text>
  <path id="Trazado_42718" data-name="Trazado 42718" d="M1873.689,73.29h36.6" transform="translate(-1845.332 -50.22)" fill="none" stroke="#354093" stroke-linecap="round" stroke-width="3"/>
  <g id="Grupo_273" data-name="Grupo 273" transform="translate(0 36.478)">
    <g id="Grupo_272" data-name="Grupo 272" transform="translate(0 0)" clip-path="url(#clip-path)">
      <path id="Trazado_42606" data-name="Trazado 42606" d="M45.17,9.015.25,34.95V86.819l44.92,25.935L90.09,86.819V34.95Z" transform="translate(0.028 1.021)" fill="none" stroke="#333" stroke-linecap="round" stroke-linejoin="round" stroke-width="0.5"/>
      <path id="Trazado_42607" data-name="Trazado 42607" d="M117.926,46.167c-1.407-1.553-5.409-4.827-13.493-3.736a1.891,1.891,0,0,0-1.083,1.156A3.156,3.156,0,0,0,98.524,45.1l.006.006a1.024,1.024,0,0,0-.684.318l-5.263,5.346s-6.231,5.049-9.443,9.644C82.1,58.162,80.371,49.443,73.008,42.587c0,0-.971-4.33-3.854-5.876s-6.09.475-6.09.475a5.565,5.565,0,0,0-.918,3.322c.027-1.367-.053-2.249-.053-2.249a5.181,5.181,0,0,0-.549-2.88C60.18,33.5,57.027,31.765,52.636,31a1.9,1.9,0,0,0,.124-.832,5.134,5.134,0,0,0-1.684-4.013l.452-.079a1.625,1.625,0,0,0,1.346-1.668L52.2,8.329A8,8,0,0,0,42.843.784l-.9.155a8,8,0,0,0-6.313,10.128l4.543,15.516a1.623,1.623,0,0,0,1.835,1.143l.543-.094a6.486,6.486,0,0,0-.474,1.127,5.934,5.934,0,0,0-.055,2.273c-3.275.507-4.668,1.681-6.3,2.483a4.948,4.948,0,0,0-2.687,3.363,6,6,0,0,0-5.024-.677c-3.069,1.133-4.628,6.229-4.628,6.229l-.591-.073C15.444,49.249,12.743,60.441,11.71,62.684s-.193,2.483-.193,2.483a6.16,6.16,0,0,0-1.743,3.792,3.7,3.7,0,0,0,1.1,3.066l-.294,1.507-.2,1.821.056.136a5.259,5.259,0,0,0,2.316,2.625C19.457,81.8,32.9,83.732,32.9,83.732c2.426.744,2.24-.286,2.24-.286l.115-.455,0-.016a3.464,3.464,0,0,0,.591.7c.067.059.139.108.208.16q-.005.827,0,1.671a4.837,4.837,0,0,0,2.425,4.062c-2.218.3-2.188,1.895-2.269,4.649-.072,2.4.72,3.933,2.04,4.766a7.06,7.06,0,0,1-2.213-1.733,4.617,4.617,0,0,0-1,2.189c-.083.5-.189,1.812-.291,3.272l-.139,2.141A20.782,20.782,0,0,1,34.418,107l.1.059a3.144,3.144,0,0,1-.222.326l9.794,5.552,1.06-.268a31.446,31.446,0,0,0,1.373-10.988l-.334-4.114s-.023.036-.061.09a8.237,8.237,0,0,0-.1-7.244l5.106.268c-.979.635-.809,2.028-.812,4.2,0,2.479.531,3.153,1.447,3.207l-.029,0a2.869,2.869,0,0,0-1.939,1.741c-.6,1.477.1,9.5.1,9.5l-.1.481c-.038-.515,11.406-6.755,11.406-6.755s-1.359-5.628-1.854-5.484l-.013,0c.684-.315,1.054-1.142,1.054-3.124a5.179,5.179,0,0,0-2.232-4.277,7.067,7.067,0,0,0,1.6-4.107c.242-3.717.41-9.057-.336-11.859,0,0-2.058-6.539-4.7-7.062-.119-.023-.294-.043-.505-.061a1.326,1.326,0,0,0,.829-.733,10.452,10.452,0,0,0,.443-3.905l-.11-.4c1.383-.159,1.213-1.727,1.213-1.727l.779-3.685,2.443-6.111a22.265,22.265,0,0,0,2.307-9.438,21.582,21.582,0,0,0,.1,2.353c2.171,4.264,4.393,2.9,4.393,2.9a.959.959,0,0,1,.213-.3,2.422,2.422,0,0,0-.213.3s-1.22,1.411,2.134,6.952,9.7,15.329,9.7,15.329l1.24.086,1.278-.914-.141.993s2.083,2.446,4.829,1.187a4.988,4.988,0,0,0,1.9-1.529c.405-.189,1.346.488,1.869-.014,2.012-1.933,5.391-8.691,5.391-8.691l8.259-10.5s-.049-.128-.146-.328l.066.056a3.129,3.129,0,0,0,1.088-.977c.8.265,8.722,2.767,13.653-.454a.9.9,0,0,0,.178-1.354M41.867,67.138s-3.694.609-4.887,5.526a30.623,30.623,0,0,0-.667,4.566.763.763,0,0,0-.273-.174c-2.347-.817-10.283-3.663-13.56-5.871a12.955,12.955,0,0,0-6.474-1.861l.964-.141-.055-.744.521-.038s6.316-9.809,9.651-15.362S29.2,46.079,29.2,46.079a3.644,3.644,0,0,0,2.993-.229,4.46,4.46,0,0,0,1.077-.75l0,.1a38.121,38.121,0,0,0,4.091,9.23,60.6,60.6,0,0,1,1.7,6.355,4.789,4.789,0,0,0,2.03,2.951l.279-.106c.007-.715.008-1.49.008-1.672v.855a16.816,16.816,0,0,0,.214,3.305,1.222,1.222,0,0,0,1.092,1l-.816.022" transform="translate(1.107 0.075)" fill="#fff"/>
      <path id="Trazado_42608" data-name="Trazado 42608" d="M15.266,64.166a.383.383,0,0,0-.15.107.4.4,0,0,0-.08.144.371.371,0,0,0-.017.131.4.4,0,0,0,.13.275.386.386,0,0,0,.151.086.362.362,0,0,0,.1.016,12.694,12.694,0,0,1,6.267,1.795c3.318,2.237,11.287,5.094,13.65,5.917a.374.374,0,0,1,.13.086.394.394,0,0,0,.272.109.4.4,0,0,0,.393-.361,29.935,29.935,0,0,1,.656-4.505c1.113-4.586,4.43-5.207,4.518-5.226l.815-.022a.394.394,0,0,0,.03-.785.825.825,0,0,1-.745-.674,15.825,15.825,0,0,1-.215-2.535c0-.2,0-.406,0-.6,0-.036,0-.071,0-.107v-.9a.393.393,0,1,0-.786,0s0,.446,0,1c0,.083,0,.166,0,.247a4.091,4.091,0,0,1-1.527-2.43,59.581,59.581,0,0,0-1.712-6.42.4.4,0,0,0-.042-.091,38.05,38.05,0,0,1-4.03-9.03l0-.1a.391.391,0,0,0-.242-.352.387.387,0,0,0-.42.075,4.1,4.1,0,0,1-.983.685,3.264,3.264,0,0,1-2.64.23.4.4,0,0,0-.444.047.386.386,0,0,0-.048.544l.006.006c.041.068.858,1.52-2.141,6.512C23.1,53.133,17.463,61.916,16.619,63.23l-.325.023a.388.388,0,0,0-.269.135.4.4,0,0,0-.095.286l.027.379-.593.088a.345.345,0,0,0-.1.026M16.872,64a.4.4,0,0,0,.3-.179c.063-.1,6.357-9.878,9.657-15.372,2.2-3.66,2.476-5.627,2.36-6.6a4.33,4.33,0,0,0,2.582-.438,4.824,4.824,0,0,0,.662-.4A39.526,39.526,0,0,0,36.408,49.8a58.952,58.952,0,0,1,1.669,6.241,5.143,5.143,0,0,0,2.207,3.23.4.4,0,0,0,.115.05,15.927,15.927,0,0,0,.212,2.068,1.586,1.586,0,0,0,.265.645c-.984.282-3.83,1.453-4.872,5.742a28.789,28.789,0,0,0-.625,4.045c-2.559-.9-10.119-3.632-13.272-5.758a12.37,12.37,0,0,0-5.346-1.814l-.018-.243Z" transform="translate(1.701 4.522)" fill="#333"/>
      <path id="Trazado_42609" data-name="Trazado 42609" d="M46.643,99.548c-.206-3.427-.338-8.05.036-8.978a2.461,2.461,0,0,1,1.661-1.5.394.394,0,0,0-.033-.783c-.4-.023-1.08-.065-1.078-2.814,0-.3,0-.579-.006-.846-.018-1.749,0-2.607.638-3.019a.393.393,0,0,0-.194-.724l-5.106-.268a.377.377,0,0,0-.372.215.4.4,0,0,0,.046.426,6.044,6.044,0,0,1,.8,3.559,6.233,6.233,0,0,1-.736,3.234.392.392,0,0,0,.031.451l.309,3.8c-.165,10.239-2.1,12.211-2.041,12.343.051.114.93-.537.93-.537.082-.048.6-.273.629-.363a36.152,36.152,0,0,0,1.267-11.5L43.1,88.233a7.245,7.245,0,0,0,.724-3.42,8.654,8.654,0,0,0-.563-3.376l3.542.186a6.555,6.555,0,0,0-.365,3.008q.005.4.006.838c0,1.335.118,2.6.818,3.219a3.307,3.307,0,0,0-1.31,1.588c-.613,1.516-.089,9.427-.028,10.325a.392.392,0,0,0,.207.321.386.386,0,0,0,.3.016,1.479,1.479,0,0,1,.214-1.388" transform="translate(4.599 9.132)" fill="#333"/>
      <path id="Trazado_42610" data-name="Trazado 42610" d="M118.258,45.632c-1.39-1.535-5.517-4.985-13.888-3.853a2.084,2.084,0,0,0-1.136.975,3.549,3.549,0,0,0-4.959,1.733,1.419,1.419,0,0,0-.67.393L92.375,50.2a63.415,63.415,0,0,0-9.094,9.14c-.129-.354-.273-.78-.435-1.266C81.627,54.443,79.365,47.7,73.4,42.109c-.186-.741-1.257-4.532-4.025-6.015-3.049-1.635-6.346.4-6.556.547a2.191,2.191,0,0,0-.3.394,5.087,5.087,0,0,0-.619-2.159c-1.481-2.037-4.726-3.687-8.732-4.453a1.965,1.965,0,0,0,.012-.236c0-.068,0-.148.01-.258a5.424,5.424,0,0,0-1.3-3.793,2.025,2.025,0,0,0,1.418-2.011L52.63,8.041A8.391,8.391,0,0,0,42.817.125l-.9.155A8.392,8.392,0,0,0,35.3,10.906L39.84,26.421a2,2,0,0,0,2.084,1.445c-.069.171-.129.34-.179.507a6.755,6.755,0,0,0-.135,2.064,14.179,14.179,0,0,0-4.939,1.873c-.363.2-.715.4-1.078.581a5.347,5.347,0,0,0-2.763,3.134,6.11,6.11,0,0,0-4.912-.463c-2.794,1.031-4.359,5-4.764,6.167l-.271-.033a.386.386,0,0,0-.318.1c-6.05,5.673-9,14.257-10.416,18.382-.32.932-.572,1.668-.757,2.068a3.349,3.349,0,0,0-.432,2.564c.016.033.032.066.049.095a6.347,6.347,0,0,0-1.589,3.768,4.323,4.323,0,0,0,1.065,3.217l-.258,1.324-.2,1.821a.411.411,0,0,0,.028.194l.056.136a5.673,5.673,0,0,0,2.49,2.821c6.7,3.682,19.738,5.583,20.23,5.649,1.238.38,2.047.38,2.473,0a.851.851,0,0,0,.2-.266c.043.042.088.085.134.125.022.02.046.038.072.059,0,.488,0,.979,0,1.476a5.249,5.249,0,0,0,1.874,3.893c-1.6.635-1.647,2.319-1.71,4.534l-.008.271A7.636,7.636,0,0,0,36.2,96.6a.377.377,0,0,0-.1-.019.36.36,0,0,0-.306.127,4.984,4.984,0,0,0-1.1,2.391c-.075.453-.175,1.566-.294,3.311l-.139,2.142c-.111,1.765-.19,3.262-.19,3.262a.4.4,0,0,0,.2.363l.077.043a1.532,1.532,0,0,1,.493-.574c.013-.01.03-.014.045-.024l-.011-.007c.027-.491.092-1.675.176-3.013l.139-2.14c.117-1.693.216-2.812.285-3.234a4.351,4.351,0,0,1,.642-1.633,7.956,7.956,0,0,0,2.005,1.463.394.394,0,0,0,.391-.682c-1.295-.817-1.92-2.3-1.857-4.422l.009-.272c.08-2.791.2-3.768,1.92-4a.395.395,0,0,0,.138-.736,4.451,4.451,0,0,1-2.222-3.718c0-.562,0-1.118,0-1.668a.555.555,0,0,0-.224-.366c-.04-.03-.081-.06-.118-.091a3.051,3.051,0,0,1-.523-.621.393.393,0,0,0-.4-.163.405.405,0,0,0-.317.3l-.116.456a.449.449,0,0,0-.023.175c-.032.027-.341.254-1.778-.181-.135-.02-13.452-1.962-20.023-5.573a4.882,4.882,0,0,1-2.141-2.43l-.017-.042.188-1.69.293-1.506a.4.4,0,0,0-.144-.386,3.335,3.335,0,0,1-.949-2.743,5.811,5.811,0,0,1,1.624-3.521.4.4,0,0,0,.13-.371.352.352,0,0,0-.252-.273s-.343-.348.4-1.957c.2-.436.448-1.152.787-2.142,1.386-4.035,4.258-12.4,10.076-17.936l.406.05a.389.389,0,0,0,.425-.276c.016-.049,1.54-4.923,4.389-5.974a5.568,5.568,0,0,1,4.691.648.392.392,0,0,0,.581-.262A4.529,4.529,0,0,1,35.941,33.6c.377-.186.74-.39,1.117-.6a13.466,13.466,0,0,1,4.88-1.816.472.472,0,0,0,.217.009.441.441,0,0,0,.326-.432.391.391,0,0,0-.065-.217A5.986,5.986,0,0,1,42.5,28.6a6.009,6.009,0,0,1,.445-1.059.392.392,0,0,0-.03-.414.4.4,0,0,0-.385-.157l-.543.094A1.227,1.227,0,0,1,40.6,26.2L36.052,10.684a7.605,7.605,0,0,1,6-9.629L42.95.9a7.6,7.6,0,0,1,8.893,7.173l.677,16.085a1.235,1.235,0,0,1-1.02,1.264l-.452.078a.393.393,0,0,0-.2.675,4.743,4.743,0,0,1,1.562,3.7c-.009.128-.011.222-.012.3a.905.905,0,0,1-.086.419.392.392,0,0,0,.026.336.4.4,0,0,0,.275.194c4,.692,7.24,2.27,8.638,4.19a5.007,5.007,0,0,1,.492,2.711c0,.009.078.881.051,2.207a.4.4,0,0,0,.112.283.4.4,0,0,0-.129.276A21.932,21.932,0,0,1,59.5,50.1l-2.463,6.177-.778,3.685a.4.4,0,0,0-.007.121c.012.121.089,1.186-.867,1.295a.393.393,0,0,0-.334.494l.1.327a10.084,10.084,0,0,1-.411,3.719.933.933,0,0,1-.584.514.394.394,0,0,0,.085.769,4.291,4.291,0,0,1,.461.055c1.977.391,3.846,5.037,4.4,6.777.723,2.711.574,7.875.324,11.732a6.65,6.65,0,0,1-1.488,3.859.394.394,0,0,0,.1.623,4.785,4.785,0,0,1,2.017,3.928c0,2.114-.441,2.59-.826,2.767a.385.385,0,0,0-.193.485.39.39,0,0,0,.228.229,30.961,30.961,0,0,1,1.55,5.271l-.126.072a1.337,1.337,0,0,1,.426.662l.344-.2a.4.4,0,0,0,.188-.429,28.948,28.948,0,0,0-1.659-5.659c.595-.533.854-1.534.854-3.2A5.9,5.9,0,0,0,58.8,89.8a7.9,7.9,0,0,0,1.4-3.989c.254-3.914.4-9.172-.354-12-.207-.66-2.025-6.215-4.608-7.215a1.732,1.732,0,0,0,.217-.363,10.569,10.569,0,0,0,.462-4.168l0-.008a1.9,1.9,0,0,0,1.124-1.994l.747-3.563,2.424-6.071a20.134,20.134,0,0,0,2.053-6.455,5.132,5.132,0,0,0,2.8,2.584,2.531,2.531,0,0,0,1.01.083c-.106.981.187,2.944,2.385,6.574C71.774,58.7,78.1,68.457,78.167,68.555a.39.39,0,0,0,.3.178l1.24.086a.36.36,0,0,0,.257-.071l.529-.38-.011.081a.4.4,0,0,0,.09.312c.022.027,2.31,2.656,5.293,1.29a5.388,5.388,0,0,0,1.959-1.526,2.917,2.917,0,0,1,.374.08,1.542,1.542,0,0,0,1.55-.171c2.038-1.957,5.33-8.521,5.427-8.733l8.26-10.5a.4.4,0,0,0,.073-.334,3.514,3.514,0,0,0,.77-.7c1.678.519,8.986,2.508,13.722-.584a1.3,1.3,0,0,0,.578-.92,1.282,1.282,0,0,0-.323-1.028m-.685,1.288c-4.762,3.108-12.451.695-13.314.41a.393.393,0,0,0-.445.147,2.779,2.779,0,0,1-.783.758.412.412,0,0,0-.289.078.394.394,0,0,0-.115.483c.017.036.032.068.046.1L94.515,59.282c-.032.067-3.369,6.72-5.309,8.582-.144.138-.426.077-.807-.022a1.43,1.43,0,0,0-.957-.035.389.389,0,0,0-.145.117,4.619,4.619,0,0,1-1.757,1.411,3.764,3.764,0,0,1-4.249-.961l.115-.806a.394.394,0,0,0-.619-.376l-1.162.832-.9-.062c-.847-1.309-6.515-10.073-9.591-15.153S66.958,46.315,67,46.256A2.153,2.153,0,0,1,67.18,46a.394.394,0,0,0-.6-.511,1.691,1.691,0,0,0-.216.276,1.694,1.694,0,0,1-1.114.029,5.045,5.045,0,0,1-2.6-2.749,22.176,22.176,0,0,1-.087-2.235.4.4,0,0,0-.112-.281.39.39,0,0,0,.129-.273c.094-1.947.491-2.742.736-3.008.031-.018,3.052-1.877,5.694-.461,2.687,1.441,3.646,5.573,3.656,5.614a.392.392,0,0,0,.116.2C78.659,48.078,80.9,54.742,82.1,58.323c.288.859.515,1.537.724,1.989a.394.394,0,0,0,.68.06c3.144-4.5,9.306-9.513,9.4-9.592l5.263-5.347a.632.632,0,0,1,.43-.2.394.394,0,0,0,.342-.266.308.308,0,0,0,.013-.046,2.763,2.763,0,0,1,4.21-1.284.395.395,0,0,0,.591-.167,1.676,1.676,0,0,1,.774-.92c7.943-1.071,11.841,2.168,13.149,3.612a.49.49,0,0,1,.124.4.5.5,0,0,1-.226.361" transform="translate(1.067 0)" fill="#333"/>
      <path id="Trazado_42611" data-name="Trazado 42611" d="M54.3,87.743a.366.366,0,0,0,.127-.011.49.49,0,0,1-.127.011" transform="translate(6.151 9.939)" fill="#333"/>
      <path id="Trazado_42612" data-name="Trazado 42612" d="M43.857,64.255c1.83,0,3.652.063,5.481.1q.5.01.992.007l3.836-.5a7.768,7.768,0,0,0,.863-.336c-.679-.721-2.7-2.458-2.7-2.458-2.544-1.167-8.766-.718-8.766-.718-4.754.055-6.414.718-6.414.718a6.672,6.672,0,0,0-2.329,2.287c2.662,1.041,6.221.9,9.04.9" transform="translate(3.944 6.827)" fill="#e6e6e6"/>
      <path id="Trazado_42613" data-name="Trazado 42613" d="M45.206,52.131c-4.469,0-8.091,1.065-8.091,3.126a2.343,2.343,0,0,0,.913,1.719,1.441,1.441,0,0,1,.62-1.31c2-1.453,4.833-1.669,7.225-1.718.982-.021,1.966.006,2.947.071a6.026,6.026,0,0,1,2.6.415c.888.493,1.081.48.871,1.426.533-.5,1.01-.01,1.01-.6,0-2.061-2.655-3.126-8.091-3.126" transform="translate(4.205 5.906)" fill="#b3b3b3"/>
      <path id="Trazado_42614" data-name="Trazado 42614" d="M33.138,30.517s4.174,2.1,5.779,2.6,2.455-.518,8.752-.187,8.214-.3,9.654,1.033,1.441-1.22,1.441-1.22l-.688-1.1S56.341,27.494,45.6,27.484c-10.976-.009-12.462,3.033-12.462,3.033" transform="translate(3.754 3.114)" fill="#e6e6e6"/>
      <path id="Trazado_42615" data-name="Trazado 42615" d="M33.664,31.637c0,.006-.7-.927-1.06-.927-1.473.643-1.555,2.39-1.713,2.513.012.019.649-.138.8.155.907,1.747.814,2.989.7,4.893-.038.631-.414,1.857-.962,2.067a1.38,1.38,0,0,1-.514.857,21.385,21.385,0,0,1,.713,2.228c.17.628.332,1.26.5,1.888a.223.223,0,0,0,.027,0c1.118,0,2.72-2.6,2.72-6.365,0-3.577-.238-4.964-1.215-7.313" transform="translate(3.5 3.479)" fill="#ccc"/>
      <path id="Trazado_42616" data-name="Trazado 42616" d="M43.217,20.663c-3.392.494-5.841,2.459-5.687,3.522.1.7.93.9,2.758.974a1.45,1.45,0,0,1,.352-.817,6.966,6.966,0,0,1,2.667-1.879,3.911,3.911,0,0,1,1.893-.2,3.34,3.34,0,0,1,1.549.684,1.625,1.625,0,0,1,.581.523,1.167,1.167,0,0,1,.174.42c1.21-.537,1.939-1.163,1.856-1.735-.155-1.063-2.75-1.989-6.142-1.5" transform="translate(4.251 2.325)" fill="#b3b3b3"/>
      <path id="Trazado_42617" data-name="Trazado 42617" d="M57.737,33.267s3.206-2.021,6.09-.475,3.854,5.876,3.854,5.876-6.015,2.649-6.39,3.744c0,0-2.222,1.362-4.394-2.9C56.9,39.51,56.368,34.667,57.737,33.267Z" transform="translate(6.434 3.649)" fill="none" stroke="#333" stroke-width="0.34"/>
      <path id="Trazado_42618" data-name="Trazado 42618" d="M77.377,55.5c-1.041-2.241-2.757-10.62-10.132-17.486,0,0-5.284,1.8-6.39,3.744,0,0-1.22,1.411,2.134,6.952s9.7,15.328,9.7,15.328l1.24.087,1.283-.917" transform="translate(6.87 4.306)" fill="none" stroke="#333" stroke-width="0.34"/>
      <path id="Trazado_42619" data-name="Trazado 42619" d="M40.4,27.244l-.984.17a1.624,1.624,0,0,1-1.835-1.143L33.036,10.756A8,8,0,0,1,39.348.628l.9-.156A8,8,0,0,1,49.6,8.017L50.274,24.1a1.623,1.623,0,0,1-1.345,1.668l-.639.11" transform="translate(3.706 0.04)" fill="none" stroke="#333" stroke-width="0.354"/>
      <path id="Trazado_42620" data-name="Trazado 42620" d="M38.774,28.359l.907-.1a3.717,3.717,0,0,1,0-1.527,4.515,4.515,0,0,1,9.008.625c-.027.393.077.386-.067.751l.611.165a2.034,2.034,0,0,0,.249-.861A5.425,5.425,0,0,0,38.808,26a5.706,5.706,0,0,0-.033,2.357" transform="translate(4.38 2.485)" fill="#333"/>
      <path id="Trazado_42621" data-name="Trazado 42621" d="M48.08,22.687l.16-.368a12.431,12.431,0,0,0-5-.456,9.547,9.547,0,0,0-4.136,2.123l-.14.384a11.935,11.935,0,0,1,4.345-2.111,12.513,12.513,0,0,1,4.769.429" transform="translate(4.414 2.465)" fill="#333"/>
      <path id="Trazado_42622" data-name="Trazado 42622" d="M30.653,33.619a4.913,4.913,0,0,1,2.709-3.476,24.22,24.22,0,0,1,12.871-2.732c7.283.368,11.172,2.154,12.946,4.6a5.187,5.187,0,0,1,.548,2.88s.647,6.849-2.27,12.255l-2.443,6.112-.779,3.684s.2,1.713-1.372,1.753l-.376-1.35a18.4,18.4,0,0,0-13.7,1.188l-.062,1.834a4.785,4.785,0,0,1-2.03-2.951A60.678,60.678,0,0,0,35,51.056a38.068,38.068,0,0,1-4.09-9.23" transform="translate(3.473 3.101)" fill="none" stroke="#333" stroke-width="0.361"/>
      <path id="Trazado_42623" data-name="Trazado 42623" d="M31.393,32.968a8.174,8.174,0,0,1-.006,7.626" transform="translate(3.556 3.735)" fill="none" stroke="#333" stroke-linecap="round" stroke-width="0.355"/>
      <path id="Trazado_42624" data-name="Trazado 42624" d="M32.6,33.616s-2.9-2.444-5.966-1.311S22,38.533,22,38.533s5.592,2.513,5.812,3.649a3.641,3.641,0,0,0,2.994-.229,4.869,4.869,0,0,0,2.623-4.527A7.591,7.591,0,0,0,32.6,33.616Z" transform="translate(2.492 3.626)" fill="none" stroke="#333" stroke-width="0.34"/>
      <path id="Trazado_42625" data-name="Trazado 42625" d="M11.373,60.613s-.841-.238.194-2.483S15.3,44.7,22.65,37.8c0,0,5.291,1.783,6.4,3.723,0,0,1.224,1.406-2.111,6.959s-9.652,15.362-9.652,15.362l-.167.012a3,3,0,0,1-1.949-.544Z" transform="translate(1.252 4.283)" fill="none" stroke="#333" stroke-width="0.34"/>
      <path id="Trazado_42626" data-name="Trazado 42626" d="M11.357,65.15a3.393,3.393,0,0,1-1.584-3.067,6.166,6.166,0,0,1,1.743-3.791l3.58,2.543a2.292,2.292,0,0,0,2.317.2l-.444,1.274-.684.024a6.1,6.1,0,0,0-4.74,2.553Z" transform="translate(1.107 6.604)" fill="none" stroke="#333" stroke-width="0.34"/>
      <path id="Trazado_42627" data-name="Trazado 42627" d="M35.2,75.693l-.116.455s.187,1.03-2.239.286c0,0-13.445-1.928-20.156-5.618a5.252,5.252,0,0,1-2.315-2.625l-.056-.136.2-1.821.778-1.506a4.966,4.966,0,0,1,4.649-2.7,12.954,12.954,0,0,1,6.474,1.86c3.276,2.21,11.213,5.055,13.56,5.873a.767.767,0,0,1,.49.914" transform="translate(1.169 7.026)" fill="none" stroke="#333" stroke-width="0.34"/>
      <path id="Trazado_42628" data-name="Trazado 42628" d="M35.627,75.783l-.07-.1a4.111,4.111,0,0,1-.761-2.395v-.107a3.642,3.642,0,0,1,1.663-3.028" transform="translate(3.942 7.948)" fill="none" stroke="#333" stroke-linecap="round" stroke-width="0.34"/>
      <path id="Trazado_42629" data-name="Trazado 42629" d="M36.65,76.269a3.289,3.289,0,0,1-3.139-1.015,3.252,3.252,0,0,1-.52-4.617c1.016-1.383,2.758-2.092,4.962-.471" transform="translate(3.655 7.843)" fill="#fff"/>
      <path id="Trazado_42630" data-name="Trazado 42630" d="M36.65,76.269a3.289,3.289,0,0,1-3.139-1.015,3.252,3.252,0,0,1-.52-4.617c1.016-1.383,2.758-2.092,4.962-.471" transform="translate(3.655 7.843)" fill="none" stroke="#333" stroke-linecap="round" stroke-linejoin="round" stroke-width="0.707"/>
      <path id="Trazado_42631" data-name="Trazado 42631" d="M35.855,75.243a3.68,3.68,0,0,1,1.429-5s2.225-.981,3.45-.458c0,0,6.663,5.527,8.059,9.343a.829.829,0,0,1-.855,1.1c-2.748-.223-9.811-1.161-12.084-4.988" transform="translate(4.01 7.889)" fill="#fff"/>
      <path id="Trazado_42632" data-name="Trazado 42632" d="M35.855,75.243a3.68,3.68,0,0,1,1.429-5s2.225-.981,3.45-.458c0,0,6.663,5.527,8.059,9.343a.829.829,0,0,1-.855,1.1C45.191,80.008,38.127,79.069,35.855,75.243Z" transform="translate(4.01 7.889)" fill="none" stroke="#333" stroke-linecap="round" stroke-linejoin="round" stroke-width="0.707"/>
      <path id="Trazado_42633" data-name="Trazado 42633" d="M39.593,60.824A1.233,1.233,0,0,1,38.375,59.8a16.9,16.9,0,0,1-.214-3.305v-.9a12.614,12.614,0,0,1,6.19-2.117,23.552,23.552,0,0,1,2.816-.135,21.838,21.838,0,0,1,4.532.809l.114.249.468,1.716a10.427,10.427,0,0,1-.443,3.905,1.335,1.335,0,0,1-1.225.794Z" transform="translate(4.323 6.044)" fill="none" stroke="#333" stroke-width="0.361"/>
      <path id="Trazado_42634" data-name="Trazado 42634" d="M33.382,78.444c.007,1.944.348,3.9,3.255,4.008l5.516.263,1.2.633,3.868.2a24.532,24.532,0,0,0,5.565-.344l1.888-.335c1.378.117,2.263-1.622,2.41-3.875.244-3.717.41-9.055-.336-11.858,0,0-2.058-6.539-4.7-7.062-1.66-.328-12.862,0-12.862,0s-3.7.608-4.888,5.525" transform="translate(3.782 6.79)" fill="none" stroke="#333" stroke-width="0.361"/>
      <path id="Trazado_42635" data-name="Trazado 42635" d="M44.231,84.864c0,4.4-2.485,5.551-5.551,5.551s-5.276-1.6-5.158-5.551c.091-3.065.035-4.7,3.1-4.7,1.15,0,4.064.191,5.517.263C43.857,80.507,44.231,82.948,44.231,84.864Z" transform="translate(3.797 9.081)" fill="none" stroke="#333" stroke-width="0.361"/>
      <path id="Trazado_42636" data-name="Trazado 42636" d="M56.273,85.049c0,4.4-1.812,3.129-4.878,3.129s-5.2,2.253-5.192-2.7c0-3.066-.351-4.593,2.715-4.593,1.15,0,2.858-.417,4.312-.345C54.947,80.624,56.273,83.133,56.273,85.049Z" transform="translate(5.233 9.123)" fill="none" stroke="#333" stroke-width="0.361"/>
      <path id="Trazado_42637" data-name="Trazado 42637" d="M31.91,97.969s.08-1.5.189-3.26l.139-2.14c.1-1.461.208-2.775.291-3.272a4.625,4.625,0,0,1,1-2.19,7.227,7.227,0,0,0,4.45,2.469,5.555,5.555,0,0,0,5.7-2.155l.334,4.114a31.41,31.41,0,0,1-1.373,10.988" transform="translate(3.615 9.868)" fill="none" stroke="#333" stroke-width="0.361"/>
      <path id="Trazado_42638" data-name="Trazado 42638" d="M57.165,93.22s-1.359-5.971-1.854-5.827a16.429,16.429,0,0,1-2.486.05A18,18,0,0,0,50,87.6l-2.3.312a2.873,2.873,0,0,0-1.939,1.742c-.6,1.476,0,10.15,0,10.15" transform="translate(5.154 9.9)" fill="none" stroke="#333" stroke-width="0.361"/>
      <path id="Trazado_42639" data-name="Trazado 42639" d="M76.131,55.962a7.963,7.963,0,0,1,4,1.7L81.5,59.036a5.719,5.719,0,0,1-3.072,4.317c-2.746,1.258-4.829-1.188-4.829-1.188l.616-4.316a2.43,2.43,0,0,1,1.909-1.886Z" transform="translate(8.338 6.34)" fill="none" stroke="#333" stroke-width="0.34"/>
      <path id="Trazado_42640" data-name="Trazado 42640" d="M90.49,40.6l-5.264,5.347s-6.58,5.193-9.442,10.119c-.322.552-1.337,1.789-1.035,2.352l.579-.432s.456-.727,3.43.588a4.74,4.74,0,0,1,1.9,1.708c.419.63.572.9.366,1.387L80.213,63.6a1.636,1.636,0,0,0,2.292-.5c1.456-2.38,4.966-8.21,4.966-8.21l7.644-9.72a1.291,1.291,0,0,0,0-1.6,25.074,25.074,0,0,0-2.07-2.313S91.489,39.58,90.49,40.6Z" transform="translate(8.462 4.562)" fill="none" stroke="#333" stroke-width="0.34"/>
      <path id="Trazado_42641" data-name="Trazado 42641" d="M89.492,40.449a3.159,3.159,0,0,1,1.5-1.745" transform="translate(10.139 4.385)" fill="none" stroke="#333" stroke-width="0.34"/>
      <path id="Trazado_42642" data-name="Trazado 42642" d="M94.939,37.892s-1,.249-1.314,1.91a6.1,6.1,0,0,0,.9,3.607s8.534,2.967,13.732-.428a.9.9,0,0,0,.178-1.354C107.025,40.075,103.022,36.8,94.939,37.892Z" transform="translate(10.601 4.268)" fill="none" stroke="#333" stroke-width="0.34"/>
      <line id="Línea_11" data-name="Línea 11" x1="0.195" y2="6.659" transform="translate(42.477 92.838)" fill="none" stroke="#333" stroke-linecap="round" stroke-linejoin="round" stroke-width="1.691"/>
      <line id="Línea_12" data-name="Línea 12" x2="0.747" y2="5.717" transform="translate(57.503 91.896)" fill="none" stroke="#333" stroke-linecap="round" stroke-linejoin="round" stroke-width="1.691"/>
      <path id="Trazado_42643" data-name="Trazado 42643" d="M93.827,39.029a15.842,15.842,0,0,0,8.36,2.951c5.11.32,5.886,0,5.886,0s-2.277-3.257-5.563-3.773a46.453,46.453,0,0,0-7.6-.334Z" transform="translate(10.63 4.287)" fill="#e6e6e6"/>
      <path id="Trazado_42644" data-name="Trazado 42644" d="M61.212,103.85s-1.359-6.741-1.854-6.6l-.013,0c.684-.316,1.054-1.142,1.054-3.124a5.18,5.18,0,0,0-2.232-4.278,7.064,7.064,0,0,0,1.6-4.107c.242-3.717.41-9.057-.336-11.858,0,0-2.058-6.539-4.7-7.062a4.506,4.506,0,0,0-.505-.061,1.326,1.326,0,0,0,.829-.733,10.459,10.459,0,0,0,.443-3.907l-.11-.4C56.768,61.567,56.6,60,56.6,60l.779-3.684L59.821,50.2a22.261,22.261,0,0,0,2.307-9.438,21.614,21.614,0,0,0,.1,2.355c2.171,4.263,4.393,2.9,4.393,2.9a.98.98,0,0,1,.213-.3,2.43,2.43,0,0,0-.213.3s-1.22,1.411,2.134,6.951,9.7,15.329,9.7,15.329l1.24.086,1.278-.914-.141.993s2.084,2.446,4.829,1.188a4.988,4.988,0,0,0,1.9-1.529c.405-.189,1.346.488,1.869-.016,2.012-1.932,5.391-8.69,5.391-8.69l8.259-10.5s-.049-.127-.146-.328l.066.057a3.129,3.129,0,0,0,1.088-.977c.8.265,8.722,2.767,13.653-.454a.9.9,0,0,0,.178-1.354c-1.407-1.553-5.409-4.827-13.493-3.737a1.891,1.891,0,0,0-1.083,1.156,3.157,3.157,0,0,0-4.826,1.519l.006,0a1.029,1.029,0,0,0-.684.318l-5.263,5.347s-6.231,5.048-9.443,9.643C82.1,57.85,80.371,49.132,73.008,42.275c0,0-.971-4.328-3.854-5.875s-6.09.475-6.09.475a5.561,5.561,0,0,0-.918,3.321c.027-1.367-.053-2.249-.053-2.249a5.182,5.182,0,0,0-.549-2.88c-1.364-1.877-4.517-3.614-8.907-4.374a1.91,1.91,0,0,0,.124-.833,5.137,5.137,0,0,0-1.684-4.013l.452-.078A1.625,1.625,0,0,0,52.873,24.1L52.2,8.017A8,8,0,0,0,42.843.472l-.9.156a8,8,0,0,0-6.313,10.128l4.543,15.516a1.624,1.624,0,0,0,1.835,1.143l.543-.095a6.5,6.5,0,0,0-.474,1.128,5.686,5.686,0,0,0-.033,2.357v-.088c-3.292.505-4.686,1.683-6.321,2.487a4.945,4.945,0,0,0-2.687,3.363,6,6,0,0,0-5.024-.677c-3.069,1.133-4.628,6.228-4.628,6.228l-.591-.072C15.444,48.938,12.743,60.129,11.71,62.373s-.193,2.483-.193,2.483a6.16,6.16,0,0,0-1.743,3.791,3.707,3.707,0,0,0,1.1,3.067m34.278,40.638a31.446,31.446,0,0,0,1.373-10.988L46.19,97.25s-.023.037-.061.091a8.237,8.237,0,0,0-.1-7.244l5.106.268c-.979.633-.809,2.028-.812,4.195,0,2.479.531,3.153,1.447,3.208l-.029,0a2.873,2.873,0,0,0-1.939,1.742c-.6,1.476,0,11.092,0,11.092M10.873,71.714,10.58,73.22l-.2,1.821.056.137A5.256,5.256,0,0,0,12.747,77.8c6.71,3.689,20.155,5.619,20.155,5.619,2.427.743,2.24-.287,2.24-.287l.115-.455,0-.016a3.44,3.44,0,0,0,.591.7c.067.058.139.107.208.159q-.005.828,0,1.672a4.837,4.837,0,0,0,2.425,4.062c-2.218.3-2.188,1.895-2.269,4.649-.072,2.4.72,3.933,2.04,4.765a7.06,7.06,0,0,1-2.213-1.733,4.625,4.625,0,0,0-1,2.19c-.083.5-.189,1.811-.291,3.272l-.139,2.14c-.109,1.763-.189,3.26-.189,3.26M29.2,45.767a3.641,3.641,0,0,0,2.994-.229,4.5,4.5,0,0,0,1.075-.749l0,.1a38.1,38.1,0,0,0,4.091,9.23,60.677,60.677,0,0,1,1.7,6.355,4.785,4.785,0,0,0,2.03,2.951l.287-.923a16.821,16.821,0,0,0,.214,3.306,1.222,1.222,0,0,0,1.092,1l-.816.022s-3.694.608-4.887,5.525a30.623,30.623,0,0,0-.667,4.566.746.746,0,0,0-.273-.173c-2.347-.817-10.283-3.663-13.56-5.871a12.944,12.944,0,0,0-6.474-1.861m0,0,.964-.141-.055-.745.521-.038s6.316-9.808,9.651-15.361,2.111-6.96,2.111-6.96" transform="translate(1.107 0.04)" fill="none" stroke="#333" stroke-linecap="round" stroke-linejoin="round" stroke-width="0.707"/>
      <path id="Trazado_42645" data-name="Trazado 42645" d="M30.225,36.964a1.382,1.382,0,1,1-1.383-1.383,1.383,1.383,0,0,1,1.383,1.383" transform="translate(3.111 4.031)" fill="#333"/>
      <path id="Trazado_42646" data-name="Trazado 42646" d="M61.014,36.033a1.382,1.382,0,1,1-1.5,1.26,1.383,1.383,0,0,1,1.5-1.26" transform="translate(6.742 4.081)" fill="#333"/>
      <path id="Trazado_42647" data-name="Trazado 42647" d="M101.971,23.052c0,7.658-2.464,13.867-5.5,13.867s-5.5-6.209-5.5-13.867,2.465-13.867,5.5-13.867S101.971,15.394,101.971,23.052Z" transform="translate(10.305 1.041)" fill="none" stroke="#333" stroke-linecap="round" stroke-linejoin="round" stroke-width="0.707"/>
      <path id="Trazado_42648" data-name="Trazado 42648" d="M100.018,27.166c-6.534,4-13.116,5.133-14.7,2.541s2.425-7.934,8.958-11.93,13.116-5.133,14.7-2.541S106.552,23.17,100.018,27.166Z" transform="translate(9.626 1.568)" fill="none" stroke="#333" stroke-linecap="round" stroke-linejoin="round" stroke-width="0.707"/>
      <path id="Trazado_42649" data-name="Trazado 42649" d="M94.189,27.6c-6.633-3.83-10.778-9.068-9.258-11.7s8.129-1.662,14.761,2.168,10.778,9.068,9.258,11.7S100.822,31.428,94.189,27.6Z" transform="translate(9.586 1.633)" fill="none" stroke="#333" stroke-linecap="round" stroke-linejoin="round" stroke-width="0.707"/>
      <path id="Trazado_42650" data-name="Trazado 42650" d="M100.092,11.918a1.511,1.511,0,1,1-1.511-1.511,1.511,1.511,0,0,1,1.511,1.511" transform="translate(10.997 1.179)" fill="#fff"/>
      <ellipse id="Elipse_17" data-name="Elipse 17" cx="1.511" cy="1.511" rx="1.511" ry="1.511" transform="translate(108.068 11.586)" fill="none" stroke="#333" stroke-linecap="round" stroke-linejoin="round" stroke-width="0.836"/>
      <path id="Trazado_42651" data-name="Trazado 42651" d="M104.841,29.559a1.511,1.511,0,1,1-1.511-1.511,1.511,1.511,0,0,1,1.511,1.511" transform="translate(11.535 3.178)" fill="#fff"/>
      <ellipse id="Elipse_18" data-name="Elipse 18" cx="1.511" cy="1.511" rx="1.511" ry="1.511" transform="translate(113.356 31.225)" fill="none" stroke="#333" stroke-linecap="round" stroke-linejoin="round" stroke-width="0.707"/>
      <path id="Trazado_42652" data-name="Trazado 42652" d="M86.748,26.344a1.511,1.511,0,1,1-1.511-1.511,1.511,1.511,0,0,1,1.511,1.511" transform="translate(9.485 2.813)" fill="#fff"/>
      <ellipse id="Elipse_19" data-name="Elipse 19" cx="1.511" cy="1.511" rx="1.511" ry="1.511" transform="translate(93.213 27.646)" fill="none" stroke="#333" stroke-linecap="round" stroke-linejoin="round" stroke-width="0.836"/>
      <path id="Trazado_42653" data-name="Trazado 42653" d="M98.222,21.69a2.308,2.308,0,1,1-2.309-2.309,2.309,2.309,0,0,1,2.309,2.309" transform="translate(10.605 2.196)" fill="#fff"/>
      <path id="Trazado_42654" data-name="Trazado 42654" d="M98.222,21.69a2.308,2.308,0,1,1-2.309-2.309A2.309,2.309,0,0,1,98.222,21.69Z" transform="translate(10.605 2.196)" fill="none" stroke="#333" stroke-linecap="round" stroke-linejoin="round" stroke-width="0.836"/>
    </g>
  </g>
</svg>
