<svg id="Grupo_269" data-name="Grupo 269" xmlns="http://www.w3.org/2000/svg" xmlns:xlink="http://www.w3.org/1999/xlink" width="173.78" height="221.015" viewBox="0 0 173.78 221.015">
  <defs>
    <clipPath id="clip-path">
      <rect id="Rectángulo_113" data-name="Rectángulo 113" width="173.779" height="221.015" fill="none"/>
    </clipPath>
  </defs>
  <path id="Trazado_42501" data-name="Trazado 42501" d="M167.8,62.854V156.3L86.875,203.018,5.951,156.3V62.854L86.875,16.133Z" transform="translate(-5.951 16.222)" fill="#ec619f"/>
  <g id="Grupo_268" data-name="Grupo 268" transform="translate(0.002 0)">
    <g id="Grupo_267" data-name="Grupo 267" clip-path="url(#clip-path)">
      <path id="Trazado_42502" data-name="Trazado 42502" d="M43.869,121.472l.594-9.727c.18-2.631.373-5,.521-5.894.4-2.419,2.82-4.539,2.82-4.539l.03.064a12.538,12.538,0,0,1-.732-4.932c.164-5.521.06-8.473,5.583-8.473,2.072,0,7.32.345,9.939.473,3.095.152,3.768,4.549,3.768,8a11.8,11.8,0,0,1-1.428,6.193c.068-.1.11-.166.11-.166l.6,7.411A56.583,56.583,0,0,1,63.2,129.676l-.5,2.17" transform="translate(19.404 88.459)" fill="#fff"/>
      <path id="Trazado_42503" data-name="Trazado 42503" d="M43.869,121.472l.594-9.727c.18-2.631.373-5,.521-5.894.4-2.419,2.82-4.539,2.82-4.539l.03.064a12.538,12.538,0,0,1-.732-4.932c.164-5.521.06-8.473,5.583-8.473,2.072,0,7.32.345,9.939.473,3.095.152,3.768,4.549,3.768,8a11.8,11.8,0,0,1-1.428,6.193c.068-.1.11-.166.11-.166l.6,7.411A56.583,56.583,0,0,1,63.2,129.676l-.5,2.17" transform="translate(19.404 88.459)" fill="none" stroke="#333" stroke-linecap="round" stroke-linejoin="round" stroke-width="0.707"/>
      <path id="Trazado_42504" data-name="Trazado 42504" d="M31.511,126.158s-1.075-17.322,0-19.981A5.169,5.169,0,0,1,35,103.04l.052-.008c-1.651-.1-2.611-1.314-2.607-5.778.006-5.523-.63-8.275,4.892-8.275,2.072,0,5.15-.752,7.767-.622,3.1.152,5.483,4.671,5.483,8.122,0,3.57-.666,5.06-1.9,5.628l.026,0c.89-.259,3.339,12.192,3.339,12.192" transform="translate(59.483 88.833)" fill="#fff"/>
      <path id="Trazado_42505" data-name="Trazado 42505" d="M31.511,126.158s-1.075-17.322,0-19.981A5.169,5.169,0,0,1,35,103.04l.052-.008c-1.651-.1-2.611-1.314-2.607-5.778.006-5.523-.63-8.275,4.892-8.275,2.072,0,5.15-.752,7.767-.622,3.1.152,5.483,4.671,5.483,8.122,0,3.57-.666,5.06-1.9,5.628l.026,0c.89-.259,3.339,12.192,3.339,12.192" transform="translate(59.483 88.833)" fill="none" stroke="#333" stroke-linecap="round" stroke-linejoin="round" stroke-width="0.707"/>
      <path id="Trazado_42506" data-name="Trazado 42506" d="M81.77,119.859s.323,4.494-.8,7.037a2.4,2.4,0,0,1-1.49,1.318,8.451,8.451,0,0,1,.909.11c4.757.941,8.465,12.721,8.465,12.721,1.344,5.048,1.041,14.667.606,21.363-.265,4.057-4.342,6.981-6.825,6.773h-5.9l-21.985-1.157c-5.236-.193-8.369-3.133-8-6.614.443-4.22,1.091-9.847,1.843-14.877a9.782,9.782,0,0,1-2.421.323s-24.039,4.569-37.63,2.2a9.473,9.473,0,0,1-5.477-3.121l-.174-.2-.716-3.223.445-3.022a9.038,9.038,0,0,1,.927-2.826v0l-.339.475a6.111,6.111,0,0,1-2.854-5.523A11.1,11.1,0,0,1,3.5,124.791l6.45,4.581L3.5,124.791s-1.514-.429.349-4.472,6.725-24.2,19.967-36.619l1.065.132s2.81-9.179,8.339-11.221a10.61,10.61,0,0,1,8.654,1l-.012-.359a8.855,8.855,0,0,1,4.865-6.271A40.947,40.947,0,0,1,59.589,62.47l-1.486.16a10.25,10.25,0,0,1,.052-4.246,10.775,10.775,0,0,1,2.888-4.755l-1.572-.287a2.926,2.926,0,0,1-2.395-3.07l1.933-29.06A14.408,14.408,0,0,1,75.964,7.993l1.614.293A14.407,14.407,0,0,1,88.721,26.846L79.895,54.47a2.925,2.925,0,0,1-3.309,1.987l-.16-.028a8.6,8.6,0,0,1,.971,4.458,7.579,7.579,0,0,1-.489,2.208c7.914,1.352,13.87,3.76,16.335,7.136a9.337,9.337,0,0,1,1,5.188s.614-.77,1.747-1.937c0,0,5.768-3.654,10.968-.88s6.967,10.569,6.967,10.569a61.791,61.791,0,0,1,15.661,24.183,106.227,106.227,0,0,1,5.056-18.293L137.6,75.873a1.807,1.807,0,0,1,.776-1.131l-.046-.008a5.66,5.66,0,0,1,3.714-6.612,4.568,4.568,0,0,0-2.816,1.011s-.927-16.722,5.415-26.89a2.779,2.779,0,0,1,4.777.2c2.479,4.611,5.846,13.341,3.227,23.577a4.369,4.369,0,0,1-4.027,4.158l-.128-.078a5.709,5.709,0,0,1,.359,6.249l-.154-.024c.339.217.535.365.535.365L146.6,100.62s-.4,12.495-1.637,17.364-3.865,4.691-3.865,4.691v-.032a9.606,9.606,0,0,1-3.335,6.7c-4.182,3.484-8.957.213-8.957.213l-.219-1.767-.2.736-2.306,1.657-2.234-.148s-11.478-17.607-17.543-27.576-3.875-12.515-3.875-12.515a4.575,4.575,0,0,1,.381-.548,1.789,1.789,0,0,0-.381.548s-4,2.463-7.926-5.208a48.042,48.042,0,0,1-4.3,12.771l-4.376,11.019-1.388,6.642s.369,3.085-2.465,3.163Zm-60.684,11.7c6.873,1.851,22.061,2.064,26.537,2.084a1.361,1.361,0,0,1,1.29.985,5.128,5.128,0,0,1,3.7-1.931,10.855,10.855,0,0,1,6.305-4.376,2.222,2.222,0,0,1-2.194-1.837,30.487,30.487,0,0,1-.385-5.956v-2.553a4.2,4.2,0,0,1-3.5-3.586c-.453-3.263-3.087-13.136-3.087-13.136a29.116,29.116,0,0,1-7.192-12.513,8.1,8.1,0,0,1-1.815,1.249,6.559,6.559,0,0,1-5.391.411c-.092-.469-.339-.588,0,0,0,0,2.2,2.535-3.8,12.539s-17.386,27.673-17.386,27.673l-.3.022c-.02,0-.038,0-.056,0l-.2.572a19.459,19.459,0,0,1,7.481.355" transform="translate(19.474 7.8)" fill="#fff"/>
      <path id="Trazado_42507" data-name="Trazado 42507" d="M81.77,119.859s.323,4.494-.8,7.037a2.4,2.4,0,0,1-1.49,1.318,8.451,8.451,0,0,1,.909.11c4.757.941,8.465,12.721,8.465,12.721,1.344,5.048,1.041,14.667.606,21.363-.265,4.057-4.342,6.981-6.825,6.773h-5.9l-21.985-1.157c-5.236-.193-8.369-3.133-8-6.614.443-4.22,1.091-9.847,1.843-14.877a9.782,9.782,0,0,1-2.421.323s-24.039,4.569-37.63,2.2a9.473,9.473,0,0,1-5.477-3.121l-.174-.2-.716-3.223.445-3.022a9.038,9.038,0,0,1,.927-2.826v0l-.339.475a6.111,6.111,0,0,1-2.854-5.523A11.1,11.1,0,0,1,3.5,124.791l6.45,4.581L3.5,124.791s-1.514-.429.349-4.472,6.725-24.2,19.967-36.619l1.065.132s2.81-9.179,8.339-11.221a10.61,10.61,0,0,1,8.654,1l-.012-.359a8.855,8.855,0,0,1,4.865-6.271A40.947,40.947,0,0,1,59.589,62.47l-1.486.16a10.25,10.25,0,0,1,.052-4.246,10.775,10.775,0,0,1,2.888-4.755l-1.572-.287a2.926,2.926,0,0,1-2.395-3.07l1.933-29.06A14.408,14.408,0,0,1,75.964,7.993l1.614.293A14.407,14.407,0,0,1,88.721,26.846L79.895,54.47a2.925,2.925,0,0,1-3.309,1.987l-.16-.028a8.6,8.6,0,0,1,.971,4.458,7.579,7.579,0,0,1-.489,2.208c7.914,1.352,13.87,3.76,16.335,7.136a9.337,9.337,0,0,1,1,5.188s.614-.77,1.747-1.937c0,0,5.768-3.654,10.968-.88s6.967,10.569,6.967,10.569a61.791,61.791,0,0,1,15.661,24.183,106.227,106.227,0,0,1,5.056-18.293L137.6,75.873a1.807,1.807,0,0,1,.776-1.131l-.046-.008a5.66,5.66,0,0,1,3.714-6.612,4.568,4.568,0,0,0-2.816,1.011s-.927-16.722,5.415-26.89a2.779,2.779,0,0,1,4.777.2c2.479,4.611,5.846,13.341,3.227,23.577a4.369,4.369,0,0,1-4.027,4.158l-.128-.078a5.709,5.709,0,0,1,.359,6.249l-.154-.024c.339.217.535.365.535.365L146.6,100.62s-.4,12.495-1.637,17.364-3.865,4.691-3.865,4.691v-.032a9.606,9.606,0,0,1-3.335,6.7c-4.182,3.484-8.957.213-8.957.213l-.219-1.767-.2.736-2.306,1.657-2.234-.148s-11.478-17.607-17.543-27.576-3.875-12.515-3.875-12.515a4.575,4.575,0,0,1,.381-.548,1.789,1.789,0,0,0-.381.548s-4,2.463-7.926-5.208a48.042,48.042,0,0,1-4.3,12.771l-4.376,11.019-1.388,6.642s.369,3.085-2.465,3.163Zm-60.684,11.7c6.873,1.851,22.061,2.064,26.537,2.084a1.361,1.361,0,0,1,1.29.985,5.128,5.128,0,0,1,3.7-1.931,10.855,10.855,0,0,1,6.305-4.376,2.222,2.222,0,0,1-2.194-1.837,30.487,30.487,0,0,1-.385-5.956v-2.553a4.2,4.2,0,0,1-3.5-3.586c-.453-3.263-3.087-13.136-3.087-13.136a29.116,29.116,0,0,1-7.192-12.513,8.1,8.1,0,0,1-1.815,1.249,6.559,6.559,0,0,1-5.391.411c-.092-.469-.339-.588,0,0,0,0,2.2,2.535-3.8,12.539s-17.386,27.673-17.386,27.673l-.3.022c-.02,0-.038,0-.056,0l-.2.572A19.459,19.459,0,0,1,21.086,131.563Z" transform="translate(19.474 7.8)" fill="none" stroke="#333" stroke-linecap="round" stroke-linejoin="round" stroke-width="0.707"/>
      <path id="Trazado_42508" data-name="Trazado 42508" d="M24.51,45.879A2.49,2.49,0,1,0,27,43.388a2.491,2.491,0,0,0-2.491,2.491" transform="translate(95.133 43.629)" fill="#333"/>
      <path id="Trazado_42509" data-name="Trazado 42509" d="M59.491,43.258a2.49,2.49,0,1,0,2.693,2.27,2.492,2.492,0,0,0-2.693-2.27" transform="translate(-3.155 43.488)" fill="#333"/>
      <path id="Trazado_42510" data-name="Trazado 42510" d="M37.018,30.279c.523-2.461,6.153-3.347,12.575-1.981,5.339,1.137,9.53,3.474,10.5,5.642-.108.084-.215.168-.323.251a11.557,11.557,0,0,1-1.947,1.055,10.412,10.412,0,0,1-1.9.445c-.094.006-.191.008-.287.014a2.39,2.39,0,0,0-.983-1.2,24.107,24.107,0,0,0-6.031-2.338,8.293,8.293,0,0,0-3.9-.022,5.217,5.217,0,0,0-3.223,2.5,3.137,3.137,0,0,0-.162.4c-2.91-1.458-4.647-3.241-4.32-4.775" transform="translate(39.527 27.81)" fill="#b3b3b3"/>
      <path id="Trazado_42511" data-name="Trazado 42511" d="M53.413,75.949c-3.073.01-6.131.13-9.2.213q-.833.021-1.667.014L36.1,75.131a11.259,11.259,0,0,1-1.448-.7c1.141-1.492,4.539-5.084,4.539-5.084,4.272-2.413,14.721-1.486,14.721-1.486,7.984.112,10.77,1.486,10.77,1.486a12.735,12.735,0,0,1,3.911,4.731c-4.47,2.154-10.447,1.853-15.18,1.867" transform="translate(35.688 68.065)" fill="#e6e6e6"/>
      <path id="Trazado_42512" data-name="Trazado 42512" d="M50.166,58.74c8.3,0,15.028,3.177,15.028,7.1a3.646,3.646,0,0,1-.487,1.759,2.552,2.552,0,0,0-.862-.152,2.6,2.6,0,0,0-1.127.247A5.743,5.743,0,0,0,61.3,65.575a11.613,11.613,0,0,0-5.8-2.7,33.918,33.918,0,0,0-11.083-.213c-2.475.341-6.125,1.528-7.774,3.73a7.482,7.482,0,0,0-.624-.443,7.185,7.185,0,0,0-.708-.4c-.044-.02-.09-.036-.134-.058.379-3.758,6.935-6.755,14.991-6.755" transform="translate(38.04 59.066)" fill="#e6e6e6"/>
      <path id="Trazado_42513" data-name="Trazado 42513" d="M54.873,44.384A2.388,2.388,0,0,0,53.2,42.593c.126-.273.267-.537.381-.816a9.648,9.648,0,0,0,.644-2.854,1.386,1.386,0,0,1,.269-.042c2.192,0,3.969,5.391,3.969,12.041,0,5.094-1.045,9.438-2.517,11.2-.219-.423-.447-.844-.628-1.288a17.9,17.9,0,0,1-.77-2.952,2.171,2.171,0,0,0-.574-1.079,2.393,2.393,0,0,0,.209-.483,25.58,25.58,0,0,0,.686-11.933" transform="translate(8.609 39.097)" fill="#ccc"/>
      <path id="Trazado_42514" data-name="Trazado 42514" d="M77.852,43.3a4.02,4.02,0,0,1-4.5,2.732c-3.642-.375-16.933-3.267-26.568-1.981s-9.741,1.821-11.241,1.392-4.735-3.855-4.735-3.855,10.3-8.078,23.8-6.61S77.423,40.19,77.852,43.3" transform="translate(34.136 34.988)" fill="#e6e6e6"/>
      <path id="Trazado_42515" data-name="Trazado 42515" d="M26.808,58.843a3.6,3.6,0,0,0,1.769-.427l.1-.064.038-.116c.455-1.336,7.182-4.739,11.315-6.57l.255-.112-.062-.273c-.072-.325-1.861-7.98-7.138-10.794-5.319-2.834-11.069.74-11.311.892l-.062.05c-2.543,2.615-1.622,11.165-1.582,11.526l.036.118c1.618,3.159,3.452,5.044,5.453,5.6a4.415,4.415,0,0,0,1.185.166m1.324-.961a3.318,3.318,0,0,1-2.346.132c-1.765-.5-3.488-2.3-4.982-5.2-.078-.774-.808-8.57,1.372-10.884.473-.287,5.838-3.385,10.593-.846,4.464,2.379,6.36,8.69,6.727,10.072-1.877.842-10.365,4.731-11.363,6.723" transform="translate(93.501 39.615)" fill="#333"/>
      <path id="Trazado_42516" data-name="Trazado 42516" d="M36.646,92.914l2.4-1.729-.4-.554-2.206,1.586-1.943-.13c-1.105-1.7-11.74-18.046-17.444-27.424-5.776-9.492-3.929-12.093-3.907-12.116,1.783-3.133,9.811-6.121,11.159-6.6C34.87,55.775,37.172,62.58,38.7,67.091a28.016,28.016,0,0,0,1.047,2.792l.618-.289a27.25,27.25,0,0,1-1.019-2.72c-1.556-4.6-3.907-11.546-14.719-21.57l-.15-.138-.193.066c-.393.134-9.657,3.351-11.684,6.925-.058.058-2.244,2.8,3.881,12.862,6,9.859,17.434,27.408,17.549,27.584l.092.142Z" transform="translate(109.004 45.417)" fill="#333"/>
      <path id="Trazado_42517" data-name="Trazado 42517" d="M52.577,57.034a3.291,3.291,0,0,0,3.127-2.28L64.53,27.127A14.762,14.762,0,0,0,53.11,8.113L51.5,7.82A14.763,14.763,0,0,0,34.124,21.363l-1.933,29.06a3.278,3.278,0,0,0,2.685,3.442l1.771.323.126-.7L35,53.169a2.571,2.571,0,0,1-2.1-2.7l1.935-29.06A14.052,14.052,0,0,1,51.37,8.518l1.614.293a14.055,14.055,0,0,1,10.87,18.1L55.028,54.537a2.59,2.59,0,0,1-2.908,1.747l-1.149-.209-.126.7,1.147.209a3.417,3.417,0,0,0,.586.052" transform="translate(44.004 7.625)" fill="#333"/>
      <path id="Trazado_42518" data-name="Trazado 42518" d="M38.541,40.929l1.635-.176a6.728,6.728,0,0,1,0-2.752A8.134,8.134,0,0,1,56.4,39.09a6.81,6.81,0,0,1-.183,2.078l1.1.295a7.59,7.59,0,0,0,.509-2.276,9.664,9.664,0,0,0-8.929-9.821c-5.263-.353-8.963,2.834-10.313,7.318a10.25,10.25,0,0,0-.052,4.246" transform="translate(39.035 29.501)" fill="#333"/>
      <path id="Trazado_42519" data-name="Trazado 42519" d="M54.6,34.338l.533-.491a22.413,22.413,0,0,0-7.894-4.406,17.218,17.218,0,0,0-8.363.467l-.511.529c.05-.012,4.99-1.231,8.7-.295s7.5,4.155,7.537,4.2" transform="translate(41.7 29.254)" fill="#333"/>
      <path id="Trazado_42520" data-name="Trazado 42520" d="M70,91.674l.191-.006a2.737,2.737,0,0,0,2.094-.9,3.757,3.757,0,0,0,.726-2.609l1.378-6.586,4.356-10.96c5.208-9.7,4.077-22.131,4.065-22.256a9.511,9.511,0,0,0-1.051-5.341c-3.169-4.342-11.777-7.262-24.249-8.243A38.2,38.2,0,0,0,35.4,39.325l-.618.3a9.149,9.149,0,0,0-5.064,6.55l.72.1a8.56,8.56,0,0,1,4.667-6l.618-.307A37.509,37.509,0,0,1,57.457,35.5c12.081.951,20.721,3.839,23.706,7.924a9.156,9.156,0,0,1,.931,4.95c.012.181,1.119,12.4-4,21.939L73.7,81.368l-1.42,6.759.008.058a3.129,3.129,0,0,1-.552,2.116,1.966,1.966,0,0,1-1.38.634l-1.777-2.357a26.866,26.866,0,0,0-23.928.475l-.18.094-.094,1.4a3.778,3.778,0,0,1-2.968-3.231c-.453-3.249-2.99-12.777-3.1-13.182l-.026-.1-.08-.07a29.106,29.106,0,0,1-7.294-13.046l-.7.187A29.53,29.53,0,0,0,37.64,74.426c.277,1.049,2.629,9.964,3.05,12.992a4.653,4.653,0,0,0,3.983,3.923l.377.042.118-1.785a26.163,26.163,0,0,1,23-.419Z" transform="translate(31.26 34.822)" fill="#333"/>
      <path id="Trazado_42521" data-name="Trazado 42521" d="M54.675,54.67a.36.36,0,0,0,.317-.191A15.223,15.223,0,0,0,54.96,40.39a.356.356,0,0,0-.61.369,14.493,14.493,0,0,1,.008,13.389.358.358,0,0,0,.152.481.344.344,0,0,0,.164.04" transform="translate(8.163 40.441)" fill="#333"/>
      <path id="Trazado_42522" data-name="Trazado 42522" d="M38.918,75.832H58.769A2.762,2.762,0,0,0,61.3,74.207c1.153-2.593.85-7.041.836-7.228l-.854-3.161-.273-.606-.1-.058c-2.5-1.486-6.41-2.772-8.409-2.772-.022,0-.042,0-.062,0-1.111.014-2.128-.01-3.058-.034a29.533,29.533,0,0,0-3.708.05A27.885,27.885,0,0,0,39,61.813a4.438,4.438,0,0,0-2.89,3.855l-.13,1.985a30.6,30.6,0,0,0,.393,6.057,2.568,2.568,0,0,0,2.547,2.122M61.424,67.1c-.006,0,.289,4.394-.788,6.813a2.038,2.038,0,0,1-1.867,1.2H38.918a1.85,1.85,0,0,1-1.835-1.522,29.881,29.881,0,0,1-.381-5.9l.128-1.971a3.719,3.719,0,0,1,2.421-3.225,27.251,27.251,0,0,1,6.5-1.37,29.151,29.151,0,0,1,3.614-.046c.943.022,1.965.048,3.087.032H52.5a20.056,20.056,0,0,1,7.94,2.613l.156.345Z" transform="translate(39.471 60.654)" fill="#333"/>
      <path id="Trazado_42523" data-name="Trazado 42523" d="M68.515,109.418a6.8,6.8,0,0,0,4.1-1.795,7.845,7.845,0,0,0,2.808-5.329c.457-7.023.722-16.449-.616-21.479-.16-.5-3.835-12.011-8.746-12.982-3-.592-20.8-.032-21.558-.008a11.026,11.026,0,0,0-6.6,4.519l.588.425a10.487,10.487,0,0,1,6.081-4.224c.136,0,18.429-.578,21.345,0,4.492.888,8.155,12.36,8.191,12.475,1.31,4.92,1.043,14.261.59,21.231a7.122,7.122,0,0,1-2.559,4.825,5.766,5.766,0,0,1-3.873,1.61l-5.928,0-21.967-1.155c-2.83-.1-5.136-1.025-6.494-2.591a4.674,4.674,0,0,1-1.167-3.624c.439-4.162,1.043-9.611,1.841-14.861l-.716-.11c-.8,5.267-1.406,10.726-1.843,14.9a5.369,5.369,0,0,0,1.338,4.174c1.492,1.721,3.981,2.73,7.009,2.842l21.979,1.155h5.916c.09.008.18.012.275.012" transform="translate(33.87 67.937)" fill="#333"/>
      <path id="Trazado_42524" data-name="Trazado 42524" d="M53.351,106.988c6.971,0,10.363-3.389,10.363-10.361,0-5.263-1.462-8.231-4.115-8.363-.74-.036-1.691-.09-2.722-.148-2.557-.144-5.738-.325-7.234-.325-5.692,0-5.782,3.119-5.93,8.285l-.016.54c-.1,3.387.724,6.007,2.449,7.786,1.667,1.717,4.091,2.587,7.206,2.587M49.643,88.515c1.476,0,4.645.18,7.192.325,1.035.058,1.985.112,2.728.148,2.982.146,3.425,4.849,3.425,7.639,0,6.574-3.062,9.637-9.637,9.637-2.912,0-5.16-.8-6.686-2.369-1.584-1.633-2.34-4.075-2.244-7.258l.016-.542c.15-5.2.219-7.581,5.206-7.581" transform="translate(22.447 88.278)" fill="#333"/>
      <path id="Trazado_42525" data-name="Trazado 42525" d="M34.806,103.581a13.152,13.152,0,0,0,2.573-.385,18.6,18.6,0,0,1,3.939-.533c1.093,0,2.116.092,3.016.172,2.026.187,3.63.333,4.727-.67.973-.888,1.408-2.585,1.408-5.5,0-3.712-2.6-8.325-5.828-8.485a27.77,27.77,0,0,0-4.713.337,26.017,26.017,0,0,1-3.072.285c-2.032,0-3.351.375-4.149,1.181-1.167,1.183-1.145,3.161-1.113,5.9,0,.491.012,1.011.01,1.556,0,3.066.439,4.793,1.432,5.6a2.7,2.7,0,0,0,1.771.548m6.512-1.645a19.185,19.185,0,0,0-4.091.552c-1.643.351-2.942.626-3.734-.016s-1.167-2.246-1.165-5.036c0-.55-.006-1.069-.01-1.564-.028-2.563-.05-4.416.9-5.383.654-.66,1.809-.967,3.634-.967a26.284,26.284,0,0,0,3.165-.291A27.075,27.075,0,0,1,44.6,88.9c2.768.136,5.14,4.382,5.14,7.761,0,2.659-.373,4.238-1.171,4.968-.86.786-2.252.658-4.176.483-.917-.082-1.953-.176-3.081-.176" transform="translate(59.969 88.651)" fill="#333"/>
      <path id="Trazado_42526" data-name="Trazado 42526" d="M62.537,125.463l.844-2.415a56.757,56.757,0,0,0,2.413-19.52l-.525-6.482a10.69,10.69,0,0,1-10.04,3.281,9.477,9.477,0,0,1-7.054-4.793,8.381,8.381,0,0,0-2.355,3.993c-.128.764-.307,2.788-.521,5.856l-.578,9.5.417.241c-.13-.038-.257-.094-.387-.128a2.687,2.687,0,0,0-.758-.086l.584-9.574c.217-3.139.4-5.132.527-5.93.419-2.517,2.836-4.661,2.94-4.751l.381-.337.193.473a8.755,8.755,0,0,0,6.719,4.819c6.907,1.049,9.789-3.518,9.907-3.712l.582-.951.69,8.526a57.527,57.527,0,0,1-2.491,19.937l-.044.128-.8,1.923c-.1-.219-.483.186-.642,0" transform="translate(18.926 94.842)" fill="#333"/>
      <path id="Trazado_42527" data-name="Trazado 42527" d="M31.431,119.14c-.146-2.459-.981-17.282.044-19.815a5.5,5.5,0,0,1,3.758-3.357L39.4,95.4a33.372,33.372,0,0,1,5.144-.287,22.707,22.707,0,0,0,4.368-.076.481.481,0,0,1,.389.058c.892.544,2.379,7.322,3.173,11.237a3.268,3.268,0,0,0-.439.11c-.088.038-.168.084-.255.122-1.013-4.99-2.26-10.052-2.812-10.8a28.743,28.743,0,0,1-4.44.07,31.2,31.2,0,0,0-5.03.281l-4.137.562A4.823,4.823,0,0,0,32.147,99.6c-.8,1.979-.373,13.122-.008,19.239" transform="translate(59.184 95.548)" fill="#333"/>
      <path id="Trazado_42528" data-name="Trazado 42528" d="M12.329,76.453a6.94,6.94,0,0,0,4.547-1.673c4.282-3.564,3.462-9.037,3.425-9.268l-.026-.158-3.165-1.829c-3.093-1.785-7.784-1.141-7.982-1.109l-.1.028A4.723,4.723,0,0,0,6.4,66.955l.985,7.97.126.086a9.526,9.526,0,0,0,4.821,1.442m7.318-10.676c.1.9.385,5.489-3.207,8.479-3.612,3.006-7.647.756-8.421.275l-.945-7.639a4.03,4.03,0,0,1,2.2-3.811c.519-.064,4.771-.54,7.491,1.033Z" transform="translate(140.578 62.623)" fill="#333"/>
      <path id="Trazado_42529" data-name="Trazado 42529" d="M14.851,89.861c.439,0,2.952-.213,4.158-4.948,1.233-4.851,1.629-16.927,1.647-17.438L23.3,43.384l-.152-.118a11.993,11.993,0,0,0-7.264-2.3c-.385-.1-2.523-.582-3.873.227a2.192,2.192,0,0,0-1.033,1.456L8.024,55.831c-.046.106-5.971,15.529-5.662,25.737.048,1.578.527,2.609,1.464,3.149l.086.05.1,0c.048,0,4.735-.193,6.129.4,1.249.537,3.652,1.9,4.306,2.27l.03,2.4.315.022.06,0M22.585,43.7l-2.609,23.73c-.006.15-.411,12.539-1.626,17.32-.9,3.556-2.517,4.262-3.2,4.4l-.028-2.108-.166-.1c-.124-.072-3.06-1.765-4.547-2.4-1.432-.612-5.591-.491-6.323-.461a2.859,2.859,0,0,1-1.041-2.531c-.3-10.072,5.569-25.366,5.63-25.519l2.972-13.237a1.512,1.512,0,0,1,.72-1.019c1.205-.728,3.375-.146,3.4-.14l.054.016.056-.006A11.293,11.293,0,0,1,22.585,43.7" transform="translate(145.759 40.955)" fill="#333"/>
      <path id="Trazado_42530" data-name="Trazado 42530" d="M13.464,46.6A6.052,6.052,0,1,0,2.315,44.881l.666-.146a5.37,5.37,0,1,1,9.893,1.52Z" transform="translate(155.153 37.726)" fill="#333"/>
      <path id="Trazado_42531" data-name="Trazado 42531" d="M9.882,54.1l.124-.008c4.133-.311,4.376-4.476,4.378-4.518,2.671-10.411-.9-19.37-3.273-23.776a3.142,3.142,0,0,0-2.7-1.661,3.035,3.035,0,0,0-2.73,1.438C-.653,35.729.2,52.517.207,52.686l.042.756.582-.485c3.1-2.591,8.885,1.039,8.943,1.077ZM8.3,24.893c.028,0,.054,0,.08,0a2.393,2.393,0,0,1,2.06,1.261c2.318,4.31,5.814,13.068,3.193,23.306a4,4,0,0,1-3.566,3.861c-.828-.5-5.8-3.351-9.129-1.372C.857,48.7.845,34.762,6.324,25.978A2.3,2.3,0,0,1,8.3,24.893" transform="translate(158.115 24.267)" fill="#333"/>
      <path id="Trazado_42532" data-name="Trazado 42532" d="M17.495,65.761l.453-.509c-5.634-5.94-11.676-3.419-11.913-3.331l.231.642c.056-.02,5.519-1.887,11.229,3.2" transform="translate(143.727 61.655)" fill="#333"/>
      <path id="Trazado_42533" data-name="Trazado 42533" d="M67.106,59.061a7.692,7.692,0,0,0,3.419-.834,9.123,9.123,0,0,0,4.916-8.469c-.09-3.389-.618-5.764-1.57-7.058l-.054-.058c-.221-.185-5.429-4.508-11.085-2.423C57.107,42.3,54.3,51.277,54.185,51.66l-.088.287.275.122C58.2,53.792,64.385,57.033,64.648,58.4l.034.17.156.074a5.731,5.731,0,0,0,2.268.419m6.239-15.924c.842,1.173,1.332,3.466,1.412,6.638a8.422,8.422,0,0,1-4.535,7.84,6.431,6.431,0,0,1-4.964.461c-.83-2.068-8.528-5.678-10.329-6.5.525-1.548,3.269-8.957,8.036-10.718,5.06-1.871,9.95,1.931,10.379,2.278" transform="translate(-10.159 39.871)" fill="#333"/>
      <path id="Trazado_42534" data-name="Trazado 42534" d="M69.846,93.111c.138,0,.277-.006.415-.014l.469-.034.092-.142c.114-.178,11.452-17.791,17.394-27.685,6.065-10.1,3.865-12.825,3.766-12.936-2.008-3.51-11.289-6.672-11.684-6.8l-.193-.066-.148.14C69.126,55.727,63.834,71.13,61.291,78.535c-.58,1.687-1.037,3.022-1.378,3.76-.919,1.992-1.179,3.442-.78,4.31a1.166,1.166,0,0,0,.578.606l6.817,4.843a5.753,5.753,0,0,0,3.319,1.057m.5-.7-.132.01a5.061,5.061,0,0,1-3.289-.919l-6.943-4.914a.536.536,0,0,1-.247-.307c-.156-.391-.263-1.392.8-3.7.355-.77.818-2.118,1.406-3.825,2.511-7.316,7.729-22.5,18.337-32.548,1.352.475,9.394,3.413,11.159,6.486.054.072,1.931,2.649-3.8,12.192-5.652,9.41-16.193,25.815-17.29,27.522" transform="translate(-36.903 45.681)" fill="#333"/>
      <path id="Trazado_42535" data-name="Trazado 42535" d="M72.906,79.131l.513-.722a10.714,10.714,0,0,1,8.275-4.456l1.464-.054L84.3,70.615l-.736.351a3.794,3.794,0,0,1-3.829-.331l-6.68-4.743-.2.195a11.335,11.335,0,0,0-3.245,7.066,6.4,6.4,0,0,0,3.032,5.834Zm9.763-5.9-1,.038a11.391,11.391,0,0,0-8.8,4.741l-.152.215a5.783,5.783,0,0,1-2.423-5.054,10.63,10.63,0,0,1,2.842-6.394l6.211,4.41a4.463,4.463,0,0,0,3.809.656Z" transform="translate(-50.119 66.258)" fill="#333"/>
      <path id="Trazado_42536" data-name="Trazado 42536" d="M100.559,82.422l-1.137,1.8s.431.688-4.137.838c0,0-24.041,4.569-37.63,2.2a9.472,9.472,0,0,1-5.479-3.121l-.174-.2-.716-3.223L51.73,77.7a8.947,8.947,0,0,1,6.346-7.318c3.44-.989,7.972-1.727,12.12-.612,6.873,1.851,22.061,2.064,26.537,2.086A1.378,1.378,0,0,1,98.1,73.126" transform="translate(-29.635 69.594)" fill="#fff"/>
      <path id="Trazado_42537" data-name="Trazado 42537" d="M67.5,89.013c12.821,0,27.5-2.754,28.274-2.9,3.786-.116,4.374-.62,4.621-1.081a.75.75,0,0,0,.072-.215l1.049-1.663a.709.709,0,1,0-1.2-.756l-1.137,1.8a.505.505,0,0,0-.05.1,12.315,12.315,0,0,1-3.512.411c-.349.056-24.181,4.529-37.488,2.21a8.783,8.783,0,0,1-5.064-2.89l-.056-.062-.648-2.918.427-2.892a8.248,8.248,0,0,1,5.838-6.741c3.089-.886,7.627-1.711,11.74-.608,6.949,1.871,22.205,2.088,26.718,2.11a.668.668,0,0,1,.666.622.663.663,0,0,0,.766.648.712.712,0,0,0,.648-.766A2.081,2.081,0,0,0,97.089,71.5c-4.468-.022-19.572-.235-26.357-2.062-4.424-1.189-9.242-.323-12.5.614a9.672,9.672,0,0,0-6.851,7.9l-.445,3.022a.738.738,0,0,0,.01.257l.714,3.223a.747.747,0,0,0,.16.315l.174.2a10.224,10.224,0,0,0,5.89,3.351,57.39,57.39,0,0,0,9.611.7m31.678-4.065v0m0,0v0Zm0,0Z" transform="translate(-29.988 69.241)" fill="#333"/>
      <path id="Trazado_42538" data-name="Trazado 42538" d="M58.239,81.664c-1.709,1.253-3.841.971-5.944.1A5.861,5.861,0,0,1,48.713,74.2c.925-2.948,3.476-5.174,8.181-3.7" transform="translate(18.519 70.424)" fill="#fff"/>
      <path id="Trazado_42539" data-name="Trazado 42539" d="M55.9,83.571a5.125,5.125,0,0,0,3.113-.981.708.708,0,0,0-.836-1.143c-1.288.943-3,.947-5.257.02a5.158,5.158,0,0,1-3.175-6.7c.588-1.877,2.326-4.789,7.29-3.237a.7.7,0,0,0,.89-.465.711.711,0,0,0-.465-.888c-4.42-1.388-7.816.17-9.071,4.168a6.562,6.562,0,0,0,3.991,8.431,9.352,9.352,0,0,0,3.52.792" transform="translate(18.16 70.07)" fill="#333"/>
      <path id="Trazado_42540" data-name="Trazado 42540" d="M39,81.221s-4.737-4.354-.483-9.352c0,0,3.219-2.972,5.612-2.794,0,0,14.584,5.525,19.193,11.213a1.5,1.5,0,0,1-.816,2.375C57.7,83.887,45.112,86.414,39,81.221" transform="translate(36.431 69.451)" fill="#fff"/>
      <path id="Trazado_42541" data-name="Trazado 42541" d="M50.511,85.43a53.225,53.225,0,0,0,12.509-1.725,2.213,2.213,0,0,0,1.562-1.456,2.161,2.161,0,0,0-.369-2.052c-4.675-5.77-18.89-11.2-19.492-11.43a.749.749,0,0,0-.2-.044c-2.587-.193-5.794,2.655-6.145,2.982-4.705,5.513.431,10.345.483,10.395l.02.018c2.958,2.515,7.31,3.311,11.63,3.311m-6.191-15.3c1.3.5,14.554,5.728,18.792,10.956a.74.74,0,0,1,.124.712.8.8,0,0,1-.566.529c-4.934,1.255-17.033,3.646-22.859-1.284-.273-.259-4.113-4.019-.413-8.363.762-.692,3.235-2.613,4.922-2.551M39.34,81.577h0Z" transform="translate(36.095 69.096)" fill="#333"/>
      <path id="Trazado_42542" data-name="Trazado 42542" d="M43.869,121.472l.594-9.727c.18-2.631.373-5,.521-5.894.4-2.419,2.82-4.539,2.82-4.539l.03.064a12.538,12.538,0,0,1-.732-4.932c.164-5.521.06-8.473,5.583-8.473,2.072,0,7.32.345,9.939.473,3.095.152,3.768,4.549,3.768,8a11.8,11.8,0,0,1-1.428,6.193c.068-.1.11-.166.11-.166l.6,7.411A56.583,56.583,0,0,1,63.2,129.676l-.5,2.17" transform="translate(19.404 88.459)" fill="none" stroke="#333" stroke-linecap="round" stroke-linejoin="round" stroke-width="0.707"/>
      <path id="Trazado_42543" data-name="Trazado 42543" d="M31.511,126.158s-1.075-17.322,0-19.981A5.169,5.169,0,0,1,35,103.04l.052-.008c-1.651-.1-2.611-1.314-2.607-5.778.006-5.523-.63-8.275,4.892-8.275,2.072,0,5.15-.752,7.767-.622,3.1.152,5.483,4.671,5.483,8.122,0,3.57-.666,5.06-1.9,5.628l.026,0c.89-.259,3.339,12.192,3.339,12.192" transform="translate(59.483 88.833)" fill="none" stroke="#333" stroke-linecap="round" stroke-linejoin="round" stroke-width="0.707"/>
      <path id="Trazado_42544" data-name="Trazado 42544" d="M81.77,119.859s.323,4.494-.8,7.037a2.4,2.4,0,0,1-1.49,1.318,8.451,8.451,0,0,1,.909.11c4.757.941,8.465,12.721,8.465,12.721,1.344,5.048,1.041,14.667.606,21.363-.265,4.057-4.342,6.981-6.825,6.773h-5.9l-21.985-1.157c-5.236-.193-8.369-3.133-8-6.614.443-4.22,1.091-9.847,1.843-14.877a9.782,9.782,0,0,1-2.421.323s-24.039,4.569-37.63,2.2a9.473,9.473,0,0,1-5.477-3.121l-.174-.2-.716-3.223.445-3.022a9.038,9.038,0,0,1,.927-2.826v0l-.339.475a6.111,6.111,0,0,1-2.854-5.523A11.1,11.1,0,0,1,3.5,124.791l6.45,4.581L3.5,124.791s-1.514-.429.349-4.472,6.725-24.2,19.967-36.619l1.065.132s2.81-9.179,8.339-11.221a10.61,10.61,0,0,1,8.654,1l-.012-.359a8.855,8.855,0,0,1,4.865-6.271A40.947,40.947,0,0,1,59.589,62.47l-1.486.16a10.25,10.25,0,0,1,.052-4.246,10.775,10.775,0,0,1,2.888-4.755l-1.572-.287a2.926,2.926,0,0,1-2.395-3.07l1.933-29.06A14.408,14.408,0,0,1,75.964,7.993l1.614.293A14.407,14.407,0,0,1,88.721,26.846L79.895,54.47a2.925,2.925,0,0,1-3.309,1.987l-.16-.028a8.6,8.6,0,0,1,.971,4.458,7.579,7.579,0,0,1-.489,2.208c7.914,1.352,13.87,3.76,16.335,7.136a9.337,9.337,0,0,1,1,5.188s.614-.77,1.747-1.937c0,0,5.768-3.654,10.968-.88s6.967,10.569,6.967,10.569a61.791,61.791,0,0,1,15.661,24.183,106.227,106.227,0,0,1,5.056-18.293L137.6,75.873a1.807,1.807,0,0,1,.776-1.131l-.046-.008a5.66,5.66,0,0,1,3.714-6.612,4.568,4.568,0,0,0-2.816,1.011s-.927-16.722,5.415-26.89a2.779,2.779,0,0,1,4.777.2c2.479,4.611,5.846,13.341,3.227,23.577a4.369,4.369,0,0,1-4.027,4.158l-.128-.078a5.709,5.709,0,0,1,.359,6.249l-.154-.024c.339.217.535.365.535.365L146.6,100.62s-.4,12.495-1.637,17.364-3.865,4.691-3.865,4.691v-.032a9.606,9.606,0,0,1-3.335,6.7c-4.182,3.484-8.957.213-8.957.213l-.423-1.031-2.306,1.657-2.234-.148s-11.478-17.607-17.543-27.576-3.875-12.515-3.875-12.515a4.575,4.575,0,0,1,.381-.548,1.789,1.789,0,0,0-.381.548s-4,2.463-7.926-5.208a48.042,48.042,0,0,1-4.3,12.771l-4.376,11.019-1.388,6.642s.369,3.085-2.465,3.163Zm-60.684,11.7c6.873,1.851,22.061,2.064,26.537,2.084a1.361,1.361,0,0,1,1.29.985,5.128,5.128,0,0,1,3.7-1.931,10.855,10.855,0,0,1,6.305-4.376,2.222,2.222,0,0,1-2.194-1.837,30.487,30.487,0,0,1-.385-5.956v-2.553a4.2,4.2,0,0,1-3.5-3.586c-.453-3.263-3.087-13.136-3.087-13.136a29.116,29.116,0,0,1-7.192-12.513,8.1,8.1,0,0,1-1.815,1.249,6.559,6.559,0,0,1-5.391.411c-.092-.469-.339-.588,0,0,0,0,2.2,2.535-3.8,12.539s-17.386,27.673-17.386,27.673l-.3.022c-.02,0-.038,0-.056,0l-.2.572A19.459,19.459,0,0,1,21.086,131.563Z" transform="translate(19.474 7.8)" fill="none" stroke="#333" stroke-linecap="round" stroke-linejoin="round" stroke-width="0.707"/>
      <path id="Trazado_42545" data-name="Trazado 42545" d="M57.807,42.687a1.923,1.923,0,0,1-1.675-2.6,1.517,1.517,0,0,1,1.815-.977m-.14-.315a1.924,1.924,0,0,1-1.675-2.6,1.517,1.517,0,0,1,1.815-.977s-2.457-6.586-4.689-13.953-1.452-8.708-1-11.61S56.943.5,65.794.356,79.269,6.638,80.051,11.1a16.34,16.34,0,0,1-.782,8.235L73.24,35.215c-.086.018-.17.03-.257.046.152-.026.257-.046.257-.046s2.344-.445,2.344,1.675-1.785,1.9-1.785,1.9,1.785-.126,1.785,2-1.785,1.9-1.785,1.9,1.785-.126,1.785,2-1.785,1.9-1.785,1.9l-1.466.259s-.509,5.1-6.323,5.1-6.779-4.9-6.779-4.9a4.562,4.562,0,0,0-1.424-.455,1.923,1.923,0,0,1-1.675-2.6A1.517,1.517,0,0,1,57.948,43m-.14-4.208a1.924,1.924,0,0,1-1.675-2.6,1.517,1.517,0,0,1,1.815-.977s-2.457-6.586-4.689-13.953-1.452-8.708-1-11.61S56.943.5,65.794.356,79.269,6.638,80.051,11.1a16.34,16.34,0,0,1-.782,8.235L73.24,35.215c-.086.018-.17.03-.257.046.152-.026.257-.046.257-.046s2.344-.445,2.344,1.675-1.785,1.9-1.785,1.9,1.785-.126,1.785,2-1.785,1.9-1.785,1.9,1.785-.126,1.785,2-1.785,1.9-1.785,1.9l-1.466.259s-.509,5.1-6.323,5.1-6.779-4.9-6.779-4.9a4.562,4.562,0,0,0-1.424-.455,1.923,1.923,0,0,1-1.675-2.6A1.517,1.517,0,0,1,57.948,43" transform="translate(-10.276 0.356)" fill="#fff"/>
      <path id="Trazado_42546" data-name="Trazado 42546" d="M57.807,42.687a1.923,1.923,0,0,1-1.675-2.6,1.517,1.517,0,0,1,1.815-.977m-.14-.315a1.924,1.924,0,0,1-1.675-2.6,1.517,1.517,0,0,1,1.815-.977s-2.457-6.586-4.689-13.953-1.452-8.708-1-11.61S56.943.5,65.794.356,79.269,6.638,80.051,11.1a16.34,16.34,0,0,1-.782,8.235L73.24,35.215c-.086.018-.17.03-.257.046.152-.026.257-.046.257-.046s2.344-.445,2.344,1.675-1.785,1.9-1.785,1.9,1.785-.126,1.785,2-1.785,1.9-1.785,1.9,1.785-.126,1.785,2-1.785,1.9-1.785,1.9l-1.466.259s-.509,5.1-6.323,5.1-6.779-4.9-6.779-4.9a4.562,4.562,0,0,0-1.424-.455,1.923,1.923,0,0,1-1.675-2.6A1.517,1.517,0,0,1,57.948,43m-.14-4.208a1.924,1.924,0,0,1-1.675-2.6,1.517,1.517,0,0,1,1.815-.977s-2.457-6.586-4.689-13.953-1.452-8.708-1-11.61S56.943.5,65.794.356,79.269,6.638,80.051,11.1a16.34,16.34,0,0,1-.782,8.235L73.24,35.215c-.086.018-.17.03-.257.046.152-.026.257-.046.257-.046s2.344-.445,2.344,1.675-1.785,1.9-1.785,1.9,1.785-.126,1.785,2-1.785,1.9-1.785,1.9,1.785-.126,1.785,2-1.785,1.9-1.785,1.9l-1.466.259s-.509,5.1-6.323,5.1-6.779-4.9-6.779-4.9a4.562,4.562,0,0,0-1.424-.455,1.923,1.923,0,0,1-1.675-2.6A1.517,1.517,0,0,1,57.948,43" transform="translate(-10.276 0.356)" fill="none" stroke="#333" stroke-linecap="round" stroke-linejoin="round" stroke-width="0.707"/>
      <path id="Trazado_42547" data-name="Trazado 42547" d="M73.241,35.217,79.27,19.339a16.332,16.332,0,0,0,.78-8.235C79.27,6.638,74.645.216,65.795.356S52.7,6.75,52.253,9.652s-1.227,4.242,1,11.61,4.689,13.955,4.689,13.955A39.151,39.151,0,0,0,73.241,35.217Z" transform="translate(-10.277 0.356)" fill="none" stroke="#333" stroke-width="0.354"/>
      <path id="Trazado_42548" data-name="Trazado 42548" d="M60.214,22.109a18.473,18.473,0,0,0,6.835.068l4.8-.848s1.785.223,1.785-1.9-2.342-1.675-2.342-1.675a50.46,50.46,0,0,1-7.232.74A40.573,40.573,0,0,1,56,17.757a1.517,1.517,0,0,0-1.815.977,1.923,1.923,0,0,0,1.675,2.6C56.53,21.395,58.455,21.76,60.214,22.109Z" transform="translate(-8.329 17.816)" fill="none" stroke="#333" stroke-width="0.354"/>
      <path id="Trazado_42549" data-name="Trazado 42549" d="M60.214,24.05a18.473,18.473,0,0,0,6.835.068l4.8-.848s1.785.223,1.785-1.9S71.295,19.7,71.295,19.7a50.46,50.46,0,0,1-7.232.74A40.573,40.573,0,0,1,56,19.7a1.517,1.517,0,0,0-1.815.977,1.923,1.923,0,0,0,1.675,2.6C56.53,23.336,58.455,23.7,60.214,24.05Z" transform="translate(-8.329 19.767)" fill="none" stroke="#333" stroke-width="0.354"/>
      <path id="Trazado_42550" data-name="Trazado 42550" d="M60.214,25.992a18.473,18.473,0,0,0,6.835.068l4.8-.848s1.785.223,1.785-1.9-2.342-1.675-2.342-1.675a50.461,50.461,0,0,1-7.232.74A40.573,40.573,0,0,1,56,21.64a1.517,1.517,0,0,0-1.815.977,1.923,1.923,0,0,0,1.675,2.6C56.53,25.278,58.455,25.643,60.214,25.992Z" transform="translate(-8.329 21.72)" fill="none" stroke="#333" stroke-width="0.354"/>
      <path id="Trazado_42551" data-name="Trazado 42551" d="M68.808,23.53s-.509,5.1-6.323,5.1-6.779-4.9-6.779-4.9,4.649.68,5.818.674S68.808,23.53,68.808,23.53Z" transform="translate(-6.751 23.661)" fill="none" stroke="#333" stroke-width="0.354"/>
      <path id="Trazado_42552" data-name="Trazado 42552" d="M73.241,35.217,79.27,19.339a16.332,16.332,0,0,0,.78-8.235C79.27,6.638,74.645.216,65.795.356S52.7,6.75,52.253,9.652s-1.227,4.242,1,11.61,4.689,13.955,4.689,13.955a39.151,39.151,0,0,0,15.294,0" transform="translate(-10.277 0.356)" fill="#ffce00"/>
      <path id="Trazado_42553" data-name="Trazado 42553" d="M73.241,35.217,79.27,19.339a16.332,16.332,0,0,0,.78-8.235C79.27,6.638,74.645.216,65.795.356S52.7,6.75,52.253,9.652s-1.227,4.242,1,11.61,4.689,13.955,4.689,13.955A39.151,39.151,0,0,0,73.241,35.217Z" transform="translate(-10.277 0.356)" fill="none" stroke="#333" stroke-linecap="round" stroke-linejoin="round" stroke-width="0.707"/>
      <path id="Trazado_42554" data-name="Trazado 42554" d="M60.214,22.109a18.473,18.473,0,0,0,6.835.068l4.8-.848s1.785.223,1.785-1.9-2.342-1.675-2.342-1.675a50.46,50.46,0,0,1-7.232.74A40.573,40.573,0,0,1,56,17.757a1.517,1.517,0,0,0-1.815.977,1.923,1.923,0,0,0,1.675,2.6C56.53,21.395,58.455,21.76,60.214,22.109Z" transform="translate(-8.329 17.816)" fill="none" stroke="#333" stroke-linecap="round" stroke-linejoin="round" stroke-width="0.707"/>
      <path id="Trazado_42555" data-name="Trazado 42555" d="M60.214,24.05a18.473,18.473,0,0,0,6.835.068l4.8-.848s1.785.223,1.785-1.9S71.295,19.7,71.295,19.7a50.46,50.46,0,0,1-7.232.74A40.573,40.573,0,0,1,56,19.7a1.517,1.517,0,0,0-1.815.977,1.923,1.923,0,0,0,1.675,2.6C56.53,23.336,58.455,23.7,60.214,24.05Z" transform="translate(-8.329 19.767)" fill="none" stroke="#333" stroke-linecap="round" stroke-linejoin="round" stroke-width="0.707"/>
      <path id="Trazado_42556" data-name="Trazado 42556" d="M60.214,25.992a18.473,18.473,0,0,0,6.835.068l4.8-.848s1.785.223,1.785-1.9-2.342-1.675-2.342-1.675a50.461,50.461,0,0,1-7.232.74A40.573,40.573,0,0,1,56,21.64a1.517,1.517,0,0,0-1.815.977,1.923,1.923,0,0,0,1.675,2.6C56.53,25.278,58.455,25.643,60.214,25.992Z" transform="translate(-8.329 21.72)" fill="none" stroke="#333" stroke-linecap="round" stroke-linejoin="round" stroke-width="0.707"/>
      <path id="Trazado_42557" data-name="Trazado 42557" d="M68.808,23.53s-.509,5.1-6.323,5.1-6.779-4.9-6.779-4.9,4.649.68,5.818.674S68.808,23.53,68.808,23.53Z" transform="translate(-6.751 23.661)" fill="none" stroke="#333" stroke-linecap="round" stroke-linejoin="round" stroke-width="0.707"/>
      <line id="Línea_7" data-name="Línea 7" x2="0.351" y2="9.574" transform="translate(102.349 183.773)" fill="none" stroke="#333" stroke-linecap="round" stroke-linejoin="round" stroke-width="1.691"/>
      <line id="Línea_8" data-name="Línea 8" x1="0.471" y2="9.57" transform="translate(73.994 184.986)" fill="none" stroke="#333" stroke-linecap="round" stroke-linejoin="round" stroke-width="1.691"/>
    </g>
  </g>
</svg>
