<svg id="Componente_21_1" data-name="Componente 21 – 1" xmlns="http://www.w3.org/2000/svg" xmlns:xlink="http://www.w3.org/1999/xlink" width="98.179" height="150.844" viewBox="0 0 98.179 150.844">
  <defs>
    <clipPath id="clip-path">
      <rect id="Rectángulo_116" data-name="Rectángulo 116" width="98.179" height="123.788" fill="none"/>
    </clipPath>
  </defs>
  <g id="Grupo_275" data-name="Grupo 275" transform="translate(0 27.056)">
    <g id="Grupo_274" data-name="Grupo 274" transform="translate(0 0)" clip-path="url(#clip-path)">
      <path id="Trazado_42655" data-name="Trazado 42655" d="M51.537,16.134,5.951,42.453V95.092l45.586,26.32,45.586-26.32V42.453Z" transform="translate(0.772 2.094)" fill="none" stroke="#333" stroke-linecap="round" stroke-linejoin="round" stroke-width="0.5"/>
      <path id="Trazado_42656" data-name="Trazado 42656" d="M56.558,105.713l-.334-4.35c-.1-1.482-.21-2.817-.294-3.32a5.279,5.279,0,0,0-1.588-2.557l-.017.036a7.063,7.063,0,0,0,.412-2.778c-.093-3.11-.034-4.773-3.145-4.773-1.167,0-4.124.194-5.6.267-1.743.086-2.123,2.562-2.123,4.507a6.646,6.646,0,0,0,.8,3.489c-.038-.056-.062-.094-.062-.094l-.339,4.175a31.875,31.875,0,0,0,1.393,11.151l.282.093" transform="translate(5.694 11.419)" fill="#fff"/>
      <path id="Trazado_42657" data-name="Trazado 42657" d="M56.558,105.713l-.334-4.35c-.1-1.482-.21-2.817-.294-3.32a5.279,5.279,0,0,0-1.588-2.557l-.017.036a7.063,7.063,0,0,0,.412-2.778c-.093-3.11-.034-4.773-3.145-4.773-1.167,0-4.124.194-5.6.267-1.743.086-2.123,2.562-2.123,4.507a6.646,6.646,0,0,0,.8,3.489c-.038-.056-.062-.094-.062-.094l-.339,4.175a31.875,31.875,0,0,0,1.393,11.151l.282.093" transform="translate(5.694 11.419)" fill="none" stroke="#333" stroke-linecap="round" stroke-linejoin="round" stroke-width="0.707"/>
      <path id="Trazado_42658" data-name="Trazado 42658" d="M42.608,107.386s.606-7.5,0-9a2.912,2.912,0,0,0-1.968-1.767l-.029,0c.93-.055,1.471-.74,1.469-3.255,0-3.111.355-4.662-2.756-4.662-1.167,0-2.9-.424-4.376-.35-1.744.086-3.089,2.631-3.089,4.576,0,2.011.375,2.85,1.07,3.17l-.015,0c-.5-.146-1.881,5.738-1.881,5.738" transform="translate(4.028 11.467)" fill="#fff"/>
      <path id="Trazado_42659" data-name="Trazado 42659" d="M42.608,107.386s.606-7.5,0-9a2.912,2.912,0,0,0-1.968-1.767l-.029,0c.93-.055,1.471-.74,1.469-3.255,0-3.111.355-4.662-2.756-4.662-1.167,0-2.9-.424-4.376-.35-1.744.086-3.089,2.631-3.089,4.576,0,2.011.375,2.85,1.07,3.17l-.015,0c-.5-.146-1.881,5.738-1.881,5.738" transform="translate(4.028 11.467)" fill="none" stroke="#333" stroke-linecap="round" stroke-linejoin="round" stroke-width="0.707"/>
      <path id="Trazado_42660" data-name="Trazado 42660" d="M40.816,70.908a10.589,10.589,0,0,0,.45,3.964,1.35,1.35,0,0,0,.839.742,4.76,4.76,0,0,0-.512.062c-2.68.53-4.769,7.166-4.769,7.166-.757,2.844-.586,8.262-.341,12.035.149,2.286,2.446,3.933,3.845,3.815h3.322l12.385-.652c2.95-.108,4.715-1.765,4.508-3.726-.25-2.377-.615-5.547-1.038-8.381a5.512,5.512,0,0,0,1.364.182s13.542,2.574,21.2,1.241A5.336,5.336,0,0,0,85.151,85.6l.1-.112.4-1.816-.251-1.7a5.092,5.092,0,0,0-.522-1.592h0l.191.268a3.442,3.442,0,0,0,1.608-3.111,6.252,6.252,0,0,0-1.769-3.848l-3.633,2.58,3.633-2.58s.853-.242-.2-2.519S80.925,57.533,73.465,50.538l-.6.075s-1.583-5.171-4.7-6.321a5.977,5.977,0,0,0-4.875.563l.007-.2a4.988,4.988,0,0,0-2.741-3.533,23.067,23.067,0,0,0-7.247-2.54l.837.09a5.774,5.774,0,0,0-.029-2.392A6.07,6.07,0,0,0,52.492,33.6l.886-.162a1.649,1.649,0,0,0,1.349-1.731l-1.089-16.37A8.116,8.116,0,0,0,44.086,7.89l-.909.165A8.116,8.116,0,0,0,36.9,18.51l4.972,15.562a1.647,1.647,0,0,0,1.864,1.12l.09-.016a4.844,4.844,0,0,0-.547,2.512,4.269,4.269,0,0,0,.276,1.244c-4.458.761-7.814,2.118-9.2,4.02a5.26,5.26,0,0,0-.563,2.923s-.346-.434-.984-1.091c0,0-3.249-2.058-6.179-.5S22.7,50.241,22.7,50.241A34.809,34.809,0,0,0,13.88,63.864a59.841,59.841,0,0,0-2.848-10.3l-1.666-7.43a1.018,1.018,0,0,0-.437-.637l.026,0a3.189,3.189,0,0,0-2.092-3.725,2.573,2.573,0,0,1,1.586.569s.522-9.42-3.05-15.148a1.566,1.566,0,0,0-2.691.114A18.5,18.5,0,0,0,.888,40.58a2.461,2.461,0,0,0,2.269,2.342l.072-.044a3.216,3.216,0,0,0-.2,3.52l.087-.014c-.191.122-.3.206-.3.206L4.295,60.07s.224,7.039.922,9.782,2.177,2.643,2.177,2.643v-.018a5.411,5.411,0,0,0,1.879,3.775c2.356,1.962,5.046.12,5.046.12l.123-1,.115.415,1.3.933,1.259-.084S23.581,66.721,27,61.1s2.183-7.05,2.183-7.05a2.58,2.58,0,0,0-.215-.308,1.008,1.008,0,0,1,.215.308s2.251,1.387,4.465-2.934a27.064,27.064,0,0,0,2.422,7.195l2.465,6.207.782,3.742S39.106,70,40.7,70.046ZM75,77.5c-3.872,1.043-12.428,1.163-14.95,1.174a.767.767,0,0,0-.726.555,2.889,2.889,0,0,0-2.082-1.088,6.115,6.115,0,0,0-3.552-2.465,1.252,1.252,0,0,0,1.236-1.035,17.175,17.175,0,0,0,.217-3.356V69.848a2.367,2.367,0,0,0,1.972-2.02c.255-1.838,1.739-7.4,1.739-7.4a16.4,16.4,0,0,0,4.051-7.049,4.566,4.566,0,0,0,1.022.7,3.7,3.7,0,0,0,3.037.232c.052-.264.191-.331,0,0,0,0-1.242,1.428,2.143,7.063S78.9,76.967,78.9,76.967l.169.012c.011,0,.021,0,.032,0l.112.322A10.962,10.962,0,0,0,75,77.5" transform="translate(0.046 1.007)" fill="#fff"/>
      <path id="Trazado_42661" data-name="Trazado 42661" d="M40.816,70.908a10.589,10.589,0,0,0,.45,3.964,1.35,1.35,0,0,0,.839.742,4.76,4.76,0,0,0-.512.062c-2.68.53-4.769,7.166-4.769,7.166-.757,2.844-.586,8.262-.341,12.035.149,2.286,2.446,3.933,3.845,3.815h3.322l12.385-.652c2.95-.108,4.715-1.765,4.508-3.726-.25-2.377-.615-5.547-1.038-8.381a5.512,5.512,0,0,0,1.364.182s13.542,2.574,21.2,1.241A5.336,5.336,0,0,0,85.151,85.6l.1-.112.4-1.816-.251-1.7a5.092,5.092,0,0,0-.522-1.592h0l.191.268a3.442,3.442,0,0,0,1.608-3.111,6.252,6.252,0,0,0-1.769-3.848l-3.633,2.58,3.633-2.58s.853-.242-.2-2.519S80.925,57.533,73.465,50.538l-.6.075s-1.583-5.171-4.7-6.321a5.977,5.977,0,0,0-4.875.563l.007-.2a4.988,4.988,0,0,0-2.741-3.533,23.067,23.067,0,0,0-7.247-2.54l.837.09a5.774,5.774,0,0,0-.029-2.392A6.07,6.07,0,0,0,52.492,33.6l.886-.162a1.649,1.649,0,0,0,1.349-1.731l-1.089-16.37A8.116,8.116,0,0,0,44.086,7.89l-.909.165A8.116,8.116,0,0,0,36.9,18.51l4.972,15.562a1.647,1.647,0,0,0,1.864,1.12l.09-.016a4.844,4.844,0,0,0-.547,2.512,4.269,4.269,0,0,0,.276,1.244c-4.458.761-7.814,2.118-9.2,4.02a5.26,5.26,0,0,0-.563,2.923s-.346-.434-.984-1.091c0,0-3.249-2.058-6.179-.5S22.7,50.241,22.7,50.241A34.809,34.809,0,0,0,13.88,63.864a59.841,59.841,0,0,0-2.848-10.3l-1.666-7.43a1.018,1.018,0,0,0-.437-.637l.026,0a3.189,3.189,0,0,0-2.092-3.725,2.573,2.573,0,0,1,1.586.569s.522-9.42-3.05-15.148a1.566,1.566,0,0,0-2.691.114A18.5,18.5,0,0,0,.888,40.58a2.461,2.461,0,0,0,2.269,2.342l.072-.044a3.216,3.216,0,0,0-.2,3.52l.087-.014c-.191.122-.3.206-.3.206L4.295,60.07s.224,7.039.922,9.782,2.177,2.643,2.177,2.643v-.018a5.411,5.411,0,0,0,1.879,3.775c2.356,1.962,5.046.12,5.046.12l.123-1,.115.415,1.3.933,1.259-.084S23.581,66.721,27,61.1s2.183-7.05,2.183-7.05a2.58,2.58,0,0,0-.215-.308,1.008,1.008,0,0,1,.215.308s2.251,1.387,4.465-2.934a27.064,27.064,0,0,0,2.422,7.195l2.465,6.207.782,3.742S39.106,70,40.7,70.046ZM75,77.5c-3.872,1.043-12.428,1.163-14.95,1.174a.767.767,0,0,0-.726.555,2.889,2.889,0,0,0-2.082-1.088,6.115,6.115,0,0,0-3.552-2.465,1.252,1.252,0,0,0,1.236-1.035,17.175,17.175,0,0,0,.217-3.356V69.848a2.367,2.367,0,0,0,1.972-2.02c.255-1.838,1.739-7.4,1.739-7.4a16.4,16.4,0,0,0,4.051-7.049,4.566,4.566,0,0,0,1.022.7,3.7,3.7,0,0,0,3.037.232c.052-.264.191-.331,0,0,0,0-1.242,1.428,2.143,7.063S78.9,76.967,78.9,76.967l.169.012c.011,0,.021,0,.032,0l.112.322A10.962,10.962,0,0,0,75,77.5Z" transform="translate(0.046 1.007)" fill="none" stroke="#333" stroke-linecap="round" stroke-linejoin="round" stroke-width="0.707"/>
      <path id="Trazado_42662" data-name="Trazado 42662" d="M49.975,29.134c-.295-1.386-3.466-1.886-7.084-1.116-3.008.641-5.369,1.957-5.912,3.178.061.047.121.095.182.141a6.51,6.51,0,0,0,1.1.594,5.866,5.866,0,0,0,1.068.251l.162.008a1.346,1.346,0,0,1,.554-.673,13.581,13.581,0,0,1,3.4-1.317,4.672,4.672,0,0,1,2.2-.012A2.939,2.939,0,0,1,47.45,31.6a1.767,1.767,0,0,1,.092.227C49.181,31,50.159,30,49.975,29.134" transform="translate(4.8 3.59)" fill="#b3b3b3"/>
      <path id="Trazado_42663" data-name="Trazado 42663" d="M43.2,72.343c1.731.006,3.454.073,5.185.12q.469.012.939.008l3.629-.589a6.342,6.342,0,0,0,.816-.392c-.643-.841-2.557-2.864-2.557-2.864-2.406-1.359-8.293-.837-8.293-.837-4.5.063-6.067.837-6.067.837a7.174,7.174,0,0,0-2.2,2.665c2.518,1.213,5.885,1.044,8.551,1.052" transform="translate(4.498 8.786)" fill="#e6e6e6"/>
      <path id="Trazado_42664" data-name="Trazado 42664" d="M43.641,58.74c-4.675,0-8.466,1.79-8.466,4a2.054,2.054,0,0,0,.275.991,1.438,1.438,0,0,1,.486-.086,1.464,1.464,0,0,1,.635.139,3.235,3.235,0,0,1,.8-1.191,6.542,6.542,0,0,1,3.266-1.521,19.108,19.108,0,0,1,6.243-.12c1.394.192,3.45.861,4.379,2.1a4.212,4.212,0,0,1,.351-.25,4.048,4.048,0,0,1,.4-.224c.025-.011.051-.02.076-.033-.214-2.117-3.907-3.805-8.445-3.805" transform="translate(4.566 7.624)" fill="#e6e6e6"/>
      <path id="Trazado_42665" data-name="Trazado 42665" d="M55.229,41.981a1.345,1.345,0,0,1,.94-1.009c-.071-.154-.15-.3-.215-.46a5.435,5.435,0,0,1-.363-1.608.781.781,0,0,0-.151-.024c-1.235,0-2.236,3.037-2.236,6.783,0,2.87.589,5.317,1.418,6.308.123-.238.252-.476.354-.725a10.084,10.084,0,0,0,.434-1.663,1.223,1.223,0,0,1,.323-.608,1.321,1.321,0,0,1-.118-.272,14.41,14.41,0,0,1-.386-6.722" transform="translate(6.906 5.047)" fill="#ccc"/>
      <path id="Trazado_42666" data-name="Trazado 42666" d="M30.81,39.583a2.265,2.265,0,0,0,2.534,1.539c2.052-.211,9.539-1.84,14.966-1.116s5.487,1.026,6.333.784a11.112,11.112,0,0,0,2.667-2.171A20.156,20.156,0,0,0,43.9,34.895c-7.6.827-12.853,2.939-13.094,4.689" transform="translate(3.999 4.516)" fill="#e6e6e6"/>
      <path id="Trazado_42667" data-name="Trazado 42667" d="M27.534,50.352a2.026,2.026,0,0,1-1-.241l-.059-.036-.021-.066c-.256-.752-4.046-2.67-6.374-3.7l-.143-.064.035-.154c.041-.183,1.048-4.5,4.021-6.081,3-1.6,6.235.417,6.372.5l.035.028c1.433,1.473.914,6.29.891,6.493l-.02.067c-.912,1.779-1.944,2.841-3.072,3.157a2.487,2.487,0,0,1-.668.094m-.746-.541a1.869,1.869,0,0,0,1.322.075c.994-.284,1.965-1.3,2.806-2.927.044-.436.455-4.828-.773-6.131-.267-.162-3.289-1.907-5.968-.477-2.515,1.34-3.583,4.9-3.789,5.674,1.057.475,5.839,2.665,6.4,3.787" transform="translate(2.588 5.114)" fill="#333"/>
      <path id="Trazado_42668" data-name="Trazado 42668" d="M14.266,72.064l-1.355-.974.224-.312,1.243.894,1.095-.073c.623-.957,6.614-10.166,9.827-15.449,3.254-5.347,2.213-6.813,2.2-6.825-1-1.765-5.527-3.448-6.286-3.72-5.947,5.538-7.244,9.372-8.1,11.913a15.783,15.783,0,0,1-.59,1.573l-.348-.163a15.35,15.35,0,0,0,.574-1.532c.877-2.591,2.2-6.5,8.292-12.151l.085-.078.108.037c.221.076,5.44,1.888,6.582,3.9.033.033,1.264,1.575-2.186,7.245-3.378,5.554-9.821,15.44-9.886,15.539l-.052.08Z" transform="translate(1.58 5.862)" fill="#333"/>
      <path id="Trazado_42669" data-name="Trazado 42669" d="M39.311,35.44a1.854,1.854,0,0,1-1.761-1.285L32.577,18.593A8.316,8.316,0,0,1,39.01,7.881l.908-.165a8.317,8.317,0,0,1,9.787,7.63L50.8,31.717a1.847,1.847,0,0,1-1.513,1.939l-1,.182-.071-.393,1-.181A1.448,1.448,0,0,0,50.4,31.743l-1.09-16.371A7.916,7.916,0,0,0,39.991,8.11l-.909.165a7.918,7.918,0,0,0-6.124,10.2L37.93,34.034a1.459,1.459,0,0,0,1.638.984l.647-.118.071.393-.646.118a1.925,1.925,0,0,1-.33.029" transform="translate(4.177 0.984)" fill="#333"/>
      <path id="Trazado_42670" data-name="Trazado 42670" d="M49.218,35.868l-.921-.1a3.79,3.79,0,0,0,0-1.55,4.582,4.582,0,0,0-9.143.613,3.837,3.837,0,0,0,.1,1.17l-.621.166a4.276,4.276,0,0,1-.287-1.282,5.505,5.505,0,0,1,10.839-1.41,5.774,5.774,0,0,1,.029,2.392" transform="translate(4.976 3.808)" fill="#333"/>
      <path id="Trazado_42671" data-name="Trazado 42671" d="M38.667,32.048l-.3-.277a12.626,12.626,0,0,1,4.447-2.482,9.7,9.7,0,0,1,4.711.263l.288.3a12.111,12.111,0,0,0-4.9-.166,12.7,12.7,0,0,0-4.246,2.364" transform="translate(4.98 3.776)" fill="#333"/>
      <path id="Trazado_42672" data-name="Trazado 42672" d="M36.993,66.765l-.107,0a1.542,1.542,0,0,1-1.18-.505,2.117,2.117,0,0,1-.409-1.47l-.776-3.71L32.067,54.9c-2.934-5.463-2.3-12.467-2.29-12.537a5.358,5.358,0,0,1,.592-3.009C32.154,36.91,37,35.265,44.03,34.713a21.52,21.52,0,0,1,12.459,2.562l.348.172a5.154,5.154,0,0,1,2.853,3.69l-.406.054a4.822,4.822,0,0,0-2.629-3.378l-.348-.173a21.13,21.13,0,0,0-12.246-2.521c-6.806.536-11.673,2.162-13.354,4.464a5.158,5.158,0,0,0-.524,2.788c-.007.1-.63,6.987,2.253,12.359l2.474,6.229.8,3.807,0,.033a1.763,1.763,0,0,0,.311,1.192,1.107,1.107,0,0,0,.777.357l1-1.328a15.135,15.135,0,0,1,13.48.268l.1.053.053.791a2.128,2.128,0,0,0,1.672-1.82c.255-1.83,1.685-7.2,1.746-7.426l.015-.058.045-.04a16.4,16.4,0,0,0,4.109-7.349l.393.105a16.635,16.635,0,0,1-4.184,7.5c-.156.591-1.481,5.613-1.718,7.319a2.621,2.621,0,0,1-2.244,2.21l-.212.024L50.984,65.6a14.738,14.738,0,0,0-12.955-.236Z" transform="translate(3.857 4.495)" fill="#333"/>
      <path id="Trazado_42673" data-name="Trazado 42673" d="M55.449,48.359a.2.2,0,0,1-.179-.107,8.575,8.575,0,0,1,.018-7.937.2.2,0,0,1,.343.208,8.164,8.164,0,0,0,0,7.543.2.2,0,0,1-.086.271.194.194,0,0,1-.093.023" transform="translate(7.048 5.22)" fill="#333"/>
      <path id="Trazado_42674" data-name="Trazado 42674" d="M49.069,69.058H37.886a1.556,1.556,0,0,1-1.425-.915,10.6,10.6,0,0,1-.471-4.072l.481-1.781.154-.341.055-.033a11.806,11.806,0,0,1,4.737-1.561h.035c.626.008,1.2-.006,1.723-.019a16.638,16.638,0,0,1,2.089.028,15.709,15.709,0,0,1,3.759.8,2.5,2.5,0,0,1,1.628,2.171l.073,1.119a17.239,17.239,0,0,1-.221,3.412,1.447,1.447,0,0,1-1.435,1.2M36.39,64.139a10.478,10.478,0,0,0,.444,3.838,1.148,1.148,0,0,0,1.052.673H49.069a1.042,1.042,0,0,0,1.034-.858,16.834,16.834,0,0,0,.215-3.323l-.072-1.111a2.1,2.1,0,0,0-1.364-1.817,15.352,15.352,0,0,0-3.659-.772,16.423,16.423,0,0,0-2.036-.026c-.531.012-1.107.027-1.739.018h-.032a11.3,11.3,0,0,0-4.473,1.472l-.088.194Z" transform="translate(4.668 7.829)" fill="#333"/>
      <path id="Trazado_42675" data-name="Trazado 42675" d="M36.069,91.141a3.828,3.828,0,0,1-2.312-1.011,4.419,4.419,0,0,1-1.582-3c-.258-3.957-.407-9.267.347-12.1.09-.284,2.16-6.766,4.927-7.313,1.689-.333,11.717-.018,12.144,0a6.211,6.211,0,0,1,3.716,2.545l-.331.24a5.908,5.908,0,0,0-3.426-2.379c-.077,0-10.382-.325-12.024,0-2.531.5-4.594,6.963-4.614,7.027-.738,2.771-.587,8.034-.332,11.96a4.012,4.012,0,0,0,1.442,2.718,3.248,3.248,0,0,0,2.182.907h3.34l12.375-.651a4.989,4.989,0,0,0,3.658-1.46,2.633,2.633,0,0,0,.658-2.042c-.247-2.344-.588-5.414-1.037-8.372l.4-.062c.451,2.967.792,6.042,1.038,8.391a3.024,3.024,0,0,1-.754,2.351,5.382,5.382,0,0,1-3.949,1.6l-12.381.651H36.224c-.051,0-.1.007-.155.007" transform="translate(4.149 8.769)" fill="#333"/>
      <path id="Trazado_42676" data-name="Trazado 42676" d="M49.526,98.605c-3.927,0-5.838-1.909-5.838-5.837,0-2.965.824-4.637,2.318-4.711.417-.02.952-.051,1.533-.084,1.441-.081,3.232-.183,4.075-.183,3.206,0,3.257,1.757,3.341,4.667l.009.3a5.818,5.818,0,0,1-1.379,4.386,5.423,5.423,0,0,1-4.059,1.457M51.615,88.2c-.832,0-2.617.1-4.051.183-.583.033-1.118.063-1.537.084-1.68.082-1.93,2.732-1.93,4.3,0,3.7,1.725,5.429,5.429,5.429a5.038,5.038,0,0,0,3.767-1.334,5.424,5.424,0,0,0,1.264-4.089l-.009-.305c-.085-2.932-.123-4.271-2.933-4.271" transform="translate(5.671 11.395)" fill="#333"/>
      <path id="Trazado_42677" data-name="Trazado 42677" d="M40.407,96.848a7.409,7.409,0,0,1-1.45-.217,10.479,10.479,0,0,0-2.219-.3c-.616,0-1.192.052-1.7.1-1.141.105-2.045.188-2.663-.377-.548-.5-.793-1.456-.793-3.1,0-2.091,1.464-4.69,3.283-4.78a15.645,15.645,0,0,1,2.655.19,14.656,14.656,0,0,0,1.731.16,3.176,3.176,0,0,1,2.338.665c.658.667.645,1.781.627,3.324,0,.277-.007.569-.006.877,0,1.727-.247,2.7-.807,3.153a1.521,1.521,0,0,1-1,.308m-3.668-.926a10.808,10.808,0,0,1,2.3.311c.925.2,1.657.352,2.1-.009s.658-1.265.656-2.837c0-.31,0-.6.006-.881.016-1.444.028-2.488-.51-3.032a2.831,2.831,0,0,0-2.047-.545,14.806,14.806,0,0,1-1.783-.164,15.25,15.25,0,0,0-2.583-.186c-1.559.077-2.9,2.469-2.9,4.372,0,1.5.21,2.387.66,2.8.485.443,1.269.371,2.352.272.516-.046,1.1-.1,1.735-.1" transform="translate(4.099 11.443)" fill="#333"/>
      <path id="Trazado_42678" data-name="Trazado 42678" d="M46.294,110.734l-.476-.23a31.973,31.973,0,0,1-1.359-11l.3-3.652A6.022,6.022,0,0,0,50.411,97.7,5.339,5.339,0,0,0,54.385,95a4.721,4.721,0,0,1,1.326,2.249c.072.43.173,1.57.294,3.3l.325,4.223-.235.136c.073-.021.145-.053.218-.072a1.513,1.513,0,0,1,.427-.049l-.329-4.264c-.122-1.768-.223-2.891-.3-3.341a5.415,5.415,0,0,0-1.656-2.676l-.215-.19-.108.267A4.932,4.932,0,0,1,50.35,97.3a5.4,5.4,0,0,1-5.581-2.091l-.328-.536-.389,4.8a32.407,32.407,0,0,0,1.4,11.231l.025.072.452-.046c.058-.123.272.105.362,0" transform="translate(5.71 12.242)" fill="#333"/>
      <path id="Trazado_42679" data-name="Trazado 42679" d="M42.829,108.608c.082-1.385.552-9.735-.025-11.162a3.1,3.1,0,0,0-2.117-1.891l-2.35-.319a18.8,18.8,0,0,0-2.9-.162,12.79,12.79,0,0,1-2.461-.043.271.271,0,0,0-.219.033c-.5.306-1.34,4.125-1.787,6.33a1.841,1.841,0,0,1,.247.062c.05.021.095.047.143.069a34.578,34.578,0,0,1,1.584-6.083,16.192,16.192,0,0,0,2.5.04,17.577,17.577,0,0,1,2.834.158l2.331.316A2.717,2.717,0,0,1,42.426,97.6c.451,1.115.21,7.392,0,10.838" transform="translate(4.02 12.334)" fill="#333"/>
      <path id="Trazado_42680" data-name="Trazado 42680" d="M10.929,70.263a3.909,3.909,0,0,1-2.561-.942A5.94,5.94,0,0,1,6.438,64.1l.015-.089,1.783-1.03a8.144,8.144,0,0,1,4.5-.625l.055.016a2.661,2.661,0,0,1,1.483,2.541l-.555,4.49-.071.049a5.366,5.366,0,0,1-2.716.812M6.806,64.25a5.608,5.608,0,0,0,1.807,4.777,4.064,4.064,0,0,0,4.744.155l.532-4.3a2.27,2.27,0,0,0-1.241-2.147,7.824,7.824,0,0,0-4.22.582Z" transform="translate(0.829 8.084)" fill="#333"/>
      <path id="Trazado_42681" data-name="Trazado 42681" d="M7.113,68.407c-.247,0-1.663-.12-2.342-2.787-.695-2.733-.917-9.535-.928-9.824L2.351,42.225l.086-.067a6.756,6.756,0,0,1,4.092-1.3,3.306,3.306,0,0,1,2.182.128,1.235,1.235,0,0,1,.582.82l1.666,7.428c.026.06,3.363,8.748,3.189,14.5a1.928,1.928,0,0,1-.825,1.774l-.049.028-.055,0a13.6,13.6,0,0,0-3.453.227c-.7.3-2.057,1.069-2.426,1.279l-.017,1.352-.177.012H7.113M2.757,42.4l1.47,13.368c0,.085.232,7.063.916,9.757.51,2,1.418,2.4,1.8,2.479l.016-1.187.094-.054c.07-.041,1.724-.994,2.561-1.353a12.826,12.826,0,0,1,3.562-.261,1.607,1.607,0,0,0,.586-1.425c.172-5.674-3.137-14.29-3.171-14.376L8.919,41.892a.852.852,0,0,0-.406-.574A3.032,3.032,0,0,0,6.6,41.239l-.031.009-.032,0A6.362,6.362,0,0,0,2.757,42.4" transform="translate(0.305 5.287)" fill="#333"/>
      <path id="Trazado_42682" data-name="Trazado 42682" d="M2.626,42.632a3.409,3.409,0,1,1,6.281-.966l-.375-.082a3.025,3.025,0,1,0-5.573.856Z" transform="translate(0.282 4.87)" fill="#333"/>
      <path id="Trazado_42683" data-name="Trazado 42683" d="M3.236,41.014l-.07,0A2.689,2.689,0,0,1,.7,38.464,18.749,18.749,0,0,1,2.543,25.071a1.77,1.77,0,0,1,1.522-.935,1.71,1.71,0,0,1,1.538.81c3.568,5.72,3.088,15.178,3.083,15.273l-.024.426-.328-.273c-1.744-1.46-5.005.585-5.038.607Zm.889-16.453H4.08a1.348,1.348,0,0,0-1.16.711A18.368,18.368,0,0,0,1.121,38.4,2.254,2.254,0,0,0,3.13,40.577c.467-.284,3.265-1.888,5.143-.773.047-1.834.054-9.684-3.032-14.632a1.3,1.3,0,0,0-1.115-.611" transform="translate(0.021 3.132)" fill="#333"/>
      <path id="Trazado_42684" data-name="Trazado 42684" d="M6.29,63.82l-.255-.287a6.1,6.1,0,0,1,6.711-1.877l-.13.362c-.032-.011-3.109-1.063-6.326,1.8" transform="translate(0.783 7.959)" fill="#333"/>
      <path id="Trazado_42685" data-name="Trazado 42685" d="M58.794,50.585a4.333,4.333,0,0,1-1.926-.47A5.139,5.139,0,0,1,54.1,45.344a7.434,7.434,0,0,1,.885-3.976l.031-.033c.124-.1,3.058-2.54,6.244-1.365,3.169,1.17,4.749,6.23,4.815,6.445l.05.162-.155.069c-2.159.97-5.641,2.8-5.789,3.565l-.019.1-.088.042a3.229,3.229,0,0,1-1.278.236m-3.515-8.971a7.286,7.286,0,0,0-.8,3.74,4.745,4.745,0,0,0,2.554,4.416,3.623,3.623,0,0,0,2.8.26c.468-1.165,4.8-3.2,5.818-3.662-.3-.872-1.842-5.046-4.527-6.038-2.85-1.054-5.6,1.088-5.847,1.283" transform="translate(7.022 5.147)" fill="#333"/>
      <path id="Trazado_42686" data-name="Trazado 42686" d="M71.686,72.29c-.078,0-.156,0-.234-.008l-.264-.019-.052-.08c-.064-.1-6.451-10.022-9.8-15.6-3.417-5.69-2.177-7.225-2.122-7.287,1.131-1.977,6.36-3.759,6.582-3.833l.108-.037.084.079c6.1,5.722,9.084,14.4,10.516,18.57.327.95.584,1.7.776,2.118a3.241,3.241,0,0,1,.439,2.428.657.657,0,0,1-.325.341l-3.84,2.728a3.241,3.241,0,0,1-1.87.6m-.28-.4.075.006a2.851,2.851,0,0,0,1.853-.517l3.911-2.768a.3.3,0,0,0,.139-.173c.088-.22.148-.784-.45-2.083-.2-.434-.461-1.193-.792-2.155-1.415-4.122-4.354-12.677-10.33-18.336-.761.268-5.292,1.923-6.286,3.654-.031.041-1.088,1.492,2.14,6.868,3.184,5.3,9.122,14.543,9.74,15.5" transform="translate(7.652 5.897)" fill="#333"/>
      <path id="Trazado_42687" data-name="Trazado 42687" d="M76.025,73.35l-.289-.407a6.036,6.036,0,0,0-4.662-2.51l-.825-.031L69.6,68.553l.415.2a2.137,2.137,0,0,0,2.157-.186l3.763-2.672.114.11a6.385,6.385,0,0,1,1.828,3.98,3.6,3.6,0,0,1-1.708,3.287Zm-5.5-3.322.564.021a6.417,6.417,0,0,1,4.959,2.671l.086.121A3.258,3.258,0,0,0,77.5,69.994a5.988,5.988,0,0,0-1.6-3.6l-3.5,2.484a2.514,2.514,0,0,1-2.145.369Z" transform="translate(9.035 8.553)" fill="#333"/>
      <path id="Trazado_42688" data-name="Trazado 42688" d="M51.285,76.653l.641,1.015s-.243.388,2.331.472c0,0,13.543,2.574,21.2,1.241a5.336,5.336,0,0,0,3.087-1.758l.1-.112.4-1.816-.251-1.7a5.04,5.04,0,0,0-3.575-4.123,13.149,13.149,0,0,0-6.827-.345c-3.872,1.043-12.428,1.163-14.95,1.175a.776.776,0,0,0-.771.716" transform="translate(6.657 8.983)" fill="#fff"/>
      <path id="Trazado_42689" data-name="Trazado 42689" d="M70.155,80.212a99.34,99.34,0,0,1-15.928-1.635c-2.133-.066-2.464-.349-2.6-.609a.423.423,0,0,1-.041-.121l-.591-.937a.4.4,0,1,1,.676-.426l.641,1.015a.284.284,0,0,1,.028.055,6.938,6.938,0,0,0,1.978.232c.2.032,13.622,2.551,21.118,1.245A4.948,4.948,0,0,0,78.286,77.4l.032-.035.365-1.644L78.442,74.1a4.645,4.645,0,0,0-3.289-3.8,12.9,12.9,0,0,0-6.614-.342c-3.915,1.054-12.509,1.176-15.051,1.189a.376.376,0,0,0-.375.35.374.374,0,0,1-.432.365.4.4,0,0,1-.365-.432,1.173,1.173,0,0,1,1.168-1.082c2.517-.012,11.026-.132,14.848-1.161a13.662,13.662,0,0,1,7.041.346,5.448,5.448,0,0,1,3.859,4.449l.251,1.7a.416.416,0,0,1-.006.145l-.4,1.816a.421.421,0,0,1-.09.177l-.1.112a5.76,5.76,0,0,1-3.318,1.888,32.33,32.33,0,0,1-5.414.393m-17.845-2.29v0m0,0h0Zm0,0Z" transform="translate(6.611 8.938)" fill="#333"/>
      <path id="Trazado_42690" data-name="Trazado 42690" d="M48.376,76.587a3.34,3.34,0,0,0,3.349.059,3.3,3.3,0,0,0,2.018-4.262c-.521-1.661-1.958-2.915-4.608-2.084" transform="translate(6.279 9.091)" fill="#fff"/>
      <path id="Trazado_42691" data-name="Trazado 42691" d="M49.94,77.507a2.887,2.887,0,0,1-1.753-.552.4.4,0,0,1,.471-.644,2.924,2.924,0,0,0,2.961.011,2.905,2.905,0,0,0,1.788-3.772c-.331-1.057-1.311-2.7-4.107-1.823a.4.4,0,0,1-.5-.262.4.4,0,0,1,.262-.5c2.49-.782,4.4.1,5.11,2.348a3.7,3.7,0,0,1-2.248,4.75,5.268,5.268,0,0,1-1.983.446" transform="translate(6.233 9.045)" fill="#333"/>
      <path id="Trazado_42692" data-name="Trazado 42692" d="M50.631,75.915a3.735,3.735,0,0,0,.272-5.268s-1.813-1.674-3.161-1.574c0,0-8.216,3.113-10.812,6.317a.842.842,0,0,0,.46,1.338c2.71.689,9.8,2.113,13.241-.812" transform="translate(4.77 8.965)" fill="#fff"/>
      <path id="Trazado_42693" data-name="Trazado 42693" d="M44.384,78.131a29.984,29.984,0,0,1-7.047-.972,1.247,1.247,0,0,1-.88-.82,1.217,1.217,0,0,1,.208-1.156c2.634-3.25,10.642-6.31,10.981-6.439a.422.422,0,0,1,.112-.025c1.457-.108,3.264,1.5,3.462,1.68a4.162,4.162,0,0,1-.272,5.856l-.011.01c-1.666,1.417-4.118,1.865-6.552,1.865m3.488-8.617c-.732.284-8.2,3.227-10.586,6.172a.417.417,0,0,0-.07.4.453.453,0,0,0,.319.3c2.779.707,9.6,2.054,12.877-.723a3.319,3.319,0,0,0,.233-4.711,5.365,5.365,0,0,0-2.773-1.437m2.805,6.447h0Z" transform="translate(4.724 8.919)" fill="#333"/>
      <path id="Trazado_42694" data-name="Trazado 42694" d="M56.558,105.713l-.334-4.35c-.1-1.482-.21-2.817-.294-3.32a5.279,5.279,0,0,0-1.588-2.557l-.017.036a7.063,7.063,0,0,0,.412-2.778c-.093-3.11-.034-4.773-3.145-4.773-1.167,0-4.124.194-5.6.267-1.743.086-2.123,2.562-2.123,4.507a6.646,6.646,0,0,0,.8,3.489c-.038-.056-.062-.094-.062-.094l-.339,4.175a31.875,31.875,0,0,0,1.393,11.151l.282.093" transform="translate(5.694 11.419)" fill="none" stroke="#333" stroke-linecap="round" stroke-linejoin="round" stroke-width="0.707"/>
      <path id="Trazado_42695" data-name="Trazado 42695" d="M42.608,108.516s.606-8.628,0-10.126a2.912,2.912,0,0,0-1.968-1.767l-.029,0c.93-.055,1.471-.74,1.469-3.255,0-3.111.355-4.662-2.756-4.662-1.167,0-2.9-.424-4.376-.35-1.744.086-3.089,2.631-3.089,4.576,0,2.011.375,2.85,1.07,3.17l-.015,0c-.5-.146-1.881,5.738-1.881,5.738" transform="translate(4.028 11.467)" fill="none" stroke="#333" stroke-linecap="round" stroke-linejoin="round" stroke-width="0.707"/>
      <path id="Trazado_42696" data-name="Trazado 42696" d="M40.816,70.908a10.589,10.589,0,0,0,.45,3.964,1.35,1.35,0,0,0,.839.742,4.76,4.76,0,0,0-.512.062c-2.68.53-4.769,7.166-4.769,7.166-.757,2.844-.586,8.262-.341,12.035.149,2.286,2.446,3.933,3.845,3.815h3.322l12.385-.652c2.95-.108,4.715-1.765,4.508-3.726-.25-2.377-.615-5.547-1.038-8.381a5.512,5.512,0,0,0,1.364.182s13.542,2.574,21.2,1.241A5.336,5.336,0,0,0,85.151,85.6l.1-.112.4-1.816-.251-1.7a5.092,5.092,0,0,0-.522-1.592h0l.191.268a3.442,3.442,0,0,0,1.608-3.111,6.252,6.252,0,0,0-1.769-3.848l-3.633,2.58,3.633-2.58s.853-.242-.2-2.519S80.925,57.533,73.465,50.538l-.6.075s-1.583-5.171-4.7-6.321a5.977,5.977,0,0,0-4.875.563l.007-.2a4.988,4.988,0,0,0-2.741-3.533,23.067,23.067,0,0,0-7.247-2.54l.837.09a5.774,5.774,0,0,0-.029-2.392A6.07,6.07,0,0,0,52.492,33.6l.886-.162a1.649,1.649,0,0,0,1.349-1.731l-1.089-16.37A8.116,8.116,0,0,0,44.086,7.89l-.909.165A8.116,8.116,0,0,0,36.9,18.51l4.972,15.562a1.647,1.647,0,0,0,1.864,1.12l.09-.016a4.844,4.844,0,0,0-.547,2.512,4.269,4.269,0,0,0,.276,1.244c-4.458.761-7.814,2.118-9.2,4.02a5.26,5.26,0,0,0-.563,2.923s-.346-.434-.984-1.091c0,0-3.249-2.058-6.179-.5S22.7,50.241,22.7,50.241A34.809,34.809,0,0,0,13.88,63.864a59.841,59.841,0,0,0-2.848-10.3l-1.666-7.43a1.018,1.018,0,0,0-.437-.637l.026,0a3.189,3.189,0,0,0-2.092-3.725,2.573,2.573,0,0,1,1.586.569s.522-9.42-3.05-15.148a1.566,1.566,0,0,0-2.691.114A18.5,18.5,0,0,0,.888,40.58a2.461,2.461,0,0,0,2.269,2.342l.072-.044a3.216,3.216,0,0,0-.2,3.52l.087-.014c-.191.122-.3.206-.3.206L4.295,60.07s.224,7.039.922,9.782,2.177,2.643,2.177,2.643v-.018a5.411,5.411,0,0,0,1.879,3.775c2.356,1.962,5.046.12,5.046.12l.238-.581,1.3.933,1.259-.084S23.581,66.721,27,61.1s2.183-7.05,2.183-7.05a2.58,2.58,0,0,0-.215-.308,1.008,1.008,0,0,1,.215.308s2.251,1.387,4.465-2.934a27.064,27.064,0,0,0,2.422,7.195l2.465,6.207.782,3.742S39.106,70,40.7,70.046ZM75,77.5c-3.872,1.043-12.428,1.163-14.95,1.174a.767.767,0,0,0-.726.555,2.889,2.889,0,0,0-2.082-1.088,6.115,6.115,0,0,0-3.552-2.465,1.252,1.252,0,0,0,1.236-1.035,17.175,17.175,0,0,0,.217-3.356V69.848a2.367,2.367,0,0,0,1.972-2.02c.255-1.838,1.739-7.4,1.739-7.4a16.4,16.4,0,0,0,4.051-7.049,4.566,4.566,0,0,0,1.022.7,3.7,3.7,0,0,0,3.037.232c.052-.264.191-.331,0,0,0,0-1.242,1.428,2.143,7.063S78.9,76.967,78.9,76.967l.169.012c.011,0,.021,0,.032,0l.112.322A10.962,10.962,0,0,0,75,77.5Z" transform="translate(0.046 1.007)" fill="none" stroke="#333" stroke-linecap="round" stroke-linejoin="round" stroke-width="0.707"/>
      <path id="Trazado_42697" data-name="Trazado 42697" d="M64.4,24.2a1.083,1.083,0,0,0,.943-1.465.855.855,0,0,0-1.022-.55m.079-.177a1.084,1.084,0,0,0,.943-1.466.855.855,0,0,0-1.022-.55s1.384-3.71,2.641-7.86.818-4.906.566-6.54S64.89.434,59.9.355a7.786,7.786,0,0,0-8.032,6.053,9.2,9.2,0,0,0,.441,4.639l3.4,8.945c.049.01.1.017.145.026l-.145-.026s-1.321-.251-1.321.943,1.006,1.07,1.006,1.07-1.006-.071-1.006,1.124S55.394,24.2,55.394,24.2s-1.006-.071-1.006,1.124,1.006,1.069,1.006,1.069l.826.146a3.328,3.328,0,0,0,3.562,2.873A3.664,3.664,0,0,0,63.6,26.651a2.57,2.57,0,0,1,.8-.256,1.083,1.083,0,0,0,.943-1.465.855.855,0,0,0-1.022-.55m.079-2.37a1.084,1.084,0,0,0,.943-1.466.855.855,0,0,0-1.022-.55s1.384-3.71,2.641-7.86.818-4.906.566-6.54S64.89.434,59.9.355a7.786,7.786,0,0,0-8.032,6.053,9.2,9.2,0,0,0,.441,4.639l3.4,8.945c.049.01.1.017.145.026l-.145-.026s-1.321-.251-1.321.943,1.006,1.07,1.006,1.07-1.006-.071-1.006,1.124S55.394,24.2,55.394,24.2s-1.006-.071-1.006,1.124,1.006,1.069,1.006,1.069l.826.146a3.328,3.328,0,0,0,3.562,2.873A3.664,3.664,0,0,0,63.6,26.651a2.57,2.57,0,0,1,.8-.256,1.083,1.083,0,0,0,.943-1.465.855.855,0,0,0-1.022-.55" transform="translate(6.717 0.046)" fill="#fff"/>
      <path id="Trazado_42698" data-name="Trazado 42698" d="M64.4,24.2a1.083,1.083,0,0,0,.943-1.465.855.855,0,0,0-1.022-.55m.079-.177a1.084,1.084,0,0,0,.943-1.466.855.855,0,0,0-1.022-.55s1.384-3.71,2.641-7.86.818-4.906.566-6.54S64.89.434,59.9.355a7.786,7.786,0,0,0-8.032,6.053,9.2,9.2,0,0,0,.441,4.639l3.4,8.945c.049.01.1.017.145.026l-.145-.026s-1.321-.251-1.321.943,1.006,1.07,1.006,1.07-1.006-.071-1.006,1.124S55.394,24.2,55.394,24.2s-1.006-.071-1.006,1.124,1.006,1.069,1.006,1.069l.826.146a3.328,3.328,0,0,0,3.562,2.873A3.664,3.664,0,0,0,63.6,26.651a2.57,2.57,0,0,1,.8-.256,1.083,1.083,0,0,0,.943-1.465.855.855,0,0,0-1.022-.55m.079-2.37a1.084,1.084,0,0,0,.943-1.466.855.855,0,0,0-1.022-.55s1.384-3.71,2.641-7.86.818-4.906.566-6.54S64.89.434,59.9.355a7.786,7.786,0,0,0-8.032,6.053,9.2,9.2,0,0,0,.441,4.639l3.4,8.945c.049.01.1.017.145.026l-.145-.026s-1.321-.251-1.321.943,1.006,1.07,1.006,1.07-1.006-.071-1.006,1.124S55.394,24.2,55.394,24.2s-1.006-.071-1.006,1.124,1.006,1.069,1.006,1.069l.826.146a3.328,3.328,0,0,0,3.562,2.873A3.664,3.664,0,0,0,63.6,26.651a2.57,2.57,0,0,1,.8-.256,1.083,1.083,0,0,0,.943-1.465.855.855,0,0,0-1.022-.55" transform="translate(6.717 0.046)" fill="none" stroke="#333" stroke-linecap="round" stroke-linejoin="round" stroke-width="0.707"/>
      <path id="Trazado_42699" data-name="Trazado 42699" d="M55.709,19.993l-3.4-8.945a9.2,9.2,0,0,1-.439-4.639A7.785,7.785,0,0,1,59.9.355c4.987.08,7.376,3.6,7.628,5.237s.691,2.39-.566,6.54-2.641,7.861-2.641,7.861A22.055,22.055,0,0,1,55.709,19.993Z" transform="translate(6.717 0.046)" fill="none" stroke="#333" stroke-width="0.354"/>
      <path id="Trazado_42700" data-name="Trazado 42700" d="M61.647,20.191a10.406,10.406,0,0,1-3.85.038l-2.706-.478s-1.006.125-1.006-1.069,1.32-.943,1.32-.943a28.426,28.426,0,0,0,4.074.417,22.856,22.856,0,0,0,4.542-.417.855.855,0,0,1,1.022.55,1.083,1.083,0,0,1-.943,1.465C63.722,19.789,62.638,19.995,61.647,20.191Z" transform="translate(7.02 2.3)" fill="none" stroke="#333" stroke-width="0.354"/>
      <path id="Trazado_42701" data-name="Trazado 42701" d="M61.647,22.132a10.406,10.406,0,0,1-3.85.038l-2.706-.478s-1.006.125-1.006-1.069,1.32-.943,1.32-.943a28.427,28.427,0,0,0,4.074.417,22.856,22.856,0,0,0,4.542-.417.855.855,0,0,1,1.022.55A1.083,1.083,0,0,1,64.1,21.7C63.722,21.73,62.638,21.936,61.647,22.132Z" transform="translate(7.02 2.552)" fill="none" stroke="#333" stroke-width="0.354"/>
      <path id="Trazado_42702" data-name="Trazado 42702" d="M61.647,24.074a10.407,10.407,0,0,1-3.85.038l-2.706-.478s-1.006.125-1.006-1.069,1.32-.943,1.32-.943a28.427,28.427,0,0,0,4.074.417,22.856,22.856,0,0,0,4.542-.417.855.855,0,0,1,1.022.55,1.083,1.083,0,0,1-.943,1.465C63.722,23.672,62.638,23.878,61.647,24.074Z" transform="translate(7.02 2.804)" fill="none" stroke="#333" stroke-width="0.354"/>
      <path id="Trazado_42703" data-name="Trazado 42703" d="M55.706,23.53A3.328,3.328,0,0,0,59.268,26.4a3.665,3.665,0,0,0,3.819-2.76s-2.619.383-3.278.38S55.706,23.53,55.706,23.53Z" transform="translate(7.231 3.054)" fill="none" stroke="#333" stroke-width="0.354"/>
      <path id="Trazado_42704" data-name="Trazado 42704" d="M55.709,19.993l-3.4-8.945a9.2,9.2,0,0,1-.439-4.639A7.785,7.785,0,0,1,59.9.355c4.987.08,7.376,3.6,7.628,5.237s.691,2.39-.566,6.54-2.641,7.861-2.641,7.861A22.055,22.055,0,0,1,55.709,19.993Z" transform="translate(6.717 0.046)" fill="none" stroke="#333" stroke-linecap="round" stroke-linejoin="round" stroke-width="0.707"/>
      <path id="Trazado_42705" data-name="Trazado 42705" d="M61.647,20.191a10.406,10.406,0,0,1-3.85.038l-2.706-.478s-1.006.125-1.006-1.069,1.32-.943,1.32-.943a28.426,28.426,0,0,0,4.074.417,22.856,22.856,0,0,0,4.542-.417.855.855,0,0,1,1.022.55,1.083,1.083,0,0,1-.943,1.465C63.722,19.789,62.638,19.995,61.647,20.191Z" transform="translate(7.02 2.3)" fill="none" stroke="#333" stroke-linecap="round" stroke-linejoin="round" stroke-width="0.707"/>
      <path id="Trazado_42706" data-name="Trazado 42706" d="M61.647,22.132a10.406,10.406,0,0,1-3.85.038l-2.706-.478s-1.006.125-1.006-1.069,1.32-.943,1.32-.943a28.427,28.427,0,0,0,4.074.417,22.856,22.856,0,0,0,4.542-.417.855.855,0,0,1,1.022.55A1.083,1.083,0,0,1,64.1,21.7C63.722,21.73,62.638,21.936,61.647,22.132Z" transform="translate(7.02 2.552)" fill="none" stroke="#333" stroke-linecap="round" stroke-linejoin="round" stroke-width="0.707"/>
      <path id="Trazado_42707" data-name="Trazado 42707" d="M61.647,24.074a10.407,10.407,0,0,1-3.85.038l-2.706-.478s-1.006.125-1.006-1.069,1.32-.943,1.32-.943a28.427,28.427,0,0,0,4.074.417,22.856,22.856,0,0,0,4.542-.417.855.855,0,0,1,1.022.55,1.083,1.083,0,0,1-.943,1.465C63.722,23.672,62.638,23.878,61.647,24.074Z" transform="translate(7.02 2.804)" fill="none" stroke="#333" stroke-linecap="round" stroke-linejoin="round" stroke-width="0.707"/>
      <path id="Trazado_42708" data-name="Trazado 42708" d="M55.706,23.53A3.328,3.328,0,0,0,59.268,26.4a3.665,3.665,0,0,0,3.819-2.76s-2.619.383-3.278.38S55.706,23.53,55.706,23.53Z" transform="translate(7.231 3.054)" fill="none" stroke="#333" stroke-linecap="round" stroke-linejoin="round" stroke-width="0.707"/>
      <line id="Línea_13" data-name="Línea 13" x1="0.198" y2="5.394" transform="translate(40.041 103.526)" fill="none" stroke="#333" stroke-linecap="round" stroke-linejoin="round" stroke-width="1.691"/>
      <line id="Línea_14" data-name="Línea 14" x2="0.265" y2="5.391" transform="translate(55.947 104.209)" fill="none" stroke="#333" stroke-linecap="round" stroke-linejoin="round" stroke-width="1.691"/>
      <path id="Trazado_42709" data-name="Trazado 42709" d="M28.651,44.613a1.4,1.4,0,1,1-1.4-1.4,1.4,1.4,0,0,1,1.4,1.4" transform="translate(3.355 5.609)" fill="#333"/>
      <path id="Trazado_42710" data-name="Trazado 42710" d="M58.422,43.662A1.4,1.4,0,1,1,56.9,44.941a1.4,1.4,0,0,1,1.517-1.279" transform="translate(7.386 5.667)" fill="#333"/>
    </g>
  </g>
  <text id="Coaching" fill="#fff" font-size="16" font-family="Interstate-Light, Interstate" font-weight="300"><tspan x="10" y="15">Coaching</tspan></text>
  <path id="Trazado_42712" data-name="Trazado 42712" d="M1873.689,73.29h50.643" transform="translate(-1854.57 -50.22)" fill="none" stroke="#ec619f" stroke-linecap="round" stroke-width="3"/>
</svg>
