<svg id="Grupo_278" data-name="Grupo 278" xmlns="http://www.w3.org/2000/svg" xmlns:xlink="http://www.w3.org/1999/xlink" width="294.254" height="374.235" viewBox="0 0 294.254 374.235">
  <defs>
    <clipPath id="clip-path">
      <rect id="Rectángulo_113" data-name="Rectángulo 113" width="294.251" height="374.235" fill="none"/>
    </clipPath>
  </defs>
  <path id="Trazado_42501" data-name="Trazado 42501" d="M5.951,95.244V253.465l137.021,79.111L280,253.465V95.244L142.972,16.133Z" transform="translate(14.258 38.652)" fill="#ec619f"/>
  <g id="Grupo_268" data-name="Grupo 268" transform="translate(0 0)">
    <g id="Grupo_267" data-name="Grupo 267" clip-path="url(#clip-path)">
      <path id="Trazado_42502" data-name="Trazado 42502" d="M82.008,144.7,81,128.226c-.306-4.455-.632-8.466-.883-9.981-.683-4.1-4.775-7.685-4.775-7.685l-.051.109a21.23,21.23,0,0,0,1.239-8.351c-.278-9.349-.1-14.348-9.454-14.348-3.508,0-12.4.584-16.83.8-5.24.258-6.381,7.7-6.381,13.546,0,4.564.893,7.96,2.418,10.487-.115-.17-.187-.282-.187-.282l-1.019,12.548a95.809,95.809,0,0,0,4.187,33.517l.849,3.674" transform="translate(105.106 210.77)" fill="#fff"/>
      <path id="Trazado_42503" data-name="Trazado 42503" d="M82.008,144.7,81,128.226c-.306-4.455-.632-8.466-.883-9.981-.683-4.1-4.775-7.685-4.775-7.685l-.051.109a21.23,21.23,0,0,0,1.239-8.351c-.278-9.349-.1-14.348-9.454-14.348-3.508,0-12.4.584-16.83.8-5.24.258-6.381,7.7-6.381,13.546,0,4.564.893,7.96,2.418,10.487-.115-.17-.187-.282-.187-.282l-1.019,12.548a95.809,95.809,0,0,0,4.187,33.517l.849,3.674" transform="translate(105.106 210.77)" fill="none" stroke="#333" stroke-linecap="round" stroke-linejoin="round" stroke-width="0.707"/>
      <path id="Trazado_42504" data-name="Trazado 42504" d="M65.824,152.374s1.82-29.33,0-33.833a8.752,8.752,0,0,0-5.916-5.311l-.088-.014c2.795-.166,4.421-2.224,4.415-9.784-.01-9.352,1.066-14.011-8.283-14.011-3.508,0-8.721-1.273-13.152-1.053-5.243.258-9.284,7.909-9.284,13.753,0,6.045,1.127,8.568,3.216,9.529l-.044-.007c-1.508-.438-5.654,20.644-5.654,20.644" transform="translate(74.352 211.66)" fill="#fff"/>
      <path id="Trazado_42505" data-name="Trazado 42505" d="M65.824,152.374s1.82-29.33,0-33.833a8.752,8.752,0,0,0-5.916-5.311l-.088-.014c2.795-.166,4.421-2.224,4.415-9.784-.01-9.352,1.066-14.011-8.283-14.011-3.508,0-8.721-1.273-13.152-1.053-5.243.258-9.284,7.909-9.284,13.753,0,6.045,1.127,8.568,3.216,9.529l-.044-.007c-1.508-.438-5.654,20.644-5.654,20.644" transform="translate(74.352 211.66)" fill="none" stroke="#333" stroke-linecap="round" stroke-linejoin="round" stroke-width="0.707"/>
      <path id="Trazado_42506" data-name="Trazado 42506" d="M121.973,197.574s-.547,7.61,1.352,11.916a4.057,4.057,0,0,0,2.523,2.231,14.3,14.3,0,0,0-1.538.187c-8.055,1.593-14.334,21.54-14.334,21.54-2.275,8.547-1.762,24.834-1.026,36.173.448,6.87,7.352,11.821,11.556,11.468h9.984l37.226-1.959c8.867-.326,14.171-5.3,13.55-11.2-.751-7.145-1.847-16.674-3.121-25.191a16.563,16.563,0,0,0,4.1.547s40.7,7.736,63.717,3.729a16.039,16.039,0,0,0,9.274-5.284l.3-.336,1.212-5.457-.754-5.118a15.3,15.3,0,0,0-1.569-4.785v0l.574.8a10.347,10.347,0,0,0,4.832-9.352c-.2-6.632-5.318-11.566-5.318-11.566l-10.921,7.756,10.921-7.756s2.564-.727-.591-7.573-11.386-40.982-33.81-62.006l-1.8.224s-4.758-15.543-14.12-19c-5.715-2.109-11.223-.153-14.653,1.691l.02-.608a14.993,14.993,0,0,0-8.238-10.619c-4.982-2.465-11.743-6.072-21.781-7.634l2.516.272c.594-1.681.316-5.848-.088-7.189a18.245,18.245,0,0,0-4.89-8.052l2.662-.486a4.955,4.955,0,0,0,4.055-5.2L160.513,30.54A24.4,24.4,0,0,0,131.8,8.157l-2.734.5A24.394,24.394,0,0,0,110.2,40.079l14.945,46.775a4.952,4.952,0,0,0,5.6,3.365l.272-.048a14.559,14.559,0,0,0-1.644,7.549,12.833,12.833,0,0,0,.829,3.739c-13.4,2.289-23.486,6.367-27.66,12.083a15.81,15.81,0,0,0-1.691,8.785s-1.039-1.3-2.958-3.28c0,0-9.767-6.187-18.572-1.491s-11.8,17.9-11.8,17.9C52.54,149.345,45.2,165.265,41.011,176.4c-2.462-15.19-8.561-30.974-8.561-30.974l-5.009-22.331a3.06,3.06,0,0,0-1.314-1.915l.078-.014a9.584,9.584,0,0,0-6.289-11.2,7.734,7.734,0,0,1,4.768,1.712s1.569-28.315-9.169-45.532a4.706,4.706,0,0,0-8.089.343c-4.2,7.807-9.9,22.59-5.464,39.922,0,0,.309,6.551,6.819,7.04L9,113.321A9.666,9.666,0,0,0,8.39,123.9l.261-.041c-.574.367-.907.618-.907.618L12.2,165s.672,21.156,2.771,29.4,6.544,7.943,6.544,7.943v-.054a16.266,16.266,0,0,0,5.647,11.346c7.08,5.9,15.166.36,15.166.36L42.7,211l.346,1.246,3.905,2.805,3.783-.251s19.435-29.813,29.7-46.694S87,146.917,87,146.917a7.749,7.749,0,0,0-.645-.927,3.03,3.03,0,0,1,.645.927s6.765,4.17,13.421-8.819c0,0,2,11.784,7.281,21.625l7.41,18.657,2.35,11.247s-.625,5.223,4.174,5.355Zm102.753,19.818c-11.638,3.134-37.355,3.494-44.935,3.528a2.3,2.3,0,0,0-2.184,1.667,8.682,8.682,0,0,0-6.259-3.27,18.38,18.38,0,0,0-10.677-7.41,3.762,3.762,0,0,0,3.715-3.111,51.624,51.624,0,0,0,.652-10.086v-4.323a7.116,7.116,0,0,0,5.926-6.072c.767-5.525,5.226-22.243,5.226-22.243s8.167-7.457,12.178-21.187A13.724,13.724,0,0,0,191.443,147c5.162,2.547,9.128.7,9.128.7.156-.795.574-.995,0,0,0,0-3.732,4.292,6.442,21.231s29.439,46.857,29.439,46.857l.509.037c.034,0,.064,0,.1,0l.336.968a32.949,32.949,0,0,0-12.667.6" transform="translate(0.847 18.585)" fill="#fff"/>
      <path id="Trazado_42507" data-name="Trazado 42507" d="M121.973,197.574s-.547,7.61,1.352,11.916a4.057,4.057,0,0,0,2.523,2.231,14.3,14.3,0,0,0-1.538.187c-8.055,1.593-14.334,21.54-14.334,21.54-2.275,8.547-1.762,24.834-1.026,36.173.448,6.87,7.352,11.821,11.556,11.468h9.984l37.226-1.959c8.867-.326,14.171-5.3,13.55-11.2-.751-7.145-1.847-16.674-3.121-25.191a16.563,16.563,0,0,0,4.1.547s40.7,7.736,63.717,3.729a16.039,16.039,0,0,0,9.274-5.284l.3-.336,1.212-5.457-.754-5.118a15.3,15.3,0,0,0-1.569-4.785v0l.574.8a10.347,10.347,0,0,0,4.832-9.352c-.2-6.632-5.318-11.566-5.318-11.566l-10.921,7.756,10.921-7.756s2.564-.727-.591-7.573-11.386-40.982-33.81-62.006l-1.8.224s-4.758-15.543-14.12-19c-5.715-2.109-11.223-.153-14.653,1.691l.02-.608a14.993,14.993,0,0,0-8.238-10.619c-4.982-2.465-11.743-6.072-21.781-7.634l2.516.272c.594-1.681.316-5.848-.088-7.189a18.245,18.245,0,0,0-4.89-8.052l2.662-.486a4.955,4.955,0,0,0,4.055-5.2L160.513,30.54A24.4,24.4,0,0,0,131.8,8.157l-2.734.5A24.394,24.394,0,0,0,110.2,40.079l14.945,46.775a4.952,4.952,0,0,0,5.6,3.365l.272-.048a14.559,14.559,0,0,0-1.644,7.549,12.833,12.833,0,0,0,.829,3.739c-13.4,2.289-23.486,6.367-27.66,12.083a15.81,15.81,0,0,0-1.691,8.785s-1.039-1.3-2.958-3.28c0,0-9.767-6.187-18.572-1.491s-11.8,17.9-11.8,17.9C52.54,149.345,45.2,165.265,41.011,176.4c-2.462-15.19-8.561-30.974-8.561-30.974l-5.009-22.331a3.06,3.06,0,0,0-1.314-1.915l.078-.014a9.584,9.584,0,0,0-6.289-11.2,7.734,7.734,0,0,1,4.768,1.712s1.569-28.315-9.169-45.532a4.706,4.706,0,0,0-8.089.343c-4.2,7.807-9.9,22.59-5.464,39.922,0,0,.309,6.551,6.819,7.04L9,113.321A9.666,9.666,0,0,0,8.39,123.9l.261-.041c-.574.367-.907.618-.907.618L12.2,165s.672,21.156,2.771,29.4,6.544,7.943,6.544,7.943v-.054a16.266,16.266,0,0,0,5.647,11.346c7.08,5.9,15.166.36,15.166.36L42.7,211l.346,1.246,3.905,2.805,3.783-.251s19.435-29.813,29.7-46.694S87,146.917,87,146.917a7.749,7.749,0,0,0-.645-.927,3.03,3.03,0,0,1,.645.927s6.765,4.17,13.421-8.819c0,0,2,11.784,7.281,21.625l7.41,18.657,2.35,11.247s-.625,5.223,4.174,5.355Zm102.753,19.818c-11.638,3.134-37.355,3.494-44.935,3.528a2.3,2.3,0,0,0-2.184,1.667,8.682,8.682,0,0,0-6.259-3.27,18.38,18.38,0,0,0-10.677-7.41,3.762,3.762,0,0,0,3.715-3.111,51.624,51.624,0,0,0,.652-10.086v-4.323a7.116,7.116,0,0,0,5.926-6.072c.767-5.525,5.226-22.243,5.226-22.243s8.167-7.457,12.178-21.187A13.724,13.724,0,0,0,191.443,147c5.162,2.547,9.128.7,9.128.7.156-.795.574-.995,0,0,0,0-3.732,4.292,6.442,21.231s29.439,46.857,29.439,46.857l.509.037c.034,0,.064,0,.1,0l.336.968A32.949,32.949,0,0,0,224.726,217.392Z" transform="translate(0.847 18.585)" fill="none" stroke="#333" stroke-linecap="round" stroke-linejoin="round" stroke-width="0.707"/>
      <path id="Trazado_42508" data-name="Trazado 42508" d="M32.942,47.606a4.216,4.216,0,1,1-4.218-4.218,4.217,4.217,0,0,1,4.218,4.218" transform="translate(58.723 103.953)" fill="#333"/>
      <path id="Trazado_42509" data-name="Trazado 42509" d="M61.788,43.264a4.216,4.216,0,1,1-4.561,3.844,4.22,4.22,0,0,1,4.561-3.844" transform="translate(137.073 103.619)" fill="#333"/>
      <path id="Trazado_42510" data-name="Trazado 42510" d="M76.042,32.1c-.886-4.167-10.419-5.668-21.292-3.355-9.04,1.925-16.137,5.882-17.771,9.553.183.143.363.285.547.424a19.568,19.568,0,0,0,3.3,1.786,17.631,17.631,0,0,0,3.209.754c.16.01.323.014.486.024a4.047,4.047,0,0,1,1.664-2.024A40.82,40.82,0,0,1,56.393,35.3a14.042,14.042,0,0,1,6.6-.037A8.833,8.833,0,0,1,68.452,39.5a5.312,5.312,0,0,1,.275.683C73.655,37.714,76.6,34.7,76.042,32.1" transform="translate(88.598 66.261)" fill="#b3b3b3"/>
      <path id="Trazado_42511" data-name="Trazado 42511" d="M60.357,81.675c5.2.017,10.381.221,15.584.36q1.411.036,2.822.024L89.67,80.289a19.062,19.062,0,0,0,2.452-1.178C90.19,76.584,84.437,70.5,84.437,70.5c-7.233-4.085-24.926-2.516-24.926-2.516-13.519.19-18.236,2.516-18.236,2.516a21.564,21.564,0,0,0-6.622,8.011c7.569,3.647,17.689,3.138,25.7,3.162" transform="translate(83.025 162.178)" fill="#e6e6e6"/>
      <path id="Trazado_42512" data-name="Trazado 42512" d="M60.62,58.74c-14.052,0-25.445,5.379-25.445,12.015A6.173,6.173,0,0,0,36,73.733a4.321,4.321,0,0,1,1.46-.258,4.4,4.4,0,0,1,1.909.418,9.725,9.725,0,0,1,2.408-3.579,19.663,19.663,0,0,1,9.818-4.571,57.432,57.432,0,0,1,18.766-.36c4.191.577,10.371,2.588,13.163,6.316a12.669,12.669,0,0,1,1.056-.75,12.166,12.166,0,0,1,1.2-.672c.075-.034.153-.061.228-.1C85.363,63.813,74.262,58.74,60.62,58.74" transform="translate(84.276 140.735)" fill="#e6e6e6"/>
      <path id="Trazado_42513" data-name="Trazado 42513" d="M59.289,48.2a4.043,4.043,0,0,1,2.825-3.033c-.214-.462-.452-.91-.645-1.382a16.336,16.336,0,0,1-1.09-4.832,2.347,2.347,0,0,0-.455-.071c-3.712,0-6.72,9.128-6.72,20.389,0,8.626,1.769,15.981,4.262,18.959.37-.717.757-1.43,1.063-2.18a30.31,30.31,0,0,0,1.3-5,3.677,3.677,0,0,1,.971-1.827,4.053,4.053,0,0,1-.353-.818A43.313,43.313,0,0,1,59.289,48.2" transform="translate(127.471 93.155)" fill="#ccc"/>
      <path id="Trazado_42514" data-name="Trazado 42514" d="M30.81,49.19a6.807,6.807,0,0,0,7.617,4.625c6.167-.635,28.672-5.532,44.985-3.355s16.494,3.083,19.034,2.357,8.018-6.527,8.018-6.527S93.019,32.611,70.168,35.1,31.537,43.93,30.81,49.19" transform="translate(73.818 83.365)" fill="#e6e6e6"/>
      <path id="Trazado_42515" data-name="Trazado 42515" d="M42.766,72.324a6.089,6.089,0,0,1-3-.723l-.177-.109-.065-.2c-.771-2.262-12.161-8.025-19.16-11.125l-.431-.19.105-.462c.122-.55,3.151-13.512,12.086-18.277,9.006-4.8,18.742,1.253,19.153,1.511l.105.085c4.306,4.428,2.747,18.9,2.679,19.516l-.061.2c-2.74,5.349-5.844,8.541-9.233,9.488a7.476,7.476,0,0,1-2.007.282M40.525,70.7a5.619,5.619,0,0,0,3.973.224c2.988-.852,5.905-3.9,8.435-8.8.132-1.311,1.369-14.511-2.323-18.43-.8-.486-9.885-5.732-17.937-1.433-7.559,4.028-10.768,14.714-11.39,17.054,3.179,1.426,17.55,8.011,19.241,11.383" transform="translate(47.772 94.391)" fill="#333"/>
      <path id="Trazado_42516" data-name="Trazado 42516" d="M18.465,126.016l-4.072-2.927.672-.937,3.735,2.686,3.291-.221c1.871-2.876,19.88-30.556,29.538-46.436,9.78-16.073,6.653-20.477,6.615-20.515-3.019-5.3-16.613-10.364-18.895-11.183C21.473,63.13,17.575,74.653,14.991,82.29a47.44,47.44,0,0,1-1.773,4.727l-1.046-.489a46.144,46.144,0,0,0,1.725-4.6c2.635-7.787,6.615-19.55,24.922-36.523l.255-.234.326.112c.666.228,16.351,5.675,19.785,11.726.1.1,3.8,4.734-6.571,21.778C42.46,95.476,23.093,125.19,22.9,125.489l-.156.241Z" transform="translate(29.163 108.213)" fill="#333"/>
      <path id="Trazado_42517" data-name="Trazado 42517" d="M53.607,91.316a5.572,5.572,0,0,1-5.294-3.861L33.368,40.676A25,25,0,0,1,52.7,8.48l2.73-.5A25,25,0,0,1,84.853,30.917l3.274,49.207a5.551,5.551,0,0,1-4.547,5.827l-3,.547-.214-1.182,3-.543A4.354,4.354,0,0,0,86.928,80.2L83.651,30.995a23.793,23.793,0,0,0-28-21.829l-2.734.5A23.8,23.8,0,0,0,34.512,40.313L49.457,87.088a4.386,4.386,0,0,0,4.924,2.958l1.946-.353.214,1.182-1.942.353a5.785,5.785,0,0,1-.992.088" transform="translate(77.108 18.168)" fill="#333"/>
      <path id="Trazado_42518" data-name="Trazado 42518" d="M71.037,48.965l-2.768-.3c.537-1.525.109-3.06,0-4.659a13.481,13.481,0,0,0-14.657-12.7A13.478,13.478,0,0,0,40.79,45.851a11.531,11.531,0,0,0,.309,3.518l-1.868.5a12.852,12.852,0,0,1-.863-3.854c-.533-7.909,6.208-16.032,15.119-16.63s15.176,4.8,17.462,12.392c.4,1.341.683,5.508.088,7.189" transform="translate(91.857 70.293)" fill="#333"/>
      <path id="Trazado_42519" data-name="Trazado 42519" d="M39.269,37.975l-.9-.832c.261-.282,6.754-5.8,13.366-7.461,6.581-1.661,13.808.7,14.161.791l.866.9c-.085-.02-8.449-2.085-14.728-.5-6.259,1.579-12.7,7.036-12.762,7.1" transform="translate(91.921 69.702)" fill="#333"/>
      <path id="Trazado_42520" data-name="Trazado 42520" d="M51.593,131.22l-.323-.01a4.634,4.634,0,0,1-3.545-1.518,6.362,6.362,0,0,1-1.229-4.418l-2.333-11.152L36.787,95.564c-8.819-16.419-6.9-37.474-6.883-37.684a16.1,16.1,0,0,1,1.779-9.043c5.366-7.352,19.941-12.3,41.06-13.957,19-1.491,30.1,4.041,37.45,7.7l1.046.516a15.492,15.492,0,0,1,8.575,11.091l-1.219.163a14.5,14.5,0,0,0-7.9-10.154l-1.046-.52c-7.23-3.6-18.165-9.053-36.808-7.576-20.457,1.61-35.086,6.5-40.14,13.417A15.5,15.5,0,0,0,31.123,57.9c-.02.306-1.895,21,6.771,37.148l7.437,18.722,2.4,11.444-.014.1a5.3,5.3,0,0,0,.934,3.583,3.329,3.329,0,0,0,2.336,1.073L54,125.977c.19-.1,19.458-10.361,40.516.8l.306.16.16,2.377a6.4,6.4,0,0,0,5.026-5.471c.767-5.5,5.063-21.635,5.247-22.321l.044-.173.136-.119a49.283,49.283,0,0,0,12.351-22.09l1.182.316c-3.647,13.7-11.414,21.452-12.575,22.556-.469,1.776-4.452,16.871-5.165,22-.825,5.929-6.687,6.636-6.744,6.642l-.638.071-.2-3.022C74.155,117.566,56.31,126.174,54.7,127Z" transform="translate(71.192 82.969)" fill="#333"/>
      <path id="Trazado_42521" data-name="Trazado 42521" d="M57.755,64.688a.61.61,0,0,1-.537-.323,25.776,25.776,0,0,1,.054-23.856.6.6,0,0,1,1.032.625,24.54,24.54,0,0,0-.014,22.671.606.606,0,0,1-.258.815.582.582,0,0,1-.278.068" transform="translate(130.096 96.359)" fill="#333"/>
      <path id="Trazado_42522" data-name="Trazado 42522" d="M75.353,86.586H41.74a4.677,4.677,0,0,1-4.282-2.751c-1.953-4.391-1.44-11.923-1.416-12.239l1.447-5.352.462-1.026.166-.1c4.241-2.516,10.853-4.693,14.239-4.693.037,0,.071,0,.105,0,1.881.024,3.6-.017,5.179-.058a50.008,50.008,0,0,1,6.279.085,47.217,47.217,0,0,1,11.3,2.391,7.514,7.514,0,0,1,4.894,6.527l.221,3.362a51.817,51.817,0,0,1-.666,10.256,4.348,4.348,0,0,1-4.313,3.593M37.244,71.8c.01,0-.489,7.44,1.335,11.536A3.451,3.451,0,0,0,41.74,85.36H75.353a3.133,3.133,0,0,0,3.107-2.577,50.6,50.6,0,0,0,.645-9.987l-.217-3.338A6.3,6.3,0,0,0,74.789,64a46.142,46.142,0,0,0-11-2.319,49.359,49.359,0,0,0-6.119-.078c-1.6.037-3.328.082-5.226.054h-.1c-3.162,0-9.352,2.041-13.444,4.425l-.265.584Z" transform="translate(86.166 144.519)" fill="#333"/>
      <path id="Trazado_42523" data-name="Trazado 42523" d="M44.3,138.434a11.506,11.506,0,0,1-6.948-3.039,13.283,13.283,0,0,1-4.754-9.023C31.822,114.48,31.374,98.519,33.639,90c.272-.852,6.493-20.338,14.81-21.982,5.077-1,35.219-.054,36.5-.014.336.051,6.415,1.121,11.169,7.651l-1,.72a17.757,17.757,0,0,0-10.3-7.152c-.231,0-31.2-.978-36.143,0-7.607,1.5-13.808,20.929-13.869,21.122-2.218,8.33-1.766,24.148-1,35.949a12.059,12.059,0,0,0,4.333,8.17c2.139,1.844,4.676,2.9,6.557,2.727l10.038,0,37.2-1.956c4.792-.177,8.7-1.735,11-4.388a7.914,7.914,0,0,0,1.976-6.136c-.744-7.046-1.766-16.273-3.117-25.164l1.212-.187c1.355,8.918,2.381,18.161,3.121,25.221a9.09,9.09,0,0,1-2.265,7.067c-2.527,2.914-6.741,4.622-11.869,4.812l-37.216,1.956H44.764c-.153.014-.306.02-.465.02" transform="translate(76.589 161.872)" fill="#333"/>
      <path id="Trazado_42524" data-name="Trazado 42524" d="M61.235,120.3c-11.8,0-17.547-5.739-17.547-17.543,0-8.911,2.476-13.937,6.968-14.161,1.253-.061,2.863-.153,4.608-.251,4.33-.245,9.716-.55,12.249-.55,9.638,0,9.79,5.281,10.042,14.028l.027.914c.17,5.736-1.226,10.171-4.146,13.183-2.822,2.907-6.928,4.381-12.2,4.381m6.279-31.28c-2.5,0-7.865.306-12.178.55-1.752.1-3.362.19-4.618.251-5.05.248-5.8,8.211-5.8,12.935,0,11.132,5.186,16.317,16.317,16.317,4.931,0,8.738-1.352,11.322-4.011,2.683-2.764,3.963-6.9,3.8-12.29l-.027-.917c-.255-8.812-.37-12.836-8.816-12.836" transform="translate(104.672 210.338)" fill="#333"/>
      <path id="Trazado_42525" data-name="Trazado 42525" d="M58.1,114.271a22.27,22.27,0,0,1-4.357-.652,31.5,31.5,0,0,0-6.67-.9c-1.851,0-3.583.156-5.107.292-3.43.316-6.147.564-8-1.134-1.647-1.5-2.384-4.377-2.384-9.318,0-6.286,4.4-14.1,9.868-14.368a47.02,47.02,0,0,1,7.98.571,44.055,44.055,0,0,0,5.2.482c3.44,0,5.675.635,7.026,2,1.976,2,1.939,5.352,1.885,9.991-.007.832-.02,1.712-.017,2.635,0,5.192-.744,8.116-2.425,9.478a4.572,4.572,0,0,1-3,.927m-11.026-2.785a32.485,32.485,0,0,1,6.928.934c2.781.594,4.982,1.06,6.323-.027s1.976-3.8,1.973-8.527c0-.93.01-1.81.017-2.649.048-4.34.085-7.478-1.532-9.115-1.107-1.117-3.063-1.637-6.153-1.637a44.5,44.5,0,0,1-5.359-.492,45.843,45.843,0,0,0-7.763-.56c-4.686.231-8.7,7.42-8.7,13.142,0,4.5.632,7.176,1.983,8.412,1.457,1.331,3.814,1.114,7.07.818,1.552-.139,3.308-.3,5.216-.3" transform="translate(75.67 211.226)" fill="#333"/>
      <path id="Trazado_42526" data-name="Trazado 42526" d="M50.908,147.054l-1.43-4.089a96.1,96.1,0,0,1-4.085-33.052l.89-10.976c2.088,2.37,7.488,7.013,17,5.556a16.048,16.048,0,0,0,11.943-8.116c1.124,1.138,3.5,3.844,3.987,6.761.217,1.294.52,4.72.883,9.916l.978,16.09-.706.408c.221-.064.435-.16.655-.217a4.549,4.549,0,0,1,1.284-.146l-.988-16.212c-.367-5.315-.669-8.69-.893-10.042-.71-4.262-4.8-7.892-4.978-8.045l-.645-.571-.326.8a14.824,14.824,0,0,1-11.376,8.16c-11.7,1.776-16.575-5.956-16.776-6.286l-.985-1.61L44.17,109.821a97.407,97.407,0,0,0,4.218,33.759l.075.217,1.358,3.257c.173-.37.818.316,1.087,0" transform="translate(105.405 225.979)" fill="#333"/>
      <path id="Trazado_42527" data-name="Trazado 42527" d="M66.612,135.86c.248-4.163,1.661-29.262-.075-33.551a9.316,9.316,0,0,0-6.364-5.685l-7.063-.958a56.509,56.509,0,0,0-8.71-.486c-5.807.146-7.108-.044-7.4-.129a.814.814,0,0,0-.659.1c-1.511.92-4.028,12.4-5.372,19.027a5.537,5.537,0,0,1,.744.187c.149.064.285.143.431.207,1.715-8.449,3.827-17.02,4.761-18.284a48.669,48.669,0,0,0,7.519.119,52.833,52.833,0,0,1,8.517.475l7.006.951a8.167,8.167,0,0,1,5.45,4.934c1.355,3.352.632,22.219.014,32.577" transform="translate(74.206 227.661)" fill="#333"/>
      <path id="Trazado_42528" data-name="Trazado 42528" d="M20.033,86.281a11.75,11.75,0,0,1-7.7-2.832c-7.25-6.034-5.861-15.3-5.8-15.692l.044-.268,5.359-3.1c5.236-3.022,13.179-1.932,13.516-1.878l.166.048A8,8,0,0,1,30.078,70.2l-1.667,13.5-.214.146a16.13,16.13,0,0,1-8.164,2.442M7.641,68.2c-.163,1.528-.652,9.295,5.43,14.358,6.116,5.09,12.949,1.28,14.259.465l1.6-12.935A6.823,6.823,0,0,0,25.2,63.64c-.88-.109-8.079-.914-12.684,1.749Z" transform="translate(15.308 149.211)" fill="#333"/>
      <path id="Trazado_42529" data-name="Trazado 42529" d="M16.665,123.921c-.744,0-5-.36-7.04-8.378-2.088-8.215-2.757-28.661-2.788-29.527L2.351,45.225l.258-.2c.228-.177,5.63-4.279,12.3-3.9.652-.163,4.272-.985,6.557.384a3.711,3.711,0,0,1,1.749,2.465L28.224,66.3c.078.18,10.11,26.294,9.587,43.58-.082,2.673-.893,4.418-2.479,5.332l-.146.085-.166-.007c-.082,0-8.018-.326-10.378.683-2.116.91-6.184,3.213-7.291,3.844l-.051,4.065-.533.037-.1,0M3.57,45.755l4.418,40.18c.01.255.7,21.231,2.754,29.327,1.532,6.021,4.262,7.216,5.416,7.451l.048-3.569.282-.163c.211-.122,5.182-2.988,7.7-4.068,2.425-1.036,9.468-.832,10.707-.781,1.134-.734,1.7-2.1,1.762-4.286.516-17.054-9.43-42.951-9.532-43.209L22.091,44.223A2.561,2.561,0,0,0,20.872,42.5c-2.041-1.233-5.715-.248-5.756-.238l-.092.027-.1-.01C9.408,41.927,4.711,44.96,3.57,45.755" transform="translate(5.633 97.583)" fill="#333"/>
      <path id="Trazado_42530" data-name="Trazado 42530" d="M3.541,52.889a10.247,10.247,0,1,1,18.878-2.9l-1.127-.248A9.093,9.093,0,1,0,4.539,52.311Z" transform="translate(5.2 89.889)" fill="#333"/>
      <path id="Trazado_42531" data-name="Trazado 42531" d="M9.4,74.874l-.211-.014c-7-.526-7.41-7.58-7.413-7.651C-2.752,49.582,3.3,34.412,7.314,26.951a5.321,5.321,0,0,1,4.574-2.812,5.139,5.139,0,0,1,4.622,2.435c10.724,17.193,9.281,45.621,9.267,45.906l-.071,1.28-.985-.822C19.478,68.551,9.677,74.7,9.579,74.762ZM12.068,25.42c-.048,0-.092,0-.136,0a4.052,4.052,0,0,0-3.488,2.136C4.519,34.857-1.4,49.687,3.038,67.023c.031.367.38,5.98,6.038,6.537,1.4-.852,9.814-5.675,15.458-2.323.143-5.512.163-29.106-9.115-43.98a3.9,3.9,0,0,0-3.352-1.837" transform="translate(0.395 57.82)" fill="#333"/>
      <path id="Trazado_42532" data-name="Trazado 42532" d="M6.8,68.844l-.767-.863c9.539-10.059,19.771-5.79,20.172-5.641l-.391,1.087c-.1-.034-9.346-3.2-19.014,5.416" transform="translate(14.459 146.904)" fill="#333"/>
      <path id="Trazado_42533" data-name="Trazado 42533" d="M68.215,72.516a13.025,13.025,0,0,1-5.79-1.413A15.447,15.447,0,0,1,54.1,56.763c.153-5.739,1.046-9.76,2.659-11.95l.092-.1c.374-.312,9.193-7.634,18.769-4.1C85.147,44.13,89.895,59.337,90.1,59.985l.149.486-.465.207c-6.49,2.917-16.956,8.4-17.4,10.714l-.058.289-.265.126a9.7,9.7,0,0,1-3.841.71M57.651,45.553c-1.426,1.987-2.255,5.868-2.391,11.24a14.261,14.261,0,0,0,7.678,13.275,10.889,10.889,0,0,0,8.4.781c1.406-3.5,14.439-9.614,17.489-11.006-.89-2.622-5.535-15.166-13.607-18.148-8.568-3.168-16.847,3.27-17.574,3.858" transform="translate(129.609 95)" fill="#333"/>
      <path id="Trazado_42534" data-name="Trazado 42534" d="M97.229,126.167c-.234,0-.469-.01-.7-.024l-.795-.058-.156-.241c-.194-.3-19.391-30.125-29.453-46.877-10.269-17.1-6.544-21.717-6.377-21.9,3.4-5.943,19.116-11.3,19.785-11.522l.326-.112.251.238c18.341,17.2,27.3,43.281,31.609,55.818.981,2.856,1.756,5.118,2.333,6.367,1.555,3.372,2,5.827,1.321,7.3a1.974,1.974,0,0,1-.978,1.026l-11.543,8.2a9.741,9.741,0,0,1-5.62,1.79m-.842-1.192.224.017a8.57,8.57,0,0,0,5.569-1.555l11.757-8.32a.907.907,0,0,0,.418-.52c.265-.662.445-2.357-1.352-6.262-.6-1.3-1.386-3.586-2.381-6.476C106.37,89.47,97.534,63.753,79.573,46.747c-2.289.8-15.906,5.78-18.895,10.982-.092.122-3.27,4.486,6.432,20.644,9.57,15.934,27.418,43.712,29.276,46.6" transform="translate(141.242 108.843)" fill="#333"/>
      <path id="Trazado_42535" data-name="Trazado 42535" d="M88.9,88.308l-.869-1.223A18.142,18.142,0,0,0,74.02,79.54l-2.479-.092-1.936-5.559,1.246.594a6.425,6.425,0,0,0,6.483-.56l11.312-8.031.343.329c.217.211,5.287,5.175,5.495,11.964a10.832,10.832,0,0,1-5.135,9.879ZM72.369,78.324l1.695.065a19.288,19.288,0,0,1,14.9,8.028l.258.363a9.792,9.792,0,0,0,4.1-8.558c-.163-5.359-3.7-9.621-4.812-10.826L78,74.864a7.557,7.557,0,0,1-6.449,1.11Z" transform="translate(166.767 157.871)" fill="#333"/>
      <path id="Trazado_42536" data-name="Trazado 42536" d="M51.285,91.581l1.925,3.05s-.73,1.165,7.006,1.419c0,0,40.707,7.736,63.717,3.729a16.038,16.038,0,0,0,9.278-5.284l.3-.336,1.212-5.457-.754-5.118A15.15,15.15,0,0,0,123.22,71.192c-5.824-1.674-13.5-2.924-20.521-1.036-11.638,3.134-37.355,3.494-44.935,3.532a2.333,2.333,0,0,0-2.316,2.153" transform="translate(122.874 165.821)" fill="#fff"/>
      <path id="Trazado_42537" data-name="Trazado 42537" d="M108.713,102.985c-21.71,0-46.558-4.663-47.875-4.914-6.411-.2-7.406-1.049-7.824-1.83a1.271,1.271,0,0,1-.122-.363l-1.776-2.815a1.2,1.2,0,1,1,2.031-1.28l1.925,3.05a.856.856,0,0,1,.085.166c.462.18,1.892.56,5.946.7.591.1,40.944,7.668,63.476,3.742a14.873,14.873,0,0,0,8.575-4.893l.1-.105,1.1-4.941-.723-4.9a13.965,13.965,0,0,0-9.885-11.414c-5.23-1.5-12.915-2.9-19.88-1.029-11.767,3.168-37.6,3.535-45.24,3.572a1.131,1.131,0,0,0-1.127,1.053,1.123,1.123,0,0,1-1.3,1.1,1.206,1.206,0,0,1-1.1-1.3,3.524,3.524,0,0,1,3.511-3.253c7.566-.037,33.141-.4,44.629-3.491,7.491-2.014,15.648-.547,21.163,1.039A16.377,16.377,0,0,1,136,84.25l.754,5.118a1.249,1.249,0,0,1-.017.435l-1.209,5.457a1.265,1.265,0,0,1-.272.533l-.3.336a17.313,17.313,0,0,1-9.974,5.675,97.175,97.175,0,0,1-16.273,1.182M55.075,96.1v0m0,0v0Zm0,0Z" transform="translate(122.025 164.978)" fill="#333"/>
      <path id="Trazado_42538" data-name="Trazado 42538" d="M48.376,89.726c2.893,2.122,6.5,1.644,10.065.177,5.43-2.241,7.824-7.2,6.065-12.809-1.566-4.992-5.885-8.761-13.852-6.265" transform="translate(115.904 167.799)" fill="#fff"/>
      <path id="Trazado_42539" data-name="Trazado 42539" d="M53.786,93.2a8.678,8.678,0,0,1-5.27-1.661A1.2,1.2,0,0,1,49.931,89.6c2.18,1.6,5.087,1.6,8.9.034,4.877-2.014,6.938-6.357,5.376-11.339-1-3.179-3.939-8.109-12.344-5.481a1.191,1.191,0,0,1-1.508-.788,1.2,1.2,0,0,1,.788-1.5c7.485-2.35,13.234.289,15.36,7.057,1.936,6.181-.717,11.784-6.758,14.276a15.835,15.835,0,0,1-5.96,1.341" transform="translate(115.059 166.954)" fill="#333"/>
      <path id="Trazado_42540" data-name="Trazado 42540" d="M78.479,89.647s8.021-7.372.818-15.835c0,0-5.45-5.033-9.5-4.73,0,0-24.695,9.356-32.5,18.986a2.531,2.531,0,0,0,1.382,4.021c8.147,2.072,29.456,6.35,39.8-2.442" transform="translate(88.042 165.48)" fill="#fff"/>
      <path id="Trazado_42541" data-name="Trazado 42541" d="M60.41,97.018A90.124,90.124,0,0,1,39.23,94.1a3.748,3.748,0,0,1-2.645-2.465,3.659,3.659,0,0,1,.625-3.474c7.916-9.77,31.986-18.966,33-19.353a1.268,1.268,0,0,1,.336-.075c4.381-.326,9.811,4.5,10.405,5.05,7.967,9.335-.73,17.516-.818,17.6l-.034.031c-5.009,4.258-12.378,5.607-19.693,5.607m10.483-25.9c-2.2.852-24.644,9.7-31.82,18.552a1.253,1.253,0,0,0-.211,1.206,1.361,1.361,0,0,0,.958.9C48.175,93.9,68.662,97.945,78.527,89.6c.462-.438,6.965-6.805.7-14.161-1.29-1.172-5.478-4.425-8.334-4.32m8.432,19.377h0Z" transform="translate(87.196 164.633)" fill="#333"/>
      <path id="Trazado_42542" data-name="Trazado 42542" d="M82.008,144.7,81,128.226c-.306-4.455-.632-8.466-.883-9.981-.683-4.1-4.775-7.685-4.775-7.685l-.051.109a21.23,21.23,0,0,0,1.239-8.351c-.278-9.349-.1-14.348-9.454-14.348-3.508,0-12.4.584-16.83.8-5.24.258-6.381,7.7-6.381,13.546,0,4.564.893,7.96,2.418,10.487-.115-.17-.187-.282-.187-.282l-1.019,12.548a95.809,95.809,0,0,0,4.187,33.517l.849,3.674" transform="translate(105.106 210.77)" fill="none" stroke="#333" stroke-linecap="round" stroke-linejoin="round" stroke-width="0.707"/>
      <path id="Trazado_42543" data-name="Trazado 42543" d="M65.824,152.374s1.82-29.33,0-33.833a8.752,8.752,0,0,0-5.916-5.311l-.088-.014c2.795-.166,4.421-2.224,4.415-9.784-.01-9.352,1.066-14.011-8.283-14.011-3.508,0-8.721-1.273-13.152-1.053-5.243.258-9.284,7.909-9.284,13.753,0,6.045,1.127,8.568,3.216,9.529l-.044-.007c-1.508-.438-5.654,20.644-5.654,20.644" transform="translate(74.352 211.66)" fill="none" stroke="#333" stroke-linecap="round" stroke-linejoin="round" stroke-width="0.707"/>
      <path id="Trazado_42544" data-name="Trazado 42544" d="M121.973,197.574s-.547,7.61,1.352,11.916a4.057,4.057,0,0,0,2.523,2.231,14.3,14.3,0,0,0-1.538.187c-8.055,1.593-14.334,21.54-14.334,21.54-2.275,8.547-1.762,24.834-1.026,36.173.448,6.87,7.352,11.821,11.556,11.468h9.984l37.226-1.959c8.867-.326,14.171-5.3,13.55-11.2-.751-7.145-1.847-16.674-3.121-25.191a16.563,16.563,0,0,0,4.1.547s40.7,7.736,63.717,3.729a16.039,16.039,0,0,0,9.274-5.284l.3-.336,1.212-5.457-.754-5.118a15.3,15.3,0,0,0-1.569-4.785v0l.574.8a10.347,10.347,0,0,0,4.832-9.352c-.2-6.632-5.318-11.566-5.318-11.566l-10.921,7.756,10.921-7.756s2.564-.727-.591-7.573-11.386-40.982-33.81-62.006l-1.8.224s-4.758-15.543-14.12-19c-5.715-2.109-11.223-.153-14.653,1.691l.02-.608a14.993,14.993,0,0,0-8.238-10.619c-4.982-2.465-11.743-6.072-21.781-7.634l2.516.272c.594-1.681.316-5.848-.088-7.189a18.245,18.245,0,0,0-4.89-8.052l2.662-.486a4.955,4.955,0,0,0,4.055-5.2L160.513,30.54A24.4,24.4,0,0,0,131.8,8.157l-2.734.5A24.394,24.394,0,0,0,110.2,40.079l14.945,46.775a4.952,4.952,0,0,0,5.6,3.365l.272-.048a14.559,14.559,0,0,0-1.644,7.549,12.833,12.833,0,0,0,.829,3.739c-13.4,2.289-23.486,6.367-27.66,12.083a15.81,15.81,0,0,0-1.691,8.785s-1.039-1.3-2.958-3.28c0,0-9.767-6.187-18.572-1.491s-11.8,17.9-11.8,17.9C52.54,149.345,45.2,165.265,41.011,176.4c-2.462-15.19-8.561-30.974-8.561-30.974l-5.009-22.331a3.06,3.06,0,0,0-1.314-1.915l.078-.014a9.584,9.584,0,0,0-6.289-11.2,7.734,7.734,0,0,1,4.768,1.712s1.569-28.315-9.169-45.532a4.706,4.706,0,0,0-8.089.343c-4.2,7.807-9.9,22.59-5.464,39.922,0,0,.309,6.551,6.819,7.04L9,113.321A9.666,9.666,0,0,0,8.39,123.9l.261-.041c-.574.367-.907.618-.907.618L12.2,165s.672,21.156,2.771,29.4,6.544,7.943,6.544,7.943v-.054a16.266,16.266,0,0,0,5.647,11.346c7.08,5.9,15.166.36,15.166.36l.717-1.745,3.905,2.805,3.783-.251s19.435-29.813,29.7-46.694S87,146.917,87,146.917a7.749,7.749,0,0,0-.645-.927,3.03,3.03,0,0,1,.645.927s6.765,4.17,13.421-8.819c0,0,2,11.784,7.281,21.625l7.41,18.657,2.35,11.247s-.625,5.223,4.174,5.355Zm102.753,19.818c-11.638,3.134-37.355,3.494-44.935,3.528a2.3,2.3,0,0,0-2.184,1.667,8.682,8.682,0,0,0-6.259-3.27,18.38,18.38,0,0,0-10.677-7.41,3.762,3.762,0,0,0,3.715-3.111,51.624,51.624,0,0,0,.652-10.086v-4.323a7.116,7.116,0,0,0,5.926-6.072c.767-5.525,5.226-22.243,5.226-22.243s8.167-7.457,12.178-21.187A13.724,13.724,0,0,0,191.443,147c5.162,2.547,9.128.7,9.128.7.156-.795.574-.995,0,0,0,0-3.732,4.292,6.442,21.231s29.439,46.857,29.439,46.857l.509.037c.034,0,.064,0,.1,0l.336.968A32.949,32.949,0,0,0,224.726,217.392Z" transform="translate(0.847 18.585)" fill="none" stroke="#333" stroke-linecap="round" stroke-linejoin="round" stroke-width="0.707"/>
      <path id="Trazado_42545" data-name="Trazado 42545" d="M89.783,72.035a3.255,3.255,0,0,0,2.836-4.4c-.638-2.2-3.073-1.654-3.073-1.654m.238-.533a3.257,3.257,0,0,0,2.836-4.408c-.638-2.2-3.073-1.654-3.073-1.654s4.16-11.152,7.94-23.625,2.459-14.745,1.7-19.659S91.246.6,76.26.358s-22.817,10.636-24.141,18.2A27.668,27.668,0,0,0,53.443,32.5L63.651,59.382c.146.031.289.051.435.078-.258-.044-.435-.078-.435-.078s-3.97-.754-3.97,2.836S62.7,65.433,62.7,65.433s-3.022-.214-3.022,3.379S62.7,72.025,62.7,72.025s-3.022-.214-3.022,3.379S62.7,78.616,62.7,78.616l2.482.438s.863,8.636,10.707,8.636S87.372,79.4,87.372,79.4a7.725,7.725,0,0,1,2.411-.771,3.255,3.255,0,0,0,2.836-4.4c-.638-2.2-3.073-1.654-3.073-1.654m.238-7.125a3.257,3.257,0,0,0,2.836-4.408c-.638-2.2-3.073-1.654-3.073-1.654s4.16-11.152,7.94-23.625,2.459-14.745,1.7-19.659S91.246.6,76.26.358s-22.817,10.636-24.141,18.2A27.668,27.668,0,0,0,53.443,32.5L63.651,59.382c.146.031.289.051.435.078-.258-.044-.435-.078-.435-.078s-3.97-.754-3.97,2.836S62.7,65.433,62.7,65.433s-3.022-.214-3.022,3.379S62.7,72.025,62.7,72.025s-3.022-.214-3.022,3.379S62.7,78.616,62.7,78.616l2.482.438s.863,8.636,10.707,8.636S87.372,79.4,87.372,79.4a7.725,7.725,0,0,1,2.411-.771,3.255,3.255,0,0,0,2.836-4.4c-.638-2.2-3.073-1.654-3.073-1.654" transform="translate(123.986 0.848)" fill="#fff"/>
      <path id="Trazado_42546" data-name="Trazado 42546" d="M89.783,72.035a3.255,3.255,0,0,0,2.836-4.4c-.638-2.2-3.073-1.654-3.073-1.654m.238-.533a3.257,3.257,0,0,0,2.836-4.408c-.638-2.2-3.073-1.654-3.073-1.654s4.16-11.152,7.94-23.625,2.459-14.745,1.7-19.659S91.246.6,76.26.358s-22.817,10.636-24.141,18.2A27.668,27.668,0,0,0,53.443,32.5L63.651,59.382c.146.031.289.051.435.078-.258-.044-.435-.078-.435-.078s-3.97-.754-3.97,2.836S62.7,65.433,62.7,65.433s-3.022-.214-3.022,3.379S62.7,72.025,62.7,72.025s-3.022-.214-3.022,3.379S62.7,78.616,62.7,78.616l2.482.438s.863,8.636,10.707,8.636S87.372,79.4,87.372,79.4a7.725,7.725,0,0,1,2.411-.771,3.255,3.255,0,0,0,2.836-4.4c-.638-2.2-3.073-1.654-3.073-1.654m.238-7.125a3.257,3.257,0,0,0,2.836-4.408c-.638-2.2-3.073-1.654-3.073-1.654s4.16-11.152,7.94-23.625,2.459-14.745,1.7-19.659S91.246.6,76.26.358s-22.817,10.636-24.141,18.2A27.668,27.668,0,0,0,53.443,32.5L63.651,59.382c.146.031.289.051.435.078-.258-.044-.435-.078-.435-.078s-3.97-.754-3.97,2.836S62.7,65.433,62.7,65.433s-3.022-.214-3.022,3.379S62.7,72.025,62.7,72.025s-3.022-.214-3.022,3.379S62.7,78.616,62.7,78.616l2.482.438s.863,8.636,10.707,8.636S87.372,79.4,87.372,79.4a7.725,7.725,0,0,1,2.411-.771,3.255,3.255,0,0,0,2.836-4.4c-.638-2.2-3.073-1.654-3.073-1.654" transform="translate(123.986 0.848)" fill="none" stroke="#333" stroke-linecap="round" stroke-linejoin="round" stroke-width="0.707"/>
      <path id="Trazado_42547" data-name="Trazado 42547" d="M63.65,59.385,53.442,32.5a27.654,27.654,0,0,1-1.321-13.944C53.442,10.994,61.273.12,76.259.358S98.431,11.184,99.188,16.1s2.078,7.182-1.7,19.659-7.94,23.629-7.94,23.629A66.292,66.292,0,0,1,63.65,59.385Z" transform="translate(123.987 0.848)" fill="none" stroke="#333" stroke-width="0.354"/>
      <path id="Trazado_42548" data-name="Trazado 42548" d="M76.814,25.153a31.279,31.279,0,0,1-11.573.115l-8.133-1.436s-3.022.377-3.022-3.213,3.966-2.836,3.966-2.836A85.442,85.442,0,0,0,70.3,19.037a68.7,68.7,0,0,0,13.652-1.253s2.435-.543,3.073,1.654a3.255,3.255,0,0,1-2.836,4.4C83.052,23.944,79.792,24.562,76.814,25.153Z" transform="translate(129.582 42.449)" fill="none" stroke="#333" stroke-width="0.354"/>
      <path id="Trazado_42549" data-name="Trazado 42549" d="M76.814,27.094a31.279,31.279,0,0,1-11.573.115l-8.133-1.436s-3.022.377-3.022-3.213,3.966-2.836,3.966-2.836A85.442,85.442,0,0,0,70.3,20.978a68.7,68.7,0,0,0,13.652-1.253s2.435-.543,3.073,1.654a3.255,3.255,0,0,1-2.836,4.4C83.052,25.885,79.792,26.5,76.814,27.094Z" transform="translate(129.582 47.099)" fill="none" stroke="#333" stroke-width="0.354"/>
      <path id="Trazado_42550" data-name="Trazado 42550" d="M76.814,29.036a31.279,31.279,0,0,1-11.573.115l-8.133-1.436s-3.022.377-3.022-3.213,3.966-2.836,3.966-2.836A85.443,85.443,0,0,0,70.3,22.92a68.7,68.7,0,0,0,13.652-1.253s2.435-.543,3.073,1.654a3.255,3.255,0,0,1-2.836,4.4C83.052,27.827,79.792,28.445,76.814,29.036Z" transform="translate(129.582 51.752)" fill="none" stroke="#333" stroke-width="0.354"/>
      <path id="Trazado_42551" data-name="Trazado 42551" d="M55.706,23.53s.863,8.636,10.707,8.636,11.478-8.3,11.478-8.3-7.872,1.151-9.852,1.141S55.706,23.53,55.706,23.53Z" transform="translate(133.466 56.375)" fill="none" stroke="#333" stroke-width="0.354"/>
      <path id="Trazado_42552" data-name="Trazado 42552" d="M63.65,59.385,53.442,32.5a27.654,27.654,0,0,1-1.321-13.944C53.442,10.994,61.273.12,76.259.358S98.431,11.184,99.188,16.1s2.078,7.182-1.7,19.659-7.94,23.629-7.94,23.629a66.292,66.292,0,0,1-25.9,0" transform="translate(123.987 0.848)" fill="#ffce00"/>
      <path id="Trazado_42553" data-name="Trazado 42553" d="M63.65,59.385,53.442,32.5a27.654,27.654,0,0,1-1.321-13.944C53.442,10.994,61.273.12,76.259.358S98.431,11.184,99.188,16.1s2.078,7.182-1.7,19.659-7.94,23.629-7.94,23.629A66.292,66.292,0,0,1,63.65,59.385Z" transform="translate(123.987 0.848)" fill="none" stroke="#333" stroke-linecap="round" stroke-linejoin="round" stroke-width="0.707"/>
      <path id="Trazado_42554" data-name="Trazado 42554" d="M76.814,25.153a31.279,31.279,0,0,1-11.573.115l-8.133-1.436s-3.022.377-3.022-3.213,3.966-2.836,3.966-2.836A85.442,85.442,0,0,0,70.3,19.037a68.7,68.7,0,0,0,13.652-1.253s2.435-.543,3.073,1.654a3.255,3.255,0,0,1-2.836,4.4C83.052,23.944,79.792,24.562,76.814,25.153Z" transform="translate(129.582 42.449)" fill="none" stroke="#333" stroke-linecap="round" stroke-linejoin="round" stroke-width="0.707"/>
      <path id="Trazado_42555" data-name="Trazado 42555" d="M76.814,27.094a31.279,31.279,0,0,1-11.573.115l-8.133-1.436s-3.022.377-3.022-3.213,3.966-2.836,3.966-2.836A85.442,85.442,0,0,0,70.3,20.978a68.7,68.7,0,0,0,13.652-1.253s2.435-.543,3.073,1.654a3.255,3.255,0,0,1-2.836,4.4C83.052,25.885,79.792,26.5,76.814,27.094Z" transform="translate(129.582 47.099)" fill="none" stroke="#333" stroke-linecap="round" stroke-linejoin="round" stroke-width="0.707"/>
      <path id="Trazado_42556" data-name="Trazado 42556" d="M76.814,29.036a31.279,31.279,0,0,1-11.573.115l-8.133-1.436s-3.022.377-3.022-3.213,3.966-2.836,3.966-2.836A85.443,85.443,0,0,0,70.3,22.92a68.7,68.7,0,0,0,13.652-1.253s2.435-.543,3.073,1.654a3.255,3.255,0,0,1-2.836,4.4C83.052,27.827,79.792,28.445,76.814,29.036Z" transform="translate(129.582 51.752)" fill="none" stroke="#333" stroke-linecap="round" stroke-linejoin="round" stroke-width="0.707"/>
      <path id="Trazado_42557" data-name="Trazado 42557" d="M55.706,23.53s.863,8.636,10.707,8.636,11.478-8.3,11.478-8.3-7.872,1.151-9.852,1.141S55.706,23.53,55.706,23.53Z" transform="translate(133.466 56.375)" fill="none" stroke="#333" stroke-linecap="round" stroke-linejoin="round" stroke-width="0.707"/>
      <line id="Línea_7" data-name="Línea 7" x1="0.594" y2="16.212" transform="translate(120.354 311.174)" fill="none" stroke="#333" stroke-linecap="round" stroke-linejoin="round" stroke-width="1.691"/>
      <line id="Línea_8" data-name="Línea 8" x2="0.798" y2="16.205" transform="translate(168.163 313.228)" fill="none" stroke="#333" stroke-linecap="round" stroke-linejoin="round" stroke-width="1.691"/>
    </g>
  </g>
</svg>
