<svg id="Grupo_43" data-name="Grupo 43" xmlns="http://www.w3.org/2000/svg" xmlns:xlink="http://www.w3.org/1999/xlink" width="82.875" height="83.914" viewBox="0 0 82.875 83.914">
  <defs>
    <clipPath id="clip-path">
      <rect id="Rectángulo_25" data-name="Rectángulo 25" width="82.875" height="83.914" fill="none"/>
    </clipPath>
  </defs>
  <g id="Grupo_42" data-name="Grupo 42" clip-path="url(#clip-path)">
    <path id="Trazado_190" data-name="Trazado 190" d="M4.271,83.914c6.21-1.087,12.219-2.137,18.229-3.191,1.132-.2,2.261-.418,3.394-.608a3.419,3.419,0,0,1,1.746.179,40.379,40.379,0,0,0,17.1,2.271A40.414,40.414,0,0,0,73.656,67.224c7.452-9.207,10.539-19.886,8.7-31.534-2.689-17.057-12.5-28.685-28.992-33.8A40.645,40.645,0,0,0,3.16,26.05c-5.8,14.744-3.546,28.664,6.208,41.236a2.907,2.907,0,0,1,.5,3.426C8.059,74.724,6.389,78.8,4.67,82.848c-.123.289-.222.589-.4,1.066M41.447,48.538a6.331,6.331,0,0,1,.012-12.662,6.331,6.331,0,1,1-.012,12.662m18.293,0a6.331,6.331,0,1,1,.067-12.662,6.331,6.331,0,0,1-.067,12.662M16.9,42.193a6.278,6.278,0,0,1,6.352-6.319A6.332,6.332,0,1,1,16.9,42.193" transform="translate(0 0)" fill="#dedede"/>
    <path id="Trazado_191" data-name="Trazado 191" d="M98.571,104a3.369,3.369,0,0,0,3.355,3.326,3.322,3.322,0,1,0,0-6.644A3.358,3.358,0,0,0,98.571,104" transform="translate(-60.453 -61.795)" fill="#ec619f"/>
    <path id="Trazado_192" data-name="Trazado 192" d="M51.165,103.974a3.305,3.305,0,0,0,3.3,3.351,3.322,3.322,0,1,0,.053-6.644,3.3,3.3,0,0,0-3.351,3.294" transform="translate(5.261 -61.795)" fill="#fff"/>
    <path id="Trazado_193" data-name="Trazado 193" d="M152.581,104.009a3.272,3.272,0,0,0-3.3-3.328,3.323,3.323,0,1,0-.015,6.645,3.28,3.28,0,0,0,3.317-3.317" transform="translate(-126.065 -61.795)" fill="#ffce00"/>
  </g>
</svg>
