<svg id="Grupo_56" data-name="Grupo 56" xmlns="http://www.w3.org/2000/svg" xmlns:xlink="http://www.w3.org/1999/xlink" width="297.707" height="192.455" viewBox="0 0 297.707 192.455">
  <defs>
    <clipPath id="clip-path">
      <rect id="Rectángulo_35" data-name="Rectángulo 35" width="297.707" height="192.455" fill="none"/>
    </clipPath>
  </defs>
  <g id="Grupo_55" data-name="Grupo 55" clip-path="url(#clip-path)">
    <path id="Trazado_202" data-name="Trazado 202" d="M84.874,136.489a4.424,4.424,0,1,1-4.424-4.424,4.424,4.424,0,0,1,4.424,4.424" transform="translate(-46.975 -81.599)" fill="#354093"/>
    <path id="Trazado_203" data-name="Trazado 203" d="M243.66,135.44a4.424,4.424,0,1,1-4.424-4.424,4.424,4.424,0,0,1,4.424,4.424" transform="translate(-145.084 -80.951)" fill="#ec619f"/>
    <path id="Trazado_204" data-name="Trazado 204" d="M252.156,83.788a4.424,4.424,0,1,1-4.424-4.424,4.424,4.424,0,0,1,4.424,4.424" transform="translate(-150.332 -49.037)" fill="#ffab00"/>
    <path id="Trazado_205" data-name="Trazado 205" d="M218.32,250.979a4.424,4.424,0,1,1-4.424-4.424,4.424,4.424,0,0,1,4.424,4.424" transform="translate(-129.426 -152.339)" fill="#354093"/>
    <path id="Trazado_206" data-name="Trazado 206" d="M288.486,221.709a4.424,4.424,0,1,1-4.424-4.424,4.424,4.424,0,0,1,4.424,4.424" transform="translate(-172.78 -134.254)" fill="#ec619f"/>
    <path id="Trazado_207" data-name="Trazado 207" d="M338.079,236.41a4.424,4.424,0,1,1-4.424-4.424,4.424,4.424,0,0,1,4.424,4.424" transform="translate(-203.422 -143.337)" fill="#ffab00"/>
    <path id="Trazado_208" data-name="Trazado 208" d="M374.081,176a4.424,4.424,0,1,1-4.424-4.424A4.424,4.424,0,0,1,374.081,176" transform="translate(-225.666 -106.009)" fill="#354093"/>
    <path id="Trazado_209" data-name="Trazado 209" d="M444.522,156.6h-3.511v10.6h-4.937V156.6h-3.445v-4.3h11.894Z" transform="translate(-267.308 -94.101)" fill="#354093"/>
    <path id="Trazado_210" data-name="Trazado 210" d="M472.115,152.3v5.223h4.038V152.3h4.938v14.9h-4.938v-5.245h-4.038V167.2H467.2V152.3Z" transform="translate(-288.668 -94.101)" fill="#354093"/>
    <path id="Trazado_211" data-name="Trazado 211" d="M508.948,152.3h10.578v4.3h-5.64v1.36h3.379v3.424h-3.379v1.493h5.706V167.2H508.948Z" transform="translate(-314.463 -94.101)" fill="#354093"/>
    <path id="Trazado_212" data-name="Trazado 212" d="M436.728,203.583h5.179l4.959,14.9h-6.1l-.46-1.953h-3.358l-.417,1.953h-4.477Zm.7,9.524h2.436l-1.295-4.5Z" transform="translate(-266.952 -125.788)" fill="#354093"/>
    <path id="Trazado_213" data-name="Trazado 213" d="M483.623,211.593c.921.2,1.777.7,2.172,2.48l.549,2.3c.109.483.329.79.7.79v1.317h-3.884c-1.01,0-1.8-.242-2.107-2l-.373-2.172c-.132-.724-.351-1.054-1.316-1.054H478.2v5.223h-4.916v-14.9h8.449a4.071,4.071,0,0,1,4.367,4.28,3.45,3.45,0,0,1-2.479,3.643Zm-5.421-1.91h1.953a1.01,1.01,0,1,0-.022-2.019H478.2Z" transform="translate(-292.429 -125.788)" fill="#354093"/>
    <path id="Trazado_214" data-name="Trazado 214" d="M522.107,207.885H518.6v10.6h-4.938v-10.6h-3.445v-4.3h11.894Z" transform="translate(-315.245 -125.788)" fill="#354093"/>
    <rect id="Rectángulo_32" data-name="Rectángulo 32" width="4.916" height="14.901" transform="translate(208.179 77.795)" fill="#354093"/>
    <path id="Trazado_215" data-name="Trazado 215" d="M568.479,214.136c0-.373-.373-.637-1.492-.988l-1.514-.46c-2.765-.834-3.819-2.765-3.819-4.631,0-3.248,2.436-5.047,6.035-5.047a13.831,13.831,0,0,1,5.749,1.295l-1.031,3.687a6.657,6.657,0,0,0-3.928-1.58c-.79,0-1.185.329-1.185.746s.373.527,1.581.922l1.558.527c2.853.966,3.8,2.634,3.8,4.608,0,3.533-2.612,5.135-6.1,5.135a11.916,11.916,0,0,1-6.518-1.734l1.163-3.621a7.847,7.847,0,0,0,4.564,1.953c.571,0,1.141-.2,1.141-.812" transform="translate(-347.001 -125.434)" fill="#354093"/>
    <path id="Trazado_216" data-name="Trazado 216" d="M608.189,207.885h-3.511v10.6h-4.938v-10.6H596.3v-4.3h11.894Z" transform="translate(-368.432 -125.788)" fill="#354093"/>
    <rect id="Rectángulo_33" data-name="Rectángulo 33" width="4.916" height="14.901" transform="translate(241.074 77.795)" fill="#354093"/>
    <path id="Trazado_217" data-name="Trazado 217" d="M660.585,205.006l-2.085,4.016a4.026,4.026,0,0,0-2.984-1.712c-1.931,0-2.787,1.339-2.787,3.357,0,1.975.878,3.38,2.853,3.38a3.944,3.944,0,0,0,2.918-1.712l2.085,4.016a8.715,8.715,0,0,1-5.793,2c-4.784,0-7.33-3.4-7.33-7.681s2.546-7.659,7.33-7.659a8.672,8.672,0,0,1,5.793,2" transform="translate(-400.047 -125.433)" fill="#354093"/>
    <path id="Trazado_218" data-name="Trazado 218" d="M446.038,256.291l-2.085,4.016a4.026,4.026,0,0,0-2.984-1.712c-1.931,0-2.787,1.339-2.787,3.357,0,1.975.878,3.38,2.853,3.38a3.944,3.944,0,0,0,2.918-1.712l2.085,4.016a8.714,8.714,0,0,1-5.793,2c-4.784,0-7.33-3.4-7.33-7.681s2.546-7.659,7.33-7.659a8.672,8.672,0,0,1,5.793,2" transform="translate(-267.485 -157.12)" fill="#ec619f"/>
    <path id="Trazado_219" data-name="Trazado 219" d="M468.29,262.062c0-4.345,2.524-7.768,7.769-7.768s7.68,3.423,7.68,7.768c0,4.586-2.9,7.571-7.68,7.571-4.74,0-7.769-2.985-7.769-7.571m7.7,3.27c1.295,0,2.457-.615,2.457-3.358,0-2.765-1.163-3.379-2.457-3.379-1.185,0-2.436.614-2.436,3.379,0,2.743,1.251,3.358,2.436,3.358" transform="translate(-289.342 -157.12)" fill="#ec619f"/>
    <path id="Trazado_220" data-name="Trazado 220" d="M514.6,254.868h5.179l4.959,14.9h-6.1l-.461-1.953h-3.358l-.417,1.953h-4.477Zm.7,9.524h2.436l-1.295-4.5Z" transform="translate(-315.067 -157.475)" fill="#ec619f"/>
    <path id="Trazado_221" data-name="Trazado 221" d="M562.616,256.291l-2.085,4.016a4.026,4.026,0,0,0-2.985-1.712c-1.931,0-2.787,1.339-2.787,3.357,0,1.975.878,3.38,2.853,3.38a3.944,3.944,0,0,0,2.918-1.712l2.085,4.016a8.715,8.715,0,0,1-5.793,2c-4.784,0-7.33-3.4-7.33-7.681s2.546-7.659,7.33-7.659a8.672,8.672,0,0,1,5.793,2" transform="translate(-339.515 -157.12)" fill="#ec619f"/>
    <path id="Trazado_222" data-name="Trazado 222" d="M591.45,254.868v5.223h4.038v-5.223h4.937v14.9h-4.937v-5.245H591.45v5.245h-4.916v-14.9Z" transform="translate(-362.401 -157.475)" fill="#ec619f"/>
    <rect id="Rectángulo_34" data-name="Rectángulo 34" width="4.916" height="14.901" transform="translate(240.087 97.393)" fill="#ec619f"/>
    <path id="Trazado_223" data-name="Trazado 223" d="M652.536,254.868l3.819,6.649v-6.649h3.95v14.9h-5.267l-4.587-8.01v8.01h-3.906v-14.9Z" transform="translate(-399.48 -157.475)" fill="#ec619f"/>
    <path id="Trazado_224" data-name="Trazado 224" d="M691.494,262.172c0,2.436,1.339,3.314,3.029,3.314a3.066,3.066,0,0,0,1.514-.373v-1.054h-2.545V260.57h7.241v6.913a11.569,11.569,0,0,1-6.825,2.151c-4.938,0-7.681-3.094-7.681-7.462,0-4.411,2.875-7.878,7.9-7.878a11.843,11.843,0,0,1,5.925,1.514l-1.624,4.17a5.855,5.855,0,0,0-3.775-1.383c-2.084,0-3.16,1.514-3.16,3.577" transform="translate(-423.998 -157.12)" fill="#ec619f"/>
    <path id="Trazado_225" data-name="Trazado 225" d="M444.522,310.453h-3.511v10.6h-4.937v-10.6h-3.445v-4.3h11.894Z" transform="translate(-267.308 -189.162)" fill="#ffab00"/>
    <path id="Trazado_226" data-name="Trazado 226" d="M465.534,313.346c0-4.345,2.524-7.768,7.769-7.768s7.68,3.423,7.68,7.768c0,4.586-2.9,7.571-7.68,7.571-4.74,0-7.769-2.985-7.769-7.571m7.7,3.27c1.3,0,2.458-.614,2.458-3.358,0-2.765-1.163-3.379-2.458-3.379-1.185,0-2.436.614-2.436,3.379,0,2.743,1.251,3.358,2.436,3.358" transform="translate(-287.639 -188.807)" fill="#ffab00"/>
    <path id="Trazado_227" data-name="Trazado 227" d="M508.03,313.346c0-4.345,2.523-7.768,7.769-7.768s7.68,3.423,7.68,7.768c0,4.586-2.9,7.571-7.68,7.571-4.74,0-7.769-2.985-7.769-7.571m7.7,3.27c1.295,0,2.458-.614,2.458-3.358,0-2.765-1.163-3.379-2.458-3.379-1.185,0-2.436.614-2.436,3.379,0,2.743,1.251,3.358,2.436,3.358" transform="translate(-313.896 -188.807)" fill="#ffab00"/>
    <path id="Trazado_228" data-name="Trazado 228" d="M552.191,306.152h4.916V316.73h5.026v4.323h-9.942Z" transform="translate(-341.182 -189.162)" fill="#ffab00"/>
    <path id="Trazado_229" data-name="Trazado 229" d="M581.594,306.152h7.834c3.072,0,4.981,1.668,4.85,4.126a3.357,3.357,0,0,1-2.107,3.182v.088a3.14,3.14,0,0,1,2.239,3.313c0,2.546-1.339,4.192-4.937,4.192h-7.878Zm4.916,5.925h1.975a.9.9,0,0,0,.988-1.032.9.9,0,0,0-.988-.966H586.51Zm0,5.157h1.975a.989.989,0,0,0,0-1.975H586.51Z" transform="translate(-359.349 -189.162)" fill="#ffab00"/>
    <path id="Trazado_230" data-name="Trazado 230" d="M617.486,313.346c0-4.345,2.523-7.768,7.769-7.768s7.68,3.423,7.68,7.768c0,4.586-2.9,7.571-7.68,7.571-4.74,0-7.769-2.985-7.769-7.571m7.7,3.27c1.3,0,2.458-.614,2.458-3.358,0-2.765-1.163-3.379-2.458-3.379-1.185,0-2.436.614-2.436,3.379,0,2.743,1.251,3.358,2.436,3.358" transform="translate(-381.525 -188.807)" fill="#ffab00"/>
    <path id="Trazado_231" data-name="Trazado 231" d="M662.817,314.009l-4.213-7.857h6.869l1.426,3.4,1.777-3.4h4.96l-4.169,7.045,4.169,7.856h-6.869l-1.383-3.4-1.777,3.4h-5Z" transform="translate(-406.931 -189.162)" fill="#ffab00"/>
    <path id="Trazado_232" data-name="Trazado 232" d="M290.451,315.13a1.489,1.489,0,0,1-1.489-1.489V297.424a3.786,3.786,0,0,1,1.877-3.263l.04-.023,16.074-9.36a.8.8,0,0,0,.381-.68V262.615a1.489,1.489,0,1,1,2.978,0V284.1a3.787,3.787,0,0,1-1.877,3.263l-.04.023-16.074,9.36a.8.8,0,0,0-.381.679V313.64a1.489,1.489,0,0,1-1.489,1.489" transform="translate(-178.541 -161.342)" fill="#ffab00"/>
    <path id="Trazado_233" data-name="Trazado 233" d="M251.956,299.327a1.489,1.489,0,0,1-1.489-1.489v-19.17a3.793,3.793,0,0,1,1.835-3.238l.063-.036,11.3-6.664a1.986,1.986,0,0,0,.965-1.7V248.685a1.489,1.489,0,1,1,2.978,0V267.03a4.974,4.974,0,0,1-2.466,4.286l-.047.026L253.81,278a.8.8,0,0,0-.364.669v19.17a1.489,1.489,0,0,1-1.489,1.489" transform="translate(-154.756 -152.735)" fill="#ec619f"/>
    <path id="Trazado_234" data-name="Trazado 234" d="M218.116,341.892h0a1.489,1.489,0,0,1-1.485-1.493l.169-60.39a1.489,1.489,0,0,1,1.489-1.485h0a1.489,1.489,0,0,1,1.485,1.493l-.168,60.39a1.489,1.489,0,0,1-1.489,1.485" transform="translate(-133.847 -172.091)" fill="#354093"/>
    <path id="Trazado_235" data-name="Trazado 235" d="M139.254,354.408a4.764,4.764,0,0,1-2.368-.636l-22.4-13.2a1.489,1.489,0,1,1,1.478-2.586l22.4,13.2a1.793,1.793,0,0,0,2.683-1.557V315.665a1.489,1.489,0,0,1,2.978,0v33.964a4.789,4.789,0,0,1-4.771,4.779" transform="translate(-70.276 -194.12)" fill="#ffab00"/>
    <path id="Trazado_236" data-name="Trazado 236" d="M71.532,291.067a4.889,4.889,0,0,1-2.659-.825l-4.091-2.492a4.781,4.781,0,0,1-2.159-4.005V247.511a1.489,1.489,0,1,1,2.978,0v36.234a1.81,1.81,0,0,0,.8,1.5l4.086,2.489a1.4,1.4,0,0,0,2.341-1.263V260.365a1.489,1.489,0,0,1,2.978,0v26.111a4.516,4.516,0,0,1-2.282,4.092,4.174,4.174,0,0,1-1.991.5" transform="translate(-38.692 -152.009)" fill="#354093"/>
    <path id="Trazado_237" data-name="Trazado 237" d="M126.167,282.031a1.489,1.489,0,0,1-1.489-1.489V269.049a2.488,2.488,0,0,0-1.237-2.146l-13.81-7.977a3.79,3.79,0,0,1-1.888-3.27l.015-37.456c.005-.819.671.405,1.489.405,0,0,.006-1.884.01-1.884a1.489,1.489,0,0,1,1.479,1.5l-.015,37.445a.794.794,0,0,0,.4.679l13.809,7.977a5.479,5.479,0,0,1,2.728,4.727v11.493a1.489,1.489,0,0,1-1.489,1.489" transform="translate(-66.571 -133.905)" fill="#ec619f"/>
    <path id="Trazado_238" data-name="Trazado 238" d="M282.626,142.318a7.558,7.558,0,0,1-3.629-.932l-17.2-9.873a1.489,1.489,0,1,1,1.48-2.584l17.172,9.858a4.557,4.557,0,0,0,4.4-.025l16.23-9.35a1.793,1.793,0,0,0,0-3.141l-15.4-8.854a1.489,1.489,0,1,1,1.435-2.61l15.4,8.854a4.772,4.772,0,0,1,.008,8.358l-16.231,9.35a7.56,7.56,0,0,1-3.66.949" transform="translate(-161.294 -70.821)" fill="#ec619f"/>
    <path id="Trazado_239" data-name="Trazado 239" d="M234.337,94.318a1.479,1.479,0,0,1-.709-.181l-43.749-25.5a3.13,3.13,0,0,1,.2-5.6l6.649-3.618a1.489,1.489,0,0,1,1.228,2.714l-6.649,3.617a.152.152,0,0,0-.01.272l43.749,25.5a1.489,1.489,0,0,1-.712,2.8" transform="translate(-116.309 -36.629)" fill="#ffab00"/>
    <path id="Trazado_240" data-name="Trazado 240" d="M111.809,219.649a1.482,1.482,0,0,1-.735-.2L67.2,193.878a1.489,1.489,0,0,1,1.506-2.569l43.879,25.566a1.489,1.489,0,0,1-.772,2.774" transform="translate(-41.063 -118.077)" fill="#ec619f"/>
    <path id="Trazado_241" data-name="Trazado 241" d="M133.658,116.164a3.773,3.773,0,0,1-1.8-.459l-.041-.023-14.689-8.615a4.6,4.6,0,0,0-4.137-.108l-8.35,4.835a1.489,1.489,0,1,1-1.254-2.7l8.341-4.831a7.589,7.589,0,0,1,6.843.2l.041.023,14.685,8.613a.8.8,0,0,0,.691.019l18.791-10.929a1.489,1.489,0,0,1,2.019.6c.392.723.571,1.315-.152,1.706l-19.334,11.292a3.779,3.779,0,0,1-1.65.379" transform="translate(-63.344 -63.028)" fill="#ffab00"/>
    <path id="Trazado_242" data-name="Trazado 242" d="M152.308,184.463a1.49,1.49,0,0,1-.7-2.8l18.01-10.424a1.794,1.794,0,0,0,0-3.112l-18.24-10.648a.84.84,0,0,0-.756.028L133.67,167.48a7.584,7.584,0,0,1-7.056-.283l-23.494-13.449a1.489,1.489,0,0,1,1.482-2.583l23.5,13.451a4.579,4.579,0,0,0,4.232.2l16.944-9.975a3.8,3.8,0,0,1,3.557.036L171.1,165.541a4.771,4.771,0,0,1-.059,8.31l-18.031,10.436a1.486,1.486,0,0,1-.7.176" transform="translate(-63.252 -93.278)" fill="#354093"/>
    <path id="Trazado_243" data-name="Trazado 243" d="M320.194,270.645a1.489,1.489,0,0,1-.751-2.776l19.127-11.141a1.8,1.8,0,0,0,.891-1.559l-.008-52.8a1.489,1.489,0,0,1,2.978-.017l.007,52.8a4.784,4.784,0,0,1-2.37,4.149l-19.127,11.141a1.484,1.484,0,0,1-.748.2" transform="translate(-196.917 -124.113)" fill="#354093"/>
    <path id="Trazado_244" data-name="Trazado 244" d="M63.73,221.145a4.424,4.424,0,1,1-4.424-4.424,4.424,4.424,0,0,1,4.424,4.424" transform="translate(-33.91 -133.905)" fill="#354093"/>
    <path id="Trazado_245" data-name="Trazado 245" d="M186.353,289.3a4.424,4.424,0,1,1-4.424-4.424,4.424,4.424,0,0,1,4.424,4.424" transform="translate(-109.675 -176.015)" fill="#ffab00"/>
    <path id="Trazado_246" data-name="Trazado 246" d="M108.95,187.8a4.424,4.424,0,1,1-4.424-4.424,4.424,4.424,0,0,1,4.424,4.424" transform="translate(-61.851 -113.304)" fill="#ec619f"/>
  </g>
</svg>
